mtllib Kestrel.mtl
s off
v -0.06500 -0.07000 -0.46000
v 0.06500 -0.07000 -0.46000
v 0.06500 0.07000 -0.46000
v -0.06500 0.07000 -0.46000
v -0.06500 -0.07000 0.26000
v 0.06500 -0.07000 0.26000
v 0.06500 0.07000 0.26000
v -0.06500 0.07000 0.26000
v -0.05000 -0.28500 -0.01000
v 0.05000 -0.28500 -0.01000
v 0.05000 -0.03500 -0.01000
v -0.05000 -0.03500 -0.01000
v -0.05000 -0.28500 0.13000
v 0.05000 -0.28500 0.13000
v 0.05000 -0.03500 0.13000
v -0.05000 -0.03500 0.13000
v -0.04500 -0.32000 -0.19000
v 0.04500 -0.32000 -0.19000
v 0.04500 -0.04000 -0.19000
v -0.04500 -0.04000 -0.19000
v -0.04500 -0.32000 -0.07000
v 0.04500 -0.32000 -0.07000
v 0.04500 -0.04000 -0.07000
v -0.04500 -0.04000 -0.07000
v -0.03250 -0.01750 -0.57800
v 0.03250 -0.01750 -0.57800
v 0.03250 0.04750 -0.57800
v -0.03250 0.04750 -0.57800
v -0.03250 -0.01750 -0.35800
v 0.03250 -0.01750 -0.35800
v 0.03250 0.04750 -0.35800
v -0.03250 0.04750 -0.35800
v -0.04250 -0.03000 -0.62800
v 0.04250 -0.03000 -0.62800
v 0.04250 0.06000 -0.62800
v -0.04250 0.06000 -0.62800
v -0.04250 -0.03000 -0.54800
v 0.04250 -0.03000 -0.54800
v 0.04250 0.06000 -0.54800
v -0.04250 0.06000 -0.54800
v -0.07000 0.07300 -0.29750
v 0.07000 0.07300 -0.29750
v 0.07000 0.09100 -0.29750
v -0.07000 0.09100 -0.29750
v -0.07000 0.07300 -0.28250
v 0.07000 0.07300 -0.28250
v 0.07000 0.09100 -0.28250
v -0.07000 0.09100 -0.28250
v -0.07000 0.07300 -0.25250
v 0.07000 0.07300 -0.25250
v 0.07000 0.09100 -0.25250
v -0.07000 0.09100 -0.25250
v -0.07000 0.07300 -0.23750
v 0.07000 0.07300 -0.23750
v 0.07000 0.09100 -0.23750
v -0.07000 0.09100 -0.23750
v -0.07000 0.07300 -0.20750
v 0.07000 0.07300 -0.20750
v 0.07000 0.09100 -0.20750
v -0.07000 0.09100 -0.20750
v -0.07000 0.07300 -0.19250
v 0.07000 0.07300 -0.19250
v 0.07000 0.09100 -0.19250
v -0.07000 0.09100 -0.19250
v -0.07000 0.07300 -0.16250
v 0.07000 0.07300 -0.16250
v 0.07000 0.09100 -0.16250
v -0.07000 0.09100 -0.16250
v -0.07000 0.07300 -0.14750
v 0.07000 0.07300 -0.14750
v 0.07000 0.09100 -0.14750
v -0.07000 0.09100 -0.14750
v -0.07000 0.07300 -0.11750
v 0.07000 0.07300 -0.11750
v 0.07000 0.09100 -0.11750
v -0.07000 0.09100 -0.11750
v -0.07000 0.07300 -0.10250
v 0.07000 0.07300 -0.10250
v 0.07000 0.09100 -0.10250
v -0.07000 0.09100 -0.10250
v -0.07000 0.07300 -0.07250
v 0.07000 0.07300 -0.07250
v 0.07000 0.09100 -0.07250
v -0.07000 0.09100 -0.07250
v -0.07000 0.07300 -0.05750
v 0.07000 0.07300 -0.05750
v 0.07000 0.09100 -0.05750
v -0.07000 0.09100 -0.05750
v -0.07000 0.07300 -0.02750
v 0.07000 0.07300 -0.02750
v 0.07000 0.09100 -0.02750
v -0.07000 0.09100 -0.02750
v -0.07000 0.07300 -0.01250
v 0.07000 0.07300 -0.01250
v 0.07000 0.09100 -0.01250
v -0.07000 0.09100 -0.01250
v -0.07000 0.07300 0.01750
v 0.07000 0.07300 0.01750
v 0.07000 0.09100 0.01750
v -0.07000 0.09100 0.01750
v -0.07000 0.07300 0.03250
v 0.07000 0.07300 0.03250
v 0.07000 0.09100 0.03250
v -0.07000 0.09100 0.03250
v -0.03250 0.07250 -0.25750
v 0.03250 0.07250 -0.25750
v 0.03250 0.14750 -0.25750
v -0.03250 0.14750 -0.25750
v -0.03250 0.07250 -0.22250
v 0.03250 0.07250 -0.22250
v 0.03250 0.14750 -0.22250
v -0.03250 0.14750 -0.22250
v -0.03250 0.07250 0.09250
v 0.03250 0.07250 0.09250
v 0.03250 0.14750 0.09250
v -0.03250 0.14750 0.09250
v -0.03250 0.07250 0.12750
v 0.03250 0.07250 0.12750
v 0.03250 0.14750 0.12750
v -0.03250 0.14750 0.12750
v -0.01300 0.11850 0.08400
v 0.01300 0.11850 0.08400
v 0.01300 0.14150 0.08400
v -0.01300 0.14150 0.08400
v -0.01300 0.11850 0.12600
v 0.01300 0.11850 0.12600
v 0.01300 0.14150 0.12600
v -0.01300 0.14150 0.12600
v -0.04250 -0.06500 0.23000
v 0.04250 -0.06500 0.23000
v 0.04250 0.03500 0.23000
v -0.04250 0.03500 0.23000
v -0.04250 -0.06500 0.53000
v 0.04250 -0.06500 0.53000
v 0.04250 0.03500 0.53000
v -0.04250 0.03500 0.53000
v -0.07000 -0.19500 0.49000
v 0.07000 -0.19500 0.49000
v 0.07000 0.05500 0.49000
v -0.07000 0.05500 0.49000
v -0.07000 -0.19500 0.57000
v 0.07000 -0.19500 0.57000
v 0.07000 0.05500 0.57000
v -0.07000 0.05500 0.57000
g teal
usemtl teal
f 121 124 123 122
f 125 126 127 128
f 121 125 128 124
f 122 123 127 126
f 124 128 127 123
f 121 122 126 125
g steel
usemtl steel
f 17 20 19 18
f 21 22 23 24
f 17 21 24 20
f 18 19 23 22
f 20 24 23 19
f 17 18 22 21
f 25 28 27 26
f 29 30 31 32
f 25 29 32 28
f 26 27 31 30
f 28 32 31 27
f 25 26 30 29
f 41 44 43 42
f 45 46 47 48
f 41 45 48 44
f 42 43 47 46
f 44 48 47 43
f 41 42 46 45
f 49 52 51 50
f 53 54 55 56
f 49 53 56 52
f 50 51 55 54
f 52 56 55 51
f 49 50 54 53
f 57 60 59 58
f 61 62 63 64
f 57 61 64 60
f 58 59 63 62
f 60 64 63 59
f 57 58 62 61
f 65 68 67 66
f 69 70 71 72
f 65 69 72 68
f 66 67 71 70
f 68 72 71 67
f 65 66 70 69
f 73 76 75 74
f 77 78 79 80
f 73 77 80 76
f 74 75 79 78
f 76 80 79 75
f 73 74 78 77
f 81 84 83 82
f 85 86 87 88
f 81 85 88 84
f 82 83 87 86
f 84 88 87 83
f 81 82 86 85
f 89 92 91 90
f 93 94 95 96
f 89 93 96 92
f 90 91 95 94
f 92 96 95 91
f 89 90 94 93
f 97 100 99 98
f 101 102 103 104
f 97 101 104 100
f 98 99 103 102
f 100 104 103 99
f 97 98 102 101
f 129 132 131 130
f 133 134 135 136
f 129 133 136 132
f 130 131 135 134
f 132 136 135 131
f 129 130 134 133
g rubber
usemtl rubber
f 9 12 11 10
f 13 14 15 16
f 9 13 16 12
f 10 11 15 14
f 12 16 15 11
f 9 10 14 13
f 137 140 139 138
f 141 142 143 144
f 137 141 144 140
f 138 139 143 142
f 140 144 143 139
f 137 138 142 141
g gun
usemtl gun
f 1 4 3 2
f 5 6 7 8
f 1 5 8 4
f 2 3 7 6
f 4 8 7 3
f 1 2 6 5
f 33 36 35 34
f 37 38 39 40
f 33 37 40 36
f 34 35 39 38
f 36 40 39 35
f 33 34 38 37
f 105 108 107 106
f 109 110 111 112
f 105 109 112 108
f 106 107 111 110
f 108 112 111 107
f 105 106 110 109
f 113 116 115 114
f 117 118 119 120
f 113 117 120 116
f 114 115 119 118
f 116 120 119 115
f 113 114 118 117
