mtllib Target.mtl
s off
v -0.37500 -1.10000 -0.10000
v 0.37500 -1.10000 -0.10000
v 0.37500 1.10000 -0.10000
v -0.37500 1.10000 -0.10000
v -0.37500 -1.10000 0.10000
v 0.37500 -1.10000 0.10000
v 0.37500 1.10000 0.10000
v -0.37500 1.10000 0.10000
v -0.25000 0.05500 -0.13750
v 0.25000 0.05500 -0.13750
v 0.25000 0.70500 -0.13750
v -0.25000 0.70500 -0.13750
v -0.25000 0.05500 -0.10250
v 0.25000 0.05500 -0.10250
v 0.25000 0.70500 -0.10250
v -0.25000 0.70500 -0.10250
v -0.06000 -0.26000 -0.14000
v 0.06000 -0.26000 -0.14000
v 0.06000 -0.14000 -0.14000
v -0.06000 -0.14000 -0.14000
v -0.06000 -0.26000 -0.10000
v 0.06000 -0.26000 -0.10000
v 0.06000 -0.14000 -0.10000
v -0.06000 -0.14000 -0.10000
g steel
usemtl steel
f 1 4 3 2
f 5 6 7 8
f 1 5 8 4
f 2 3 7 6
f 4 8 7 3
f 1 2 6 5
g yellow
usemtl yellow
f 9 12 11 10
f 13 14 15 16
f 9 13 16 12
f 10 11 15 14
f 12 16 15 11
f 9 10 14 13
g white
usemtl white
f 17 20 19 18
f 21 22 23 24
f 17 21 24 20
f 18 19 23 22
f 20 24 23 19
f 17 18 22 21
