# BREAKBULK BreachS8: original detailed hard-surface first-person weapon
mtllib BreachS8.mtl
s off
v -0.07400 -0.12000 -0.16000
v 0.07400 -0.12000 -0.16000
v 0.11000 -0.08400 -0.16000
v 0.11000 0.08400 -0.16000
v 0.07400 0.12000 -0.16000
v -0.07400 0.12000 -0.16000
v -0.11000 0.08400 -0.16000
v -0.11000 -0.08400 -0.16000
v -0.07400 -0.12000 0.34000
v 0.07400 -0.12000 0.34000
v 0.11000 -0.08400 0.34000
v 0.11000 0.08400 0.34000
v 0.07400 0.12000 0.34000
v -0.07400 0.12000 0.34000
v -0.11000 0.08400 0.34000
v -0.11000 -0.08400 0.34000
v 0.05700 0.03000 -0.20000
v 0.05700 0.03000 -1.18000
v 0.05356 0.04950 -0.20000
v 0.05356 0.04950 -1.18000
v 0.04366 0.06664 -0.20000
v 0.04366 0.06664 -1.18000
v 0.02850 0.07936 -0.20000
v 0.02850 0.07936 -1.18000
v 0.00990 0.08613 -0.20000
v 0.00990 0.08613 -1.18000
v -0.00990 0.08613 -0.20000
v -0.00990 0.08613 -1.18000
v -0.02850 0.07936 -0.20000
v -0.02850 0.07936 -1.18000
v -0.04366 0.06664 -0.20000
v -0.04366 0.06664 -1.18000
v -0.05356 0.04950 -0.20000
v -0.05356 0.04950 -1.18000
v -0.05700 0.03000 -0.20000
v -0.05700 0.03000 -1.18000
v -0.05356 0.01050 -0.20000
v -0.05356 0.01050 -1.18000
v -0.04366 -0.00664 -0.20000
v -0.04366 -0.00664 -1.18000
v -0.02850 -0.01936 -0.20000
v -0.02850 -0.01936 -1.18000
v -0.00990 -0.02613 -0.20000
v -0.00990 -0.02613 -1.18000
v 0.00990 -0.02613 -0.20000
v 0.00990 -0.02613 -1.18000
v 0.02850 -0.01936 -0.20000
v 0.02850 -0.01936 -1.18000
v 0.04366 -0.00664 -0.20000
v 0.04366 -0.00664 -1.18000
v 0.05356 0.01050 -0.20000
v 0.05356 0.01050 -1.18000
v 0.05500 -0.08200 -0.20000
v 0.05500 -0.08200 -1.05000
v 0.05081 -0.06095 -0.20000
v 0.05081 -0.06095 -1.05000
v 0.03889 -0.04311 -0.20000
v 0.03889 -0.04311 -1.05000
v 0.02105 -0.03119 -0.20000
v 0.02105 -0.03119 -1.05000
v 0.00000 -0.02700 -0.20000
v 0.00000 -0.02700 -1.05000
v -0.02105 -0.03119 -0.20000
v -0.02105 -0.03119 -1.05000
v -0.03889 -0.04311 -0.20000
v -0.03889 -0.04311 -1.05000
v -0.05081 -0.06095 -0.20000
v -0.05081 -0.06095 -1.05000
v -0.05500 -0.08200 -0.20000
v -0.05500 -0.08200 -1.05000
v -0.05081 -0.10305 -0.20000
v -0.05081 -0.10305 -1.05000
v -0.03889 -0.12089 -0.20000
v -0.03889 -0.12089 -1.05000
v -0.02105 -0.13281 -0.20000
v -0.02105 -0.13281 -1.05000
v -0.00000 -0.13700 -0.20000
v -0.00000 -0.13700 -1.05000
v 0.02105 -0.13281 -0.20000
v 0.02105 -0.13281 -1.05000
v 0.03889 -0.12089 -0.20000
v 0.03889 -0.12089 -1.05000
v 0.05081 -0.10305 -0.20000
v 0.05081 -0.10305 -1.05000
v 0.07700 0.03000 -1.18000
v 0.07700 0.03000 -1.23000
v 0.07114 0.05947 -1.18000
v 0.07114 0.05947 -1.23000
v 0.05445 0.08445 -1.18000
v 0.05445 0.08445 -1.23000
v 0.02947 0.10114 -1.18000
v 0.02947 0.10114 -1.23000
v 0.00000 0.10700 -1.18000
v 0.00000 0.10700 -1.23000
v -0.02947 0.10114 -1.18000
v -0.02947 0.10114 -1.23000
v -0.05445 0.08445 -1.18000
v -0.05445 0.08445 -1.23000
v -0.07114 0.05947 -1.18000
v -0.07114 0.05947 -1.23000
v -0.07700 0.03000 -1.18000
v -0.07700 0.03000 -1.23000
v -0.07114 0.00053 -1.18000
v -0.07114 0.00053 -1.23000
v -0.05445 -0.02445 -1.18000
v -0.05445 -0.02445 -1.23000
v -0.02947 -0.04114 -1.18000
v -0.02947 -0.04114 -1.23000
v -0.00000 -0.04700 -1.18000
v -0.00000 -0.04700 -1.23000
v 0.02947 -0.04114 -1.18000
v 0.02947 -0.04114 -1.23000
v 0.05445 -0.02445 -1.18000
v 0.05445 -0.02445 -1.23000
v 0.07114 0.00053 -1.18000
v 0.07114 0.00053 -1.23000
v -0.04200 0.09400 -1.18800
v 0.04200 0.09400 -1.18800
v 0.04500 0.09700 -1.18800
v 0.04500 0.10700 -1.18800
v 0.04200 0.11000 -1.18800
v -0.04200 0.11000 -1.18800
v -0.04500 0.10700 -1.18800
v -0.04500 0.09700 -1.18800
v -0.04200 0.09400 -1.17200
v 0.04200 0.09400 -1.17200
v 0.04500 0.09700 -1.17200
v 0.04500 0.10700 -1.17200
v 0.04200 0.11000 -1.17200
v -0.04200 0.11000 -1.17200
v -0.04500 0.10700 -1.17200
v -0.04500 0.09700 -1.17200
v -0.04200 0.09400 -1.13800
v 0.04200 0.09400 -1.13800
v 0.04500 0.09700 -1.13800
v 0.04500 0.10700 -1.13800
v 0.04200 0.11000 -1.13800
v -0.04200 0.11000 -1.13800
v -0.04500 0.10700 -1.13800
v -0.04500 0.09700 -1.13800
v -0.04200 0.09400 -1.12200
v 0.04200 0.09400 -1.12200
v 0.04500 0.09700 -1.12200
v 0.04500 0.10700 -1.12200
v 0.04200 0.11000 -1.12200
v -0.04200 0.11000 -1.12200
v -0.04500 0.10700 -1.12200
v -0.04500 0.09700 -1.12200
v -0.04200 0.09400 -1.08800
v 0.04200 0.09400 -1.08800
v 0.04500 0.09700 -1.08800
v 0.04500 0.10700 -1.08800
v 0.04200 0.11000 -1.08800
v -0.04200 0.11000 -1.08800
v -0.04500 0.10700 -1.08800
v -0.04500 0.09700 -1.08800
v -0.04200 0.09400 -1.07200
v 0.04200 0.09400 -1.07200
v 0.04500 0.09700 -1.07200
v 0.04500 0.10700 -1.07200
v 0.04200 0.11000 -1.07200
v -0.04200 0.11000 -1.07200
v -0.04500 0.10700 -1.07200
v -0.04500 0.09700 -1.07200
v -0.08000 -0.13000 -0.81000
v 0.08000 -0.13000 -0.81000
v 0.10500 -0.10500 -0.81000
v 0.10500 0.04500 -0.81000
v 0.08000 0.07000 -0.81000
v -0.08000 0.07000 -0.81000
v -0.10500 0.04500 -0.81000
v -0.10500 -0.10500 -0.81000
v -0.08000 -0.13000 -0.37000
v 0.08000 -0.13000 -0.37000
v 0.10500 -0.10500 -0.37000
v 0.10500 0.04500 -0.37000
v 0.08000 0.07000 -0.37000
v -0.08000 0.07000 -0.37000
v -0.10500 0.04500 -0.37000
v -0.10500 -0.10500 -0.37000
v -0.10500 -0.15000 -0.79050
v 0.10500 -0.15000 -0.79050
v 0.11000 -0.14500 -0.79050
v 0.11000 -0.13300 -0.79050
v 0.10500 -0.12800 -0.79050
v -0.10500 -0.12800 -0.79050
v -0.11000 -0.13300 -0.79050
v -0.11000 -0.14500 -0.79050
v -0.10500 -0.15000 -0.76950
v 0.10500 -0.15000 -0.76950
v 0.11000 -0.14500 -0.76950
v 0.11000 -0.13300 -0.76950
v 0.10500 -0.12800 -0.76950
v -0.10500 -0.12800 -0.76950
v -0.11000 -0.13300 -0.76950
v -0.11000 -0.14500 -0.76950
v -0.10500 -0.15000 -0.74750
v 0.10500 -0.15000 -0.74750
v 0.11000 -0.14500 -0.74750
v 0.11000 -0.13300 -0.74750
v 0.10500 -0.12800 -0.74750
v -0.10500 -0.12800 -0.74750
v -0.11000 -0.13300 -0.74750
v -0.11000 -0.14500 -0.74750
v -0.10500 -0.15000 -0.72650
v 0.10500 -0.15000 -0.72650
v 0.11000 -0.14500 -0.72650
v 0.11000 -0.13300 -0.72650
v 0.10500 -0.12800 -0.72650
v -0.10500 -0.12800 -0.72650
v -0.11000 -0.13300 -0.72650
v -0.11000 -0.14500 -0.72650
v -0.10500 -0.15000 -0.70450
v 0.10500 -0.15000 -0.70450
v 0.11000 -0.14500 -0.70450
v 0.11000 -0.13300 -0.70450
v 0.10500 -0.12800 -0.70450
v -0.10500 -0.12800 -0.70450
v -0.11000 -0.13300 -0.70450
v -0.11000 -0.14500 -0.70450
v -0.10500 -0.15000 -0.68350
v 0.10500 -0.15000 -0.68350
v 0.11000 -0.14500 -0.68350
v 0.11000 -0.13300 -0.68350
v 0.10500 -0.12800 -0.68350
v -0.10500 -0.12800 -0.68350
v -0.11000 -0.13300 -0.68350
v -0.11000 -0.14500 -0.68350
v -0.10500 -0.15000 -0.66150
v 0.10500 -0.15000 -0.66150
v 0.11000 -0.14500 -0.66150
v 0.11000 -0.13300 -0.66150
v 0.10500 -0.12800 -0.66150
v -0.10500 -0.12800 -0.66150
v -0.11000 -0.13300 -0.66150
v -0.11000 -0.14500 -0.66150
v -0.10500 -0.15000 -0.64050
v 0.10500 -0.15000 -0.64050
v 0.11000 -0.14500 -0.64050
v 0.11000 -0.13300 -0.64050
v 0.10500 -0.12800 -0.64050
v -0.10500 -0.12800 -0.64050
v -0.11000 -0.13300 -0.64050
v -0.11000 -0.14500 -0.64050
v -0.10500 -0.15000 -0.61850
v 0.10500 -0.15000 -0.61850
v 0.11000 -0.14500 -0.61850
v 0.11000 -0.13300 -0.61850
v 0.10500 -0.12800 -0.61850
v -0.10500 -0.12800 -0.61850
v -0.11000 -0.13300 -0.61850
v -0.11000 -0.14500 -0.61850
v -0.10500 -0.15000 -0.59750
v 0.10500 -0.15000 -0.59750
v 0.11000 -0.14500 -0.59750
v 0.11000 -0.13300 -0.59750
v 0.10500 -0.12800 -0.59750
v -0.10500 -0.12800 -0.59750
v -0.11000 -0.13300 -0.59750
v -0.11000 -0.14500 -0.59750
v -0.10500 -0.15000 -0.57550
v 0.10500 -0.15000 -0.57550
v 0.11000 -0.14500 -0.57550
v 0.11000 -0.13300 -0.57550
v 0.10500 -0.12800 -0.57550
v -0.10500 -0.12800 -0.57550
v -0.11000 -0.13300 -0.57550
v -0.11000 -0.14500 -0.57550
v -0.10500 -0.15000 -0.55450
v 0.10500 -0.15000 -0.55450
v 0.11000 -0.14500 -0.55450
v 0.11000 -0.13300 -0.55450
v 0.10500 -0.12800 -0.55450
v -0.10500 -0.12800 -0.55450
v -0.11000 -0.13300 -0.55450
v -0.11000 -0.14500 -0.55450
v -0.10500 -0.15000 -0.53250
v 0.10500 -0.15000 -0.53250
v 0.11000 -0.14500 -0.53250
v 0.11000 -0.13300 -0.53250
v 0.10500 -0.12800 -0.53250
v -0.10500 -0.12800 -0.53250
v -0.11000 -0.13300 -0.53250
v -0.11000 -0.14500 -0.53250
v -0.10500 -0.15000 -0.51150
v 0.10500 -0.15000 -0.51150
v 0.11000 -0.14500 -0.51150
v 0.11000 -0.13300 -0.51150
v 0.10500 -0.12800 -0.51150
v -0.10500 -0.12800 -0.51150
v -0.11000 -0.13300 -0.51150
v -0.11000 -0.14500 -0.51150
v -0.10500 -0.15000 -0.48950
v 0.10500 -0.15000 -0.48950
v 0.11000 -0.14500 -0.48950
v 0.11000 -0.13300 -0.48950
v 0.10500 -0.12800 -0.48950
v -0.10500 -0.12800 -0.48950
v -0.11000 -0.13300 -0.48950
v -0.11000 -0.14500 -0.48950
v -0.10500 -0.15000 -0.46850
v 0.10500 -0.15000 -0.46850
v 0.11000 -0.14500 -0.46850
v 0.11000 -0.13300 -0.46850
v 0.10500 -0.12800 -0.46850
v -0.10500 -0.12800 -0.46850
v -0.11000 -0.13300 -0.46850
v -0.11000 -0.14500 -0.46850
v -0.10500 -0.15000 -0.44650
v 0.10500 -0.15000 -0.44650
v 0.11000 -0.14500 -0.44650
v 0.11000 -0.13300 -0.44650
v 0.10500 -0.12800 -0.44650
v -0.10500 -0.12800 -0.44650
v -0.11000 -0.13300 -0.44650
v -0.11000 -0.14500 -0.44650
v -0.10500 -0.15000 -0.42550
v 0.10500 -0.15000 -0.42550
v 0.11000 -0.14500 -0.42550
v 0.11000 -0.13300 -0.42550
v 0.10500 -0.12800 -0.42550
v -0.10500 -0.12800 -0.42550
v -0.11000 -0.13300 -0.42550
v -0.11000 -0.14500 -0.42550
v -0.10500 -0.15000 -0.40350
v 0.10500 -0.15000 -0.40350
v 0.11000 -0.14500 -0.40350
v 0.11000 -0.13300 -0.40350
v 0.10500 -0.12800 -0.40350
v -0.10500 -0.12800 -0.40350
v -0.11000 -0.13300 -0.40350
v -0.11000 -0.14500 -0.40350
v -0.10500 -0.15000 -0.38250
v 0.10500 -0.15000 -0.38250
v 0.11000 -0.14500 -0.38250
v 0.11000 -0.13300 -0.38250
v 0.10500 -0.12800 -0.38250
v -0.10500 -0.12800 -0.38250
v -0.11000 -0.13300 -0.38250
v -0.11000 -0.14500 -0.38250
v -0.05972 0.08100 -0.84000
v 0.05972 0.08100 -0.84000
v 0.06500 0.08628 -0.84000
v 0.06500 0.09772 -0.84000
v 0.05972 0.10300 -0.84000
v -0.05972 0.10300 -0.84000
v -0.06500 0.09772 -0.84000
v -0.06500 0.08628 -0.84000
v -0.05972 0.08100 -0.28000
v 0.05972 0.08100 -0.28000
v 0.06500 0.08628 -0.28000
v 0.06500 0.09772 -0.28000
v 0.05972 0.10300 -0.28000
v -0.05972 0.10300 -0.28000
v -0.06500 0.09772 -0.28000
v -0.06500 0.08628 -0.28000
v 0.11610 -0.00400 0.01500
v 0.12390 -0.00400 0.01500
v 0.12750 -0.00040 0.01500
v 0.12750 0.06440 0.01500
v 0.12390 0.06800 0.01500
v 0.11610 0.06800 0.01500
v 0.11250 0.06440 0.01500
v 0.11250 -0.00040 0.01500
v 0.11610 -0.00400 0.20500
v 0.12390 -0.00400 0.20500
v 0.12750 -0.00040 0.20500
v 0.12750 0.06440 0.20500
v 0.12390 0.06800 0.20500
v 0.11610 0.06800 0.20500
v 0.11250 0.06440 0.20500
v 0.11250 -0.00040 0.20500
v -0.12390 -0.00400 0.01500
v -0.11610 -0.00400 0.01500
v -0.11250 -0.00040 0.01500
v -0.11250 0.06440 0.01500
v -0.11610 0.06800 0.01500
v -0.12390 0.06800 0.01500
v -0.12750 0.06440 0.01500
v -0.12750 -0.00040 0.01500
v -0.12390 -0.00400 0.20500
v -0.11610 -0.00400 0.20500
v -0.11250 -0.00040 0.20500
v -0.11250 0.06440 0.20500
v -0.11610 0.06800 0.20500
v -0.12390 0.06800 0.20500
v -0.12750 0.06440 0.20500
v -0.12750 -0.00040 0.20500
v 0.11762 -0.01250 0.12000
v 0.12438 -0.01250 0.12000
v 0.12750 -0.00938 0.12000
v 0.12750 0.04938 0.12000
v 0.12438 0.05250 0.12000
v 0.11762 0.05250 0.12000
v 0.11450 0.04938 0.12000
v 0.11450 -0.00938 0.12000
v 0.11762 -0.01250 0.24000
v 0.12438 -0.01250 0.24000
v 0.12750 -0.00938 0.24000
v 0.12750 0.04938 0.24000
v 0.12438 0.05250 0.24000
v 0.11762 0.05250 0.24000
v 0.11450 0.04938 0.24000
v 0.11450 -0.00938 0.24000
v 0.09322 -0.02300 0.01250
v 0.09478 -0.02300 0.01250
v 0.09550 -0.02228 0.01250
v 0.09550 -0.01772 0.01250
v 0.09478 -0.01700 0.01250
v 0.09322 -0.01700 0.01250
v 0.09250 -0.01772 0.01250
v 0.09250 -0.02228 0.01250
v 0.09322 -0.02300 0.06750
v 0.09478 -0.02300 0.06750
v 0.09550 -0.02228 0.06750
v 0.09550 -0.01772 0.06750
v 0.09478 -0.01700 0.06750
v 0.09322 -0.01700 0.06750
v 0.09250 -0.01772 0.06750
v 0.09250 -0.02228 0.06750
v 0.09322 -0.00500 0.02250
v 0.09478 -0.00500 0.02250
v 0.09550 -0.00428 0.02250
v 0.09550 0.00028 0.02250
v 0.09478 0.00100 0.02250
v 0.09322 0.00100 0.02250
v 0.09250 0.00028 0.02250
v 0.09250 -0.00428 0.02250
v 0.09322 -0.00500 0.05750
v 0.09478 -0.00500 0.05750
v 0.09550 -0.00428 0.05750
v 0.09550 0.00028 0.05750
v 0.09478 0.00100 0.05750
v 0.09322 0.00100 0.05750
v 0.09250 0.00028 0.05750
v 0.09250 -0.00428 0.05750
v 0.09322 0.01300 0.01250
v 0.09478 0.01300 0.01250
v 0.09550 0.01372 0.01250
v 0.09550 0.01828 0.01250
v 0.09478 0.01900 0.01250
v 0.09322 0.01900 0.01250
v 0.09250 0.01828 0.01250
v 0.09250 0.01372 0.01250
v 0.09322 0.01300 0.06750
v 0.09478 0.01300 0.06750
v 0.09550 0.01372 0.06750
v 0.09550 0.01828 0.06750
v 0.09478 0.01900 0.06750
v 0.09322 0.01900 0.06750
v 0.09250 0.01828 0.06750
v 0.09250 0.01372 0.06750
v 0.09322 0.03100 0.02250
v 0.09478 0.03100 0.02250
v 0.09550 0.03172 0.02250
v 0.09550 0.03628 0.02250
v 0.09478 0.03700 0.02250
v 0.09322 0.03700 0.02250
v 0.09250 0.03628 0.02250
v 0.09250 0.03172 0.02250
v 0.09322 0.03100 0.05750
v 0.09478 0.03100 0.05750
v 0.09550 0.03172 0.05750
v 0.09550 0.03628 0.05750
v 0.09478 0.03700 0.05750
v 0.09322 0.03700 0.05750
v 0.09250 0.03628 0.05750
v 0.09250 0.03172 0.05750
v -0.02770 -0.16500 0.01500
v 0.02770 -0.16500 0.01500
v 0.03250 -0.16020 0.01500
v 0.03250 -0.14980 0.01500
v 0.02770 -0.14500 0.01500
v -0.02770 -0.14500 0.01500
v -0.03250 -0.14980 0.01500
v -0.03250 -0.16020 0.01500
v -0.02770 -0.16500 0.18500
v 0.02770 -0.16500 0.18500
v 0.03250 -0.16020 0.18500
v 0.03250 -0.14980 0.18500
v 0.02770 -0.14500 0.18500
v -0.02770 -0.14500 0.18500
v -0.03250 -0.14980 0.18500
v -0.03250 -0.16020 0.18500
v -0.00700 -0.24500 0.12000
v 0.00700 -0.24500 0.12000
v 0.01100 -0.24100 0.12000
v 0.01100 -0.17900 0.12000
v 0.00700 -0.17500 0.12000
v -0.00700 -0.17500 0.12000
v -0.01100 -0.17900 0.12000
v -0.01100 -0.24100 0.12000
v -0.00700 -0.24500 0.14000
v 0.00700 -0.24500 0.14000
v 0.01100 -0.24100 0.14000
v 0.01100 -0.17900 0.14000
v 0.00700 -0.17500 0.14000
v -0.00700 -0.17500 0.14000
v -0.01100 -0.17900 0.14000
v -0.01100 -0.24100 0.14000
v -0.02340 -0.45958 0.29450
v 0.02340 -0.45958 0.29450
v 0.04500 -0.43837 0.29042
v 0.04500 -0.18619 0.24192
v 0.02340 -0.16498 0.23784
v -0.02340 -0.16498 0.23784
v -0.04500 -0.18619 0.24192
v -0.04500 -0.43837 0.29042
v -0.02340 -0.43502 0.42216
v 0.02340 -0.43502 0.42216
v 0.04500 -0.41381 0.41808
v 0.04500 -0.16163 0.36958
v 0.02340 -0.14042 0.36550
v -0.02340 -0.14042 0.36550
v -0.04500 -0.16163 0.36958
v -0.04500 -0.41381 0.41808
v 0.04644 -0.41400 0.28000
v 0.04956 -0.41400 0.28000
v 0.05100 -0.41256 0.28000
v 0.05100 -0.40744 0.28000
v 0.04956 -0.40600 0.28000
v 0.04644 -0.40600 0.28000
v 0.04500 -0.40744 0.28000
v 0.04500 -0.41256 0.28000
v 0.04644 -0.41400 0.38000
v 0.04956 -0.41400 0.38000
v 0.05100 -0.41256 0.38000
v 0.05100 -0.40744 0.38000
v 0.04956 -0.40600 0.38000
v 0.04644 -0.40600 0.38000
v 0.04500 -0.40744 0.38000
v 0.04500 -0.41256 0.38000
v 0.04644 -0.38800 0.28000
v 0.04956 -0.38800 0.28000
v 0.05100 -0.38656 0.28000
v 0.05100 -0.38144 0.28000
v 0.04956 -0.38000 0.28000
v 0.04644 -0.38000 0.28000
v 0.04500 -0.38144 0.28000
v 0.04500 -0.38656 0.28000
v 0.04644 -0.38800 0.38000
v 0.04956 -0.38800 0.38000
v 0.05100 -0.38656 0.38000
v 0.05100 -0.38144 0.38000
v 0.04956 -0.38000 0.38000
v 0.04644 -0.38000 0.38000
v 0.04500 -0.38144 0.38000
v 0.04500 -0.38656 0.38000
v 0.04644 -0.36200 0.28000
v 0.04956 -0.36200 0.28000
v 0.05100 -0.36056 0.28000
v 0.05100 -0.35544 0.28000
v 0.04956 -0.35400 0.28000
v 0.04644 -0.35400 0.28000
v 0.04500 -0.35544 0.28000
v 0.04500 -0.36056 0.28000
v 0.04644 -0.36200 0.38000
v 0.04956 -0.36200 0.38000
v 0.05100 -0.36056 0.38000
v 0.05100 -0.35544 0.38000
v 0.04956 -0.35400 0.38000
v 0.04644 -0.35400 0.38000
v 0.04500 -0.35544 0.38000
v 0.04500 -0.36056 0.38000
v 0.04644 -0.33600 0.28000
v 0.04956 -0.33600 0.28000
v 0.05100 -0.33456 0.28000
v 0.05100 -0.32944 0.28000
v 0.04956 -0.32800 0.28000
v 0.04644 -0.32800 0.28000
v 0.04500 -0.32944 0.28000
v 0.04500 -0.33456 0.28000
v 0.04644 -0.33600 0.38000
v 0.04956 -0.33600 0.38000
v 0.05100 -0.33456 0.38000
v 0.05100 -0.32944 0.38000
v 0.04956 -0.32800 0.38000
v 0.04644 -0.32800 0.38000
v 0.04500 -0.32944 0.38000
v 0.04500 -0.33456 0.38000
v 0.04644 -0.31000 0.28000
v 0.04956 -0.31000 0.28000
v 0.05100 -0.30856 0.28000
v 0.05100 -0.30344 0.28000
v 0.04956 -0.30200 0.28000
v 0.04644 -0.30200 0.28000
v 0.04500 -0.30344 0.28000
v 0.04500 -0.30856 0.28000
v 0.04644 -0.31000 0.38000
v 0.04956 -0.31000 0.38000
v 0.05100 -0.30856 0.38000
v 0.05100 -0.30344 0.38000
v 0.04956 -0.30200 0.38000
v 0.04644 -0.30200 0.38000
v 0.04500 -0.30344 0.38000
v 0.04500 -0.30856 0.38000
v 0.04644 -0.28400 0.28000
v 0.04956 -0.28400 0.28000
v 0.05100 -0.28256 0.28000
v 0.05100 -0.27744 0.28000
v 0.04956 -0.27600 0.28000
v 0.04644 -0.27600 0.28000
v 0.04500 -0.27744 0.28000
v 0.04500 -0.28256 0.28000
v 0.04644 -0.28400 0.38000
v 0.04956 -0.28400 0.38000
v 0.05100 -0.28256 0.38000
v 0.05100 -0.27744 0.38000
v 0.04956 -0.27600 0.38000
v 0.04644 -0.27600 0.38000
v 0.04500 -0.27744 0.38000
v 0.04500 -0.28256 0.38000
v 0.04644 -0.25800 0.28000
v 0.04956 -0.25800 0.28000
v 0.05100 -0.25656 0.28000
v 0.05100 -0.25144 0.28000
v 0.04956 -0.25000 0.28000
v 0.04644 -0.25000 0.28000
v 0.04500 -0.25144 0.28000
v 0.04500 -0.25656 0.28000
v 0.04644 -0.25800 0.38000
v 0.04956 -0.25800 0.38000
v 0.05100 -0.25656 0.38000
v 0.05100 -0.25144 0.38000
v 0.04956 -0.25000 0.38000
v 0.04644 -0.25000 0.38000
v 0.04500 -0.25144 0.38000
v 0.04500 -0.25656 0.38000
v 0.04644 -0.23200 0.28000
v 0.04956 -0.23200 0.28000
v 0.05100 -0.23056 0.28000
v 0.05100 -0.22544 0.28000
v 0.04956 -0.22400 0.28000
v 0.04644 -0.22400 0.28000
v 0.04500 -0.22544 0.28000
v 0.04500 -0.23056 0.28000
v 0.04644 -0.23200 0.38000
v 0.04956 -0.23200 0.38000
v 0.05100 -0.23056 0.38000
v 0.05100 -0.22544 0.38000
v 0.04956 -0.22400 0.38000
v 0.04644 -0.22400 0.38000
v 0.04500 -0.22544 0.38000
v 0.04500 -0.23056 0.38000
v 0.04644 -0.20600 0.28000
v 0.04956 -0.20600 0.28000
v 0.05100 -0.20456 0.28000
v 0.05100 -0.19944 0.28000
v 0.04956 -0.19800 0.28000
v 0.04644 -0.19800 0.28000
v 0.04500 -0.19944 0.28000
v 0.04500 -0.20456 0.28000
v 0.04644 -0.20600 0.38000
v 0.04956 -0.20600 0.38000
v 0.05100 -0.20456 0.38000
v 0.05100 -0.19944 0.38000
v 0.04956 -0.19800 0.38000
v 0.04644 -0.19800 0.38000
v 0.04500 -0.19944 0.38000
v 0.04500 -0.20456 0.38000
v -0.04972 -0.46600 0.27400
v 0.04972 -0.46600 0.27400
v 0.05500 -0.46072 0.27400
v 0.05500 -0.44928 0.27400
v 0.04972 -0.44400 0.27400
v -0.04972 -0.44400 0.27400
v -0.05500 -0.44928 0.27400
v -0.05500 -0.46072 0.27400
v -0.04972 -0.46600 0.41400
v 0.04972 -0.46600 0.41400
v 0.05500 -0.46072 0.41400
v 0.05500 -0.44928 0.41400
v 0.04972 -0.44400 0.41400
v -0.04972 -0.44400 0.41400
v -0.05500 -0.44928 0.41400
v -0.05500 -0.46072 0.41400
v -0.05500 0.01000 0.33000
v -0.05500 0.01000 0.66000
v -0.04955 0.03386 0.33000
v -0.04955 0.03386 0.66000
v -0.03429 0.05300 0.33000
v -0.03429 0.05300 0.66000
v -0.01224 0.06362 0.33000
v -0.01224 0.06362 0.66000
v 0.01224 0.06362 0.33000
v 0.01224 0.06362 0.66000
v 0.03429 0.05300 0.33000
v 0.03429 0.05300 0.66000
v 0.04955 0.03386 0.33000
v 0.04955 0.03386 0.66000
v 0.05500 0.01000 0.33000
v 0.05500 0.01000 0.66000
v 0.04955 -0.01386 0.33000
v 0.04955 -0.01386 0.66000
v 0.03429 -0.03300 0.33000
v 0.03429 -0.03300 0.66000
v 0.01224 -0.04362 0.33000
v 0.01224 -0.04362 0.66000
v -0.01224 -0.04362 0.33000
v -0.01224 -0.04362 0.66000
v -0.03429 -0.03300 0.33000
v -0.03429 -0.03300 0.66000
v -0.04955 -0.01386 0.33000
v -0.04955 -0.01386 0.66000
v -0.06500 -0.11000 0.44000
v 0.06500 -0.11000 0.44000
v 0.09000 -0.08500 0.44000
v 0.09000 0.03500 0.44000
v 0.06500 0.06000 0.44000
v -0.06500 0.06000 0.44000
v -0.09000 0.03500 0.44000
v -0.09000 -0.08500 0.44000
v -0.06500 -0.11000 0.70000
v 0.06500 -0.11000 0.70000
v 0.09000 -0.08500 0.70000
v 0.09000 0.03500 0.70000
v 0.06500 0.06000 0.70000
v -0.06500 0.06000 0.70000
v -0.09000 0.03500 0.70000
v -0.09000 -0.08500 0.70000
v -0.08100 -0.17500 0.67250
v 0.08100 -0.17500 0.67250
v 0.09500 -0.16100 0.67250
v 0.09500 0.03100 0.67250
v 0.08100 0.04500 0.67250
v -0.08100 0.04500 0.67250
v -0.09500 0.03100 0.67250
v -0.09500 -0.16100 0.67250
v -0.08100 -0.17500 0.72750
v 0.08100 -0.17500 0.72750
v 0.09500 -0.16100 0.72750
v 0.09500 0.03100 0.72750
v 0.08100 0.04500 0.72750
v -0.08100 0.04500 0.72750
v -0.09500 0.03100 0.72750
v -0.09500 -0.16100 0.72750
v 0.12000 -0.01000 -0.66900
v 0.12900 -0.01000 -0.66900
v 0.12000 -0.00222 -0.67222
v 0.12900 -0.00222 -0.67222
v 0.12000 0.00100 -0.68000
v 0.12900 0.00100 -0.68000
v 0.12000 -0.00222 -0.68778
v 0.12900 -0.00222 -0.68778
v 0.12000 -0.01000 -0.69100
v 0.12900 -0.01000 -0.69100
v 0.12000 -0.01778 -0.68778
v 0.12900 -0.01778 -0.68778
v 0.12000 -0.02100 -0.68000
v 0.12900 -0.02100 -0.68000
v 0.12000 -0.01778 -0.67222
v 0.12900 -0.01778 -0.67222
v -0.12900 -0.01000 -0.66900
v -0.12000 -0.01000 -0.66900
v -0.12900 -0.00222 -0.67222
v -0.12000 -0.00222 -0.67222
v -0.12900 0.00100 -0.68000
v -0.12000 0.00100 -0.68000
v -0.12900 -0.00222 -0.68778
v -0.12000 -0.00222 -0.68778
v -0.12900 -0.01000 -0.69100
v -0.12000 -0.01000 -0.69100
v -0.12900 -0.01778 -0.68778
v -0.12000 -0.01778 -0.68778
v -0.12900 -0.02100 -0.68000
v -0.12000 -0.02100 -0.68000
v -0.12900 -0.01778 -0.67222
v -0.12000 -0.01778 -0.67222
v 0.12000 -0.01000 -0.46900
v 0.12900 -0.01000 -0.46900
v 0.12000 -0.00222 -0.47222
v 0.12900 -0.00222 -0.47222
v 0.12000 0.00100 -0.48000
v 0.12900 0.00100 -0.48000
v 0.12000 -0.00222 -0.48778
v 0.12900 -0.00222 -0.48778
v 0.12000 -0.01000 -0.49100
v 0.12900 -0.01000 -0.49100
v 0.12000 -0.01778 -0.48778
v 0.12900 -0.01778 -0.48778
v 0.12000 -0.02100 -0.48000
v 0.12900 -0.02100 -0.48000
v 0.12000 -0.01778 -0.47222
v 0.12900 -0.01778 -0.47222
v -0.12900 -0.01000 -0.46900
v -0.12000 -0.01000 -0.46900
v -0.12900 -0.00222 -0.47222
v -0.12000 -0.00222 -0.47222
v -0.12900 0.00100 -0.48000
v -0.12000 0.00100 -0.48000
v -0.12900 -0.00222 -0.48778
v -0.12000 -0.00222 -0.48778
v -0.12900 -0.01000 -0.49100
v -0.12000 -0.01000 -0.49100
v -0.12900 -0.01778 -0.48778
v -0.12000 -0.01778 -0.48778
v -0.12900 -0.02100 -0.48000
v -0.12000 -0.02100 -0.48000
v -0.12900 -0.01778 -0.47222
v -0.12000 -0.01778 -0.47222
v 0.12000 -0.01000 -0.26900
v 0.12900 -0.01000 -0.26900
v 0.12000 -0.00222 -0.27222
v 0.12900 -0.00222 -0.27222
v 0.12000 0.00100 -0.28000
v 0.12900 0.00100 -0.28000
v 0.12000 -0.00222 -0.28778
v 0.12900 -0.00222 -0.28778
v 0.12000 -0.01000 -0.29100
v 0.12900 -0.01000 -0.29100
v 0.12000 -0.01778 -0.28778
v 0.12900 -0.01778 -0.28778
v 0.12000 -0.02100 -0.28000
v 0.12900 -0.02100 -0.28000
v 0.12000 -0.01778 -0.27222
v 0.12900 -0.01778 -0.27222
v -0.12900 -0.01000 -0.26900
v -0.12000 -0.01000 -0.26900
v -0.12900 -0.00222 -0.27222
v -0.12000 -0.00222 -0.27222
v -0.12900 0.00100 -0.28000
v -0.12000 0.00100 -0.28000
v -0.12900 -0.00222 -0.28778
v -0.12000 -0.00222 -0.28778
v -0.12900 -0.01000 -0.29100
v -0.12000 -0.01000 -0.29100
v -0.12900 -0.01778 -0.28778
v -0.12000 -0.01778 -0.28778
v -0.12900 -0.02100 -0.28000
v -0.12000 -0.02100 -0.28000
v -0.12900 -0.01778 -0.27222
v -0.12000 -0.01778 -0.27222
v 0.12000 -0.01000 0.03100
v 0.12900 -0.01000 0.03100
v 0.12000 -0.00222 0.02778
v 0.12900 -0.00222 0.02778
v 0.12000 0.00100 0.02000
v 0.12900 0.00100 0.02000
v 0.12000 -0.00222 0.01222
v 0.12900 -0.00222 0.01222
v 0.12000 -0.01000 0.00900
v 0.12900 -0.01000 0.00900
v 0.12000 -0.01778 0.01222
v 0.12900 -0.01778 0.01222
v 0.12000 -0.02100 0.02000
v 0.12900 -0.02100 0.02000
v 0.12000 -0.01778 0.02778
v 0.12900 -0.01778 0.02778
v -0.12900 -0.01000 0.03100
v -0.12000 -0.01000 0.03100
v -0.12900 -0.00222 0.02778
v -0.12000 -0.00222 0.02778
v -0.12900 0.00100 0.02000
v -0.12000 0.00100 0.02000
v -0.12900 -0.00222 0.01222
v -0.12000 -0.00222 0.01222
v -0.12900 -0.01000 0.00900
v -0.12000 -0.01000 0.00900
v -0.12900 -0.01778 0.01222
v -0.12000 -0.01778 0.01222
v -0.12900 -0.02100 0.02000
v -0.12000 -0.02100 0.02000
v -0.12900 -0.01778 0.02778
v -0.12000 -0.01778 0.02778
v 0.12000 -0.01000 0.25100
v 0.12900 -0.01000 0.25100
v 0.12000 -0.00222 0.24778
v 0.12900 -0.00222 0.24778
v 0.12000 0.00100 0.24000
v 0.12900 0.00100 0.24000
v 0.12000 -0.00222 0.23222
v 0.12900 -0.00222 0.23222
v 0.12000 -0.01000 0.22900
v 0.12900 -0.01000 0.22900
v 0.12000 -0.01778 0.23222
v 0.12900 -0.01778 0.23222
v 0.12000 -0.02100 0.24000
v 0.12900 -0.02100 0.24000
v 0.12000 -0.01778 0.24778
v 0.12900 -0.01778 0.24778
v -0.12900 -0.01000 0.25100
v -0.12000 -0.01000 0.25100
v -0.12900 -0.00222 0.24778
v -0.12000 -0.00222 0.24778
v -0.12900 0.00100 0.24000
v -0.12000 0.00100 0.24000
v -0.12900 -0.00222 0.23222
v -0.12000 -0.00222 0.23222
v -0.12900 -0.01000 0.22900
v -0.12000 -0.01000 0.22900
v -0.12900 -0.01778 0.23222
v -0.12000 -0.01778 0.23222
v -0.12900 -0.02100 0.24000
v -0.12000 -0.02100 0.24000
v -0.12900 -0.01778 0.24778
v -0.12000 -0.01778 0.24778
v -0.01500 0.08500 -0.85000
v 0.01500 0.08500 -0.85000
v 0.02000 0.09000 -0.85000
v 0.02000 0.17000 -0.85000
v 0.01500 0.17500 -0.85000
v -0.01500 0.17500 -0.85000
v -0.02000 0.17000 -0.85000
v -0.02000 0.09000 -0.85000
v -0.01500 0.08500 -0.83000
v 0.01500 0.08500 -0.83000
v 0.02000 0.09000 -0.83000
v 0.02000 0.17000 -0.83000
v 0.01500 0.17500 -0.83000
v -0.01500 0.17500 -0.83000
v -0.02000 0.17000 -0.83000
v -0.02000 0.09000 -0.83000
v -0.03000 0.12000 0.28000
v 0.03000 0.12000 0.28000
v 0.03500 0.12500 0.28000
v 0.03500 0.17500 0.28000
v 0.03000 0.18000 0.28000
v -0.03000 0.18000 0.28000
v -0.03500 0.17500 0.28000
v -0.03500 0.12500 0.28000
v -0.03000 0.12000 0.32000
v 0.03000 0.12000 0.32000
v 0.03500 0.12500 0.32000
v 0.03500 0.17500 0.32000
v 0.03000 0.18000 0.32000
v -0.03000 0.18000 0.32000
v -0.03500 0.17500 0.32000
v -0.03500 0.12500 0.32000
v -0.16300 0.01000 -0.10000
v -0.16300 0.01000 -0.04800
v -0.15861 0.02352 -0.10000
v -0.15861 0.02352 -0.04800
v -0.14711 0.03187 -0.10000
v -0.14711 0.03187 -0.04800
v -0.13289 0.03187 -0.10000
v -0.13289 0.03187 -0.04800
v -0.12139 0.02352 -0.10000
v -0.12139 0.02352 -0.04800
v -0.11700 0.01000 -0.10000
v -0.11700 0.01000 -0.04800
v -0.12139 -0.00352 -0.10000
v -0.12139 -0.00352 -0.04800
v -0.13289 -0.01187 -0.10000
v -0.13289 -0.01187 -0.04800
v -0.14711 -0.01187 -0.10000
v -0.14711 -0.01187 -0.04800
v -0.15861 -0.00352 -0.10000
v -0.15861 -0.00352 -0.04800
v -0.17500 -0.01050 -0.05250
v -0.13100 -0.01050 -0.05250
v -0.12800 -0.00750 -0.05250
v -0.12800 0.03150 -0.05250
v -0.13100 0.03450 -0.05250
v -0.17500 0.03450 -0.05250
v -0.17800 0.03150 -0.05250
v -0.17800 -0.00750 -0.05250
v -0.17500 -0.01050 -0.04350
v -0.13100 -0.01050 -0.04350
v -0.12800 -0.00750 -0.04350
v -0.12800 0.03150 -0.04350
v -0.13100 0.03450 -0.04350
v -0.17500 0.03450 -0.04350
v -0.17800 0.03150 -0.04350
v -0.17800 -0.00750 -0.04350
v -0.16300 0.01000 -0.02700
v -0.16300 0.01000 0.02500
v -0.15861 0.02352 -0.02700
v -0.15861 0.02352 0.02500
v -0.14711 0.03187 -0.02700
v -0.14711 0.03187 0.02500
v -0.13289 0.03187 -0.02700
v -0.13289 0.03187 0.02500
v -0.12139 0.02352 -0.02700
v -0.12139 0.02352 0.02500
v -0.11700 0.01000 -0.02700
v -0.11700 0.01000 0.02500
v -0.12139 -0.00352 -0.02700
v -0.12139 -0.00352 0.02500
v -0.13289 -0.01187 -0.02700
v -0.13289 -0.01187 0.02500
v -0.14711 -0.01187 -0.02700
v -0.14711 -0.01187 0.02500
v -0.15861 -0.00352 -0.02700
v -0.15861 -0.00352 0.02500
v -0.17500 -0.01050 0.02050
v -0.13100 -0.01050 0.02050
v -0.12800 -0.00750 0.02050
v -0.12800 0.03150 0.02050
v -0.13100 0.03450 0.02050
v -0.17500 0.03450 0.02050
v -0.17800 0.03150 0.02050
v -0.17800 -0.00750 0.02050
v -0.17500 -0.01050 0.02950
v -0.13100 -0.01050 0.02950
v -0.12800 -0.00750 0.02950
v -0.12800 0.03150 0.02950
v -0.13100 0.03450 0.02950
v -0.17500 0.03450 0.02950
v -0.17800 0.03150 0.02950
v -0.17800 -0.00750 0.02950
v -0.16300 0.01000 0.04600
v -0.16300 0.01000 0.09800
v -0.15861 0.02352 0.04600
v -0.15861 0.02352 0.09800
v -0.14711 0.03187 0.04600
v -0.14711 0.03187 0.09800
v -0.13289 0.03187 0.04600
v -0.13289 0.03187 0.09800
v -0.12139 0.02352 0.04600
v -0.12139 0.02352 0.09800
v -0.11700 0.01000 0.04600
v -0.11700 0.01000 0.09800
v -0.12139 -0.00352 0.04600
v -0.12139 -0.00352 0.09800
v -0.13289 -0.01187 0.04600
v -0.13289 -0.01187 0.09800
v -0.14711 -0.01187 0.04600
v -0.14711 -0.01187 0.09800
v -0.15861 -0.00352 0.04600
v -0.15861 -0.00352 0.09800
v -0.17500 -0.01050 0.09350
v -0.13100 -0.01050 0.09350
v -0.12800 -0.00750 0.09350
v -0.12800 0.03150 0.09350
v -0.13100 0.03450 0.09350
v -0.17500 0.03450 0.09350
v -0.17800 0.03150 0.09350
v -0.17800 -0.00750 0.09350
v -0.17500 -0.01050 0.10250
v -0.13100 -0.01050 0.10250
v -0.12800 -0.00750 0.10250
v -0.12800 0.03150 0.10250
v -0.13100 0.03450 0.10250
v -0.17500 0.03450 0.10250
v -0.17800 0.03150 0.10250
v -0.17800 -0.00750 0.10250
v -0.16300 0.01000 0.11900
v -0.16300 0.01000 0.17100
v -0.15861 0.02352 0.11900
v -0.15861 0.02352 0.17100
v -0.14711 0.03187 0.11900
v -0.14711 0.03187 0.17100
v -0.13289 0.03187 0.11900
v -0.13289 0.03187 0.17100
v -0.12139 0.02352 0.11900
v -0.12139 0.02352 0.17100
v -0.11700 0.01000 0.11900
v -0.11700 0.01000 0.17100
v -0.12139 -0.00352 0.11900
v -0.12139 -0.00352 0.17100
v -0.13289 -0.01187 0.11900
v -0.13289 -0.01187 0.17100
v -0.14711 -0.01187 0.11900
v -0.14711 -0.01187 0.17100
v -0.15861 -0.00352 0.11900
v -0.15861 -0.00352 0.17100
v -0.17500 -0.01050 0.16650
v -0.13100 -0.01050 0.16650
v -0.12800 -0.00750 0.16650
v -0.12800 0.03150 0.16650
v -0.13100 0.03450 0.16650
v -0.17500 0.03450 0.16650
v -0.17800 0.03150 0.16650
v -0.17800 -0.00750 0.16650
v -0.17500 -0.01050 0.17550
v -0.13100 -0.01050 0.17550
v -0.12800 -0.00750 0.17550
v -0.12800 0.03150 0.17550
v -0.13100 0.03450 0.17550
v -0.17500 0.03450 0.17550
v -0.17800 0.03150 0.17550
v -0.17800 -0.00750 0.17550
v -0.16300 0.01000 0.19200
v -0.16300 0.01000 0.24400
v -0.15861 0.02352 0.19200
v -0.15861 0.02352 0.24400
v -0.14711 0.03187 0.19200
v -0.14711 0.03187 0.24400
v -0.13289 0.03187 0.19200
v -0.13289 0.03187 0.24400
v -0.12139 0.02352 0.19200
v -0.12139 0.02352 0.24400
v -0.11700 0.01000 0.19200
v -0.11700 0.01000 0.24400
v -0.12139 -0.00352 0.19200
v -0.12139 -0.00352 0.24400
v -0.13289 -0.01187 0.19200
v -0.13289 -0.01187 0.24400
v -0.14711 -0.01187 0.19200
v -0.14711 -0.01187 0.24400
v -0.15861 -0.00352 0.19200
v -0.15861 -0.00352 0.24400
v -0.17500 -0.01050 0.23950
v -0.13100 -0.01050 0.23950
v -0.12800 -0.00750 0.23950
v -0.12800 0.03150 0.23950
v -0.13100 0.03450 0.23950
v -0.17500 0.03450 0.23950
v -0.17800 0.03150 0.23950
v -0.17800 -0.00750 0.23950
v -0.17500 -0.01050 0.24850
v -0.13100 -0.01050 0.24850
v -0.12800 -0.00750 0.24850
v -0.12800 0.03150 0.24850
v -0.13100 0.03450 0.24850
v -0.17500 0.03450 0.24850
v -0.17800 0.03150 0.24850
v -0.17800 -0.00750 0.24850
usemtl receiver
f 8 7 6 5 4 3 2 1
f 9 10 11 12 13 14 15 16
f 1 2 10 9
f 2 3 11 10
f 3 4 12 11
f 4 5 13 12
f 5 6 14 13
f 6 7 15 14
f 7 8 16 15
f 8 1 9 16
usemtl polymer
f 172 171 170 169 168 167 166 165
f 173 174 175 176 177 178 179 180
f 165 166 174 173
f 166 167 175 174
f 167 168 176 175
f 168 169 177 176
f 169 170 178 177
f 170 171 179 178
f 171 172 180 179
f 172 165 173 180
f 712 711 710 709 708 707 706 705
f 713 714 715 716 717 718 719 720
f 705 706 714 713
f 706 707 715 714
f 707 708 716 715
f 708 709 717 716
f 709 710 718 717
f 710 711 719 718
f 711 712 720 719
f 712 705 713 720
usemtl steel
f 51 49 47 45 43 41 39 37 35 33 31 29 27 25 23 21 19 17
f 18 20 22 24 26 28 30 32 34 36 38 40 42 44 46 48 50 52
f 17 19 20 18
f 19 21 22 20
f 21 23 24 22
f 23 25 26 24
f 25 27 28 26
f 27 29 30 28
f 29 31 32 30
f 31 33 34 32
f 33 35 36 34
f 35 37 38 36
f 37 39 40 38
f 39 41 42 40
f 41 43 44 42
f 43 45 46 44
f 45 47 48 46
f 47 49 50 48
f 49 51 52 50
f 51 17 18 52
f 124 123 122 121 120 119 118 117
f 125 126 127 128 129 130 131 132
f 117 118 126 125
f 118 119 127 126
f 119 120 128 127
f 120 121 129 128
f 121 122 130 129
f 122 123 131 130
f 123 124 132 131
f 124 117 125 132
f 140 139 138 137 136 135 134 133
f 141 142 143 144 145 146 147 148
f 133 134 142 141
f 134 135 143 142
f 135 136 144 143
f 136 137 145 144
f 137 138 146 145
f 138 139 147 146
f 139 140 148 147
f 140 133 141 148
f 156 155 154 153 152 151 150 149
f 157 158 159 160 161 162 163 164
f 149 150 158 157
f 150 151 159 158
f 151 152 160 159
f 152 153 161 160
f 153 154 162 161
f 154 155 163 162
f 155 156 164 163
f 156 149 157 164
f 348 347 346 345 344 343 342 341
f 349 350 351 352 353 354 355 356
f 341 342 350 349
f 342 343 351 350
f 343 344 352 351
f 344 345 353 352
f 345 346 354 353
f 346 347 355 354
f 347 348 356 355
f 348 341 349 356
f 396 395 394 393 392 391 390 389
f 397 398 399 400 401 402 403 404
f 389 390 398 397
f 390 391 399 398
f 391 392 400 399
f 392 393 401 400
f 393 394 402 401
f 394 395 403 402
f 395 396 404 403
f 396 389 397 404
f 476 475 474 473 472 471 470 469
f 477 478 479 480 481 482 483 484
f 469 470 478 477
f 470 471 479 478
f 471 472 480 479
f 472 473 481 480
f 473 474 482 481
f 474 475 483 482
f 475 476 484 483
f 476 469 477 484
f 703 701 699 697 695 693 691 689 687 685 683 681 679 677
f 678 680 682 684 686 688 690 692 694 696 698 700 702 704
f 677 679 680 678
f 679 681 682 680
f 681 683 684 682
f 683 685 686 684
f 685 687 688 686
f 687 689 690 688
f 689 691 692 690
f 691 693 694 692
f 693 695 696 694
f 695 697 698 696
f 697 699 700 698
f 699 701 702 700
f 701 703 704 702
f 703 677 678 704
f 751 749 747 745 743 741 739 737
f 738 740 742 744 746 748 750 752
f 737 739 740 738
f 739 741 742 740
f 741 743 744 742
f 743 745 746 744
f 745 747 748 746
f 747 749 750 748
f 749 751 752 750
f 751 737 738 752
f 767 765 763 761 759 757 755 753
f 754 756 758 760 762 764 766 768
f 753 755 756 754
f 755 757 758 756
f 757 759 760 758
f 759 761 762 760
f 761 763 764 762
f 763 765 766 764
f 765 767 768 766
f 767 753 754 768
f 783 781 779 777 775 773 771 769
f 770 772 774 776 778 780 782 784
f 769 771 772 770
f 771 773 774 772
f 773 775 776 774
f 775 777 778 776
f 777 779 780 778
f 779 781 782 780
f 781 783 784 782
f 783 769 770 784
f 799 797 795 793 791 789 787 785
f 786 788 790 792 794 796 798 800
f 785 787 788 786
f 787 789 790 788
f 789 791 792 790
f 791 793 794 792
f 793 795 796 794
f 795 797 798 796
f 797 799 800 798
f 799 785 786 800
f 815 813 811 809 807 805 803 801
f 802 804 806 808 810 812 814 816
f 801 803 804 802
f 803 805 806 804
f 805 807 808 806
f 807 809 810 808
f 809 811 812 810
f 811 813 814 812
f 813 815 816 814
f 815 801 802 816
f 831 829 827 825 823 821 819 817
f 818 820 822 824 826 828 830 832
f 817 819 820 818
f 819 821 822 820
f 821 823 824 822
f 823 825 826 824
f 825 827 828 826
f 827 829 830 828
f 829 831 832 830
f 831 817 818 832
f 847 845 843 841 839 837 835 833
f 834 836 838 840 842 844 846 848
f 833 835 836 834
f 835 837 838 836
f 837 839 840 838
f 839 841 842 840
f 841 843 844 842
f 843 845 846 844
f 845 847 848 846
f 847 833 834 848
f 863 861 859 857 855 853 851 849
f 850 852 854 856 858 860 862 864
f 849 851 852 850
f 851 853 854 852
f 853 855 856 854
f 855 857 858 856
f 857 859 860 858
f 859 861 862 860
f 861 863 864 862
f 863 849 850 864
f 879 877 875 873 871 869 867 865
f 866 868 870 872 874 876 878 880
f 865 867 868 866
f 867 869 870 868
f 869 871 872 870
f 871 873 874 872
f 873 875 876 874
f 875 877 878 876
f 877 879 880 878
f 879 865 866 880
f 895 893 891 889 887 885 883 881
f 882 884 886 888 890 892 894 896
f 881 883 884 882
f 883 885 886 884
f 885 887 888 886
f 887 889 890 888
f 889 891 892 890
f 891 893 894 892
f 893 895 896 894
f 895 881 882 896
f 904 903 902 901 900 899 898 897
f 905 906 907 908 909 910 911 912
f 897 898 906 905
f 898 899 907 906
f 899 900 908 907
f 900 901 909 908
f 901 902 910 909
f 902 903 911 910
f 903 904 912 911
f 904 897 905 912
f 920 919 918 917 916 915 914 913
f 921 922 923 924 925 926 927 928
f 913 914 922 921
f 914 915 923 922
f 915 916 924 923
f 916 917 925 924
f 917 918 926 925
f 918 919 927 926
f 919 920 928 927
f 920 913 921 928
f 956 955 954 953 952 951 950 949
f 957 958 959 960 961 962 963 964
f 949 950 958 957
f 950 951 959 958
f 951 952 960 959
f 952 953 961 960
f 953 954 962 961
f 954 955 963 962
f 955 956 964 963
f 956 949 957 964
f 992 991 990 989 988 987 986 985
f 993 994 995 996 997 998 999 1000
f 985 986 994 993
f 986 987 995 994
f 987 988 996 995
f 988 989 997 996
f 989 990 998 997
f 990 991 999 998
f 991 992 1000 999
f 992 985 993 1000
f 1028 1027 1026 1025 1024 1023 1022 1021
f 1029 1030 1031 1032 1033 1034 1035 1036
f 1021 1022 1030 1029
f 1022 1023 1031 1030
f 1023 1024 1032 1031
f 1024 1025 1033 1032
f 1025 1026 1034 1033
f 1026 1027 1035 1034
f 1027 1028 1036 1035
f 1028 1021 1029 1036
f 1064 1063 1062 1061 1060 1059 1058 1057
f 1065 1066 1067 1068 1069 1070 1071 1072
f 1057 1058 1066 1065
f 1058 1059 1067 1066
f 1059 1060 1068 1067
f 1060 1061 1069 1068
f 1061 1062 1070 1069
f 1062 1063 1071 1070
f 1063 1064 1072 1071
f 1064 1057 1065 1072
f 1100 1099 1098 1097 1096 1095 1094 1093
f 1101 1102 1103 1104 1105 1106 1107 1108
f 1093 1094 1102 1101
f 1094 1095 1103 1102
f 1095 1096 1104 1103
f 1096 1097 1105 1104
f 1097 1098 1106 1105
f 1098 1099 1107 1106
f 1099 1100 1108 1107
f 1100 1093 1101 1108
usemtl marking
f 412 411 410 409 408 407 406 405
f 413 414 415 416 417 418 419 420
f 405 406 414 413
f 406 407 415 414
f 407 408 416 415
f 408 409 417 416
f 409 410 418 417
f 410 411 419 418
f 411 412 420 419
f 412 405 413 420
f 428 427 426 425 424 423 422 421
f 429 430 431 432 433 434 435 436
f 421 422 430 429
f 422 423 431 430
f 423 424 432 431
f 424 425 433 432
f 425 426 434 433
f 426 427 435 434
f 427 428 436 435
f 428 421 429 436
f 444 443 442 441 440 439 438 437
f 445 446 447 448 449 450 451 452
f 437 438 446 445
f 438 439 447 446
f 439 440 448 447
f 440 441 449 448
f 441 442 450 449
f 442 443 451 450
f 443 444 452 451
f 444 437 445 452
f 460 459 458 457 456 455 454 453
f 461 462 463 464 465 466 467 468
f 453 454 462 461
f 454 455 463 462
f 455 456 464 463
f 456 457 465 464
f 457 458 466 465
f 458 459 467 466
f 459 460 468 467
f 460 453 461 468
usemtl muzzle
f 83 81 79 77 75 73 71 69 67 65 63 61 59 57 55 53
f 54 56 58 60 62 64 66 68 70 72 74 76 78 80 82 84
f 53 55 56 54
f 55 57 58 56
f 57 59 60 58
f 59 61 62 60
f 61 63 64 62
f 63 65 66 64
f 65 67 68 66
f 67 69 70 68
f 69 71 72 70
f 71 73 74 72
f 73 75 76 74
f 75 77 78 76
f 77 79 80 78
f 79 81 82 80
f 81 83 84 82
f 83 53 54 84
f 115 113 111 109 107 105 103 101 99 97 95 93 91 89 87 85
f 86 88 90 92 94 96 98 100 102 104 106 108 110 112 114 116
f 85 87 88 86
f 87 89 90 88
f 89 91 92 90
f 91 93 94 92
f 93 95 96 94
f 95 97 98 96
f 97 99 100 98
f 99 101 102 100
f 101 103 104 102
f 103 105 106 104
f 105 107 108 106
f 107 109 110 108
f 109 111 112 110
f 111 113 114 112
f 113 115 116 114
f 115 85 86 116
f 364 363 362 361 360 359 358 357
f 365 366 367 368 369 370 371 372
f 357 358 366 365
f 358 359 367 366
f 359 360 368 367
f 360 361 369 368
f 361 362 370 369
f 362 363 371 370
f 363 364 372 371
f 364 357 365 372
f 380 379 378 377 376 375 374 373
f 381 382 383 384 385 386 387 388
f 373 374 382 381
f 374 375 383 382
f 375 376 384 383
f 376 377 385 384
f 377 378 386 385
f 378 379 387 386
f 379 380 388 387
f 380 373 381 388
f 524 523 522 521 520 519 518 517
f 525 526 527 528 529 530 531 532
f 517 518 526 525
f 518 519 527 526
f 519 520 528 527
f 520 521 529 528
f 521 522 530 529
f 522 523 531 530
f 523 524 532 531
f 524 517 525 532
f 540 539 538 537 536 535 534 533
f 541 542 543 544 545 546 547 548
f 533 534 542 541
f 534 535 543 542
f 535 536 544 543
f 536 537 545 544
f 537 538 546 545
f 538 539 547 546
f 539 540 548 547
f 540 533 541 548
f 556 555 554 553 552 551 550 549
f 557 558 559 560 561 562 563 564
f 549 550 558 557
f 550 551 559 558
f 551 552 560 559
f 552 553 561 560
f 553 554 562 561
f 554 555 563 562
f 555 556 564 563
f 556 549 557 564
f 572 571 570 569 568 567 566 565
f 573 574 575 576 577 578 579 580
f 565 566 574 573
f 566 567 575 574
f 567 568 576 575
f 568 569 577 576
f 569 570 578 577
f 570 571 579 578
f 571 572 580 579
f 572 565 573 580
f 588 587 586 585 584 583 582 581
f 589 590 591 592 593 594 595 596
f 581 582 590 589
f 582 583 591 590
f 583 584 592 591
f 584 585 593 592
f 585 586 594 593
f 586 587 595 594
f 587 588 596 595
f 588 581 589 596
f 604 603 602 601 600 599 598 597
f 605 606 607 608 609 610 611 612
f 597 598 606 605
f 598 599 607 606
f 599 600 608 607
f 600 601 609 608
f 601 602 610 609
f 602 603 611 610
f 603 604 612 611
f 604 597 605 612
f 620 619 618 617 616 615 614 613
f 621 622 623 624 625 626 627 628
f 613 614 622 621
f 614 615 623 622
f 615 616 624 623
f 616 617 625 624
f 617 618 626 625
f 618 619 627 626
f 619 620 628 627
f 620 613 621 628
f 636 635 634 633 632 631 630 629
f 637 638 639 640 641 642 643 644
f 629 630 638 637
f 630 631 639 638
f 631 632 640 639
f 632 633 641 640
f 633 634 642 641
f 634 635 643 642
f 635 636 644 643
f 636 629 637 644
f 652 651 650 649 648 647 646 645
f 653 654 655 656 657 658 659 660
f 645 646 654 653
f 646 647 655 654
f 647 648 656 655
f 648 649 657 656
f 649 650 658 657
f 650 651 659 658
f 651 652 660 659
f 652 645 653 660
f 668 667 666 665 664 663 662 661
f 669 670 671 672 673 674 675 676
f 661 662 670 669
f 662 663 671 670
f 663 664 672 671
f 664 665 673 672
f 665 666 674 673
f 666 667 675 674
f 667 668 676 675
f 668 661 669 676
usemtl grip
f 188 187 186 185 184 183 182 181
f 189 190 191 192 193 194 195 196
f 181 182 190 189
f 182 183 191 190
f 183 184 192 191
f 184 185 193 192
f 185 186 194 193
f 186 187 195 194
f 187 188 196 195
f 188 181 189 196
f 204 203 202 201 200 199 198 197
f 205 206 207 208 209 210 211 212
f 197 198 206 205
f 198 199 207 206
f 199 200 208 207
f 200 201 209 208
f 201 202 210 209
f 202 203 211 210
f 203 204 212 211
f 204 197 205 212
f 220 219 218 217 216 215 214 213
f 221 222 223 224 225 226 227 228
f 213 214 222 221
f 214 215 223 222
f 215 216 224 223
f 216 217 225 224
f 217 218 226 225
f 218 219 227 226
f 219 220 228 227
f 220 213 221 228
f 236 235 234 233 232 231 230 229
f 237 238 239 240 241 242 243 244
f 229 230 238 237
f 230 231 239 238
f 231 232 240 239
f 232 233 241 240
f 233 234 242 241
f 234 235 243 242
f 235 236 244 243
f 236 229 237 244
f 252 251 250 249 248 247 246 245
f 253 254 255 256 257 258 259 260
f 245 246 254 253
f 246 247 255 254
f 247 248 256 255
f 248 249 257 256
f 249 250 258 257
f 250 251 259 258
f 251 252 260 259
f 252 245 253 260
f 268 267 266 265 264 263 262 261
f 269 270 271 272 273 274 275 276
f 261 262 270 269
f 262 263 271 270
f 263 264 272 271
f 264 265 273 272
f 265 266 274 273
f 266 267 275 274
f 267 268 276 275
f 268 261 269 276
f 284 283 282 281 280 279 278 277
f 285 286 287 288 289 290 291 292
f 277 278 286 285
f 278 279 287 286
f 279 280 288 287
f 280 281 289 288
f 281 282 290 289
f 282 283 291 290
f 283 284 292 291
f 284 277 285 292
f 300 299 298 297 296 295 294 293
f 301 302 303 304 305 306 307 308
f 293 294 302 301
f 294 295 303 302
f 295 296 304 303
f 296 297 305 304
f 297 298 306 305
f 298 299 307 306
f 299 300 308 307
f 300 293 301 308
f 316 315 314 313 312 311 310 309
f 317 318 319 320 321 322 323 324
f 309 310 318 317
f 310 311 319 318
f 311 312 320 319
f 312 313 321 320
f 313 314 322 321
f 314 315 323 322
f 315 316 324 323
f 316 309 317 324
f 332 331 330 329 328 327 326 325
f 333 334 335 336 337 338 339 340
f 325 326 334 333
f 326 327 335 334
f 327 328 336 335
f 328 329 337 336
f 329 330 338 337
f 330 331 339 338
f 331 332 340 339
f 332 325 333 340
f 508 507 506 505 504 503 502 501
f 509 510 511 512 513 514 515 516
f 501 502 510 509
f 502 503 511 510
f 503 504 512 511
f 504 505 513 512
f 505 506 514 513
f 506 507 515 514
f 507 508 516 515
f 508 501 509 516
f 728 727 726 725 724 723 722 721
f 729 730 731 732 733 734 735 736
f 721 722 730 729
f 722 723 731 730
f 723 724 732 731
f 724 725 733 732
f 725 726 734 733
f 726 727 735 734
f 727 728 736 735
f 728 721 729 736
usemtl gold
f 492 491 490 489 488 487 486 485
f 493 494 495 496 497 498 499 500
f 485 486 494 493
f 486 487 495 494
f 487 488 496 495
f 488 489 497 496
f 489 490 498 497
f 490 491 499 498
f 491 492 500 499
f 492 485 493 500
f 947 945 943 941 939 937 935 933 931 929
f 930 932 934 936 938 940 942 944 946 948
f 929 931 932 930
f 931 933 934 932
f 933 935 936 934
f 935 937 938 936
f 937 939 940 938
f 939 941 942 940
f 941 943 944 942
f 943 945 946 944
f 945 947 948 946
f 947 929 930 948
f 983 981 979 977 975 973 971 969 967 965
f 966 968 970 972 974 976 978 980 982 984
f 965 967 968 966
f 967 969 970 968
f 969 971 972 970
f 971 973 974 972
f 973 975 976 974
f 975 977 978 976
f 977 979 980 978
f 979 981 982 980
f 981 983 984 982
f 983 965 966 984
f 1019 1017 1015 1013 1011 1009 1007 1005 1003 1001
f 1002 1004 1006 1008 1010 1012 1014 1016 1018 1020
f 1001 1003 1004 1002
f 1003 1005 1006 1004
f 1005 1007 1008 1006
f 1007 1009 1010 1008
f 1009 1011 1012 1010
f 1011 1013 1014 1012
f 1013 1015 1016 1014
f 1015 1017 1018 1016
f 1017 1019 1020 1018
f 1019 1001 1002 1020
f 1055 1053 1051 1049 1047 1045 1043 1041 1039 1037
f 1038 1040 1042 1044 1046 1048 1050 1052 1054 1056
f 1037 1039 1040 1038
f 1039 1041 1042 1040
f 1041 1043 1044 1042
f 1043 1045 1046 1044
f 1045 1047 1048 1046
f 1047 1049 1050 1048
f 1049 1051 1052 1050
f 1051 1053 1054 1052
f 1053 1055 1056 1054
f 1055 1037 1038 1056
f 1091 1089 1087 1085 1083 1081 1079 1077 1075 1073
f 1074 1076 1078 1080 1082 1084 1086 1088 1090 1092
f 1073 1075 1076 1074
f 1075 1077 1078 1076
f 1077 1079 1080 1078
f 1079 1081 1082 1080
f 1081 1083 1084 1082
f 1083 1085 1086 1084
f 1085 1087 1088 1086
f 1087 1089 1090 1088
f 1089 1091 1092 1090
f 1091 1073 1074 1092
