# BREAKBULK KestrelAR4: original detailed hard-surface first-person weapon
mtllib KestrelAR4.mtl
s off
v -0.06000 -0.11000 -0.20500
v 0.06000 -0.11000 -0.20500
v 0.09500 -0.07500 -0.20500
v 0.09500 0.07500 -0.20500
v 0.06000 0.11000 -0.20500
v -0.06000 0.11000 -0.20500
v -0.09500 0.07500 -0.20500
v -0.09500 -0.07500 -0.20500
v -0.06000 -0.11000 0.28500
v 0.06000 -0.11000 0.28500
v 0.09500 -0.07500 0.28500
v 0.09500 0.07500 0.28500
v 0.06000 0.11000 0.28500
v -0.06000 0.11000 0.28500
v -0.09500 0.07500 0.28500
v -0.09500 -0.07500 0.28500
v -0.06300 -0.16000 -0.04000
v 0.06300 -0.16000 -0.04000
v 0.08500 -0.13800 -0.04000
v 0.08500 -0.03200 -0.04000
v 0.06300 -0.01000 -0.04000
v -0.06300 -0.01000 -0.04000
v -0.08500 -0.03200 -0.04000
v -0.08500 -0.13800 -0.04000
v -0.06300 -0.16000 0.28000
v 0.06300 -0.16000 0.28000
v 0.08500 -0.13800 0.28000
v 0.08500 -0.03200 0.28000
v 0.06300 -0.01000 0.28000
v -0.06300 -0.01000 0.28000
v -0.08500 -0.03200 0.28000
v -0.08500 -0.13800 0.28000
v -0.05900 -0.09000 -0.79500
v 0.05900 -0.09000 -0.79500
v 0.09000 -0.05900 -0.79500
v 0.09000 0.05900 -0.79500
v 0.05900 0.09000 -0.79500
v -0.05900 0.09000 -0.79500
v -0.09000 0.05900 -0.79500
v -0.09000 -0.05900 -0.79500
v -0.05900 -0.09000 -0.14500
v 0.05900 -0.09000 -0.14500
v 0.09000 -0.05900 -0.14500
v 0.09000 0.05900 -0.14500
v 0.05900 0.09000 -0.14500
v -0.05900 0.09000 -0.14500
v -0.09000 0.05900 -0.14500
v -0.09000 -0.05900 -0.14500
v -0.08540 -0.02000 -0.78000
v 0.08540 -0.02000 -0.78000
v 0.09500 -0.01040 -0.78000
v 0.09500 0.01040 -0.78000
v 0.08540 0.02000 -0.78000
v -0.08540 0.02000 -0.78000
v -0.09500 0.01040 -0.78000
v -0.09500 -0.01040 -0.78000
v -0.08540 -0.02000 -0.16000
v 0.08540 -0.02000 -0.16000
v 0.09500 -0.01040 -0.16000
v 0.09500 0.01040 -0.16000
v 0.08540 0.02000 -0.16000
v -0.08540 0.02000 -0.16000
v -0.09500 0.01040 -0.16000
v -0.09500 -0.01040 -0.16000
v 0.04500 0.00000 -0.72000
v 0.04500 0.00000 -1.05000
v 0.04157 0.01722 -0.72000
v 0.04157 0.01722 -1.05000
v 0.03182 0.03182 -0.72000
v 0.03182 0.03182 -1.05000
v 0.01722 0.04157 -0.72000
v 0.01722 0.04157 -1.05000
v 0.00000 0.04500 -0.72000
v 0.00000 0.04500 -1.05000
v -0.01722 0.04157 -0.72000
v -0.01722 0.04157 -1.05000
v -0.03182 0.03182 -0.72000
v -0.03182 0.03182 -1.05000
v -0.04157 0.01722 -0.72000
v -0.04157 0.01722 -1.05000
v -0.04500 0.00000 -0.72000
v -0.04500 0.00000 -1.05000
v -0.04157 -0.01722 -0.72000
v -0.04157 -0.01722 -1.05000
v -0.03182 -0.03182 -0.72000
v -0.03182 -0.03182 -1.05000
v -0.01722 -0.04157 -0.72000
v -0.01722 -0.04157 -1.05000
v -0.00000 -0.04500 -0.72000
v -0.00000 -0.04500 -1.05000
v 0.01722 -0.04157 -0.72000
v 0.01722 -0.04157 -1.05000
v 0.03182 -0.03182 -0.72000
v 0.03182 -0.03182 -1.05000
v 0.04157 -0.01722 -0.72000
v 0.04157 -0.01722 -1.05000
v 0.06500 0.00000 -1.02000
v 0.06500 0.00000 -1.17000
v 0.06005 0.02487 -1.02000
v 0.06005 0.02487 -1.17000
v 0.04596 0.04596 -1.02000
v 0.04596 0.04596 -1.17000
v 0.02487 0.06005 -1.02000
v 0.02487 0.06005 -1.17000
v 0.00000 0.06500 -1.02000
v 0.00000 0.06500 -1.17000
v -0.02487 0.06005 -1.02000
v -0.02487 0.06005 -1.17000
v -0.04596 0.04596 -1.02000
v -0.04596 0.04596 -1.17000
v -0.06005 0.02487 -1.02000
v -0.06005 0.02487 -1.17000
v -0.06500 0.00000 -1.02000
v -0.06500 0.00000 -1.17000
v -0.06005 -0.02487 -1.02000
v -0.06005 -0.02487 -1.17000
v -0.04596 -0.04596 -1.02000
v -0.04596 -0.04596 -1.17000
v -0.02487 -0.06005 -1.02000
v -0.02487 -0.06005 -1.17000
v -0.00000 -0.06500 -1.02000
v -0.00000 -0.06500 -1.17000
v 0.02487 -0.06005 -1.02000
v 0.02487 -0.06005 -1.17000
v 0.04596 -0.04596 -1.02000
v 0.04596 -0.04596 -1.17000
v 0.06005 -0.02487 -1.02000
v 0.06005 -0.02487 -1.17000
v -0.04092 0.05250 -1.13750
v 0.04092 0.05250 -1.13750
v 0.04500 0.05658 -1.13750
v 0.04500 0.06542 -1.13750
v 0.04092 0.06950 -1.13750
v -0.04092 0.06950 -1.13750
v -0.04500 0.06542 -1.13750
v -0.04500 0.05658 -1.13750
v -0.04092 0.05250 -1.12250
v 0.04092 0.05250 -1.12250
v 0.04500 0.05658 -1.12250
v 0.04500 0.06542 -1.12250
v 0.04092 0.06950 -1.12250
v -0.04092 0.06950 -1.12250
v -0.04500 0.06542 -1.12250
v -0.04500 0.05658 -1.12250
v -0.04092 0.05250 -1.08750
v 0.04092 0.05250 -1.08750
v 0.04500 0.05658 -1.08750
v 0.04500 0.06542 -1.08750
v 0.04092 0.06950 -1.08750
v -0.04092 0.06950 -1.08750
v -0.04500 0.06542 -1.08750
v -0.04500 0.05658 -1.08750
v -0.04092 0.05250 -1.07250
v 0.04092 0.05250 -1.07250
v 0.04500 0.05658 -1.07250
v 0.04500 0.06542 -1.07250
v 0.04092 0.06950 -1.07250
v -0.04092 0.06950 -1.07250
v -0.04500 0.06542 -1.07250
v -0.04500 0.05658 -1.07250
v -0.04092 0.05250 -1.04750
v 0.04092 0.05250 -1.04750
v 0.04500 0.05658 -1.04750
v 0.04500 0.06542 -1.04750
v 0.04092 0.06950 -1.04750
v -0.04092 0.06950 -1.04750
v -0.04500 0.06542 -1.04750
v -0.04500 0.05658 -1.04750
v -0.04092 0.05250 -1.03250
v 0.04092 0.05250 -1.03250
v 0.04500 0.05658 -1.03250
v 0.04500 0.06542 -1.03250
v 0.04092 0.06950 -1.03250
v -0.04092 0.06950 -1.03250
v -0.04500 0.06542 -1.03250
v -0.04500 0.05658 -1.03250
v 0.04100 -0.04500 -0.36000
v 0.04100 -0.04500 -0.89000
v 0.03551 -0.02450 -0.36000
v 0.03551 -0.02450 -0.89000
v 0.02050 -0.00949 -0.36000
v 0.02050 -0.00949 -0.89000
v 0.00000 -0.00400 -0.36000
v 0.00000 -0.00400 -0.89000
v -0.02050 -0.00949 -0.36000
v -0.02050 -0.00949 -0.89000
v -0.03551 -0.02450 -0.36000
v -0.03551 -0.02450 -0.89000
v -0.04100 -0.04500 -0.36000
v -0.04100 -0.04500 -0.89000
v -0.03551 -0.06550 -0.36000
v -0.03551 -0.06550 -0.89000
v -0.02050 -0.08051 -0.36000
v -0.02050 -0.08051 -0.89000
v -0.00000 -0.08600 -0.36000
v -0.00000 -0.08600 -0.89000
v 0.02050 -0.08051 -0.36000
v 0.02050 -0.08051 -0.89000
v 0.03551 -0.06550 -0.36000
v 0.03551 -0.06550 -0.89000
v -0.08300 0.01500 -0.66000
v 0.08300 0.01500 -0.66000
v 0.10000 0.03200 -0.66000
v 0.10000 0.09800 -0.66000
v 0.08300 0.11500 -0.66000
v -0.08300 0.11500 -0.66000
v -0.10000 0.09800 -0.66000
v -0.10000 0.03200 -0.66000
v -0.08300 0.01500 -0.18000
v 0.08300 0.01500 -0.18000
v 0.10000 0.03200 -0.18000
v 0.10000 0.09800 -0.18000
v 0.08300 0.11500 -0.18000
v -0.08300 0.11500 -0.18000
v -0.10000 0.09800 -0.18000
v -0.10000 0.03200 -0.18000
v -0.06260 0.00800 -0.74750
v -0.05740 0.00800 -0.74750
v -0.05500 0.01040 -0.74750
v -0.05500 0.03960 -0.74750
v -0.05740 0.04200 -0.74750
v -0.06260 0.04200 -0.74750
v -0.06500 0.03960 -0.74750
v -0.06500 0.01040 -0.74750
v -0.06260 0.00800 -0.69250
v -0.05740 0.00800 -0.69250
v -0.05500 0.01040 -0.69250
v -0.05500 0.03960 -0.69250
v -0.05740 0.04200 -0.69250
v -0.06260 0.04200 -0.69250
v -0.06500 0.03960 -0.69250
v -0.06500 0.01040 -0.69250
v 0.05740 0.00800 -0.74750
v 0.06260 0.00800 -0.74750
v 0.06500 0.01040 -0.74750
v 0.06500 0.03960 -0.74750
v 0.06260 0.04200 -0.74750
v 0.05740 0.04200 -0.74750
v 0.05500 0.03960 -0.74750
v 0.05500 0.01040 -0.74750
v 0.05740 0.00800 -0.69250
v 0.06260 0.00800 -0.69250
v 0.06500 0.01040 -0.69250
v 0.06500 0.03960 -0.69250
v 0.06260 0.04200 -0.69250
v 0.05740 0.04200 -0.69250
v 0.05500 0.03960 -0.69250
v 0.05500 0.01040 -0.69250
v -0.06260 0.00800 -0.65250
v -0.05740 0.00800 -0.65250
v -0.05500 0.01040 -0.65250
v -0.05500 0.03960 -0.65250
v -0.05740 0.04200 -0.65250
v -0.06260 0.04200 -0.65250
v -0.06500 0.03960 -0.65250
v -0.06500 0.01040 -0.65250
v -0.06260 0.00800 -0.59750
v -0.05740 0.00800 -0.59750
v -0.05500 0.01040 -0.59750
v -0.05500 0.03960 -0.59750
v -0.05740 0.04200 -0.59750
v -0.06260 0.04200 -0.59750
v -0.06500 0.03960 -0.59750
v -0.06500 0.01040 -0.59750
v 0.05740 0.00800 -0.65250
v 0.06260 0.00800 -0.65250
v 0.06500 0.01040 -0.65250
v 0.06500 0.03960 -0.65250
v 0.06260 0.04200 -0.65250
v 0.05740 0.04200 -0.65250
v 0.05500 0.03960 -0.65250
v 0.05500 0.01040 -0.65250
v 0.05740 0.00800 -0.59750
v 0.06260 0.00800 -0.59750
v 0.06500 0.01040 -0.59750
v 0.06500 0.03960 -0.59750
v 0.06260 0.04200 -0.59750
v 0.05740 0.04200 -0.59750
v 0.05500 0.03960 -0.59750
v 0.05500 0.01040 -0.59750
v -0.06260 0.00800 -0.55750
v -0.05740 0.00800 -0.55750
v -0.05500 0.01040 -0.55750
v -0.05500 0.03960 -0.55750
v -0.05740 0.04200 -0.55750
v -0.06260 0.04200 -0.55750
v -0.06500 0.03960 -0.55750
v -0.06500 0.01040 -0.55750
v -0.06260 0.00800 -0.50250
v -0.05740 0.00800 -0.50250
v -0.05500 0.01040 -0.50250
v -0.05500 0.03960 -0.50250
v -0.05740 0.04200 -0.50250
v -0.06260 0.04200 -0.50250
v -0.06500 0.03960 -0.50250
v -0.06500 0.01040 -0.50250
v 0.05740 0.00800 -0.55750
v 0.06260 0.00800 -0.55750
v 0.06500 0.01040 -0.55750
v 0.06500 0.03960 -0.55750
v 0.06260 0.04200 -0.55750
v 0.05740 0.04200 -0.55750
v 0.05500 0.03960 -0.55750
v 0.05500 0.01040 -0.55750
v 0.05740 0.00800 -0.50250
v 0.06260 0.00800 -0.50250
v 0.06500 0.01040 -0.50250
v 0.06500 0.03960 -0.50250
v 0.06260 0.04200 -0.50250
v 0.05740 0.04200 -0.50250
v 0.05500 0.03960 -0.50250
v 0.05500 0.01040 -0.50250
v -0.06260 0.00800 -0.46250
v -0.05740 0.00800 -0.46250
v -0.05500 0.01040 -0.46250
v -0.05500 0.03960 -0.46250
v -0.05740 0.04200 -0.46250
v -0.06260 0.04200 -0.46250
v -0.06500 0.03960 -0.46250
v -0.06500 0.01040 -0.46250
v -0.06260 0.00800 -0.40750
v -0.05740 0.00800 -0.40750
v -0.05500 0.01040 -0.40750
v -0.05500 0.03960 -0.40750
v -0.05740 0.04200 -0.40750
v -0.06260 0.04200 -0.40750
v -0.06500 0.03960 -0.40750
v -0.06500 0.01040 -0.40750
v 0.05740 0.00800 -0.46250
v 0.06260 0.00800 -0.46250
v 0.06500 0.01040 -0.46250
v 0.06500 0.03960 -0.46250
v 0.06260 0.04200 -0.46250
v 0.05740 0.04200 -0.46250
v 0.05500 0.03960 -0.46250
v 0.05500 0.01040 -0.46250
v 0.05740 0.00800 -0.40750
v 0.06260 0.00800 -0.40750
v 0.06500 0.01040 -0.40750
v 0.06500 0.03960 -0.40750
v 0.06260 0.04200 -0.40750
v 0.05740 0.04200 -0.40750
v 0.05500 0.03960 -0.40750
v 0.05500 0.01040 -0.40750
v -0.06260 0.00800 -0.36750
v -0.05740 0.00800 -0.36750
v -0.05500 0.01040 -0.36750
v -0.05500 0.03960 -0.36750
v -0.05740 0.04200 -0.36750
v -0.06260 0.04200 -0.36750
v -0.06500 0.03960 -0.36750
v -0.06500 0.01040 -0.36750
v -0.06260 0.00800 -0.31250
v -0.05740 0.00800 -0.31250
v -0.05500 0.01040 -0.31250
v -0.05500 0.03960 -0.31250
v -0.05740 0.04200 -0.31250
v -0.06260 0.04200 -0.31250
v -0.06500 0.03960 -0.31250
v -0.06500 0.01040 -0.31250
v 0.05740 0.00800 -0.36750
v 0.06260 0.00800 -0.36750
v 0.06500 0.01040 -0.36750
v 0.06500 0.03960 -0.36750
v 0.06260 0.04200 -0.36750
v 0.05740 0.04200 -0.36750
v 0.05500 0.03960 -0.36750
v 0.05500 0.01040 -0.36750
v 0.05740 0.00800 -0.31250
v 0.06260 0.00800 -0.31250
v 0.06500 0.01040 -0.31250
v 0.06500 0.03960 -0.31250
v 0.06260 0.04200 -0.31250
v 0.05740 0.04200 -0.31250
v 0.05500 0.03960 -0.31250
v 0.05500 0.01040 -0.31250
v -0.06260 0.00800 -0.27250
v -0.05740 0.00800 -0.27250
v -0.05500 0.01040 -0.27250
v -0.05500 0.03960 -0.27250
v -0.05740 0.04200 -0.27250
v -0.06260 0.04200 -0.27250
v -0.06500 0.03960 -0.27250
v -0.06500 0.01040 -0.27250
v -0.06260 0.00800 -0.21750
v -0.05740 0.00800 -0.21750
v -0.05500 0.01040 -0.21750
v -0.05500 0.03960 -0.21750
v -0.05740 0.04200 -0.21750
v -0.06260 0.04200 -0.21750
v -0.06500 0.03960 -0.21750
v -0.06500 0.01040 -0.21750
v 0.05740 0.00800 -0.27250
v 0.06260 0.00800 -0.27250
v 0.06500 0.01040 -0.27250
v 0.06500 0.03960 -0.27250
v 0.06260 0.04200 -0.27250
v 0.05740 0.04200 -0.27250
v 0.05500 0.03960 -0.27250
v 0.05500 0.01040 -0.27250
v 0.05740 0.00800 -0.21750
v 0.06260 0.00800 -0.21750
v 0.06500 0.01040 -0.21750
v 0.06500 0.03960 -0.21750
v 0.06260 0.04200 -0.21750
v 0.05740 0.04200 -0.21750
v 0.05500 0.03960 -0.21750
v 0.05500 0.01040 -0.21750
v -0.05126 0.12100 -0.79000
v 0.05126 0.12100 -0.79000
v 0.05750 0.12724 -0.79000
v 0.05750 0.14076 -0.79000
v 0.05126 0.14700 -0.79000
v -0.05126 0.14700 -0.79000
v -0.05750 0.14076 -0.79000
v -0.05750 0.12724 -0.79000
v -0.05126 0.12100 0.32000
v 0.05126 0.12100 0.32000
v 0.05750 0.12724 0.32000
v 0.05750 0.14076 0.32000
v 0.05126 0.14700 0.32000
v -0.05126 0.14700 0.32000
v -0.05750 0.14076 0.32000
v -0.05750 0.12724 0.32000
v -0.05640 0.14650 -0.77600
v 0.05640 0.14650 -0.77600
v 0.06000 0.15010 -0.77600
v 0.06000 0.15790 -0.77600
v 0.05640 0.16150 -0.77600
v -0.05640 0.16150 -0.77600
v -0.06000 0.15790 -0.77600
v -0.06000 0.15010 -0.77600
v -0.05640 0.14650 -0.76400
v 0.05640 0.14650 -0.76400
v 0.06000 0.15010 -0.76400
v 0.06000 0.15790 -0.76400
v 0.05640 0.16150 -0.76400
v -0.05640 0.16150 -0.76400
v -0.06000 0.15790 -0.76400
v -0.06000 0.15010 -0.76400
v -0.05640 0.14650 -0.72400
v 0.05640 0.14650 -0.72400
v 0.06000 0.15010 -0.72400
v 0.06000 0.15790 -0.72400
v 0.05640 0.16150 -0.72400
v -0.05640 0.16150 -0.72400
v -0.06000 0.15790 -0.72400
v -0.06000 0.15010 -0.72400
v -0.05640 0.14650 -0.71200
v 0.05640 0.14650 -0.71200
v 0.06000 0.15010 -0.71200
v 0.06000 0.15790 -0.71200
v 0.05640 0.16150 -0.71200
v -0.05640 0.16150 -0.71200
v -0.06000 0.15790 -0.71200
v -0.06000 0.15010 -0.71200
v -0.05640 0.14650 -0.67200
v 0.05640 0.14650 -0.67200
v 0.06000 0.15010 -0.67200
v 0.06000 0.15790 -0.67200
v 0.05640 0.16150 -0.67200
v -0.05640 0.16150 -0.67200
v -0.06000 0.15790 -0.67200
v -0.06000 0.15010 -0.67200
v -0.05640 0.14650 -0.66000
v 0.05640 0.14650 -0.66000
v 0.06000 0.15010 -0.66000
v 0.06000 0.15790 -0.66000
v 0.05640 0.16150 -0.66000
v -0.05640 0.16150 -0.66000
v -0.06000 0.15790 -0.66000
v -0.06000 0.15010 -0.66000
v -0.05640 0.14650 -0.62000
v 0.05640 0.14650 -0.62000
v 0.06000 0.15010 -0.62000
v 0.06000 0.15790 -0.62000
v 0.05640 0.16150 -0.62000
v -0.05640 0.16150 -0.62000
v -0.06000 0.15790 -0.62000
v -0.06000 0.15010 -0.62000
v -0.05640 0.14650 -0.60800
v 0.05640 0.14650 -0.60800
v 0.06000 0.15010 -0.60800
v 0.06000 0.15790 -0.60800
v 0.05640 0.16150 -0.60800
v -0.05640 0.16150 -0.60800
v -0.06000 0.15790 -0.60800
v -0.06000 0.15010 -0.60800
v -0.05640 0.14650 -0.56800
v 0.05640 0.14650 -0.56800
v 0.06000 0.15010 -0.56800
v 0.06000 0.15790 -0.56800
v 0.05640 0.16150 -0.56800
v -0.05640 0.16150 -0.56800
v -0.06000 0.15790 -0.56800
v -0.06000 0.15010 -0.56800
v -0.05640 0.14650 -0.55600
v 0.05640 0.14650 -0.55600
v 0.06000 0.15010 -0.55600
v 0.06000 0.15790 -0.55600
v 0.05640 0.16150 -0.55600
v -0.05640 0.16150 -0.55600
v -0.06000 0.15790 -0.55600
v -0.06000 0.15010 -0.55600
v -0.05640 0.14650 -0.51600
v 0.05640 0.14650 -0.51600
v 0.06000 0.15010 -0.51600
v 0.06000 0.15790 -0.51600
v 0.05640 0.16150 -0.51600
v -0.05640 0.16150 -0.51600
v -0.06000 0.15790 -0.51600
v -0.06000 0.15010 -0.51600
v -0.05640 0.14650 -0.50400
v 0.05640 0.14650 -0.50400
v 0.06000 0.15010 -0.50400
v 0.06000 0.15790 -0.50400
v 0.05640 0.16150 -0.50400
v -0.05640 0.16150 -0.50400
v -0.06000 0.15790 -0.50400
v -0.06000 0.15010 -0.50400
v -0.05640 0.14650 -0.46400
v 0.05640 0.14650 -0.46400
v 0.06000 0.15010 -0.46400
v 0.06000 0.15790 -0.46400
v 0.05640 0.16150 -0.46400
v -0.05640 0.16150 -0.46400
v -0.06000 0.15790 -0.46400
v -0.06000 0.15010 -0.46400
v -0.05640 0.14650 -0.45200
v 0.05640 0.14650 -0.45200
v 0.06000 0.15010 -0.45200
v 0.06000 0.15790 -0.45200
v 0.05640 0.16150 -0.45200
v -0.05640 0.16150 -0.45200
v -0.06000 0.15790 -0.45200
v -0.06000 0.15010 -0.45200
v -0.05640 0.14650 -0.41200
v 0.05640 0.14650 -0.41200
v 0.06000 0.15010 -0.41200
v 0.06000 0.15790 -0.41200
v 0.05640 0.16150 -0.41200
v -0.05640 0.16150 -0.41200
v -0.06000 0.15790 -0.41200
v -0.06000 0.15010 -0.41200
v -0.05640 0.14650 -0.40000
v 0.05640 0.14650 -0.40000
v 0.06000 0.15010 -0.40000
v 0.06000 0.15790 -0.40000
v 0.05640 0.16150 -0.40000
v -0.05640 0.16150 -0.40000
v -0.06000 0.15790 -0.40000
v -0.06000 0.15010 -0.40000
v -0.05640 0.14650 -0.36000
v 0.05640 0.14650 -0.36000
v 0.06000 0.15010 -0.36000
v 0.06000 0.15790 -0.36000
v 0.05640 0.16150 -0.36000
v -0.05640 0.16150 -0.36000
v -0.06000 0.15790 -0.36000
v -0.06000 0.15010 -0.36000
v -0.05640 0.14650 -0.34800
v 0.05640 0.14650 -0.34800
v 0.06000 0.15010 -0.34800
v 0.06000 0.15790 -0.34800
v 0.05640 0.16150 -0.34800
v -0.05640 0.16150 -0.34800
v -0.06000 0.15790 -0.34800
v -0.06000 0.15010 -0.34800
v -0.05640 0.14650 -0.30800
v 0.05640 0.14650 -0.30800
v 0.06000 0.15010 -0.30800
v 0.06000 0.15790 -0.30800
v 0.05640 0.16150 -0.30800
v -0.05640 0.16150 -0.30800
v -0.06000 0.15790 -0.30800
v -0.06000 0.15010 -0.30800
v -0.05640 0.14650 -0.29600
v 0.05640 0.14650 -0.29600
v 0.06000 0.15010 -0.29600
v 0.06000 0.15790 -0.29600
v 0.05640 0.16150 -0.29600
v -0.05640 0.16150 -0.29600
v -0.06000 0.15790 -0.29600
v -0.06000 0.15010 -0.29600
v -0.05640 0.14650 -0.25600
v 0.05640 0.14650 -0.25600
v 0.06000 0.15010 -0.25600
v 0.06000 0.15790 -0.25600
v 0.05640 0.16150 -0.25600
v -0.05640 0.16150 -0.25600
v -0.06000 0.15790 -0.25600
v -0.06000 0.15010 -0.25600
v -0.05640 0.14650 -0.24400
v 0.05640 0.14650 -0.24400
v 0.06000 0.15010 -0.24400
v 0.06000 0.15790 -0.24400
v 0.05640 0.16150 -0.24400
v -0.05640 0.16150 -0.24400
v -0.06000 0.15790 -0.24400
v -0.06000 0.15010 -0.24400
v -0.05640 0.14650 -0.20400
v 0.05640 0.14650 -0.20400
v 0.06000 0.15010 -0.20400
v 0.06000 0.15790 -0.20400
v 0.05640 0.16150 -0.20400
v -0.05640 0.16150 -0.20400
v -0.06000 0.15790 -0.20400
v -0.06000 0.15010 -0.20400
v -0.05640 0.14650 -0.19200
v 0.05640 0.14650 -0.19200
v 0.06000 0.15010 -0.19200
v 0.06000 0.15790 -0.19200
v 0.05640 0.16150 -0.19200
v -0.05640 0.16150 -0.19200
v -0.06000 0.15790 -0.19200
v -0.06000 0.15010 -0.19200
v -0.05640 0.14650 -0.15200
v 0.05640 0.14650 -0.15200
v 0.06000 0.15010 -0.15200
v 0.06000 0.15790 -0.15200
v 0.05640 0.16150 -0.15200
v -0.05640 0.16150 -0.15200
v -0.06000 0.15790 -0.15200
v -0.06000 0.15010 -0.15200
v -0.05640 0.14650 -0.14000
v 0.05640 0.14650 -0.14000
v 0.06000 0.15010 -0.14000
v 0.06000 0.15790 -0.14000
v 0.05640 0.16150 -0.14000
v -0.05640 0.16150 -0.14000
v -0.06000 0.15790 -0.14000
v -0.06000 0.15010 -0.14000
v -0.05640 0.14650 -0.10000
v 0.05640 0.14650 -0.10000
v 0.06000 0.15010 -0.10000
v 0.06000 0.15790 -0.10000
v 0.05640 0.16150 -0.10000
v -0.05640 0.16150 -0.10000
v -0.06000 0.15790 -0.10000
v -0.06000 0.15010 -0.10000
v -0.05640 0.14650 -0.08800
v 0.05640 0.14650 -0.08800
v 0.06000 0.15010 -0.08800
v 0.06000 0.15790 -0.08800
v 0.05640 0.16150 -0.08800
v -0.05640 0.16150 -0.08800
v -0.06000 0.15790 -0.08800
v -0.06000 0.15010 -0.08800
v -0.05640 0.14650 -0.04800
v 0.05640 0.14650 -0.04800
v 0.06000 0.15010 -0.04800
v 0.06000 0.15790 -0.04800
v 0.05640 0.16150 -0.04800
v -0.05640 0.16150 -0.04800
v -0.06000 0.15790 -0.04800
v -0.06000 0.15010 -0.04800
v -0.05640 0.14650 -0.03600
v 0.05640 0.14650 -0.03600
v 0.06000 0.15010 -0.03600
v 0.06000 0.15790 -0.03600
v 0.05640 0.16150 -0.03600
v -0.05640 0.16150 -0.03600
v -0.06000 0.15790 -0.03600
v -0.06000 0.15010 -0.03600
v -0.05640 0.14650 0.00400
v 0.05640 0.14650 0.00400
v 0.06000 0.15010 0.00400
v 0.06000 0.15790 0.00400
v 0.05640 0.16150 0.00400
v -0.05640 0.16150 0.00400
v -0.06000 0.15790 0.00400
v -0.06000 0.15010 0.00400
v -0.05640 0.14650 0.01600
v 0.05640 0.14650 0.01600
v 0.06000 0.15010 0.01600
v 0.06000 0.15790 0.01600
v 0.05640 0.16150 0.01600
v -0.05640 0.16150 0.01600
v -0.06000 0.15790 0.01600
v -0.06000 0.15010 0.01600
v -0.05640 0.14650 0.05600
v 0.05640 0.14650 0.05600
v 0.06000 0.15010 0.05600
v 0.06000 0.15790 0.05600
v 0.05640 0.16150 0.05600
v -0.05640 0.16150 0.05600
v -0.06000 0.15790 0.05600
v -0.06000 0.15010 0.05600
v -0.05640 0.14650 0.06800
v 0.05640 0.14650 0.06800
v 0.06000 0.15010 0.06800
v 0.06000 0.15790 0.06800
v 0.05640 0.16150 0.06800
v -0.05640 0.16150 0.06800
v -0.06000 0.15790 0.06800
v -0.06000 0.15010 0.06800
v -0.05640 0.14650 0.10800
v 0.05640 0.14650 0.10800
v 0.06000 0.15010 0.10800
v 0.06000 0.15790 0.10800
v 0.05640 0.16150 0.10800
v -0.05640 0.16150 0.10800
v -0.06000 0.15790 0.10800
v -0.06000 0.15010 0.10800
v -0.05640 0.14650 0.12000
v 0.05640 0.14650 0.12000
v 0.06000 0.15010 0.12000
v 0.06000 0.15790 0.12000
v 0.05640 0.16150 0.12000
v -0.05640 0.16150 0.12000
v -0.06000 0.15790 0.12000
v -0.06000 0.15010 0.12000
v -0.05640 0.14650 0.16000
v 0.05640 0.14650 0.16000
v 0.06000 0.15010 0.16000
v 0.06000 0.15790 0.16000
v 0.05640 0.16150 0.16000
v -0.05640 0.16150 0.16000
v -0.06000 0.15790 0.16000
v -0.06000 0.15010 0.16000
v -0.05640 0.14650 0.17200
v 0.05640 0.14650 0.17200
v 0.06000 0.15010 0.17200
v 0.06000 0.15790 0.17200
v 0.05640 0.16150 0.17200
v -0.05640 0.16150 0.17200
v -0.06000 0.15790 0.17200
v -0.06000 0.15010 0.17200
v -0.05640 0.14650 0.21200
v 0.05640 0.14650 0.21200
v 0.06000 0.15010 0.21200
v 0.06000 0.15790 0.21200
v 0.05640 0.16150 0.21200
v -0.05640 0.16150 0.21200
v -0.06000 0.15790 0.21200
v -0.06000 0.15010 0.21200
v -0.05640 0.14650 0.22400
v 0.05640 0.14650 0.22400
v 0.06000 0.15010 0.22400
v 0.06000 0.15790 0.22400
v 0.05640 0.16150 0.22400
v -0.05640 0.16150 0.22400
v -0.06000 0.15790 0.22400
v -0.06000 0.15010 0.22400
v -0.05640 0.14650 0.26400
v 0.05640 0.14650 0.26400
v 0.06000 0.15010 0.26400
v 0.06000 0.15790 0.26400
v 0.05640 0.16150 0.26400
v -0.05640 0.16150 0.26400
v -0.06000 0.15790 0.26400
v -0.06000 0.15010 0.26400
v -0.05640 0.14650 0.27600
v 0.05640 0.14650 0.27600
v 0.06000 0.15010 0.27600
v 0.06000 0.15790 0.27600
v 0.05640 0.16150 0.27600
v -0.05640 0.16150 0.27600
v -0.06000 0.15790 0.27600
v -0.06000 0.15010 0.27600
v -0.03900 0.13500 -0.04000
v 0.03900 0.13500 -0.04000
v 0.05500 0.15100 -0.04000
v 0.05500 0.18900 -0.04000
v 0.03900 0.20500 -0.04000
v -0.03900 0.20500 -0.04000
v -0.05500 0.18900 -0.04000
v -0.05500 0.15100 -0.04000
v -0.03900 0.13500 0.08000
v 0.03900 0.13500 0.08000
v 0.05500 0.15100 0.08000
v 0.05500 0.18900 0.08000
v 0.03900 0.20500 0.08000
v -0.03900 0.20500 0.08000
v -0.05500 0.18900 0.08000
v -0.05500 0.15100 0.08000
v -0.06340 0.17500 -0.04500
v 0.06340 0.17500 -0.04500
v 0.08500 0.19660 -0.04500
v 0.08500 0.24340 -0.04500
v 0.06340 0.26500 -0.04500
v -0.06340 0.26500 -0.04500
v -0.08500 0.24340 -0.04500
v -0.08500 0.19660 -0.04500
v -0.06340 0.17500 0.08500
v 0.06340 0.17500 0.08500
v 0.08500 0.19660 0.08500
v 0.08500 0.24340 0.08500
v 0.06340 0.26500 0.08500
v -0.06340 0.26500 0.08500
v -0.08500 0.24340 0.08500
v -0.08500 0.19660 0.08500
v -0.06400 0.22000 -0.05000
v -0.06400 0.22000 0.09000
v -0.05913 0.24449 -0.05000
v -0.05913 0.24449 0.09000
v -0.04525 0.26525 -0.05000
v -0.04525 0.26525 0.09000
v -0.02449 0.27913 -0.05000
v -0.02449 0.27913 0.09000
v -0.00000 0.28400 -0.05000
v -0.00000 0.28400 0.09000
v 0.02449 0.27913 -0.05000
v 0.02449 0.27913 0.09000
v 0.04525 0.26525 -0.05000
v 0.04525 0.26525 0.09000
v 0.05913 0.24449 -0.05000
v 0.05913 0.24449 0.09000
v 0.06400 0.22000 -0.05000
v 0.06400 0.22000 0.09000
v 0.05913 0.19551 -0.05000
v 0.05913 0.19551 0.09000
v 0.04525 0.17475 -0.05000
v 0.04525 0.17475 0.09000
v 0.02449 0.16087 -0.05000
v 0.02449 0.16087 0.09000
v 0.00000 0.15600 -0.05000
v 0.00000 0.15600 0.09000
v -0.02449 0.16087 -0.05000
v -0.02449 0.16087 0.09000
v -0.04525 0.17475 -0.05000
v -0.04525 0.17475 0.09000
v -0.05913 0.19551 -0.05000
v -0.05913 0.19551 0.09000
v 0.04800 0.22000 -0.05200
v 0.04800 0.22000 -0.06000
v 0.04435 0.23837 -0.05200
v 0.04435 0.23837 -0.06000
v 0.03394 0.25394 -0.05200
v 0.03394 0.25394 -0.06000
v 0.01837 0.26435 -0.05200
v 0.01837 0.26435 -0.06000
v 0.00000 0.26800 -0.05200
v 0.00000 0.26800 -0.06000
v -0.01837 0.26435 -0.05200
v -0.01837 0.26435 -0.06000
v -0.03394 0.25394 -0.05200
v -0.03394 0.25394 -0.06000
v -0.04435 0.23837 -0.05200
v -0.04435 0.23837 -0.06000
v -0.04800 0.22000 -0.05200
v -0.04800 0.22000 -0.06000
v -0.04435 0.20163 -0.05200
v -0.04435 0.20163 -0.06000
v -0.03394 0.18606 -0.05200
v -0.03394 0.18606 -0.06000
v -0.01837 0.17565 -0.05200
v -0.01837 0.17565 -0.06000
v -0.00000 0.17200 -0.05200
v -0.00000 0.17200 -0.06000
v 0.01837 0.17565 -0.05200
v 0.01837 0.17565 -0.06000
v 0.03394 0.18606 -0.05200
v 0.03394 0.18606 -0.06000
v 0.04435 0.20163 -0.05200
v 0.04435 0.20163 -0.06000
v -0.00818 0.28100 -0.04000
v 0.00818 0.28100 -0.04000
v 0.01250 0.28532 -0.04000
v 0.01250 0.29468 -0.04000
v 0.00818 0.29900 -0.04000
v -0.00818 0.29900 -0.04000
v -0.01250 0.29468 -0.04000
v -0.01250 0.28532 -0.04000
v -0.00818 0.28100 0.08000
v 0.00818 0.28100 0.08000
v 0.01250 0.28532 0.08000
v 0.01250 0.29468 0.08000
v 0.00818 0.29900 0.08000
v -0.00818 0.29900 0.08000
v -0.01250 0.29468 0.08000
v -0.01250 0.28532 0.08000
v 0.10090 0.00250 0.16000
v 0.15910 0.00250 0.16000
v 0.16750 0.01090 0.16000
v 0.16750 0.02910 0.16000
v 0.15910 0.03750 0.16000
v 0.10090 0.03750 0.16000
v 0.09250 0.02910 0.16000
v 0.09250 0.01090 0.16000
v 0.10090 0.00250 0.22000
v 0.15910 0.00250 0.22000
v 0.16750 0.01090 0.22000
v 0.16750 0.02910 0.22000
v 0.15910 0.03750 0.22000
v 0.10090 0.03750 0.22000
v 0.09250 0.02910 0.22000
v 0.09250 0.01090 0.22000
v 0.14000 -0.01000 0.16900
v 0.20000 -0.01000 0.16900
v 0.20500 -0.00500 0.16900
v 0.20500 0.02500 0.16900
v 0.20000 0.03000 0.16900
v 0.14000 0.03000 0.16900
v 0.13500 0.02500 0.16900
v 0.13500 -0.00500 0.16900
v 0.14000 -0.01000 0.19100
v 0.20000 -0.01000 0.19100
v 0.20500 -0.00500 0.19100
v 0.20500 0.02500 0.19100
v 0.20000 0.03000 0.19100
v 0.14000 0.03000 0.19100
v 0.13500 0.02500 0.19100
v 0.13500 -0.00500 0.19100
v -0.02340 -0.42992 0.15610
v 0.02340 -0.42992 0.15610
v 0.04500 -0.40875 0.15180
v 0.04500 -0.15707 0.10079
v 0.02340 -0.13590 0.09650
v -0.02340 -0.13590 0.09650
v -0.04500 -0.15707 0.10079
v -0.04500 -0.40875 0.15180
v -0.02340 -0.40410 0.28350
v 0.02340 -0.40410 0.28350
v 0.04500 -0.38293 0.27921
v 0.04500 -0.13125 0.22820
v 0.02340 -0.11008 0.22390
v -0.02340 -0.11008 0.22390
v -0.04500 -0.13125 0.22820
v -0.04500 -0.38293 0.27921
v 0.04644 -0.38400 0.14000
v 0.04956 -0.38400 0.14000
v 0.05100 -0.38256 0.14000
v 0.05100 -0.37744 0.14000
v 0.04956 -0.37600 0.14000
v 0.04644 -0.37600 0.14000
v 0.04500 -0.37744 0.14000
v 0.04500 -0.38256 0.14000
v 0.04644 -0.38400 0.24000
v 0.04956 -0.38400 0.24000
v 0.05100 -0.38256 0.24000
v 0.05100 -0.37744 0.24000
v 0.04956 -0.37600 0.24000
v 0.04644 -0.37600 0.24000
v 0.04500 -0.37744 0.24000
v 0.04500 -0.38256 0.24000
v 0.04644 -0.35800 0.14000
v 0.04956 -0.35800 0.14000
v 0.05100 -0.35656 0.14000
v 0.05100 -0.35144 0.14000
v 0.04956 -0.35000 0.14000
v 0.04644 -0.35000 0.14000
v 0.04500 -0.35144 0.14000
v 0.04500 -0.35656 0.14000
v 0.04644 -0.35800 0.24000
v 0.04956 -0.35800 0.24000
v 0.05100 -0.35656 0.24000
v 0.05100 -0.35144 0.24000
v 0.04956 -0.35000 0.24000
v 0.04644 -0.35000 0.24000
v 0.04500 -0.35144 0.24000
v 0.04500 -0.35656 0.24000
v 0.04644 -0.33200 0.14000
v 0.04956 -0.33200 0.14000
v 0.05100 -0.33056 0.14000
v 0.05100 -0.32544 0.14000
v 0.04956 -0.32400 0.14000
v 0.04644 -0.32400 0.14000
v 0.04500 -0.32544 0.14000
v 0.04500 -0.33056 0.14000
v 0.04644 -0.33200 0.24000
v 0.04956 -0.33200 0.24000
v 0.05100 -0.33056 0.24000
v 0.05100 -0.32544 0.24000
v 0.04956 -0.32400 0.24000
v 0.04644 -0.32400 0.24000
v 0.04500 -0.32544 0.24000
v 0.04500 -0.33056 0.24000
v 0.04644 -0.30600 0.14000
v 0.04956 -0.30600 0.14000
v 0.05100 -0.30456 0.14000
v 0.05100 -0.29944 0.14000
v 0.04956 -0.29800 0.14000
v 0.04644 -0.29800 0.14000
v 0.04500 -0.29944 0.14000
v 0.04500 -0.30456 0.14000
v 0.04644 -0.30600 0.24000
v 0.04956 -0.30600 0.24000
v 0.05100 -0.30456 0.24000
v 0.05100 -0.29944 0.24000
v 0.04956 -0.29800 0.24000
v 0.04644 -0.29800 0.24000
v 0.04500 -0.29944 0.24000
v 0.04500 -0.30456 0.24000
v 0.04644 -0.28000 0.14000
v 0.04956 -0.28000 0.14000
v 0.05100 -0.27856 0.14000
v 0.05100 -0.27344 0.14000
v 0.04956 -0.27200 0.14000
v 0.04644 -0.27200 0.14000
v 0.04500 -0.27344 0.14000
v 0.04500 -0.27856 0.14000
v 0.04644 -0.28000 0.24000
v 0.04956 -0.28000 0.24000
v 0.05100 -0.27856 0.24000
v 0.05100 -0.27344 0.24000
v 0.04956 -0.27200 0.24000
v 0.04644 -0.27200 0.24000
v 0.04500 -0.27344 0.24000
v 0.04500 -0.27856 0.24000
v 0.04644 -0.25400 0.14000
v 0.04956 -0.25400 0.14000
v 0.05100 -0.25256 0.14000
v 0.05100 -0.24744 0.14000
v 0.04956 -0.24600 0.14000
v 0.04644 -0.24600 0.14000
v 0.04500 -0.24744 0.14000
v 0.04500 -0.25256 0.14000
v 0.04644 -0.25400 0.24000
v 0.04956 -0.25400 0.24000
v 0.05100 -0.25256 0.24000
v 0.05100 -0.24744 0.24000
v 0.04956 -0.24600 0.24000
v 0.04644 -0.24600 0.24000
v 0.04500 -0.24744 0.24000
v 0.04500 -0.25256 0.24000
v 0.04644 -0.22800 0.14000
v 0.04956 -0.22800 0.14000
v 0.05100 -0.22656 0.14000
v 0.05100 -0.22144 0.14000
v 0.04956 -0.22000 0.14000
v 0.04644 -0.22000 0.14000
v 0.04500 -0.22144 0.14000
v 0.04500 -0.22656 0.14000
v 0.04644 -0.22800 0.24000
v 0.04956 -0.22800 0.24000
v 0.05100 -0.22656 0.24000
v 0.05100 -0.22144 0.24000
v 0.04956 -0.22000 0.24000
v 0.04644 -0.22000 0.24000
v 0.04500 -0.22144 0.24000
v 0.04500 -0.22656 0.24000
v 0.04644 -0.20200 0.14000
v 0.04956 -0.20200 0.14000
v 0.05100 -0.20056 0.14000
v 0.05100 -0.19544 0.14000
v 0.04956 -0.19400 0.14000
v 0.04644 -0.19400 0.14000
v 0.04500 -0.19544 0.14000
v 0.04500 -0.20056 0.14000
v 0.04644 -0.20200 0.24000
v 0.04956 -0.20200 0.24000
v 0.05100 -0.20056 0.24000
v 0.05100 -0.19544 0.24000
v 0.04956 -0.19400 0.24000
v 0.04644 -0.19400 0.24000
v 0.04500 -0.19544 0.24000
v 0.04500 -0.20056 0.24000
v 0.04644 -0.17600 0.14000
v 0.04956 -0.17600 0.14000
v 0.05100 -0.17456 0.14000
v 0.05100 -0.16944 0.14000
v 0.04956 -0.16800 0.14000
v 0.04644 -0.16800 0.14000
v 0.04500 -0.16944 0.14000
v 0.04500 -0.17456 0.14000
v 0.04644 -0.17600 0.24000
v 0.04956 -0.17600 0.24000
v 0.05100 -0.17456 0.24000
v 0.05100 -0.16944 0.24000
v 0.04956 -0.16800 0.24000
v 0.04644 -0.16800 0.24000
v 0.04500 -0.16944 0.24000
v 0.04500 -0.17456 0.24000
v -0.04972 -0.43600 0.13400
v 0.04972 -0.43600 0.13400
v 0.05500 -0.43072 0.13400
v 0.05500 -0.41928 0.13400
v 0.04972 -0.41400 0.13400
v -0.04972 -0.41400 0.13400
v -0.05500 -0.41928 0.13400
v -0.05500 -0.43072 0.13400
v -0.04972 -0.43600 0.27400
v 0.04972 -0.43600 0.27400
v 0.05500 -0.43072 0.27400
v 0.05500 -0.41928 0.27400
v 0.04972 -0.41400 0.27400
v -0.04972 -0.41400 0.27400
v -0.05500 -0.41928 0.27400
v -0.05500 -0.43072 0.27400
v -0.03150 -0.43162 -0.15541
v 0.03150 -0.43162 -0.15541
v 0.05250 -0.41099 -0.15144
v 0.05250 -0.16746 -0.10460
v 0.03150 -0.14683 -0.10064
v -0.03150 -0.14683 -0.10064
v -0.05250 -0.16746 -0.10460
v -0.05250 -0.41099 -0.15144
v -0.03150 -0.47317 0.06064
v 0.03150 -0.47317 0.06064
v 0.05250 -0.45254 0.06460
v 0.05250 -0.20901 0.11144
v 0.03150 -0.18838 0.11541
v -0.03150 -0.18838 0.11541
v -0.05250 -0.20901 0.11144
v -0.05250 -0.45254 0.06460
v -0.05332 -0.46600 -0.11000
v 0.05332 -0.46600 -0.11000
v 0.06100 -0.45832 -0.11000
v 0.06100 -0.44168 -0.11000
v 0.05332 -0.43400 -0.11000
v -0.05332 -0.43400 -0.11000
v -0.06100 -0.44168 -0.11000
v -0.06100 -0.45832 -0.11000
v -0.05332 -0.46600 0.13000
v 0.05332 -0.46600 0.13000
v 0.06100 -0.45832 0.13000
v 0.06100 -0.44168 0.13000
v 0.05332 -0.43400 0.13000
v -0.05332 -0.43400 0.13000
v -0.06100 -0.44168 0.13000
v -0.06100 -0.45832 0.13000
v 0.05318 -0.41150 -0.09700
v 0.05682 -0.41150 -0.09700
v 0.05850 -0.40982 -0.09700
v 0.05850 -0.40018 -0.09700
v 0.05682 -0.39850 -0.09700
v 0.05318 -0.39850 -0.09700
v 0.05150 -0.40018 -0.09700
v 0.05150 -0.40982 -0.09700
v 0.05318 -0.41150 0.05700
v 0.05682 -0.41150 0.05700
v 0.05850 -0.40982 0.05700
v 0.05850 -0.40018 0.05700
v 0.05682 -0.39850 0.05700
v 0.05318 -0.39850 0.05700
v 0.05150 -0.40018 0.05700
v 0.05150 -0.40982 0.05700
v 0.05318 -0.37650 -0.09700
v 0.05682 -0.37650 -0.09700
v 0.05850 -0.37482 -0.09700
v 0.05850 -0.36518 -0.09700
v 0.05682 -0.36350 -0.09700
v 0.05318 -0.36350 -0.09700
v 0.05150 -0.36518 -0.09700
v 0.05150 -0.37482 -0.09700
v 0.05318 -0.37650 0.05700
v 0.05682 -0.37650 0.05700
v 0.05850 -0.37482 0.05700
v 0.05850 -0.36518 0.05700
v 0.05682 -0.36350 0.05700
v 0.05318 -0.36350 0.05700
v 0.05150 -0.36518 0.05700
v 0.05150 -0.37482 0.05700
v 0.05318 -0.34150 -0.09700
v 0.05682 -0.34150 -0.09700
v 0.05850 -0.33982 -0.09700
v 0.05850 -0.33018 -0.09700
v 0.05682 -0.32850 -0.09700
v 0.05318 -0.32850 -0.09700
v 0.05150 -0.33018 -0.09700
v 0.05150 -0.33982 -0.09700
v 0.05318 -0.34150 0.05700
v 0.05682 -0.34150 0.05700
v 0.05850 -0.33982 0.05700
v 0.05850 -0.33018 0.05700
v 0.05682 -0.32850 0.05700
v 0.05318 -0.32850 0.05700
v 0.05150 -0.33018 0.05700
v 0.05150 -0.33982 0.05700
v 0.05318 -0.30650 -0.09700
v 0.05682 -0.30650 -0.09700
v 0.05850 -0.30482 -0.09700
v 0.05850 -0.29518 -0.09700
v 0.05682 -0.29350 -0.09700
v 0.05318 -0.29350 -0.09700
v 0.05150 -0.29518 -0.09700
v 0.05150 -0.30482 -0.09700
v 0.05318 -0.30650 0.05700
v 0.05682 -0.30650 0.05700
v 0.05850 -0.30482 0.05700
v 0.05850 -0.29518 0.05700
v 0.05682 -0.29350 0.05700
v 0.05318 -0.29350 0.05700
v 0.05150 -0.29518 0.05700
v 0.05150 -0.30482 0.05700
v 0.05318 -0.27150 -0.09700
v 0.05682 -0.27150 -0.09700
v 0.05850 -0.26982 -0.09700
v 0.05850 -0.26018 -0.09700
v 0.05682 -0.25850 -0.09700
v 0.05318 -0.25850 -0.09700
v 0.05150 -0.26018 -0.09700
v 0.05150 -0.26982 -0.09700
v 0.05318 -0.27150 0.05700
v 0.05682 -0.27150 0.05700
v 0.05850 -0.26982 0.05700
v 0.05850 -0.26018 0.05700
v 0.05682 -0.25850 0.05700
v 0.05318 -0.25850 0.05700
v 0.05150 -0.26018 0.05700
v 0.05150 -0.26982 0.05700
v -0.01972 -0.17100 -0.06000
v 0.01972 -0.17100 -0.06000
v 0.02500 -0.16572 -0.06000
v 0.02500 -0.15428 -0.06000
v 0.01972 -0.14900 -0.06000
v -0.01972 -0.14900 -0.06000
v -0.02500 -0.15428 -0.06000
v -0.02500 -0.16572 -0.06000
v -0.01972 -0.17100 0.14000
v 0.01972 -0.17100 0.14000
v 0.02500 -0.16572 0.14000
v 0.02500 -0.15428 0.14000
v 0.01972 -0.14900 0.14000
v -0.01972 -0.14900 0.14000
v -0.02500 -0.15428 0.14000
v -0.02500 -0.16572 0.14000
v -0.00600 -0.24000 0.06000
v 0.00600 -0.24000 0.06000
v 0.01000 -0.23600 0.06000
v 0.01000 -0.16400 0.06000
v 0.00600 -0.16000 0.06000
v -0.00600 -0.16000 0.06000
v -0.01000 -0.16400 0.06000
v -0.01000 -0.23600 0.06000
v -0.00600 -0.24000 0.08000
v 0.00600 -0.24000 0.08000
v 0.01000 -0.23600 0.08000
v 0.01000 -0.16400 0.08000
v 0.00600 -0.16000 0.08000
v -0.00600 -0.16000 0.08000
v -0.01000 -0.16400 0.08000
v -0.01000 -0.23600 0.08000
v -0.04500 0.01200 0.27000
v -0.04500 0.01200 0.66000
v -0.03897 0.03450 0.27000
v -0.03897 0.03450 0.66000
v -0.02250 0.05097 0.27000
v -0.02250 0.05097 0.66000
v -0.00000 0.05700 0.27000
v -0.00000 0.05700 0.66000
v 0.02250 0.05097 0.27000
v 0.02250 0.05097 0.66000
v 0.03897 0.03450 0.27000
v 0.03897 0.03450 0.66000
v 0.04500 0.01200 0.27000
v 0.04500 0.01200 0.66000
v 0.03897 -0.01050 0.27000
v 0.03897 -0.01050 0.66000
v 0.02250 -0.02697 0.27000
v 0.02250 -0.02697 0.66000
v 0.00000 -0.03300 0.27000
v 0.00000 -0.03300 0.66000
v -0.02250 -0.02697 0.27000
v -0.02250 -0.02697 0.66000
v -0.03897 -0.01050 0.27000
v -0.03897 -0.01050 0.66000
v -0.07500 -0.13000 0.50000
v 0.07500 -0.13000 0.50000
v 0.10000 -0.10500 0.50000
v 0.10000 0.04500 0.50000
v 0.07500 0.07000 0.50000
v -0.07500 0.07000 0.50000
v -0.10000 0.04500 0.50000
v -0.10000 -0.10500 0.50000
v -0.07500 -0.13000 0.72000
v 0.07500 -0.13000 0.72000
v 0.10000 -0.10500 0.72000
v 0.10000 0.04500 0.72000
v 0.07500 0.07000 0.72000
v -0.07500 0.07000 0.72000
v -0.10000 0.04500 0.72000
v -0.10000 -0.10500 0.72000
v -0.08300 -0.23000 0.65500
v 0.08300 -0.23000 0.65500
v 0.10500 -0.20800 0.65500
v 0.10500 0.02800 0.65500
v 0.08300 0.05000 0.65500
v -0.08300 0.05000 0.65500
v -0.10500 0.02800 0.65500
v -0.10500 -0.20800 0.65500
v -0.08300 -0.23000 0.72500
v 0.08300 -0.23000 0.72500
v 0.10500 -0.20800 0.72500
v 0.10500 0.02800 0.72500
v 0.08300 0.05000 0.72500
v -0.08300 0.05000 0.72500
v -0.10500 0.02800 0.72500
v -0.10500 -0.20800 0.72500
v -0.07500 0.04750 0.43500
v 0.07500 0.04750 0.43500
v 0.08500 0.05750 0.43500
v 0.08500 0.08250 0.43500
v 0.07500 0.09250 0.43500
v -0.07500 0.09250 0.43500
v -0.08500 0.08250 0.43500
v -0.08500 0.05750 0.43500
v -0.07500 0.04750 0.68500
v 0.07500 0.04750 0.68500
v 0.08500 0.05750 0.68500
v 0.08500 0.08250 0.68500
v 0.07500 0.09250 0.68500
v -0.07500 0.09250 0.68500
v -0.08500 0.08250 0.68500
v -0.08500 0.05750 0.68500
v -0.04818 -0.10500 -0.73100
v 0.04818 -0.10500 -0.73100
v 0.05250 -0.10068 -0.73100
v 0.05250 -0.09132 -0.73100
v 0.04818 -0.08700 -0.73100
v -0.04818 -0.08700 -0.73100
v -0.05250 -0.09132 -0.73100
v -0.05250 -0.10068 -0.73100
v -0.04818 -0.10500 -0.68900
v 0.04818 -0.10500 -0.68900
v 0.05250 -0.10068 -0.68900
v 0.05250 -0.09132 -0.68900
v 0.04818 -0.08700 -0.68900
v -0.04818 -0.08700 -0.68900
v -0.05250 -0.09132 -0.68900
v -0.05250 -0.10068 -0.68900
v 0.10110 0.00500 -0.73250
v 0.10890 0.00500 -0.73250
v 0.11250 0.00860 -0.73250
v 0.11250 0.05140 -0.73250
v 0.10890 0.05500 -0.73250
v 0.10110 0.05500 -0.73250
v 0.09750 0.05140 -0.73250
v 0.09750 0.00860 -0.73250
v 0.10110 0.00500 -0.68750
v 0.10890 0.00500 -0.68750
v 0.11250 0.00860 -0.68750
v 0.11250 0.05140 -0.68750
v 0.10890 0.05500 -0.68750
v 0.10110 0.05500 -0.68750
v 0.09750 0.05140 -0.68750
v 0.09750 0.00860 -0.68750
v -0.10890 0.00500 -0.73250
v -0.10110 0.00500 -0.73250
v -0.09750 0.00860 -0.73250
v -0.09750 0.05140 -0.73250
v -0.10110 0.05500 -0.73250
v -0.10890 0.05500 -0.73250
v -0.11250 0.05140 -0.73250
v -0.11250 0.00860 -0.73250
v -0.10890 0.00500 -0.68750
v -0.10110 0.00500 -0.68750
v -0.09750 0.00860 -0.68750
v -0.09750 0.05140 -0.68750
v -0.10110 0.05500 -0.68750
v -0.10890 0.05500 -0.68750
v -0.11250 0.05140 -0.68750
v -0.11250 0.00860 -0.68750
v -0.04818 -0.10500 -0.62600
v 0.04818 -0.10500 -0.62600
v 0.05250 -0.10068 -0.62600
v 0.05250 -0.09132 -0.62600
v 0.04818 -0.08700 -0.62600
v -0.04818 -0.08700 -0.62600
v -0.05250 -0.09132 -0.62600
v -0.05250 -0.10068 -0.62600
v -0.04818 -0.10500 -0.58400
v 0.04818 -0.10500 -0.58400
v 0.05250 -0.10068 -0.58400
v 0.05250 -0.09132 -0.58400
v 0.04818 -0.08700 -0.58400
v -0.04818 -0.08700 -0.58400
v -0.05250 -0.09132 -0.58400
v -0.05250 -0.10068 -0.58400
v 0.10110 0.00500 -0.62750
v 0.10890 0.00500 -0.62750
v 0.11250 0.00860 -0.62750
v 0.11250 0.05140 -0.62750
v 0.10890 0.05500 -0.62750
v 0.10110 0.05500 -0.62750
v 0.09750 0.05140 -0.62750
v 0.09750 0.00860 -0.62750
v 0.10110 0.00500 -0.58250
v 0.10890 0.00500 -0.58250
v 0.11250 0.00860 -0.58250
v 0.11250 0.05140 -0.58250
v 0.10890 0.05500 -0.58250
v 0.10110 0.05500 -0.58250
v 0.09750 0.05140 -0.58250
v 0.09750 0.00860 -0.58250
v -0.10890 0.00500 -0.62750
v -0.10110 0.00500 -0.62750
v -0.09750 0.00860 -0.62750
v -0.09750 0.05140 -0.62750
v -0.10110 0.05500 -0.62750
v -0.10890 0.05500 -0.62750
v -0.11250 0.05140 -0.62750
v -0.11250 0.00860 -0.62750
v -0.10890 0.00500 -0.58250
v -0.10110 0.00500 -0.58250
v -0.09750 0.00860 -0.58250
v -0.09750 0.05140 -0.58250
v -0.10110 0.05500 -0.58250
v -0.10890 0.05500 -0.58250
v -0.11250 0.05140 -0.58250
v -0.11250 0.00860 -0.58250
v -0.04818 -0.10500 -0.52100
v 0.04818 -0.10500 -0.52100
v 0.05250 -0.10068 -0.52100
v 0.05250 -0.09132 -0.52100
v 0.04818 -0.08700 -0.52100
v -0.04818 -0.08700 -0.52100
v -0.05250 -0.09132 -0.52100
v -0.05250 -0.10068 -0.52100
v -0.04818 -0.10500 -0.47900
v 0.04818 -0.10500 -0.47900
v 0.05250 -0.10068 -0.47900
v 0.05250 -0.09132 -0.47900
v 0.04818 -0.08700 -0.47900
v -0.04818 -0.08700 -0.47900
v -0.05250 -0.09132 -0.47900
v -0.05250 -0.10068 -0.47900
v 0.10110 0.00500 -0.52250
v 0.10890 0.00500 -0.52250
v 0.11250 0.00860 -0.52250
v 0.11250 0.05140 -0.52250
v 0.10890 0.05500 -0.52250
v 0.10110 0.05500 -0.52250
v 0.09750 0.05140 -0.52250
v 0.09750 0.00860 -0.52250
v 0.10110 0.00500 -0.47750
v 0.10890 0.00500 -0.47750
v 0.11250 0.00860 -0.47750
v 0.11250 0.05140 -0.47750
v 0.10890 0.05500 -0.47750
v 0.10110 0.05500 -0.47750
v 0.09750 0.05140 -0.47750
v 0.09750 0.00860 -0.47750
v -0.10890 0.00500 -0.52250
v -0.10110 0.00500 -0.52250
v -0.09750 0.00860 -0.52250
v -0.09750 0.05140 -0.52250
v -0.10110 0.05500 -0.52250
v -0.10890 0.05500 -0.52250
v -0.11250 0.05140 -0.52250
v -0.11250 0.00860 -0.52250
v -0.10890 0.00500 -0.47750
v -0.10110 0.00500 -0.47750
v -0.09750 0.00860 -0.47750
v -0.09750 0.05140 -0.47750
v -0.10110 0.05500 -0.47750
v -0.10890 0.05500 -0.47750
v -0.11250 0.05140 -0.47750
v -0.11250 0.00860 -0.47750
v -0.04818 -0.10500 -0.41600
v 0.04818 -0.10500 -0.41600
v 0.05250 -0.10068 -0.41600
v 0.05250 -0.09132 -0.41600
v 0.04818 -0.08700 -0.41600
v -0.04818 -0.08700 -0.41600
v -0.05250 -0.09132 -0.41600
v -0.05250 -0.10068 -0.41600
v -0.04818 -0.10500 -0.37400
v 0.04818 -0.10500 -0.37400
v 0.05250 -0.10068 -0.37400
v 0.05250 -0.09132 -0.37400
v 0.04818 -0.08700 -0.37400
v -0.04818 -0.08700 -0.37400
v -0.05250 -0.09132 -0.37400
v -0.05250 -0.10068 -0.37400
v 0.10110 0.00500 -0.41750
v 0.10890 0.00500 -0.41750
v 0.11250 0.00860 -0.41750
v 0.11250 0.05140 -0.41750
v 0.10890 0.05500 -0.41750
v 0.10110 0.05500 -0.41750
v 0.09750 0.05140 -0.41750
v 0.09750 0.00860 -0.41750
v 0.10110 0.00500 -0.37250
v 0.10890 0.00500 -0.37250
v 0.11250 0.00860 -0.37250
v 0.11250 0.05140 -0.37250
v 0.10890 0.05500 -0.37250
v 0.10110 0.05500 -0.37250
v 0.09750 0.05140 -0.37250
v 0.09750 0.00860 -0.37250
v -0.10890 0.00500 -0.41750
v -0.10110 0.00500 -0.41750
v -0.09750 0.00860 -0.41750
v -0.09750 0.05140 -0.41750
v -0.10110 0.05500 -0.41750
v -0.10890 0.05500 -0.41750
v -0.11250 0.05140 -0.41750
v -0.11250 0.00860 -0.41750
v -0.10890 0.00500 -0.37250
v -0.10110 0.00500 -0.37250
v -0.09750 0.00860 -0.37250
v -0.09750 0.05140 -0.37250
v -0.10110 0.05500 -0.37250
v -0.10890 0.05500 -0.37250
v -0.11250 0.05140 -0.37250
v -0.11250 0.00860 -0.37250
v -0.04818 -0.10500 -0.31100
v 0.04818 -0.10500 -0.31100
v 0.05250 -0.10068 -0.31100
v 0.05250 -0.09132 -0.31100
v 0.04818 -0.08700 -0.31100
v -0.04818 -0.08700 -0.31100
v -0.05250 -0.09132 -0.31100
v -0.05250 -0.10068 -0.31100
v -0.04818 -0.10500 -0.26900
v 0.04818 -0.10500 -0.26900
v 0.05250 -0.10068 -0.26900
v 0.05250 -0.09132 -0.26900
v 0.04818 -0.08700 -0.26900
v -0.04818 -0.08700 -0.26900
v -0.05250 -0.09132 -0.26900
v -0.05250 -0.10068 -0.26900
v 0.10110 0.00500 -0.31250
v 0.10890 0.00500 -0.31250
v 0.11250 0.00860 -0.31250
v 0.11250 0.05140 -0.31250
v 0.10890 0.05500 -0.31250
v 0.10110 0.05500 -0.31250
v 0.09750 0.05140 -0.31250
v 0.09750 0.00860 -0.31250
v 0.10110 0.00500 -0.26750
v 0.10890 0.00500 -0.26750
v 0.11250 0.00860 -0.26750
v 0.11250 0.05140 -0.26750
v 0.10890 0.05500 -0.26750
v 0.10110 0.05500 -0.26750
v 0.09750 0.05140 -0.26750
v 0.09750 0.00860 -0.26750
v -0.10890 0.00500 -0.31250
v -0.10110 0.00500 -0.31250
v -0.09750 0.00860 -0.31250
v -0.09750 0.05140 -0.31250
v -0.10110 0.05500 -0.31250
v -0.10890 0.05500 -0.31250
v -0.11250 0.05140 -0.31250
v -0.11250 0.00860 -0.31250
v -0.10890 0.00500 -0.26750
v -0.10110 0.00500 -0.26750
v -0.09750 0.00860 -0.26750
v -0.09750 0.05140 -0.26750
v -0.10110 0.05500 -0.26750
v -0.10890 0.05500 -0.26750
v -0.11250 0.05140 -0.26750
v -0.11250 0.00860 -0.26750
v 0.10400 -0.02000 -0.67900
v 0.11300 -0.02000 -0.67900
v 0.10400 -0.01222 -0.68222
v 0.11300 -0.01222 -0.68222
v 0.10400 -0.00900 -0.69000
v 0.11300 -0.00900 -0.69000
v 0.10400 -0.01222 -0.69778
v 0.11300 -0.01222 -0.69778
v 0.10400 -0.02000 -0.70100
v 0.11300 -0.02000 -0.70100
v 0.10400 -0.02778 -0.69778
v 0.11300 -0.02778 -0.69778
v 0.10400 -0.03100 -0.69000
v 0.11300 -0.03100 -0.69000
v 0.10400 -0.02778 -0.68222
v 0.11300 -0.02778 -0.68222
v -0.11200 -0.02000 -0.67900
v -0.10300 -0.02000 -0.67900
v -0.11200 -0.01222 -0.68222
v -0.10300 -0.01222 -0.68222
v -0.11200 -0.00900 -0.69000
v -0.10300 -0.00900 -0.69000
v -0.11200 -0.01222 -0.69778
v -0.10300 -0.01222 -0.69778
v -0.11200 -0.02000 -0.70100
v -0.10300 -0.02000 -0.70100
v -0.11200 -0.02778 -0.69778
v -0.10300 -0.02778 -0.69778
v -0.11200 -0.03100 -0.69000
v -0.10300 -0.03100 -0.69000
v -0.11200 -0.02778 -0.68222
v -0.10300 -0.02778 -0.68222
v 0.10400 -0.02000 -0.30900
v 0.11300 -0.02000 -0.30900
v 0.10400 -0.01222 -0.31222
v 0.11300 -0.01222 -0.31222
v 0.10400 -0.00900 -0.32000
v 0.11300 -0.00900 -0.32000
v 0.10400 -0.01222 -0.32778
v 0.11300 -0.01222 -0.32778
v 0.10400 -0.02000 -0.33100
v 0.11300 -0.02000 -0.33100
v 0.10400 -0.02778 -0.32778
v 0.11300 -0.02778 -0.32778
v 0.10400 -0.03100 -0.32000
v 0.11300 -0.03100 -0.32000
v 0.10400 -0.02778 -0.31222
v 0.11300 -0.02778 -0.31222
v -0.11200 -0.02000 -0.30900
v -0.10300 -0.02000 -0.30900
v -0.11200 -0.01222 -0.31222
v -0.10300 -0.01222 -0.31222
v -0.11200 -0.00900 -0.32000
v -0.10300 -0.00900 -0.32000
v -0.11200 -0.01222 -0.32778
v -0.10300 -0.01222 -0.32778
v -0.11200 -0.02000 -0.33100
v -0.10300 -0.02000 -0.33100
v -0.11200 -0.02778 -0.32778
v -0.10300 -0.02778 -0.32778
v -0.11200 -0.03100 -0.32000
v -0.10300 -0.03100 -0.32000
v -0.11200 -0.02778 -0.31222
v -0.10300 -0.02778 -0.31222
v 0.10400 -0.02000 0.07100
v 0.11300 -0.02000 0.07100
v 0.10400 -0.01222 0.06778
v 0.11300 -0.01222 0.06778
v 0.10400 -0.00900 0.06000
v 0.11300 -0.00900 0.06000
v 0.10400 -0.01222 0.05222
v 0.11300 -0.01222 0.05222
v 0.10400 -0.02000 0.04900
v 0.11300 -0.02000 0.04900
v 0.10400 -0.02778 0.05222
v 0.11300 -0.02778 0.05222
v 0.10400 -0.03100 0.06000
v 0.11300 -0.03100 0.06000
v 0.10400 -0.02778 0.06778
v 0.11300 -0.02778 0.06778
v -0.11200 -0.02000 0.07100
v -0.10300 -0.02000 0.07100
v -0.11200 -0.01222 0.06778
v -0.10300 -0.01222 0.06778
v -0.11200 -0.00900 0.06000
v -0.10300 -0.00900 0.06000
v -0.11200 -0.01222 0.05222
v -0.10300 -0.01222 0.05222
v -0.11200 -0.02000 0.04900
v -0.10300 -0.02000 0.04900
v -0.11200 -0.02778 0.05222
v -0.10300 -0.02778 0.05222
v -0.11200 -0.03100 0.06000
v -0.10300 -0.03100 0.06000
v -0.11200 -0.02778 0.06778
v -0.10300 -0.02778 0.06778
v 0.10400 -0.02000 0.21100
v 0.11300 -0.02000 0.21100
v 0.10400 -0.01222 0.20778
v 0.11300 -0.01222 0.20778
v 0.10400 -0.00900 0.20000
v 0.11300 -0.00900 0.20000
v 0.10400 -0.01222 0.19222
v 0.11300 -0.01222 0.19222
v 0.10400 -0.02000 0.18900
v 0.11300 -0.02000 0.18900
v 0.10400 -0.02778 0.19222
v 0.11300 -0.02778 0.19222
v 0.10400 -0.03100 0.20000
v 0.11300 -0.03100 0.20000
v 0.10400 -0.02778 0.20778
v 0.11300 -0.02778 0.20778
v -0.11200 -0.02000 0.21100
v -0.10300 -0.02000 0.21100
v -0.11200 -0.01222 0.20778
v -0.10300 -0.01222 0.20778
v -0.11200 -0.00900 0.20000
v -0.10300 -0.00900 0.20000
v -0.11200 -0.01222 0.19222
v -0.10300 -0.01222 0.19222
v -0.11200 -0.02000 0.18900
v -0.10300 -0.02000 0.18900
v -0.11200 -0.02778 0.19222
v -0.10300 -0.02778 0.19222
v -0.11200 -0.03100 0.20000
v -0.10300 -0.03100 0.20000
v -0.11200 -0.02778 0.20778
v -0.10300 -0.02778 0.20778
v 0.09322 -0.02300 0.05250
v 0.09478 -0.02300 0.05250
v 0.09550 -0.02228 0.05250
v 0.09550 -0.01772 0.05250
v 0.09478 -0.01700 0.05250
v 0.09322 -0.01700 0.05250
v 0.09250 -0.01772 0.05250
v 0.09250 -0.02228 0.05250
v 0.09322 -0.02300 0.10750
v 0.09478 -0.02300 0.10750
v 0.09550 -0.02228 0.10750
v 0.09550 -0.01772 0.10750
v 0.09478 -0.01700 0.10750
v 0.09322 -0.01700 0.10750
v 0.09250 -0.01772 0.10750
v 0.09250 -0.02228 0.10750
v 0.09322 -0.00500 0.06250
v 0.09478 -0.00500 0.06250
v 0.09550 -0.00428 0.06250
v 0.09550 0.00028 0.06250
v 0.09478 0.00100 0.06250
v 0.09322 0.00100 0.06250
v 0.09250 0.00028 0.06250
v 0.09250 -0.00428 0.06250
v 0.09322 -0.00500 0.09750
v 0.09478 -0.00500 0.09750
v 0.09550 -0.00428 0.09750
v 0.09550 0.00028 0.09750
v 0.09478 0.00100 0.09750
v 0.09322 0.00100 0.09750
v 0.09250 0.00028 0.09750
v 0.09250 -0.00428 0.09750
v 0.09322 0.01300 0.05250
v 0.09478 0.01300 0.05250
v 0.09550 0.01372 0.05250
v 0.09550 0.01828 0.05250
v 0.09478 0.01900 0.05250
v 0.09322 0.01900 0.05250
v 0.09250 0.01828 0.05250
v 0.09250 0.01372 0.05250
v 0.09322 0.01300 0.10750
v 0.09478 0.01300 0.10750
v 0.09550 0.01372 0.10750
v 0.09550 0.01828 0.10750
v 0.09478 0.01900 0.10750
v 0.09322 0.01900 0.10750
v 0.09250 0.01828 0.10750
v 0.09250 0.01372 0.10750
v 0.09322 0.03100 0.06250
v 0.09478 0.03100 0.06250
v 0.09550 0.03172 0.06250
v 0.09550 0.03628 0.06250
v 0.09478 0.03700 0.06250
v 0.09322 0.03700 0.06250
v 0.09250 0.03628 0.06250
v 0.09250 0.03172 0.06250
v 0.09322 0.03100 0.09750
v 0.09478 0.03100 0.09750
v 0.09550 0.03172 0.09750
v 0.09550 0.03628 0.09750
v 0.09478 0.03700 0.09750
v 0.09322 0.03700 0.09750
v 0.09250 0.03628 0.09750
v 0.09250 0.03172 0.09750
v -0.02300 0.04000 -0.83000
v 0.02300 0.04000 -0.83000
v 0.03000 0.04700 -0.83000
v 0.03000 0.14300 -0.83000
v 0.02300 0.15000 -0.83000
v -0.02300 0.15000 -0.83000
v -0.03000 0.14300 -0.83000
v -0.03000 0.04700 -0.83000
v -0.02300 0.04000 -0.81000
v 0.02300 0.04000 -0.81000
v 0.03000 0.04700 -0.81000
v 0.03000 0.14300 -0.81000
v 0.02300 0.15000 -0.81000
v -0.02300 0.15000 -0.81000
v -0.03000 0.14300 -0.81000
v -0.03000 0.04700 -0.81000
usemtl receiver
f 8 7 6 5 4 3 2 1
f 9 10 11 12 13 14 15 16
f 1 2 10 9
f 2 3 11 10
f 3 4 12 11
f 4 5 13 12
f 5 6 14 13
f 6 7 15 14
f 7 8 16 15
f 8 1 9 16
f 208 207 206 205 204 203 202 201
f 209 210 211 212 213 214 215 216
f 201 202 210 209
f 202 203 211 210
f 203 204 212 211
f 204 205 213 212
f 205 206 214 213
f 206 207 215 214
f 207 208 216 215
f 208 201 209 216
f 784 783 782 781 780 779 778 777
f 785 786 787 788 789 790 791 792
f 777 778 786 785
f 778 779 787 786
f 779 780 788 787
f 780 781 789 788
f 781 782 790 789
f 782 783 791 790
f 783 784 792 791
f 784 777 785 792
f 1120 1119 1118 1117 1116 1115 1114 1113
f 1121 1122 1123 1124 1125 1126 1127 1128
f 1113 1114 1122 1121
f 1114 1115 1123 1122
f 1115 1116 1124 1123
f 1116 1117 1125 1124
f 1117 1118 1126 1125
f 1118 1119 1127 1126
f 1119 1120 1128 1127
f 1120 1113 1121 1128
f 1136 1135 1134 1133 1132 1131 1130 1129
f 1137 1138 1139 1140 1141 1142 1143 1144
f 1129 1130 1138 1137
f 1130 1131 1139 1138
f 1131 1132 1140 1139
f 1132 1133 1141 1140
f 1133 1134 1142 1141
f 1134 1135 1143 1142
f 1135 1136 1144 1143
f 1136 1129 1137 1144
f 1152 1151 1150 1149 1148 1147 1146 1145
f 1153 1154 1155 1156 1157 1158 1159 1160
f 1145 1146 1154 1153
f 1146 1147 1155 1154
f 1147 1148 1156 1155
f 1148 1149 1157 1156
f 1149 1150 1158 1157
f 1150 1151 1159 1158
f 1151 1152 1160 1159
f 1152 1145 1153 1160
f 1168 1167 1166 1165 1164 1163 1162 1161
f 1169 1170 1171 1172 1173 1174 1175 1176
f 1161 1162 1170 1169
f 1162 1163 1171 1170
f 1163 1164 1172 1171
f 1164 1165 1173 1172
f 1165 1166 1174 1173
f 1166 1167 1175 1174
f 1167 1168 1176 1175
f 1168 1161 1169 1176
f 1184 1183 1182 1181 1180 1179 1178 1177
f 1185 1186 1187 1188 1189 1190 1191 1192
f 1177 1178 1186 1185
f 1178 1179 1187 1186
f 1179 1180 1188 1187
f 1180 1181 1189 1188
f 1181 1182 1190 1189
f 1182 1183 1191 1190
f 1183 1184 1192 1191
f 1184 1177 1185 1192
usemtl polymer
f 24 23 22 21 20 19 18 17
f 25 26 27 28 29 30 31 32
f 17 18 26 25
f 18 19 27 26
f 19 20 28 27
f 20 21 29 28
f 21 22 30 29
f 22 23 31 30
f 23 24 32 31
f 24 17 25 32
f 40 39 38 37 36 35 34 33
f 41 42 43 44 45 46 47 48
f 33 34 42 41
f 34 35 43 42
f 35 36 44 43
f 36 37 45 44
f 37 38 46 45
f 38 39 47 46
f 39 40 48 47
f 40 33 41 48
f 1088 1087 1086 1085 1084 1083 1082 1081
f 1089 1090 1091 1092 1093 1094 1095 1096
f 1081 1082 1090 1089
f 1082 1083 1091 1090
f 1083 1084 1092 1091
f 1084 1085 1093 1092
f 1085 1086 1094 1093
f 1086 1087 1095 1094
f 1087 1088 1096 1095
f 1088 1081 1089 1096
f 1256 1255 1254 1253 1252 1251 1250 1249
f 1257 1258 1259 1260 1261 1262 1263 1264
f 1249 1250 1258 1257
f 1250 1251 1259 1258
f 1251 1252 1260 1259
f 1252 1253 1261 1260
f 1253 1254 1262 1261
f 1254 1255 1263 1262
f 1255 1256 1264 1263
f 1256 1249 1257 1264
usemtl steel
f 56 55 54 53 52 51 50 49
f 57 58 59 60 61 62 63 64
f 49 50 58 57
f 50 51 59 58
f 51 52 60 59
f 52 53 61 60
f 53 54 62 61
f 54 55 63 62
f 55 56 64 63
f 56 49 57 64
f 95 93 91 89 87 85 83 81 79 77 75 73 71 69 67 65
f 66 68 70 72 74 76 78 80 82 84 86 88 90 92 94 96
f 65 67 68 66
f 67 69 70 68
f 69 71 72 70
f 71 73 74 72
f 73 75 76 74
f 75 77 78 76
f 77 79 80 78
f 79 81 82 80
f 81 83 84 82
f 83 85 86 84
f 85 87 88 86
f 87 89 90 88
f 89 91 92 90
f 91 93 94 92
f 93 95 96 94
f 95 65 66 96
f 136 135 134 133 132 131 130 129
f 137 138 139 140 141 142 143 144
f 129 130 138 137
f 130 131 139 138
f 131 132 140 139
f 132 133 141 140
f 133 134 142 141
f 134 135 143 142
f 135 136 144 143
f 136 129 137 144
f 152 151 150 149 148 147 146 145
f 153 154 155 156 157 158 159 160
f 145 146 154 153
f 146 147 155 154
f 147 148 156 155
f 148 149 157 156
f 149 150 158 157
f 150 151 159 158
f 151 152 160 159
f 152 145 153 160
f 168 167 166 165 164 163 162 161
f 169 170 171 172 173 174 175 176
f 161 162 170 169
f 162 163 171 170
f 163 164 172 171
f 164 165 173 172
f 165 166 174 173
f 166 167 175 174
f 167 168 176 175
f 168 161 169 176
f 199 197 195 193 191 189 187 185 183 181 179 177
f 178 180 182 184 186 188 190 192 194 196 198 200
f 177 179 180 178
f 179 181 182 180
f 181 183 184 182
f 183 185 186 184
f 185 187 188 186
f 187 189 190 188
f 189 191 192 190
f 191 193 194 192
f 193 195 196 194
f 195 197 198 196
f 197 199 200 198
f 199 177 178 200
f 416 415 414 413 412 411 410 409
f 417 418 419 420 421 422 423 424
f 409 410 418 417
f 410 411 419 418
f 411 412 420 419
f 412 413 421 420
f 413 414 422 421
f 414 415 423 422
f 415 416 424 423
f 416 409 417 424
f 880 879 878 877 876 875 874 873
f 881 882 883 884 885 886 887 888
f 873 874 882 881
f 874 875 883 882
f 875 876 884 883
f 876 877 885 884
f 877 878 886 885
f 878 879 887 886
f 879 880 888 887
f 880 873 881 888
f 1104 1103 1102 1101 1100 1099 1098 1097
f 1105 1106 1107 1108 1109 1110 1111 1112
f 1097 1098 1106 1105
f 1098 1099 1107 1106
f 1099 1100 1108 1107
f 1100 1101 1109 1108
f 1101 1102 1110 1109
f 1102 1103 1111 1110
f 1103 1104 1112 1111
f 1104 1097 1105 1112
f 1200 1199 1198 1197 1196 1195 1194 1193
f 1201 1202 1203 1204 1205 1206 1207 1208
f 1193 1194 1202 1201
f 1194 1195 1203 1202
f 1195 1196 1204 1203
f 1196 1197 1205 1204
f 1197 1198 1206 1205
f 1198 1199 1207 1206
f 1199 1200 1208 1207
f 1200 1193 1201 1208
f 1247 1245 1243 1241 1239 1237 1235 1233 1231 1229 1227 1225
f 1226 1228 1230 1232 1234 1236 1238 1240 1242 1244 1246 1248
f 1225 1227 1228 1226
f 1227 1229 1230 1228
f 1229 1231 1232 1230
f 1231 1233 1234 1232
f 1233 1235 1236 1234
f 1235 1237 1238 1236
f 1237 1239 1240 1238
f 1239 1241 1242 1240
f 1241 1243 1244 1242
f 1243 1245 1246 1244
f 1245 1247 1248 1246
f 1247 1225 1226 1248
f 1288 1287 1286 1285 1284 1283 1282 1281
f 1289 1290 1291 1292 1293 1294 1295 1296
f 1281 1282 1290 1289
f 1282 1283 1291 1290
f 1283 1284 1292 1291
f 1284 1285 1293 1292
f 1285 1286 1294 1293
f 1286 1287 1295 1294
f 1287 1288 1296 1295
f 1288 1281 1289 1296
f 1320 1319 1318 1317 1316 1315 1314 1313
f 1321 1322 1323 1324 1325 1326 1327 1328
f 1313 1314 1322 1321
f 1314 1315 1323 1322
f 1315 1316 1324 1323
f 1316 1317 1325 1324
f 1317 1318 1326 1325
f 1318 1319 1327 1326
f 1319 1320 1328 1327
f 1320 1313 1321 1328
f 1336 1335 1334 1333 1332 1331 1330 1329
f 1337 1338 1339 1340 1341 1342 1343 1344
f 1329 1330 1338 1337
f 1330 1331 1339 1338
f 1331 1332 1340 1339
f 1332 1333 1341 1340
f 1333 1334 1342 1341
f 1334 1335 1343 1342
f 1335 1336 1344 1343
f 1336 1329 1337 1344
f 1368 1367 1366 1365 1364 1363 1362 1361
f 1369 1370 1371 1372 1373 1374 1375 1376
f 1361 1362 1370 1369
f 1362 1363 1371 1370
f 1363 1364 1372 1371
f 1364 1365 1373 1372
f 1365 1366 1374 1373
f 1366 1367 1375 1374
f 1367 1368 1376 1375
f 1368 1361 1369 1376
f 1384 1383 1382 1381 1380 1379 1378 1377
f 1385 1386 1387 1388 1389 1390 1391 1392
f 1377 1378 1386 1385
f 1378 1379 1387 1386
f 1379 1380 1388 1387
f 1380 1381 1389 1388
f 1381 1382 1390 1389
f 1382 1383 1391 1390
f 1383 1384 1392 1391
f 1384 1377 1385 1392
f 1416 1415 1414 1413 1412 1411 1410 1409
f 1417 1418 1419 1420 1421 1422 1423 1424
f 1409 1410 1418 1417
f 1410 1411 1419 1418
f 1411 1412 1420 1419
f 1412 1413 1421 1420
f 1413 1414 1422 1421
f 1414 1415 1423 1422
f 1415 1416 1424 1423
f 1416 1409 1417 1424
f 1432 1431 1430 1429 1428 1427 1426 1425
f 1433 1434 1435 1436 1437 1438 1439 1440
f 1425 1426 1434 1433
f 1426 1427 1435 1434
f 1427 1428 1436 1435
f 1428 1429 1437 1436
f 1429 1430 1438 1437
f 1430 1431 1439 1438
f 1431 1432 1440 1439
f 1432 1425 1433 1440
f 1464 1463 1462 1461 1460 1459 1458 1457
f 1465 1466 1467 1468 1469 1470 1471 1472
f 1457 1458 1466 1465
f 1458 1459 1467 1466
f 1459 1460 1468 1467
f 1460 1461 1469 1468
f 1461 1462 1470 1469
f 1462 1463 1471 1470
f 1463 1464 1472 1471
f 1464 1457 1465 1472
f 1480 1479 1478 1477 1476 1475 1474 1473
f 1481 1482 1483 1484 1485 1486 1487 1488
f 1473 1474 1482 1481
f 1474 1475 1483 1482
f 1475 1476 1484 1483
f 1476 1477 1485 1484
f 1477 1478 1486 1485
f 1478 1479 1487 1486
f 1479 1480 1488 1487
f 1480 1473 1481 1488
f 1512 1511 1510 1509 1508 1507 1506 1505
f 1513 1514 1515 1516 1517 1518 1519 1520
f 1505 1506 1514 1513
f 1506 1507 1515 1514
f 1507 1508 1516 1515
f 1508 1509 1517 1516
f 1509 1510 1518 1517
f 1510 1511 1519 1518
f 1511 1512 1520 1519
f 1512 1505 1513 1520
f 1528 1527 1526 1525 1524 1523 1522 1521
f 1529 1530 1531 1532 1533 1534 1535 1536
f 1521 1522 1530 1529
f 1522 1523 1531 1530
f 1523 1524 1532 1531
f 1524 1525 1533 1532
f 1525 1526 1534 1533
f 1526 1527 1535 1534
f 1527 1528 1536 1535
f 1528 1521 1529 1536
f 1551 1549 1547 1545 1543 1541 1539 1537
f 1538 1540 1542 1544 1546 1548 1550 1552
f 1537 1539 1540 1538
f 1539 1541 1542 1540
f 1541 1543 1544 1542
f 1543 1545 1546 1544
f 1545 1547 1548 1546
f 1547 1549 1550 1548
f 1549 1551 1552 1550
f 1551 1537 1538 1552
f 1567 1565 1563 1561 1559 1557 1555 1553
f 1554 1556 1558 1560 1562 1564 1566 1568
f 1553 1555 1556 1554
f 1555 1557 1558 1556
f 1557 1559 1560 1558
f 1559 1561 1562 1560
f 1561 1563 1564 1562
f 1563 1565 1566 1564
f 1565 1567 1568 1566
f 1567 1553 1554 1568
f 1583 1581 1579 1577 1575 1573 1571 1569
f 1570 1572 1574 1576 1578 1580 1582 1584
f 1569 1571 1572 1570
f 1571 1573 1574 1572
f 1573 1575 1576 1574
f 1575 1577 1578 1576
f 1577 1579 1580 1578
f 1579 1581 1582 1580
f 1581 1583 1584 1582
f 1583 1569 1570 1584
f 1599 1597 1595 1593 1591 1589 1587 1585
f 1586 1588 1590 1592 1594 1596 1598 1600
f 1585 1587 1588 1586
f 1587 1589 1590 1588
f 1589 1591 1592 1590
f 1591 1593 1594 1592
f 1593 1595 1596 1594
f 1595 1597 1598 1596
f 1597 1599 1600 1598
f 1599 1585 1586 1600
f 1615 1613 1611 1609 1607 1605 1603 1601
f 1602 1604 1606 1608 1610 1612 1614 1616
f 1601 1603 1604 1602
f 1603 1605 1606 1604
f 1605 1607 1608 1606
f 1607 1609 1610 1608
f 1609 1611 1612 1610
f 1611 1613 1614 1612
f 1613 1615 1616 1614
f 1615 1601 1602 1616
f 1631 1629 1627 1625 1623 1621 1619 1617
f 1618 1620 1622 1624 1626 1628 1630 1632
f 1617 1619 1620 1618
f 1619 1621 1622 1620
f 1621 1623 1624 1622
f 1623 1625 1626 1624
f 1625 1627 1628 1626
f 1627 1629 1630 1628
f 1629 1631 1632 1630
f 1631 1617 1618 1632
f 1647 1645 1643 1641 1639 1637 1635 1633
f 1634 1636 1638 1640 1642 1644 1646 1648
f 1633 1635 1636 1634
f 1635 1637 1638 1636
f 1637 1639 1640 1638
f 1639 1641 1642 1640
f 1641 1643 1644 1642
f 1643 1645 1646 1644
f 1645 1647 1648 1646
f 1647 1633 1634 1648
f 1663 1661 1659 1657 1655 1653 1651 1649
f 1650 1652 1654 1656 1658 1660 1662 1664
f 1649 1651 1652 1650
f 1651 1653 1654 1652
f 1653 1655 1656 1654
f 1655 1657 1658 1656
f 1657 1659 1660 1658
f 1659 1661 1662 1660
f 1661 1663 1664 1662
f 1663 1649 1650 1664
f 1736 1735 1734 1733 1732 1731 1730 1729
f 1737 1738 1739 1740 1741 1742 1743 1744
f 1729 1730 1738 1737
f 1730 1731 1739 1738
f 1731 1732 1740 1739
f 1732 1733 1741 1740
f 1733 1734 1742 1741
f 1734 1735 1743 1742
f 1735 1736 1744 1743
f 1736 1729 1737 1744
usemtl accent
f 864 863 862 861 860 859 858 857
f 865 866 867 868 869 870 871 872
f 857 858 866 865
f 858 859 867 866
f 859 860 868 867
f 860 861 869 868
f 861 862 870 869
f 862 863 871 870
f 863 864 872 871
f 864 857 865 872
usemtl marking
f 1672 1671 1670 1669 1668 1667 1666 1665
f 1673 1674 1675 1676 1677 1678 1679 1680
f 1665 1666 1674 1673
f 1666 1667 1675 1674
f 1667 1668 1676 1675
f 1668 1669 1677 1676
f 1669 1670 1678 1677
f 1670 1671 1679 1678
f 1671 1672 1680 1679
f 1672 1665 1673 1680
f 1688 1687 1686 1685 1684 1683 1682 1681
f 1689 1690 1691 1692 1693 1694 1695 1696
f 1681 1682 1690 1689
f 1682 1683 1691 1690
f 1683 1684 1692 1691
f 1684 1685 1693 1692
f 1685 1686 1694 1693
f 1686 1687 1695 1694
f 1687 1688 1696 1695
f 1688 1681 1689 1696
f 1704 1703 1702 1701 1700 1699 1698 1697
f 1705 1706 1707 1708 1709 1710 1711 1712
f 1697 1698 1706 1705
f 1698 1699 1707 1706
f 1699 1700 1708 1707
f 1700 1701 1709 1708
f 1701 1702 1710 1709
f 1702 1703 1711 1710
f 1703 1704 1712 1711
f 1704 1697 1705 1712
f 1720 1719 1718 1717 1716 1715 1714 1713
f 1721 1722 1723 1724 1725 1726 1727 1728
f 1713 1714 1722 1721
f 1714 1715 1723 1722
f 1715 1716 1724 1723
f 1716 1717 1725 1724
f 1717 1718 1726 1725
f 1718 1719 1727 1726
f 1719 1720 1728 1727
f 1720 1713 1721 1728
usemtl sight
f 855 853 851 849 847 845 843 841 839 837 835 833 831 829 827 825
f 826 828 830 832 834 836 838 840 842 844 846 848 850 852 854 856
f 825 827 828 826
f 827 829 830 828
f 829 831 832 830
f 831 833 834 832
f 833 835 836 834
f 835 837 838 836
f 837 839 840 838
f 839 841 842 840
f 841 843 844 842
f 843 845 846 844
f 845 847 848 846
f 847 849 850 848
f 849 851 852 850
f 851 853 854 852
f 853 855 856 854
f 855 825 826 856
usemtl muzzle
f 127 125 123 121 119 117 115 113 111 109 107 105 103 101 99 97
f 98 100 102 104 106 108 110 112 114 116 118 120 122 124 126 128
f 97 99 100 98
f 99 101 102 100
f 101 103 104 102
f 103 105 106 104
f 105 107 108 106
f 107 109 110 108
f 109 111 112 110
f 111 113 114 112
f 113 115 116 114
f 115 117 118 116
f 117 119 120 118
f 119 121 122 120
f 121 123 124 122
f 123 125 126 124
f 125 127 128 126
f 127 97 98 128
f 224 223 222 221 220 219 218 217
f 225 226 227 228 229 230 231 232
f 217 218 226 225
f 218 219 227 226
f 219 220 228 227
f 220 221 229 228
f 221 222 230 229
f 222 223 231 230
f 223 224 232 231
f 224 217 225 232
f 240 239 238 237 236 235 234 233
f 241 242 243 244 245 246 247 248
f 233 234 242 241
f 234 235 243 242
f 235 236 244 243
f 236 237 245 244
f 237 238 246 245
f 238 239 247 246
f 239 240 248 247
f 240 233 241 248
f 256 255 254 253 252 251 250 249
f 257 258 259 260 261 262 263 264
f 249 250 258 257
f 250 251 259 258
f 251 252 260 259
f 252 253 261 260
f 253 254 262 261
f 254 255 263 262
f 255 256 264 263
f 256 249 257 264
f 272 271 270 269 268 267 266 265
f 273 274 275 276 277 278 279 280
f 265 266 274 273
f 266 267 275 274
f 267 268 276 275
f 268 269 277 276
f 269 270 278 277
f 270 271 279 278
f 271 272 280 279
f 272 265 273 280
f 288 287 286 285 284 283 282 281
f 289 290 291 292 293 294 295 296
f 281 282 290 289
f 282 283 291 290
f 283 284 292 291
f 284 285 293 292
f 285 286 294 293
f 286 287 295 294
f 287 288 296 295
f 288 281 289 296
f 304 303 302 301 300 299 298 297
f 305 306 307 308 309 310 311 312
f 297 298 306 305
f 298 299 307 306
f 299 300 308 307
f 300 301 309 308
f 301 302 310 309
f 302 303 311 310
f 303 304 312 311
f 304 297 305 312
f 320 319 318 317 316 315 314 313
f 321 322 323 324 325 326 327 328
f 313 314 322 321
f 314 315 323 322
f 315 316 324 323
f 316 317 325 324
f 317 318 326 325
f 318 319 327 326
f 319 320 328 327
f 320 313 321 328
f 336 335 334 333 332 331 330 329
f 337 338 339 340 341 342 343 344
f 329 330 338 337
f 330 331 339 338
f 331 332 340 339
f 332 333 341 340
f 333 334 342 341
f 334 335 343 342
f 335 336 344 343
f 336 329 337 344
f 352 351 350 349 348 347 346 345
f 353 354 355 356 357 358 359 360
f 345 346 354 353
f 346 347 355 354
f 347 348 356 355
f 348 349 357 356
f 349 350 358 357
f 350 351 359 358
f 351 352 360 359
f 352 345 353 360
f 368 367 366 365 364 363 362 361
f 369 370 371 372 373 374 375 376
f 361 362 370 369
f 362 363 371 370
f 363 364 372 371
f 364 365 373 372
f 365 366 374 373
f 366 367 375 374
f 367 368 376 375
f 368 361 369 376
f 384 383 382 381 380 379 378 377
f 385 386 387 388 389 390 391 392
f 377 378 386 385
f 378 379 387 386
f 379 380 388 387
f 380 381 389 388
f 381 382 390 389
f 382 383 391 390
f 383 384 392 391
f 384 377 385 392
f 400 399 398 397 396 395 394 393
f 401 402 403 404 405 406 407 408
f 393 394 402 401
f 394 395 403 402
f 395 396 404 403
f 396 397 405 404
f 397 398 406 405
f 398 399 407 406
f 399 400 408 407
f 400 393 401 408
f 432 431 430 429 428 427 426 425
f 433 434 435 436 437 438 439 440
f 425 426 434 433
f 426 427 435 434
f 427 428 436 435
f 428 429 437 436
f 429 430 438 437
f 430 431 439 438
f 431 432 440 439
f 432 425 433 440
f 448 447 446 445 444 443 442 441
f 449 450 451 452 453 454 455 456
f 441 442 450 449
f 442 443 451 450
f 443 444 452 451
f 444 445 453 452
f 445 446 454 453
f 446 447 455 454
f 447 448 456 455
f 448 441 449 456
f 464 463 462 461 460 459 458 457
f 465 466 467 468 469 470 471 472
f 457 458 466 465
f 458 459 467 466
f 459 460 468 467
f 460 461 469 468
f 461 462 470 469
f 462 463 471 470
f 463 464 472 471
f 464 457 465 472
f 480 479 478 477 476 475 474 473
f 481 482 483 484 485 486 487 488
f 473 474 482 481
f 474 475 483 482
f 475 476 484 483
f 476 477 485 484
f 477 478 486 485
f 478 479 487 486
f 479 480 488 487
f 480 473 481 488
f 496 495 494 493 492 491 490 489
f 497 498 499 500 501 502 503 504
f 489 490 498 497
f 490 491 499 498
f 491 492 500 499
f 492 493 501 500
f 493 494 502 501
f 494 495 503 502
f 495 496 504 503
f 496 489 497 504
f 512 511 510 509 508 507 506 505
f 513 514 515 516 517 518 519 520
f 505 506 514 513
f 506 507 515 514
f 507 508 516 515
f 508 509 517 516
f 509 510 518 517
f 510 511 519 518
f 511 512 520 519
f 512 505 513 520
f 528 527 526 525 524 523 522 521
f 529 530 531 532 533 534 535 536
f 521 522 530 529
f 522 523 531 530
f 523 524 532 531
f 524 525 533 532
f 525 526 534 533
f 526 527 535 534
f 527 528 536 535
f 528 521 529 536
f 544 543 542 541 540 539 538 537
f 545 546 547 548 549 550 551 552
f 537 538 546 545
f 538 539 547 546
f 539 540 548 547
f 540 541 549 548
f 541 542 550 549
f 542 543 551 550
f 543 544 552 551
f 544 537 545 552
f 560 559 558 557 556 555 554 553
f 561 562 563 564 565 566 567 568
f 553 554 562 561
f 554 555 563 562
f 555 556 564 563
f 556 557 565 564
f 557 558 566 565
f 558 559 567 566
f 559 560 568 567
f 560 553 561 568
f 576 575 574 573 572 571 570 569
f 577 578 579 580 581 582 583 584
f 569 570 578 577
f 570 571 579 578
f 571 572 580 579
f 572 573 581 580
f 573 574 582 581
f 574 575 583 582
f 575 576 584 583
f 576 569 577 584
f 592 591 590 589 588 587 586 585
f 593 594 595 596 597 598 599 600
f 585 586 594 593
f 586 587 595 594
f 587 588 596 595
f 588 589 597 596
f 589 590 598 597
f 590 591 599 598
f 591 592 600 599
f 592 585 593 600
f 608 607 606 605 604 603 602 601
f 609 610 611 612 613 614 615 616
f 601 602 610 609
f 602 603 611 610
f 603 604 612 611
f 604 605 613 612
f 605 606 614 613
f 606 607 615 614
f 607 608 616 615
f 608 601 609 616
f 624 623 622 621 620 619 618 617
f 625 626 627 628 629 630 631 632
f 617 618 626 625
f 618 619 627 626
f 619 620 628 627
f 620 621 629 628
f 621 622 630 629
f 622 623 631 630
f 623 624 632 631
f 624 617 625 632
f 640 639 638 637 636 635 634 633
f 641 642 643 644 645 646 647 648
f 633 634 642 641
f 634 635 643 642
f 635 636 644 643
f 636 637 645 644
f 637 638 646 645
f 638 639 647 646
f 639 640 648 647
f 640 633 641 648
f 656 655 654 653 652 651 650 649
f 657 658 659 660 661 662 663 664
f 649 650 658 657
f 650 651 659 658
f 651 652 660 659
f 652 653 661 660
f 653 654 662 661
f 654 655 663 662
f 655 656 664 663
f 656 649 657 664
f 672 671 670 669 668 667 666 665
f 673 674 675 676 677 678 679 680
f 665 666 674 673
f 666 667 675 674
f 667 668 676 675
f 668 669 677 676
f 669 670 678 677
f 670 671 679 678
f 671 672 680 679
f 672 665 673 680
f 688 687 686 685 684 683 682 681
f 689 690 691 692 693 694 695 696
f 681 682 690 689
f 682 683 691 690
f 683 684 692 691
f 684 685 693 692
f 685 686 694 693
f 686 687 695 694
f 687 688 696 695
f 688 681 689 696
f 704 703 702 701 700 699 698 697
f 705 706 707 708 709 710 711 712
f 697 698 706 705
f 698 699 707 706
f 699 700 708 707
f 700 701 709 708
f 701 702 710 709
f 702 703 711 710
f 703 704 712 711
f 704 697 705 712
f 720 719 718 717 716 715 714 713
f 721 722 723 724 725 726 727 728
f 713 714 722 721
f 714 715 723 722
f 715 716 724 723
f 716 717 725 724
f 717 718 726 725
f 718 719 727 726
f 719 720 728 727
f 720 713 721 728
f 736 735 734 733 732 731 730 729
f 737 738 739 740 741 742 743 744
f 729 730 738 737
f 730 731 739 738
f 731 732 740 739
f 732 733 741 740
f 733 734 742 741
f 734 735 743 742
f 735 736 744 743
f 736 729 737 744
f 752 751 750 749 748 747 746 745
f 753 754 755 756 757 758 759 760
f 745 746 754 753
f 746 747 755 754
f 747 748 756 755
f 748 749 757 756
f 749 750 758 757
f 750 751 759 758
f 751 752 760 759
f 752 745 753 760
f 768 767 766 765 764 763 762 761
f 769 770 771 772 773 774 775 776
f 761 762 770 769
f 762 763 771 770
f 763 764 772 771
f 764 765 773 772
f 765 766 774 773
f 766 767 775 774
f 767 768 776 775
f 768 761 769 776
f 823 821 819 817 815 813 811 809 807 805 803 801 799 797 795 793
f 794 796 798 800 802 804 806 808 810 812 814 816 818 820 822 824
f 793 795 796 794
f 795 797 798 796
f 797 799 800 798
f 799 801 802 800
f 801 803 804 802
f 803 805 806 804
f 805 807 808 806
f 807 809 810 808
f 809 811 812 810
f 811 813 814 812
f 813 815 816 814
f 815 817 818 816
f 817 819 820 818
f 819 821 822 820
f 821 823 824 822
f 823 793 794 824
f 896 895 894 893 892 891 890 889
f 897 898 899 900 901 902 903 904
f 889 890 898 897
f 890 891 899 898
f 891 892 900 899
f 892 893 901 900
f 893 894 902 901
f 894 895 903 902
f 895 896 904 903
f 896 889 897 904
f 928 927 926 925 924 923 922 921
f 929 930 931 932 933 934 935 936
f 921 922 930 929
f 922 923 931 930
f 923 924 932 931
f 924 925 933 932
f 925 926 934 933
f 926 927 935 934
f 927 928 936 935
f 928 921 929 936
f 944 943 942 941 940 939 938 937
f 945 946 947 948 949 950 951 952
f 937 938 946 945
f 938 939 947 946
f 939 940 948 947
f 940 941 949 948
f 941 942 950 949
f 942 943 951 950
f 943 944 952 951
f 944 937 945 952
f 960 959 958 957 956 955 954 953
f 961 962 963 964 965 966 967 968
f 953 954 962 961
f 954 955 963 962
f 955 956 964 963
f 956 957 965 964
f 957 958 966 965
f 958 959 967 966
f 959 960 968 967
f 960 953 961 968
f 976 975 974 973 972 971 970 969
f 977 978 979 980 981 982 983 984
f 969 970 978 977
f 970 971 979 978
f 971 972 980 979
f 972 973 981 980
f 973 974 982 981
f 974 975 983 982
f 975 976 984 983
f 976 969 977 984
f 992 991 990 989 988 987 986 985
f 993 994 995 996 997 998 999 1000
f 985 986 994 993
f 986 987 995 994
f 987 988 996 995
f 988 989 997 996
f 989 990 998 997
f 990 991 999 998
f 991 992 1000 999
f 992 985 993 1000
f 1008 1007 1006 1005 1004 1003 1002 1001
f 1009 1010 1011 1012 1013 1014 1015 1016
f 1001 1002 1010 1009
f 1002 1003 1011 1010
f 1003 1004 1012 1011
f 1004 1005 1013 1012
f 1005 1006 1014 1013
f 1006 1007 1015 1014
f 1007 1008 1016 1015
f 1008 1001 1009 1016
f 1024 1023 1022 1021 1020 1019 1018 1017
f 1025 1026 1027 1028 1029 1030 1031 1032
f 1017 1018 1026 1025
f 1018 1019 1027 1026
f 1019 1020 1028 1027
f 1020 1021 1029 1028
f 1021 1022 1030 1029
f 1022 1023 1031 1030
f 1023 1024 1032 1031
f 1024 1017 1025 1032
f 1040 1039 1038 1037 1036 1035 1034 1033
f 1041 1042 1043 1044 1045 1046 1047 1048
f 1033 1034 1042 1041
f 1034 1035 1043 1042
f 1035 1036 1044 1043
f 1036 1037 1045 1044
f 1037 1038 1046 1045
f 1038 1039 1047 1046
f 1039 1040 1048 1047
f 1040 1033 1041 1048
f 1056 1055 1054 1053 1052 1051 1050 1049
f 1057 1058 1059 1060 1061 1062 1063 1064
f 1049 1050 1058 1057
f 1050 1051 1059 1058
f 1051 1052 1060 1059
f 1052 1053 1061 1060
f 1053 1054 1062 1061
f 1054 1055 1063 1062
f 1055 1056 1064 1063
f 1056 1049 1057 1064
f 1072 1071 1070 1069 1068 1067 1066 1065
f 1073 1074 1075 1076 1077 1078 1079 1080
f 1065 1066 1074 1073
f 1066 1067 1075 1074
f 1067 1068 1076 1075
f 1068 1069 1077 1076
f 1069 1070 1078 1077
f 1070 1071 1079 1078
f 1071 1072 1080 1079
f 1072 1065 1073 1080
usemtl grip
f 912 911 910 909 908 907 906 905
f 913 914 915 916 917 918 919 920
f 905 906 914 913
f 906 907 915 914
f 907 908 916 915
f 908 909 917 916
f 909 910 918 917
f 910 911 919 918
f 911 912 920 919
f 912 905 913 920
f 1272 1271 1270 1269 1268 1267 1266 1265
f 1273 1274 1275 1276 1277 1278 1279 1280
f 1265 1266 1274 1273
f 1266 1267 1275 1274
f 1267 1268 1276 1275
f 1268 1269 1277 1276
f 1269 1270 1278 1277
f 1270 1271 1279 1278
f 1271 1272 1280 1279
f 1272 1265 1273 1280
f 1304 1303 1302 1301 1300 1299 1298 1297
f 1305 1306 1307 1308 1309 1310 1311 1312
f 1297 1298 1306 1305
f 1298 1299 1307 1306
f 1299 1300 1308 1307
f 1300 1301 1309 1308
f 1301 1302 1310 1309
f 1302 1303 1311 1310
f 1303 1304 1312 1311
f 1304 1297 1305 1312
f 1352 1351 1350 1349 1348 1347 1346 1345
f 1353 1354 1355 1356 1357 1358 1359 1360
f 1345 1346 1354 1353
f 1346 1347 1355 1354
f 1347 1348 1356 1355
f 1348 1349 1357 1356
f 1349 1350 1358 1357
f 1350 1351 1359 1358
f 1351 1352 1360 1359
f 1352 1345 1353 1360
f 1400 1399 1398 1397 1396 1395 1394 1393
f 1401 1402 1403 1404 1405 1406 1407 1408
f 1393 1394 1402 1401
f 1394 1395 1403 1402
f 1395 1396 1404 1403
f 1396 1397 1405 1404
f 1397 1398 1406 1405
f 1398 1399 1407 1406
f 1399 1400 1408 1407
f 1400 1393 1401 1408
f 1448 1447 1446 1445 1444 1443 1442 1441
f 1449 1450 1451 1452 1453 1454 1455 1456
f 1441 1442 1450 1449
f 1442 1443 1451 1450
f 1443 1444 1452 1451
f 1444 1445 1453 1452
f 1445 1446 1454 1453
f 1446 1447 1455 1454
f 1447 1448 1456 1455
f 1448 1441 1449 1456
f 1496 1495 1494 1493 1492 1491 1490 1489
f 1497 1498 1499 1500 1501 1502 1503 1504
f 1489 1490 1498 1497
f 1490 1491 1499 1498
f 1491 1492 1500 1499
f 1492 1493 1501 1500
f 1493 1494 1502 1501
f 1494 1495 1503 1502
f 1495 1496 1504 1503
f 1496 1489 1497 1504
usemtl gold
f 1216 1215 1214 1213 1212 1211 1210 1209
f 1217 1218 1219 1220 1221 1222 1223 1224
f 1209 1210 1218 1217
f 1210 1211 1219 1218
f 1211 1212 1220 1219
f 1212 1213 1221 1220
f 1213 1214 1222 1221
f 1214 1215 1223 1222
f 1215 1216 1224 1223
f 1216 1209 1217 1224
