# BREAKBULK MakoP12: original detailed hard-surface first-person weapon
mtllib MakoP12.mtl
s off
v -0.07000 -0.03750 -0.35000
v 0.07000 -0.03750 -0.35000
v 0.09500 -0.01250 -0.35000
v 0.09500 0.05250 -0.35000
v 0.07000 0.07750 -0.35000
v -0.07000 0.07750 -0.35000
v -0.09500 0.05250 -0.35000
v -0.09500 -0.01250 -0.35000
v -0.07000 -0.03750 0.17000
v 0.07000 -0.03750 0.17000
v 0.09500 -0.01250 0.17000
v 0.09500 0.05250 0.17000
v 0.07000 0.07750 0.17000
v -0.07000 0.07750 0.17000
v -0.09500 0.05250 0.17000
v -0.09500 -0.01250 0.17000
v -0.05550 -0.13500 -0.30500
v 0.05550 -0.13500 -0.30500
v 0.08250 -0.10800 -0.30500
v 0.08250 -0.02200 -0.30500
v 0.05550 0.00500 -0.30500
v -0.05550 0.00500 -0.30500
v -0.08250 -0.02200 -0.30500
v -0.08250 -0.10800 -0.30500
v -0.05550 -0.13500 0.14500
v 0.05550 -0.13500 0.14500
v 0.08250 -0.10800 0.14500
v 0.08250 -0.02200 0.14500
v 0.05550 0.00500 0.14500
v -0.05550 0.00500 0.14500
v -0.08250 -0.02200 0.14500
v -0.08250 -0.10800 0.14500
v -0.07560 0.05500 -0.35500
v 0.07560 0.05500 -0.35500
v 0.09000 0.06940 -0.35500
v 0.09000 0.10060 -0.35500
v 0.07560 0.11500 -0.35500
v -0.07560 0.11500 -0.35500
v -0.09000 0.10060 -0.35500
v -0.09000 0.06940 -0.35500
v -0.07560 0.05500 0.13500
v 0.07560 0.05500 0.13500
v 0.09000 0.06940 0.13500
v 0.09000 0.10060 0.13500
v 0.07560 0.11500 0.13500
v -0.07560 0.11500 0.13500
v -0.09000 0.10060 0.13500
v -0.09000 0.06940 0.13500
v -0.07376 0.11700 -0.29500
v 0.07376 0.11700 -0.29500
v 0.08000 0.12324 -0.29500
v 0.08000 0.13676 -0.29500
v 0.07376 0.14300 -0.29500
v -0.07376 0.14300 -0.29500
v -0.08000 0.13676 -0.29500
v -0.08000 0.12324 -0.29500
v -0.07376 0.11700 -0.04500
v 0.07376 0.11700 -0.04500
v 0.08000 0.12324 -0.04500
v 0.08000 0.13676 -0.04500
v 0.07376 0.14300 -0.04500
v -0.07376 0.14300 -0.04500
v -0.08000 0.13676 -0.04500
v -0.08000 0.12324 -0.04500
v 0.04700 0.01500 -0.42000
v 0.04700 0.01500 -0.56000
v 0.04342 0.03299 -0.42000
v 0.04342 0.03299 -0.56000
v 0.03323 0.04823 -0.42000
v 0.03323 0.04823 -0.56000
v 0.01799 0.05842 -0.42000
v 0.01799 0.05842 -0.56000
v 0.00000 0.06200 -0.42000
v 0.00000 0.06200 -0.56000
v -0.01799 0.05842 -0.42000
v -0.01799 0.05842 -0.56000
v -0.03323 0.04823 -0.42000
v -0.03323 0.04823 -0.56000
v -0.04342 0.03299 -0.42000
v -0.04342 0.03299 -0.56000
v -0.04700 0.01500 -0.42000
v -0.04700 0.01500 -0.56000
v -0.04342 -0.00299 -0.42000
v -0.04342 -0.00299 -0.56000
v -0.03323 -0.01823 -0.42000
v -0.03323 -0.01823 -0.56000
v -0.01799 -0.02842 -0.42000
v -0.01799 -0.02842 -0.56000
v -0.00000 -0.03200 -0.42000
v -0.00000 -0.03200 -0.56000
v 0.01799 -0.02842 -0.42000
v 0.01799 -0.02842 -0.56000
v 0.03323 -0.01823 -0.42000
v 0.03323 -0.01823 -0.56000
v 0.04342 -0.00299 -0.42000
v 0.04342 -0.00299 -0.56000
v 0.03200 0.01500 -0.56500
v 0.03200 0.01500 -0.58500
v 0.02956 0.02725 -0.56500
v 0.02956 0.02725 -0.58500
v 0.02263 0.03763 -0.56500
v 0.02263 0.03763 -0.58500
v 0.01225 0.04456 -0.56500
v 0.01225 0.04456 -0.58500
v 0.00000 0.04700 -0.56500
v 0.00000 0.04700 -0.58500
v -0.01225 0.04456 -0.56500
v -0.01225 0.04456 -0.58500
v -0.02263 0.03763 -0.56500
v -0.02263 0.03763 -0.58500
v -0.02956 0.02725 -0.56500
v -0.02956 0.02725 -0.58500
v -0.03200 0.01500 -0.56500
v -0.03200 0.01500 -0.58500
v -0.02956 0.00275 -0.56500
v -0.02956 0.00275 -0.58500
v -0.02263 -0.00763 -0.56500
v -0.02263 -0.00763 -0.58500
v -0.01225 -0.01456 -0.56500
v -0.01225 -0.01456 -0.58500
v -0.00000 -0.01700 -0.56500
v -0.00000 -0.01700 -0.58500
v 0.01225 -0.01456 -0.56500
v 0.01225 -0.01456 -0.58500
v 0.02263 -0.00763 -0.56500
v 0.02263 -0.00763 -0.58500
v 0.02956 0.00275 -0.56500
v 0.02956 0.00275 -0.58500
v -0.02100 0.10000 -0.44250
v 0.02100 0.10000 -0.44250
v 0.03000 0.10900 -0.44250
v 0.03000 0.15100 -0.44250
v 0.02100 0.16000 -0.44250
v -0.02100 0.16000 -0.44250
v -0.03000 0.15100 -0.44250
v -0.03000 0.10900 -0.44250
v -0.02100 0.10000 -0.39750
v 0.02100 0.10000 -0.39750
v 0.03000 0.10900 -0.39750
v 0.03000 0.15100 -0.39750
v 0.02100 0.16000 -0.39750
v -0.02100 0.16000 -0.39750
v -0.03000 0.15100 -0.39750
v -0.03000 0.10900 -0.39750
v -0.04000 0.12000 0.10000
v 0.04000 0.12000 0.10000
v 0.05000 0.13000 0.10000
v 0.05000 0.17000 0.10000
v 0.04000 0.18000 0.10000
v -0.04000 0.18000 0.10000
v -0.05000 0.17000 0.10000
v -0.05000 0.13000 0.10000
v -0.04000 0.12000 0.14000
v 0.04000 0.12000 0.14000
v 0.05000 0.13000 0.14000
v 0.05000 0.17000 0.14000
v 0.04000 0.18000 0.14000
v -0.04000 0.18000 0.14000
v -0.05000 0.17000 0.14000
v -0.05000 0.13000 0.14000
v -0.05700 -0.14250 -0.26500
v 0.05700 -0.14250 -0.26500
v 0.07500 -0.12450 -0.26500
v 0.07500 -0.07550 -0.26500
v 0.05700 -0.05750 -0.26500
v -0.05700 -0.05750 -0.26500
v -0.07500 -0.07550 -0.26500
v -0.07500 -0.12450 -0.26500
v -0.05700 -0.14250 -0.05500
v 0.05700 -0.14250 -0.05500
v 0.07500 -0.12450 -0.05500
v 0.07500 -0.07550 -0.05500
v 0.05700 -0.05750 -0.05500
v -0.05700 -0.05750 -0.05500
v -0.07500 -0.07550 -0.05500
v -0.07500 -0.12450 -0.05500
v -0.02340 -0.41642 0.15413
v 0.02340 -0.41642 0.15413
v 0.04500 -0.39549 0.14879
v 0.04500 -0.14667 0.08525
v 0.02340 -0.12574 0.07991
v -0.02340 -0.12574 0.07991
v -0.04500 -0.14667 0.08525
v -0.04500 -0.39549 0.14879
v -0.02340 -0.38426 0.28009
v 0.02340 -0.38426 0.28009
v 0.04500 -0.36333 0.27475
v 0.04500 -0.11451 0.21121
v 0.02340 -0.09358 0.20587
v -0.02340 -0.09358 0.20587
v -0.04500 -0.11451 0.21121
v -0.04500 -0.36333 0.27475
v 0.04644 -0.36900 0.13000
v 0.04956 -0.36900 0.13000
v 0.05100 -0.36756 0.13000
v 0.05100 -0.36244 0.13000
v 0.04956 -0.36100 0.13000
v 0.04644 -0.36100 0.13000
v 0.04500 -0.36244 0.13000
v 0.04500 -0.36756 0.13000
v 0.04644 -0.36900 0.23000
v 0.04956 -0.36900 0.23000
v 0.05100 -0.36756 0.23000
v 0.05100 -0.36244 0.23000
v 0.04956 -0.36100 0.23000
v 0.04644 -0.36100 0.23000
v 0.04500 -0.36244 0.23000
v 0.04500 -0.36756 0.23000
v 0.04644 -0.34300 0.13000
v 0.04956 -0.34300 0.13000
v 0.05100 -0.34156 0.13000
v 0.05100 -0.33644 0.13000
v 0.04956 -0.33500 0.13000
v 0.04644 -0.33500 0.13000
v 0.04500 -0.33644 0.13000
v 0.04500 -0.34156 0.13000
v 0.04644 -0.34300 0.23000
v 0.04956 -0.34300 0.23000
v 0.05100 -0.34156 0.23000
v 0.05100 -0.33644 0.23000
v 0.04956 -0.33500 0.23000
v 0.04644 -0.33500 0.23000
v 0.04500 -0.33644 0.23000
v 0.04500 -0.34156 0.23000
v 0.04644 -0.31700 0.13000
v 0.04956 -0.31700 0.13000
v 0.05100 -0.31556 0.13000
v 0.05100 -0.31044 0.13000
v 0.04956 -0.30900 0.13000
v 0.04644 -0.30900 0.13000
v 0.04500 -0.31044 0.13000
v 0.04500 -0.31556 0.13000
v 0.04644 -0.31700 0.23000
v 0.04956 -0.31700 0.23000
v 0.05100 -0.31556 0.23000
v 0.05100 -0.31044 0.23000
v 0.04956 -0.30900 0.23000
v 0.04644 -0.30900 0.23000
v 0.04500 -0.31044 0.23000
v 0.04500 -0.31556 0.23000
v 0.04644 -0.29100 0.13000
v 0.04956 -0.29100 0.13000
v 0.05100 -0.28956 0.13000
v 0.05100 -0.28444 0.13000
v 0.04956 -0.28300 0.13000
v 0.04644 -0.28300 0.13000
v 0.04500 -0.28444 0.13000
v 0.04500 -0.28956 0.13000
v 0.04644 -0.29100 0.23000
v 0.04956 -0.29100 0.23000
v 0.05100 -0.28956 0.23000
v 0.05100 -0.28444 0.23000
v 0.04956 -0.28300 0.23000
v 0.04644 -0.28300 0.23000
v 0.04500 -0.28444 0.23000
v 0.04500 -0.28956 0.23000
v 0.04644 -0.26500 0.13000
v 0.04956 -0.26500 0.13000
v 0.05100 -0.26356 0.13000
v 0.05100 -0.25844 0.13000
v 0.04956 -0.25700 0.13000
v 0.04644 -0.25700 0.13000
v 0.04500 -0.25844 0.13000
v 0.04500 -0.26356 0.13000
v 0.04644 -0.26500 0.23000
v 0.04956 -0.26500 0.23000
v 0.05100 -0.26356 0.23000
v 0.05100 -0.25844 0.23000
v 0.04956 -0.25700 0.23000
v 0.04644 -0.25700 0.23000
v 0.04500 -0.25844 0.23000
v 0.04500 -0.26356 0.23000
v 0.04644 -0.23900 0.13000
v 0.04956 -0.23900 0.13000
v 0.05100 -0.23756 0.13000
v 0.05100 -0.23244 0.13000
v 0.04956 -0.23100 0.13000
v 0.04644 -0.23100 0.13000
v 0.04500 -0.23244 0.13000
v 0.04500 -0.23756 0.13000
v 0.04644 -0.23900 0.23000
v 0.04956 -0.23900 0.23000
v 0.05100 -0.23756 0.23000
v 0.05100 -0.23244 0.23000
v 0.04956 -0.23100 0.23000
v 0.04644 -0.23100 0.23000
v 0.04500 -0.23244 0.23000
v 0.04500 -0.23756 0.23000
v 0.04644 -0.21300 0.13000
v 0.04956 -0.21300 0.13000
v 0.05100 -0.21156 0.13000
v 0.05100 -0.20644 0.13000
v 0.04956 -0.20500 0.13000
v 0.04644 -0.20500 0.13000
v 0.04500 -0.20644 0.13000
v 0.04500 -0.21156 0.13000
v 0.04644 -0.21300 0.23000
v 0.04956 -0.21300 0.23000
v 0.05100 -0.21156 0.23000
v 0.05100 -0.20644 0.23000
v 0.04956 -0.20500 0.23000
v 0.04644 -0.20500 0.23000
v 0.04500 -0.20644 0.23000
v 0.04500 -0.21156 0.23000
v 0.04644 -0.18700 0.13000
v 0.04956 -0.18700 0.13000
v 0.05100 -0.18556 0.13000
v 0.05100 -0.18044 0.13000
v 0.04956 -0.17900 0.13000
v 0.04644 -0.17900 0.13000
v 0.04500 -0.18044 0.13000
v 0.04500 -0.18556 0.13000
v 0.04644 -0.18700 0.23000
v 0.04956 -0.18700 0.23000
v 0.05100 -0.18556 0.23000
v 0.05100 -0.18044 0.23000
v 0.04956 -0.17900 0.23000
v 0.04644 -0.17900 0.23000
v 0.04500 -0.18044 0.23000
v 0.04500 -0.18556 0.23000
v 0.04644 -0.16100 0.13000
v 0.04956 -0.16100 0.13000
v 0.05100 -0.15956 0.13000
v 0.05100 -0.15444 0.13000
v 0.04956 -0.15300 0.13000
v 0.04644 -0.15300 0.13000
v 0.04500 -0.15444 0.13000
v 0.04500 -0.15956 0.13000
v 0.04644 -0.16100 0.23000
v 0.04956 -0.16100 0.23000
v 0.05100 -0.15956 0.23000
v 0.05100 -0.15444 0.23000
v 0.04956 -0.15300 0.23000
v 0.04644 -0.15300 0.23000
v 0.04500 -0.15444 0.23000
v 0.04500 -0.15956 0.23000
v -0.04972 -0.42100 0.12400
v 0.04972 -0.42100 0.12400
v 0.05500 -0.41572 0.12400
v 0.05500 -0.40428 0.12400
v 0.04972 -0.39900 0.12400
v -0.04972 -0.39900 0.12400
v -0.05500 -0.40428 0.12400
v -0.05500 -0.41572 0.12400
v -0.04972 -0.42100 0.26400
v 0.04972 -0.42100 0.26400
v 0.05500 -0.41572 0.26400
v 0.05500 -0.40428 0.26400
v 0.04972 -0.39900 0.26400
v -0.04972 -0.39900 0.26400
v -0.05500 -0.40428 0.26400
v -0.05500 -0.41572 0.26400
v -0.06100 -0.44000 0.12000
v 0.06100 -0.44000 0.12000
v 0.07000 -0.43100 0.12000
v 0.07000 -0.40900 0.12000
v 0.06100 -0.40000 0.12000
v -0.06100 -0.40000 0.12000
v -0.07000 -0.40900 0.12000
v -0.07000 -0.43100 0.12000
v -0.06100 -0.44000 0.28000
v 0.06100 -0.44000 0.28000
v 0.07000 -0.43100 0.28000
v 0.07000 -0.40900 0.28000
v 0.06100 -0.40000 0.28000
v -0.06100 -0.40000 0.28000
v -0.07000 -0.40900 0.28000
v -0.07000 -0.43100 0.28000
v -0.01818 -0.13900 -0.24500
v 0.01818 -0.13900 -0.24500
v 0.02250 -0.13468 -0.24500
v 0.02250 -0.12532 -0.24500
v 0.01818 -0.12100 -0.24500
v -0.01818 -0.12100 -0.24500
v -0.02250 -0.12532 -0.24500
v -0.02250 -0.13468 -0.24500
v -0.01818 -0.13900 -0.09500
v 0.01818 -0.13900 -0.09500
v 0.02250 -0.13468 -0.09500
v 0.02250 -0.12532 -0.09500
v 0.01818 -0.12100 -0.09500
v -0.01818 -0.12100 -0.09500
v -0.02250 -0.12532 -0.09500
v -0.02250 -0.13468 -0.09500
v -0.00468 -0.23000 -0.10250
v 0.00468 -0.23000 -0.10250
v 0.00900 -0.22568 -0.10250
v 0.00900 -0.15432 -0.10250
v 0.00468 -0.15000 -0.10250
v -0.00468 -0.15000 -0.10250
v -0.00900 -0.15432 -0.10250
v -0.00900 -0.22568 -0.10250
v -0.00468 -0.23000 -0.07750
v 0.00468 -0.23000 -0.07750
v 0.00900 -0.22568 -0.07750
v 0.00900 -0.15432 -0.07750
v 0.00468 -0.15000 -0.07750
v -0.00468 -0.15000 -0.07750
v -0.00900 -0.15432 -0.07750
v -0.00900 -0.22568 -0.07750
v 0.09288 0.02700 -0.35650
v 0.09912 0.02700 -0.35650
v 0.10200 0.02988 -0.35650
v 0.10200 0.10212 -0.35650
v 0.09912 0.10500 -0.35650
v 0.09288 0.10500 -0.35650
v 0.09000 0.10212 -0.35650
v 0.09000 0.02988 -0.35650
v 0.09288 0.02700 -0.34350
v 0.09912 0.02700 -0.34350
v 0.10200 0.02988 -0.34350
v 0.10200 0.10212 -0.34350
v 0.09912 0.10500 -0.34350
v 0.09288 0.10500 -0.34350
v 0.09000 0.10212 -0.34350
v 0.09000 0.02988 -0.34350
v -0.09912 0.02700 -0.35650
v -0.09288 0.02700 -0.35650
v -0.09000 0.02988 -0.35650
v -0.09000 0.10212 -0.35650
v -0.09288 0.10500 -0.35650
v -0.09912 0.10500 -0.35650
v -0.10200 0.10212 -0.35650
v -0.10200 0.02988 -0.35650
v -0.09912 0.02700 -0.34350
v -0.09288 0.02700 -0.34350
v -0.09000 0.02988 -0.34350
v -0.09000 0.10212 -0.34350
v -0.09288 0.10500 -0.34350
v -0.09912 0.10500 -0.34350
v -0.10200 0.10212 -0.34350
v -0.10200 0.02988 -0.34350
v 0.09288 0.02700 -0.32350
v 0.09912 0.02700 -0.32350
v 0.10200 0.02988 -0.32350
v 0.10200 0.10212 -0.32350
v 0.09912 0.10500 -0.32350
v 0.09288 0.10500 -0.32350
v 0.09000 0.10212 -0.32350
v 0.09000 0.02988 -0.32350
v 0.09288 0.02700 -0.31050
v 0.09912 0.02700 -0.31050
v 0.10200 0.02988 -0.31050
v 0.10200 0.10212 -0.31050
v 0.09912 0.10500 -0.31050
v 0.09288 0.10500 -0.31050
v 0.09000 0.10212 -0.31050
v 0.09000 0.02988 -0.31050
v -0.09912 0.02700 -0.32350
v -0.09288 0.02700 -0.32350
v -0.09000 0.02988 -0.32350
v -0.09000 0.10212 -0.32350
v -0.09288 0.10500 -0.32350
v -0.09912 0.10500 -0.32350
v -0.10200 0.10212 -0.32350
v -0.10200 0.02988 -0.32350
v -0.09912 0.02700 -0.31050
v -0.09288 0.02700 -0.31050
v -0.09000 0.02988 -0.31050
v -0.09000 0.10212 -0.31050
v -0.09288 0.10500 -0.31050
v -0.09912 0.10500 -0.31050
v -0.10200 0.10212 -0.31050
v -0.10200 0.02988 -0.31050
v 0.09288 0.02700 -0.29050
v 0.09912 0.02700 -0.29050
v 0.10200 0.02988 -0.29050
v 0.10200 0.10212 -0.29050
v 0.09912 0.10500 -0.29050
v 0.09288 0.10500 -0.29050
v 0.09000 0.10212 -0.29050
v 0.09000 0.02988 -0.29050
v 0.09288 0.02700 -0.27750
v 0.09912 0.02700 -0.27750
v 0.10200 0.02988 -0.27750
v 0.10200 0.10212 -0.27750
v 0.09912 0.10500 -0.27750
v 0.09288 0.10500 -0.27750
v 0.09000 0.10212 -0.27750
v 0.09000 0.02988 -0.27750
v -0.09912 0.02700 -0.29050
v -0.09288 0.02700 -0.29050
v -0.09000 0.02988 -0.29050
v -0.09000 0.10212 -0.29050
v -0.09288 0.10500 -0.29050
v -0.09912 0.10500 -0.29050
v -0.10200 0.10212 -0.29050
v -0.10200 0.02988 -0.29050
v -0.09912 0.02700 -0.27750
v -0.09288 0.02700 -0.27750
v -0.09000 0.02988 -0.27750
v -0.09000 0.10212 -0.27750
v -0.09288 0.10500 -0.27750
v -0.09912 0.10500 -0.27750
v -0.10200 0.10212 -0.27750
v -0.10200 0.02988 -0.27750
v 0.09288 0.02700 -0.25750
v 0.09912 0.02700 -0.25750
v 0.10200 0.02988 -0.25750
v 0.10200 0.10212 -0.25750
v 0.09912 0.10500 -0.25750
v 0.09288 0.10500 -0.25750
v 0.09000 0.10212 -0.25750
v 0.09000 0.02988 -0.25750
v 0.09288 0.02700 -0.24450
v 0.09912 0.02700 -0.24450
v 0.10200 0.02988 -0.24450
v 0.10200 0.10212 -0.24450
v 0.09912 0.10500 -0.24450
v 0.09288 0.10500 -0.24450
v 0.09000 0.10212 -0.24450
v 0.09000 0.02988 -0.24450
v -0.09912 0.02700 -0.25750
v -0.09288 0.02700 -0.25750
v -0.09000 0.02988 -0.25750
v -0.09000 0.10212 -0.25750
v -0.09288 0.10500 -0.25750
v -0.09912 0.10500 -0.25750
v -0.10200 0.10212 -0.25750
v -0.10200 0.02988 -0.25750
v -0.09912 0.02700 -0.24450
v -0.09288 0.02700 -0.24450
v -0.09000 0.02988 -0.24450
v -0.09000 0.10212 -0.24450
v -0.09288 0.10500 -0.24450
v -0.09912 0.10500 -0.24450
v -0.10200 0.10212 -0.24450
v -0.10200 0.02988 -0.24450
v 0.09288 0.02700 -0.22450
v 0.09912 0.02700 -0.22450
v 0.10200 0.02988 -0.22450
v 0.10200 0.10212 -0.22450
v 0.09912 0.10500 -0.22450
v 0.09288 0.10500 -0.22450
v 0.09000 0.10212 -0.22450
v 0.09000 0.02988 -0.22450
v 0.09288 0.02700 -0.21150
v 0.09912 0.02700 -0.21150
v 0.10200 0.02988 -0.21150
v 0.10200 0.10212 -0.21150
v 0.09912 0.10500 -0.21150
v 0.09288 0.10500 -0.21150
v 0.09000 0.10212 -0.21150
v 0.09000 0.02988 -0.21150
v -0.09912 0.02700 -0.22450
v -0.09288 0.02700 -0.22450
v -0.09000 0.02988 -0.22450
v -0.09000 0.10212 -0.22450
v -0.09288 0.10500 -0.22450
v -0.09912 0.10500 -0.22450
v -0.10200 0.10212 -0.22450
v -0.10200 0.02988 -0.22450
v -0.09912 0.02700 -0.21150
v -0.09288 0.02700 -0.21150
v -0.09000 0.02988 -0.21150
v -0.09000 0.10212 -0.21150
v -0.09288 0.10500 -0.21150
v -0.09912 0.10500 -0.21150
v -0.10200 0.10212 -0.21150
v -0.10200 0.02988 -0.21150
v 0.09288 0.02700 -0.19150
v 0.09912 0.02700 -0.19150
v 0.10200 0.02988 -0.19150
v 0.10200 0.10212 -0.19150
v 0.09912 0.10500 -0.19150
v 0.09288 0.10500 -0.19150
v 0.09000 0.10212 -0.19150
v 0.09000 0.02988 -0.19150
v 0.09288 0.02700 -0.17850
v 0.09912 0.02700 -0.17850
v 0.10200 0.02988 -0.17850
v 0.10200 0.10212 -0.17850
v 0.09912 0.10500 -0.17850
v 0.09288 0.10500 -0.17850
v 0.09000 0.10212 -0.17850
v 0.09000 0.02988 -0.17850
v -0.09912 0.02700 -0.19150
v -0.09288 0.02700 -0.19150
v -0.09000 0.02988 -0.19150
v -0.09000 0.10212 -0.19150
v -0.09288 0.10500 -0.19150
v -0.09912 0.10500 -0.19150
v -0.10200 0.10212 -0.19150
v -0.10200 0.02988 -0.19150
v -0.09912 0.02700 -0.17850
v -0.09288 0.02700 -0.17850
v -0.09000 0.02988 -0.17850
v -0.09000 0.10212 -0.17850
v -0.09288 0.10500 -0.17850
v -0.09912 0.10500 -0.17850
v -0.10200 0.10212 -0.17850
v -0.10200 0.02988 -0.17850
v 0.09288 0.02500 0.07350
v 0.09912 0.02500 0.07350
v 0.10200 0.02788 0.07350
v 0.10200 0.10212 0.07350
v 0.09912 0.10500 0.07350
v 0.09288 0.10500 0.07350
v 0.09000 0.10212 0.07350
v 0.09000 0.02788 0.07350
v 0.09288 0.02500 0.08650
v 0.09912 0.02500 0.08650
v 0.10200 0.02788 0.08650
v 0.10200 0.10212 0.08650
v 0.09912 0.10500 0.08650
v 0.09288 0.10500 0.08650
v 0.09000 0.10212 0.08650
v 0.09000 0.02788 0.08650
v -0.09912 0.02500 0.07350
v -0.09288 0.02500 0.07350
v -0.09000 0.02788 0.07350
v -0.09000 0.10212 0.07350
v -0.09288 0.10500 0.07350
v -0.09912 0.10500 0.07350
v -0.10200 0.10212 0.07350
v -0.10200 0.02788 0.07350
v -0.09912 0.02500 0.08650
v -0.09288 0.02500 0.08650
v -0.09000 0.02788 0.08650
v -0.09000 0.10212 0.08650
v -0.09288 0.10500 0.08650
v -0.09912 0.10500 0.08650
v -0.10200 0.10212 0.08650
v -0.10200 0.02788 0.08650
v 0.09288 0.02500 0.10650
v 0.09912 0.02500 0.10650
v 0.10200 0.02788 0.10650
v 0.10200 0.10212 0.10650
v 0.09912 0.10500 0.10650
v 0.09288 0.10500 0.10650
v 0.09000 0.10212 0.10650
v 0.09000 0.02788 0.10650
v 0.09288 0.02500 0.11950
v 0.09912 0.02500 0.11950
v 0.10200 0.02788 0.11950
v 0.10200 0.10212 0.11950
v 0.09912 0.10500 0.11950
v 0.09288 0.10500 0.11950
v 0.09000 0.10212 0.11950
v 0.09000 0.02788 0.11950
v -0.09912 0.02500 0.10650
v -0.09288 0.02500 0.10650
v -0.09000 0.02788 0.10650
v -0.09000 0.10212 0.10650
v -0.09288 0.10500 0.10650
v -0.09912 0.10500 0.10650
v -0.10200 0.10212 0.10650
v -0.10200 0.02788 0.10650
v -0.09912 0.02500 0.11950
v -0.09288 0.02500 0.11950
v -0.09000 0.02788 0.11950
v -0.09000 0.10212 0.11950
v -0.09288 0.10500 0.11950
v -0.09912 0.10500 0.11950
v -0.10200 0.10212 0.11950
v -0.10200 0.02788 0.11950
v 0.09288 0.02500 0.13950
v 0.09912 0.02500 0.13950
v 0.10200 0.02788 0.13950
v 0.10200 0.10212 0.13950
v 0.09912 0.10500 0.13950
v 0.09288 0.10500 0.13950
v 0.09000 0.10212 0.13950
v 0.09000 0.02788 0.13950
v 0.09288 0.02500 0.15250
v 0.09912 0.02500 0.15250
v 0.10200 0.02788 0.15250
v 0.10200 0.10212 0.15250
v 0.09912 0.10500 0.15250
v 0.09288 0.10500 0.15250
v 0.09000 0.10212 0.15250
v 0.09000 0.02788 0.15250
v -0.09912 0.02500 0.13950
v -0.09288 0.02500 0.13950
v -0.09000 0.02788 0.13950
v -0.09000 0.10212 0.13950
v -0.09288 0.10500 0.13950
v -0.09912 0.10500 0.13950
v -0.10200 0.10212 0.13950
v -0.10200 0.02788 0.13950
v -0.09912 0.02500 0.15250
v -0.09288 0.02500 0.15250
v -0.09000 0.02788 0.15250
v -0.09000 0.10212 0.15250
v -0.09288 0.10500 0.15250
v -0.09912 0.10500 0.15250
v -0.10200 0.10212 0.15250
v -0.10200 0.02788 0.15250
v 0.09288 0.02500 0.17250
v 0.09912 0.02500 0.17250
v 0.10200 0.02788 0.17250
v 0.10200 0.10212 0.17250
v 0.09912 0.10500 0.17250
v 0.09288 0.10500 0.17250
v 0.09000 0.10212 0.17250
v 0.09000 0.02788 0.17250
v 0.09288 0.02500 0.18550
v 0.09912 0.02500 0.18550
v 0.10200 0.02788 0.18550
v 0.10200 0.10212 0.18550
v 0.09912 0.10500 0.18550
v 0.09288 0.10500 0.18550
v 0.09000 0.10212 0.18550
v 0.09000 0.02788 0.18550
v -0.09912 0.02500 0.17250
v -0.09288 0.02500 0.17250
v -0.09000 0.02788 0.17250
v -0.09000 0.10212 0.17250
v -0.09288 0.10500 0.17250
v -0.09912 0.10500 0.17250
v -0.10200 0.10212 0.17250
v -0.10200 0.02788 0.17250
v -0.09912 0.02500 0.18550
v -0.09288 0.02500 0.18550
v -0.09000 0.02788 0.18550
v -0.09000 0.10212 0.18550
v -0.09288 0.10500 0.18550
v -0.09912 0.10500 0.18550
v -0.10200 0.10212 0.18550
v -0.10200 0.02788 0.18550
v 0.09266 0.01200 -0.12500
v 0.09734 0.01200 -0.12500
v 0.09950 0.01416 -0.12500
v 0.09950 0.03584 -0.12500
v 0.09734 0.03800 -0.12500
v 0.09266 0.03800 -0.12500
v 0.09050 0.03584 -0.12500
v 0.09050 0.01416 -0.12500
v 0.09266 0.01200 -0.03500
v 0.09734 0.01200 -0.03500
v 0.09950 0.01416 -0.03500
v 0.09950 0.03584 -0.03500
v 0.09734 0.03800 -0.03500
v 0.09266 0.03800 -0.03500
v 0.09050 0.03584 -0.03500
v 0.09050 0.01416 -0.03500
v 0.09322 -0.02300 -0.04750
v 0.09478 -0.02300 -0.04750
v 0.09550 -0.02228 -0.04750
v 0.09550 -0.01772 -0.04750
v 0.09478 -0.01700 -0.04750
v 0.09322 -0.01700 -0.04750
v 0.09250 -0.01772 -0.04750
v 0.09250 -0.02228 -0.04750
v 0.09322 -0.02300 0.00750
v 0.09478 -0.02300 0.00750
v 0.09550 -0.02228 0.00750
v 0.09550 -0.01772 0.00750
v 0.09478 -0.01700 0.00750
v 0.09322 -0.01700 0.00750
v 0.09250 -0.01772 0.00750
v 0.09250 -0.02228 0.00750
v 0.09322 -0.00500 -0.03750
v 0.09478 -0.00500 -0.03750
v 0.09550 -0.00428 -0.03750
v 0.09550 0.00028 -0.03750
v 0.09478 0.00100 -0.03750
v 0.09322 0.00100 -0.03750
v 0.09250 0.00028 -0.03750
v 0.09250 -0.00428 -0.03750
v 0.09322 -0.00500 -0.00250
v 0.09478 -0.00500 -0.00250
v 0.09550 -0.00428 -0.00250
v 0.09550 0.00028 -0.00250
v 0.09478 0.00100 -0.00250
v 0.09322 0.00100 -0.00250
v 0.09250 0.00028 -0.00250
v 0.09250 -0.00428 -0.00250
v 0.09322 0.01300 -0.04750
v 0.09478 0.01300 -0.04750
v 0.09550 0.01372 -0.04750
v 0.09550 0.01828 -0.04750
v 0.09478 0.01900 -0.04750
v 0.09322 0.01900 -0.04750
v 0.09250 0.01828 -0.04750
v 0.09250 0.01372 -0.04750
v 0.09322 0.01300 0.00750
v 0.09478 0.01300 0.00750
v 0.09550 0.01372 0.00750
v 0.09550 0.01828 0.00750
v 0.09478 0.01900 0.00750
v 0.09322 0.01900 0.00750
v 0.09250 0.01828 0.00750
v 0.09250 0.01372 0.00750
v 0.09322 0.03100 -0.03750
v 0.09478 0.03100 -0.03750
v 0.09550 0.03172 -0.03750
v 0.09550 0.03628 -0.03750
v 0.09478 0.03700 -0.03750
v 0.09322 0.03700 -0.03750
v 0.09250 0.03628 -0.03750
v 0.09250 0.03172 -0.03750
v 0.09322 0.03100 -0.00250
v 0.09478 0.03100 -0.00250
v 0.09550 0.03172 -0.00250
v 0.09550 0.03628 -0.00250
v 0.09478 0.03700 -0.00250
v 0.09322 0.03700 -0.00250
v 0.09250 0.03628 -0.00250
v 0.09250 0.03172 -0.00250
v 0.09500 -0.07000 -0.12900
v 0.10400 -0.07000 -0.12900
v 0.09500 -0.06222 -0.13222
v 0.10400 -0.06222 -0.13222
v 0.09500 -0.05900 -0.14000
v 0.10400 -0.05900 -0.14000
v 0.09500 -0.06222 -0.14778
v 0.10400 -0.06222 -0.14778
v 0.09500 -0.07000 -0.15100
v 0.10400 -0.07000 -0.15100
v 0.09500 -0.07778 -0.14778
v 0.10400 -0.07778 -0.14778
v 0.09500 -0.08100 -0.14000
v 0.10400 -0.08100 -0.14000
v 0.09500 -0.07778 -0.13222
v 0.10400 -0.07778 -0.13222
v 0.09500 -0.07000 0.16100
v 0.10400 -0.07000 0.16100
v 0.09500 -0.06222 0.15778
v 0.10400 -0.06222 0.15778
v 0.09500 -0.05900 0.15000
v 0.10400 -0.05900 0.15000
v 0.09500 -0.06222 0.14222
v 0.10400 -0.06222 0.14222
v 0.09500 -0.07000 0.13900
v 0.10400 -0.07000 0.13900
v 0.09500 -0.07778 0.14222
v 0.10400 -0.07778 0.14222
v 0.09500 -0.08100 0.15000
v 0.10400 -0.08100 0.15000
v 0.09500 -0.07778 0.15778
v 0.10400 -0.07778 0.15778
v -0.10500 -0.07000 -0.12900
v -0.09600 -0.07000 -0.12900
v -0.10500 -0.06222 -0.13222
v -0.09600 -0.06222 -0.13222
v -0.10500 -0.05900 -0.14000
v -0.09600 -0.05900 -0.14000
v -0.10500 -0.06222 -0.14778
v -0.09600 -0.06222 -0.14778
v -0.10500 -0.07000 -0.15100
v -0.09600 -0.07000 -0.15100
v -0.10500 -0.07778 -0.14778
v -0.09600 -0.07778 -0.14778
v -0.10500 -0.08100 -0.14000
v -0.09600 -0.08100 -0.14000
v -0.10500 -0.07778 -0.13222
v -0.09600 -0.07778 -0.13222
v -0.05270 -0.15500 -0.36500
v 0.05270 -0.15500 -0.36500
v 0.05750 -0.15020 -0.36500
v 0.05750 -0.13980 -0.36500
v 0.05270 -0.13500 -0.36500
v -0.05270 -0.13500 -0.36500
v -0.05750 -0.13980 -0.36500
v -0.05750 -0.15020 -0.36500
v -0.05270 -0.15500 -0.23500
v 0.05270 -0.15500 -0.23500
v 0.05750 -0.15020 -0.23500
v 0.05750 -0.13980 -0.23500
v 0.05270 -0.13500 -0.23500
v -0.05270 -0.13500 -0.23500
v -0.05750 -0.13980 -0.23500
v -0.05750 -0.15020 -0.23500
v -0.03350 -0.17600 -0.36500
v 0.03350 -0.17600 -0.36500
v 0.03750 -0.17200 -0.36500
v 0.03750 -0.15800 -0.36500
v 0.03350 -0.15400 -0.36500
v -0.03350 -0.15400 -0.36500
v -0.03750 -0.15800 -0.36500
v -0.03750 -0.17200 -0.36500
v -0.03350 -0.17600 -0.23500
v 0.03350 -0.17600 -0.23500
v 0.03750 -0.17200 -0.23500
v 0.03750 -0.15800 -0.23500
v 0.03350 -0.15400 -0.23500
v -0.03350 -0.15400 -0.23500
v -0.03750 -0.15800 -0.23500
v -0.03750 -0.17200 -0.23500
usemtl receiver
f 8 7 6 5 4 3 2 1
f 9 10 11 12 13 14 15 16
f 1 2 10 9
f 2 3 11 10
f 3 4 12 11
f 4 5 13 12
f 5 6 14 13
f 6 7 15 14
f 7 8 16 15
f 8 1 9 16
f 168 167 166 165 164 163 162 161
f 169 170 171 172 173 174 175 176
f 161 162 170 169
f 162 163 171 170
f 163 164 172 171
f 164 165 173 172
f 165 166 174 173
f 166 167 175 174
f 167 168 176 175
f 168 161 169 176
usemtl polymer
f 24 23 22 21 20 19 18 17
f 25 26 27 28 29 30 31 32
f 17 18 26 25
f 18 19 27 26
f 19 20 28 27
f 20 21 29 28
f 21 22 30 29
f 22 23 31 30
f 23 24 32 31
f 24 17 25 32
usemtl steel
f 40 39 38 37 36 35 34 33
f 41 42 43 44 45 46 47 48
f 33 34 42 41
f 34 35 43 42
f 35 36 44 43
f 36 37 45 44
f 37 38 46 45
f 38 39 47 46
f 39 40 48 47
f 40 33 41 48
f 127 125 123 121 119 117 115 113 111 109 107 105 103 101 99 97
f 98 100 102 104 106 108 110 112 114 116 118 120 122 124 126 128
f 97 99 100 98
f 99 101 102 100
f 101 103 104 102
f 103 105 106 104
f 105 107 108 106
f 107 109 110 108
f 109 111 112 110
f 111 113 114 112
f 113 115 116 114
f 115 117 118 116
f 117 119 120 118
f 119 121 122 120
f 121 123 124 122
f 123 125 126 124
f 125 127 128 126
f 127 97 98 128
f 136 135 134 133 132 131 130 129
f 137 138 139 140 141 142 143 144
f 129 130 138 137
f 130 131 139 138
f 131 132 140 139
f 132 133 141 140
f 133 134 142 141
f 134 135 143 142
f 135 136 144 143
f 136 129 137 144
f 152 151 150 149 148 147 146 145
f 153 154 155 156 157 158 159 160
f 145 146 154 153
f 146 147 155 154
f 147 148 156 155
f 148 149 157 156
f 149 150 158 157
f 150 151 159 158
f 151 152 160 159
f 152 145 153 160
f 360 359 358 357 356 355 354 353
f 361 362 363 364 365 366 367 368
f 353 354 362 361
f 354 355 363 362
f 355 356 364 363
f 356 357 365 364
f 357 358 366 365
f 358 359 367 366
f 359 360 368 367
f 360 353 361 368
f 376 375 374 373 372 371 370 369
f 377 378 379 380 381 382 383 384
f 369 370 378 377
f 370 371 379 378
f 371 372 380 379
f 372 373 381 380
f 373 374 382 381
f 374 375 383 382
f 375 376 384 383
f 376 369 377 384
f 815 813 811 809 807 805 803 801
f 802 804 806 808 810 812 814 816
f 801 803 804 802
f 803 805 806 804
f 805 807 808 806
f 807 809 810 808
f 809 811 812 810
f 811 813 814 812
f 813 815 816 814
f 815 801 802 816
f 831 829 827 825 823 821 819 817
f 818 820 822 824 826 828 830 832
f 817 819 820 818
f 819 821 822 820
f 821 823 824 822
f 823 825 826 824
f 825 827 828 826
f 827 829 830 828
f 829 831 832 830
f 831 817 818 832
f 847 845 843 841 839 837 835 833
f 834 836 838 840 842 844 846 848
f 833 835 836 834
f 835 837 838 836
f 837 839 840 838
f 839 841 842 840
f 841 843 844 842
f 843 845 846 844
f 845 847 848 846
f 847 833 834 848
f 856 855 854 853 852 851 850 849
f 857 858 859 860 861 862 863 864
f 849 850 858 857
f 850 851 859 858
f 851 852 860 859
f 852 853 861 860
f 853 854 862 861
f 854 855 863 862
f 855 856 864 863
f 856 849 857 864
usemtl marking
f 744 743 742 741 740 739 738 737
f 745 746 747 748 749 750 751 752
f 737 738 746 745
f 738 739 747 746
f 739 740 748 747
f 740 741 749 748
f 741 742 750 749
f 742 743 751 750
f 743 744 752 751
f 744 737 745 752
f 760 759 758 757 756 755 754 753
f 761 762 763 764 765 766 767 768
f 753 754 762 761
f 754 755 763 762
f 755 756 764 763
f 756 757 765 764
f 757 758 766 765
f 758 759 767 766
f 759 760 768 767
f 760 753 761 768
f 776 775 774 773 772 771 770 769
f 777 778 779 780 781 782 783 784
f 769 770 778 777
f 770 771 779 778
f 771 772 780 779
f 772 773 781 780
f 773 774 782 781
f 774 775 783 782
f 775 776 784 783
f 776 769 777 784
f 792 791 790 789 788 787 786 785
f 793 794 795 796 797 798 799 800
f 785 786 794 793
f 786 787 795 794
f 787 788 796 795
f 788 789 797 796
f 789 790 798 797
f 790 791 799 798
f 791 792 800 799
f 792 785 793 800
usemtl muzzle
f 56 55 54 53 52 51 50 49
f 57 58 59 60 61 62 63 64
f 49 50 58 57
f 50 51 59 58
f 51 52 60 59
f 52 53 61 60
f 53 54 62 61
f 54 55 63 62
f 55 56 64 63
f 56 49 57 64
f 95 93 91 89 87 85 83 81 79 77 75 73 71 69 67 65
f 66 68 70 72 74 76 78 80 82 84 86 88 90 92 94 96
f 65 67 68 66
f 67 69 70 68
f 69 71 72 70
f 71 73 74 72
f 73 75 76 74
f 75 77 78 76
f 77 79 80 78
f 79 81 82 80
f 81 83 84 82
f 83 85 86 84
f 85 87 88 86
f 87 89 90 88
f 89 91 92 90
f 91 93 94 92
f 93 95 96 94
f 95 65 66 96
f 200 199 198 197 196 195 194 193
f 201 202 203 204 205 206 207 208
f 193 194 202 201
f 194 195 203 202
f 195 196 204 203
f 196 197 205 204
f 197 198 206 205
f 198 199 207 206
f 199 200 208 207
f 200 193 201 208
f 216 215 214 213 212 211 210 209
f 217 218 219 220 221 222 223 224
f 209 210 218 217
f 210 211 219 218
f 211 212 220 219
f 212 213 221 220
f 213 214 222 221
f 214 215 223 222
f 215 216 224 223
f 216 209 217 224
f 232 231 230 229 228 227 226 225
f 233 234 235 236 237 238 239 240
f 225 226 234 233
f 226 227 235 234
f 227 228 236 235
f 228 229 237 236
f 229 230 238 237
f 230 231 239 238
f 231 232 240 239
f 232 225 233 240
f 248 247 246 245 244 243 242 241
f 249 250 251 252 253 254 255 256
f 241 242 250 249
f 242 243 251 250
f 243 244 252 251
f 244 245 253 252
f 245 246 254 253
f 246 247 255 254
f 247 248 256 255
f 248 241 249 256
f 264 263 262 261 260 259 258 257
f 265 266 267 268 269 270 271 272
f 257 258 266 265
f 258 259 267 266
f 259 260 268 267
f 260 261 269 268
f 261 262 270 269
f 262 263 271 270
f 263 264 272 271
f 264 257 265 272
f 280 279 278 277 276 275 274 273
f 281 282 283 284 285 286 287 288
f 273 274 282 281
f 274 275 283 282
f 275 276 284 283
f 276 277 285 284
f 277 278 286 285
f 278 279 287 286
f 279 280 288 287
f 280 273 281 288
f 296 295 294 293 292 291 290 289
f 297 298 299 300 301 302 303 304
f 289 290 298 297
f 290 291 299 298
f 291 292 300 299
f 292 293 301 300
f 293 294 302 301
f 294 295 303 302
f 295 296 304 303
f 296 289 297 304
f 312 311 310 309 308 307 306 305
f 313 314 315 316 317 318 319 320
f 305 306 314 313
f 306 307 315 314
f 307 308 316 315
f 308 309 317 316
f 309 310 318 317
f 310 311 319 318
f 311 312 320 319
f 312 305 313 320
f 328 327 326 325 324 323 322 321
f 329 330 331 332 333 334 335 336
f 321 322 330 329
f 322 323 331 330
f 323 324 332 331
f 324 325 333 332
f 325 326 334 333
f 326 327 335 334
f 327 328 336 335
f 328 321 329 336
f 344 343 342 341 340 339 338 337
f 345 346 347 348 349 350 351 352
f 337 338 346 345
f 338 339 347 346
f 339 340 348 347
f 340 341 349 348
f 341 342 350 349
f 342 343 351 350
f 343 344 352 351
f 344 337 345 352
f 408 407 406 405 404 403 402 401
f 409 410 411 412 413 414 415 416
f 401 402 410 409
f 402 403 411 410
f 403 404 412 411
f 404 405 413 412
f 405 406 414 413
f 406 407 415 414
f 407 408 416 415
f 408 401 409 416
f 424 423 422 421 420 419 418 417
f 425 426 427 428 429 430 431 432
f 417 418 426 425
f 418 419 427 426
f 419 420 428 427
f 420 421 429 428
f 421 422 430 429
f 422 423 431 430
f 423 424 432 431
f 424 417 425 432
f 440 439 438 437 436 435 434 433
f 441 442 443 444 445 446 447 448
f 433 434 442 441
f 434 435 443 442
f 435 436 444 443
f 436 437 445 444
f 437 438 446 445
f 438 439 447 446
f 439 440 448 447
f 440 433 441 448
f 456 455 454 453 452 451 450 449
f 457 458 459 460 461 462 463 464
f 449 450 458 457
f 450 451 459 458
f 451 452 460 459
f 452 453 461 460
f 453 454 462 461
f 454 455 463 462
f 455 456 464 463
f 456 449 457 464
f 472 471 470 469 468 467 466 465
f 473 474 475 476 477 478 479 480
f 465 466 474 473
f 466 467 475 474
f 467 468 476 475
f 468 469 477 476
f 469 470 478 477
f 470 471 479 478
f 471 472 480 479
f 472 465 473 480
f 488 487 486 485 484 483 482 481
f 489 490 491 492 493 494 495 496
f 481 482 490 489
f 482 483 491 490
f 483 484 492 491
f 484 485 493 492
f 485 486 494 493
f 486 487 495 494
f 487 488 496 495
f 488 481 489 496
f 504 503 502 501 500 499 498 497
f 505 506 507 508 509 510 511 512
f 497 498 506 505
f 498 499 507 506
f 499 500 508 507
f 500 501 509 508
f 501 502 510 509
f 502 503 511 510
f 503 504 512 511
f 504 497 505 512
f 520 519 518 517 516 515 514 513
f 521 522 523 524 525 526 527 528
f 513 514 522 521
f 514 515 523 522
f 515 516 524 523
f 516 517 525 524
f 517 518 526 525
f 518 519 527 526
f 519 520 528 527
f 520 513 521 528
f 536 535 534 533 532 531 530 529
f 537 538 539 540 541 542 543 544
f 529 530 538 537
f 530 531 539 538
f 531 532 540 539
f 532 533 541 540
f 533 534 542 541
f 534 535 543 542
f 535 536 544 543
f 536 529 537 544
f 552 551 550 549 548 547 546 545
f 553 554 555 556 557 558 559 560
f 545 546 554 553
f 546 547 555 554
f 547 548 556 555
f 548 549 557 556
f 549 550 558 557
f 550 551 559 558
f 551 552 560 559
f 552 545 553 560
f 568 567 566 565 564 563 562 561
f 569 570 571 572 573 574 575 576
f 561 562 570 569
f 562 563 571 570
f 563 564 572 571
f 564 565 573 572
f 565 566 574 573
f 566 567 575 574
f 567 568 576 575
f 568 561 569 576
f 584 583 582 581 580 579 578 577
f 585 586 587 588 589 590 591 592
f 577 578 586 585
f 578 579 587 586
f 579 580 588 587
f 580 581 589 588
f 581 582 590 589
f 582 583 591 590
f 583 584 592 591
f 584 577 585 592
f 600 599 598 597 596 595 594 593
f 601 602 603 604 605 606 607 608
f 593 594 602 601
f 594 595 603 602
f 595 596 604 603
f 596 597 605 604
f 597 598 606 605
f 598 599 607 606
f 599 600 608 607
f 600 593 601 608
f 616 615 614 613 612 611 610 609
f 617 618 619 620 621 622 623 624
f 609 610 618 617
f 610 611 619 618
f 611 612 620 619
f 612 613 621 620
f 613 614 622 621
f 614 615 623 622
f 615 616 624 623
f 616 609 617 624
f 632 631 630 629 628 627 626 625
f 633 634 635 636 637 638 639 640
f 625 626 634 633
f 626 627 635 634
f 627 628 636 635
f 628 629 637 636
f 629 630 638 637
f 630 631 639 638
f 631 632 640 639
f 632 625 633 640
f 648 647 646 645 644 643 642 641
f 649 650 651 652 653 654 655 656
f 641 642 650 649
f 642 643 651 650
f 643 644 652 651
f 644 645 653 652
f 645 646 654 653
f 646 647 655 654
f 647 648 656 655
f 648 641 649 656
f 664 663 662 661 660 659 658 657
f 665 666 667 668 669 670 671 672
f 657 658 666 665
f 658 659 667 666
f 659 660 668 667
f 660 661 669 668
f 661 662 670 669
f 662 663 671 670
f 663 664 672 671
f 664 657 665 672
f 680 679 678 677 676 675 674 673
f 681 682 683 684 685 686 687 688
f 673 674 682 681
f 674 675 683 682
f 675 676 684 683
f 676 677 685 684
f 677 678 686 685
f 678 679 687 686
f 679 680 688 687
f 680 673 681 688
f 696 695 694 693 692 691 690 689
f 697 698 699 700 701 702 703 704
f 689 690 698 697
f 690 691 699 698
f 691 692 700 699
f 692 693 701 700
f 693 694 702 701
f 694 695 703 702
f 695 696 704 703
f 696 689 697 704
f 712 711 710 709 708 707 706 705
f 713 714 715 716 717 718 719 720
f 705 706 714 713
f 706 707 715 714
f 707 708 716 715
f 708 709 717 716
f 709 710 718 717
f 710 711 719 718
f 711 712 720 719
f 712 705 713 720
f 728 727 726 725 724 723 722 721
f 729 730 731 732 733 734 735 736
f 721 722 730 729
f 722 723 731 730
f 723 724 732 731
f 724 725 733 732
f 725 726 734 733
f 726 727 735 734
f 727 728 736 735
f 728 721 729 736
f 872 871 870 869 868 867 866 865
f 873 874 875 876 877 878 879 880
f 865 866 874 873
f 866 867 875 874
f 867 868 876 875
f 868 869 877 876
f 869 870 878 877
f 870 871 879 878
f 871 872 880 879
f 872 865 873 880
usemtl grip
f 184 183 182 181 180 179 178 177
f 185 186 187 188 189 190 191 192
f 177 178 186 185
f 178 179 187 186
f 179 180 188 187
f 180 181 189 188
f 181 182 190 189
f 182 183 191 190
f 183 184 192 191
f 184 177 185 192
usemtl gold
f 392 391 390 389 388 387 386 385
f 393 394 395 396 397 398 399 400
f 385 386 394 393
f 386 387 395 394
f 387 388 396 395
f 388 389 397 396
f 389 390 398 397
f 390 391 399 398
f 391 392 400 399
f 392 385 393 400
