# BREAKBULK VectorK9: original detailed hard-surface first-person weapon
mtllib VectorK9.mtl
s off
v -0.06200 -0.11500 -0.37000
v 0.06200 -0.11500 -0.37000
v 0.10000 -0.07700 -0.37000
v 0.10000 0.07700 -0.37000
v 0.06200 0.11500 -0.37000
v -0.06200 0.11500 -0.37000
v -0.10000 0.07700 -0.37000
v -0.10000 -0.07700 -0.37000
v -0.06200 -0.11500 0.21000
v 0.06200 -0.11500 0.21000
v 0.10000 -0.07700 0.21000
v 0.10000 0.07700 0.21000
v 0.06200 0.11500 0.21000
v -0.06200 0.11500 0.21000
v -0.10000 0.07700 0.21000
v -0.10000 -0.07700 0.21000
v -0.08900 0.03500 -0.39500
v 0.08900 0.03500 -0.39500
v 0.10500 0.05100 -0.39500
v 0.10500 0.10900 -0.39500
v 0.08900 0.12500 -0.39500
v -0.08900 0.12500 -0.39500
v -0.10500 0.10900 -0.39500
v -0.10500 0.05100 -0.39500
v -0.08900 0.03500 0.03500
v 0.08900 0.03500 0.03500
v 0.10500 0.05100 0.03500
v 0.10500 0.10900 0.03500
v 0.08900 0.12500 0.03500
v -0.08900 0.12500 0.03500
v -0.10500 0.10900 0.03500
v -0.10500 0.05100 0.03500
v -0.07100 -0.14500 -0.52500
v 0.07100 -0.14500 -0.52500
v 0.09500 -0.12100 -0.52500
v 0.09500 0.00100 -0.52500
v 0.07100 0.02500 -0.52500
v -0.07100 0.02500 -0.52500
v -0.09500 0.00100 -0.52500
v -0.09500 -0.12100 -0.52500
v -0.07100 -0.14500 -0.25500
v 0.07100 -0.14500 -0.25500
v 0.09500 -0.12100 -0.25500
v 0.09500 0.00100 -0.25500
v 0.07100 0.02500 -0.25500
v -0.07100 0.02500 -0.25500
v -0.09500 0.00100 -0.25500
v -0.09500 -0.12100 -0.25500
v 0.04900 0.00500 -0.51000
v 0.04900 0.00500 -0.81000
v 0.04527 0.02375 -0.51000
v 0.04527 0.02375 -0.81000
v 0.03465 0.03965 -0.51000
v 0.03465 0.03965 -0.81000
v 0.01875 0.05027 -0.51000
v 0.01875 0.05027 -0.81000
v 0.00000 0.05400 -0.51000
v 0.00000 0.05400 -0.81000
v -0.01875 0.05027 -0.51000
v -0.01875 0.05027 -0.81000
v -0.03465 0.03965 -0.51000
v -0.03465 0.03965 -0.81000
v -0.04527 0.02375 -0.51000
v -0.04527 0.02375 -0.81000
v -0.04900 0.00500 -0.51000
v -0.04900 0.00500 -0.81000
v -0.04527 -0.01375 -0.51000
v -0.04527 -0.01375 -0.81000
v -0.03465 -0.02965 -0.51000
v -0.03465 -0.02965 -0.81000
v -0.01875 -0.04027 -0.51000
v -0.01875 -0.04027 -0.81000
v -0.00000 -0.04400 -0.51000
v -0.00000 -0.04400 -0.81000
v 0.01875 -0.04027 -0.51000
v 0.01875 -0.04027 -0.81000
v 0.03465 -0.02965 -0.51000
v 0.03465 -0.02965 -0.81000
v 0.04527 -0.01375 -0.51000
v 0.04527 -0.01375 -0.81000
v 0.07800 0.00500 -0.79000
v 0.07800 0.00500 -0.87000
v 0.07206 0.03485 -0.79000
v 0.07206 0.03485 -0.87000
v 0.05515 0.06015 -0.79000
v 0.05515 0.06015 -0.87000
v 0.02985 0.07706 -0.79000
v 0.02985 0.07706 -0.87000
v 0.00000 0.08300 -0.79000
v 0.00000 0.08300 -0.87000
v -0.02985 0.07706 -0.79000
v -0.02985 0.07706 -0.87000
v -0.05515 0.06015 -0.79000
v -0.05515 0.06015 -0.87000
v -0.07206 0.03485 -0.79000
v -0.07206 0.03485 -0.87000
v -0.07800 0.00500 -0.79000
v -0.07800 0.00500 -0.87000
v -0.07206 -0.02485 -0.79000
v -0.07206 -0.02485 -0.87000
v -0.05515 -0.05015 -0.79000
v -0.05515 -0.05015 -0.87000
v -0.02985 -0.06706 -0.79000
v -0.02985 -0.06706 -0.87000
v -0.00000 -0.07300 -0.79000
v -0.00000 -0.07300 -0.87000
v 0.02985 -0.06706 -0.79000
v 0.02985 -0.06706 -0.87000
v 0.05515 -0.05015 -0.79000
v 0.05515 -0.05015 -0.87000
v 0.07206 -0.02485 -0.79000
v 0.07206 -0.02485 -0.87000
v 0.06284 -0.00700 -0.85650
v 0.07116 -0.00700 -0.85650
v 0.07500 -0.00316 -0.85650
v 0.07500 0.01316 -0.85650
v 0.07116 0.01700 -0.85650
v 0.06284 0.01700 -0.85650
v 0.05900 0.01316 -0.85650
v 0.05900 -0.00316 -0.85650
v 0.06284 -0.00700 -0.84350
v 0.07116 -0.00700 -0.84350
v 0.07500 -0.00316 -0.84350
v 0.07500 0.01316 -0.84350
v 0.07116 0.01700 -0.84350
v 0.06284 0.01700 -0.84350
v 0.05900 0.01316 -0.84350
v 0.05900 -0.00316 -0.84350
v -0.07116 -0.00700 -0.85650
v -0.06284 -0.00700 -0.85650
v -0.05900 -0.00316 -0.85650
v -0.05900 0.01316 -0.85650
v -0.06284 0.01700 -0.85650
v -0.07116 0.01700 -0.85650
v -0.07500 0.01316 -0.85650
v -0.07500 -0.00316 -0.85650
v -0.07116 -0.00700 -0.84350
v -0.06284 -0.00700 -0.84350
v -0.05900 -0.00316 -0.84350
v -0.05900 0.01316 -0.84350
v -0.06284 0.01700 -0.84350
v -0.07116 0.01700 -0.84350
v -0.07500 0.01316 -0.84350
v -0.07500 -0.00316 -0.84350
v 0.06284 -0.00700 -0.82650
v 0.07116 -0.00700 -0.82650
v 0.07500 -0.00316 -0.82650
v 0.07500 0.01316 -0.82650
v 0.07116 0.01700 -0.82650
v 0.06284 0.01700 -0.82650
v 0.05900 0.01316 -0.82650
v 0.05900 -0.00316 -0.82650
v 0.06284 -0.00700 -0.81350
v 0.07116 -0.00700 -0.81350
v 0.07500 -0.00316 -0.81350
v 0.07500 0.01316 -0.81350
v 0.07116 0.01700 -0.81350
v 0.06284 0.01700 -0.81350
v 0.05900 0.01316 -0.81350
v 0.05900 -0.00316 -0.81350
v -0.07116 -0.00700 -0.82650
v -0.06284 -0.00700 -0.82650
v -0.05900 -0.00316 -0.82650
v -0.05900 0.01316 -0.82650
v -0.06284 0.01700 -0.82650
v -0.07116 0.01700 -0.82650
v -0.07500 0.01316 -0.82650
v -0.07500 -0.00316 -0.82650
v -0.07116 -0.00700 -0.81350
v -0.06284 -0.00700 -0.81350
v -0.05900 -0.00316 -0.81350
v -0.05900 0.01316 -0.81350
v -0.06284 0.01700 -0.81350
v -0.07116 0.01700 -0.81350
v -0.07500 0.01316 -0.81350
v -0.07500 -0.00316 -0.81350
v 0.06284 -0.00700 -0.79650
v 0.07116 -0.00700 -0.79650
v 0.07500 -0.00316 -0.79650
v 0.07500 0.01316 -0.79650
v 0.07116 0.01700 -0.79650
v 0.06284 0.01700 -0.79650
v 0.05900 0.01316 -0.79650
v 0.05900 -0.00316 -0.79650
v 0.06284 -0.00700 -0.78350
v 0.07116 -0.00700 -0.78350
v 0.07500 -0.00316 -0.78350
v 0.07500 0.01316 -0.78350
v 0.07116 0.01700 -0.78350
v 0.06284 0.01700 -0.78350
v 0.05900 0.01316 -0.78350
v 0.05900 -0.00316 -0.78350
v -0.07116 -0.00700 -0.79650
v -0.06284 -0.00700 -0.79650
v -0.05900 -0.00316 -0.79650
v -0.05900 0.01316 -0.79650
v -0.06284 0.01700 -0.79650
v -0.07116 0.01700 -0.79650
v -0.07500 0.01316 -0.79650
v -0.07500 -0.00316 -0.79650
v -0.07116 -0.00700 -0.78350
v -0.06284 -0.00700 -0.78350
v -0.05900 -0.00316 -0.78350
v -0.05900 0.01316 -0.78350
v -0.06284 0.01700 -0.78350
v -0.07116 0.01700 -0.78350
v -0.07500 0.01316 -0.78350
v -0.07500 -0.00316 -0.78350
v -0.08300 0.04000 -0.45500
v 0.08300 0.04000 -0.45500
v 0.09500 0.05200 -0.45500
v 0.09500 0.07800 -0.45500
v 0.08300 0.09000 -0.45500
v -0.08300 0.09000 -0.45500
v -0.09500 0.07800 -0.45500
v -0.09500 0.05200 -0.45500
v -0.08300 0.04000 -0.18500
v 0.08300 0.04000 -0.18500
v 0.09500 0.05200 -0.18500
v 0.09500 0.07800 -0.18500
v 0.08300 0.09000 -0.18500
v -0.08300 0.09000 -0.18500
v -0.09500 0.07800 -0.18500
v -0.09500 0.05200 -0.18500
v -0.06760 -0.00700 -0.45750
v -0.06240 -0.00700 -0.45750
v -0.06000 -0.00460 -0.45750
v -0.06000 0.02460 -0.45750
v -0.06240 0.02700 -0.45750
v -0.06760 0.02700 -0.45750
v -0.07000 0.02460 -0.45750
v -0.07000 -0.00460 -0.45750
v -0.06760 -0.00700 -0.40250
v -0.06240 -0.00700 -0.40250
v -0.06000 -0.00460 -0.40250
v -0.06000 0.02460 -0.40250
v -0.06240 0.02700 -0.40250
v -0.06760 0.02700 -0.40250
v -0.07000 0.02460 -0.40250
v -0.07000 -0.00460 -0.40250
v 0.06240 -0.00700 -0.45750
v 0.06760 -0.00700 -0.45750
v 0.07000 -0.00460 -0.45750
v 0.07000 0.02460 -0.45750
v 0.06760 0.02700 -0.45750
v 0.06240 0.02700 -0.45750
v 0.06000 0.02460 -0.45750
v 0.06000 -0.00460 -0.45750
v 0.06240 -0.00700 -0.40250
v 0.06760 -0.00700 -0.40250
v 0.07000 -0.00460 -0.40250
v 0.07000 0.02460 -0.40250
v 0.06760 0.02700 -0.40250
v 0.06240 0.02700 -0.40250
v 0.06000 0.02460 -0.40250
v 0.06000 -0.00460 -0.40250
v -0.06760 -0.00700 -0.36250
v -0.06240 -0.00700 -0.36250
v -0.06000 -0.00460 -0.36250
v -0.06000 0.02460 -0.36250
v -0.06240 0.02700 -0.36250
v -0.06760 0.02700 -0.36250
v -0.07000 0.02460 -0.36250
v -0.07000 -0.00460 -0.36250
v -0.06760 -0.00700 -0.30750
v -0.06240 -0.00700 -0.30750
v -0.06000 -0.00460 -0.30750
v -0.06000 0.02460 -0.30750
v -0.06240 0.02700 -0.30750
v -0.06760 0.02700 -0.30750
v -0.07000 0.02460 -0.30750
v -0.07000 -0.00460 -0.30750
v 0.06240 -0.00700 -0.36250
v 0.06760 -0.00700 -0.36250
v 0.07000 -0.00460 -0.36250
v 0.07000 0.02460 -0.36250
v 0.06760 0.02700 -0.36250
v 0.06240 0.02700 -0.36250
v 0.06000 0.02460 -0.36250
v 0.06000 -0.00460 -0.36250
v 0.06240 -0.00700 -0.30750
v 0.06760 -0.00700 -0.30750
v 0.07000 -0.00460 -0.30750
v 0.07000 0.02460 -0.30750
v 0.06760 0.02700 -0.30750
v 0.06240 0.02700 -0.30750
v 0.06000 0.02460 -0.30750
v 0.06000 -0.00460 -0.30750
v -0.06760 -0.00700 -0.26750
v -0.06240 -0.00700 -0.26750
v -0.06000 -0.00460 -0.26750
v -0.06000 0.02460 -0.26750
v -0.06240 0.02700 -0.26750
v -0.06760 0.02700 -0.26750
v -0.07000 0.02460 -0.26750
v -0.07000 -0.00460 -0.26750
v -0.06760 -0.00700 -0.21250
v -0.06240 -0.00700 -0.21250
v -0.06000 -0.00460 -0.21250
v -0.06000 0.02460 -0.21250
v -0.06240 0.02700 -0.21250
v -0.06760 0.02700 -0.21250
v -0.07000 0.02460 -0.21250
v -0.07000 -0.00460 -0.21250
v 0.06240 -0.00700 -0.26750
v 0.06760 -0.00700 -0.26750
v 0.07000 -0.00460 -0.26750
v 0.07000 0.02460 -0.26750
v 0.06760 0.02700 -0.26750
v 0.06240 0.02700 -0.26750
v 0.06000 0.02460 -0.26750
v 0.06000 -0.00460 -0.26750
v 0.06240 -0.00700 -0.21250
v 0.06760 -0.00700 -0.21250
v 0.07000 -0.00460 -0.21250
v 0.07000 0.02460 -0.21250
v 0.06760 0.02700 -0.21250
v 0.06240 0.02700 -0.21250
v 0.06000 0.02460 -0.21250
v 0.06000 -0.00460 -0.21250
v -0.05126 0.13200 -0.52000
v 0.05126 0.13200 -0.52000
v 0.05750 0.13824 -0.52000
v 0.05750 0.15176 -0.52000
v 0.05126 0.15800 -0.52000
v -0.05126 0.15800 -0.52000
v -0.05750 0.15176 -0.52000
v -0.05750 0.13824 -0.52000
v -0.05126 0.13200 0.18000
v 0.05126 0.13200 0.18000
v 0.05750 0.13824 0.18000
v 0.05750 0.15176 0.18000
v 0.05126 0.15800 0.18000
v -0.05126 0.15800 0.18000
v -0.05750 0.15176 0.18000
v -0.05750 0.13824 0.18000
v -0.05640 0.15750 -0.50600
v 0.05640 0.15750 -0.50600
v 0.06000 0.16110 -0.50600
v 0.06000 0.16890 -0.50600
v 0.05640 0.17250 -0.50600
v -0.05640 0.17250 -0.50600
v -0.06000 0.16890 -0.50600
v -0.06000 0.16110 -0.50600
v -0.05640 0.15750 -0.49400
v 0.05640 0.15750 -0.49400
v 0.06000 0.16110 -0.49400
v 0.06000 0.16890 -0.49400
v 0.05640 0.17250 -0.49400
v -0.05640 0.17250 -0.49400
v -0.06000 0.16890 -0.49400
v -0.06000 0.16110 -0.49400
v -0.05640 0.15750 -0.45400
v 0.05640 0.15750 -0.45400
v 0.06000 0.16110 -0.45400
v 0.06000 0.16890 -0.45400
v 0.05640 0.17250 -0.45400
v -0.05640 0.17250 -0.45400
v -0.06000 0.16890 -0.45400
v -0.06000 0.16110 -0.45400
v -0.05640 0.15750 -0.44200
v 0.05640 0.15750 -0.44200
v 0.06000 0.16110 -0.44200
v 0.06000 0.16890 -0.44200
v 0.05640 0.17250 -0.44200
v -0.05640 0.17250 -0.44200
v -0.06000 0.16890 -0.44200
v -0.06000 0.16110 -0.44200
v -0.05640 0.15750 -0.40200
v 0.05640 0.15750 -0.40200
v 0.06000 0.16110 -0.40200
v 0.06000 0.16890 -0.40200
v 0.05640 0.17250 -0.40200
v -0.05640 0.17250 -0.40200
v -0.06000 0.16890 -0.40200
v -0.06000 0.16110 -0.40200
v -0.05640 0.15750 -0.39000
v 0.05640 0.15750 -0.39000
v 0.06000 0.16110 -0.39000
v 0.06000 0.16890 -0.39000
v 0.05640 0.17250 -0.39000
v -0.05640 0.17250 -0.39000
v -0.06000 0.16890 -0.39000
v -0.06000 0.16110 -0.39000
v -0.05640 0.15750 -0.35000
v 0.05640 0.15750 -0.35000
v 0.06000 0.16110 -0.35000
v 0.06000 0.16890 -0.35000
v 0.05640 0.17250 -0.35000
v -0.05640 0.17250 -0.35000
v -0.06000 0.16890 -0.35000
v -0.06000 0.16110 -0.35000
v -0.05640 0.15750 -0.33800
v 0.05640 0.15750 -0.33800
v 0.06000 0.16110 -0.33800
v 0.06000 0.16890 -0.33800
v 0.05640 0.17250 -0.33800
v -0.05640 0.17250 -0.33800
v -0.06000 0.16890 -0.33800
v -0.06000 0.16110 -0.33800
v -0.05640 0.15750 -0.29800
v 0.05640 0.15750 -0.29800
v 0.06000 0.16110 -0.29800
v 0.06000 0.16890 -0.29800
v 0.05640 0.17250 -0.29800
v -0.05640 0.17250 -0.29800
v -0.06000 0.16890 -0.29800
v -0.06000 0.16110 -0.29800
v -0.05640 0.15750 -0.28600
v 0.05640 0.15750 -0.28600
v 0.06000 0.16110 -0.28600
v 0.06000 0.16890 -0.28600
v 0.05640 0.17250 -0.28600
v -0.05640 0.17250 -0.28600
v -0.06000 0.16890 -0.28600
v -0.06000 0.16110 -0.28600
v -0.05640 0.15750 -0.24600
v 0.05640 0.15750 -0.24600
v 0.06000 0.16110 -0.24600
v 0.06000 0.16890 -0.24600
v 0.05640 0.17250 -0.24600
v -0.05640 0.17250 -0.24600
v -0.06000 0.16890 -0.24600
v -0.06000 0.16110 -0.24600
v -0.05640 0.15750 -0.23400
v 0.05640 0.15750 -0.23400
v 0.06000 0.16110 -0.23400
v 0.06000 0.16890 -0.23400
v 0.05640 0.17250 -0.23400
v -0.05640 0.17250 -0.23400
v -0.06000 0.16890 -0.23400
v -0.06000 0.16110 -0.23400
v -0.05640 0.15750 -0.19400
v 0.05640 0.15750 -0.19400
v 0.06000 0.16110 -0.19400
v 0.06000 0.16890 -0.19400
v 0.05640 0.17250 -0.19400
v -0.05640 0.17250 -0.19400
v -0.06000 0.16890 -0.19400
v -0.06000 0.16110 -0.19400
v -0.05640 0.15750 -0.18200
v 0.05640 0.15750 -0.18200
v 0.06000 0.16110 -0.18200
v 0.06000 0.16890 -0.18200
v 0.05640 0.17250 -0.18200
v -0.05640 0.17250 -0.18200
v -0.06000 0.16890 -0.18200
v -0.06000 0.16110 -0.18200
v -0.05640 0.15750 -0.14200
v 0.05640 0.15750 -0.14200
v 0.06000 0.16110 -0.14200
v 0.06000 0.16890 -0.14200
v 0.05640 0.17250 -0.14200
v -0.05640 0.17250 -0.14200
v -0.06000 0.16890 -0.14200
v -0.06000 0.16110 -0.14200
v -0.05640 0.15750 -0.13000
v 0.05640 0.15750 -0.13000
v 0.06000 0.16110 -0.13000
v 0.06000 0.16890 -0.13000
v 0.05640 0.17250 -0.13000
v -0.05640 0.17250 -0.13000
v -0.06000 0.16890 -0.13000
v -0.06000 0.16110 -0.13000
v -0.05640 0.15750 -0.09000
v 0.05640 0.15750 -0.09000
v 0.06000 0.16110 -0.09000
v 0.06000 0.16890 -0.09000
v 0.05640 0.17250 -0.09000
v -0.05640 0.17250 -0.09000
v -0.06000 0.16890 -0.09000
v -0.06000 0.16110 -0.09000
v -0.05640 0.15750 -0.07800
v 0.05640 0.15750 -0.07800
v 0.06000 0.16110 -0.07800
v 0.06000 0.16890 -0.07800
v 0.05640 0.17250 -0.07800
v -0.05640 0.17250 -0.07800
v -0.06000 0.16890 -0.07800
v -0.06000 0.16110 -0.07800
v -0.05640 0.15750 -0.03800
v 0.05640 0.15750 -0.03800
v 0.06000 0.16110 -0.03800
v 0.06000 0.16890 -0.03800
v 0.05640 0.17250 -0.03800
v -0.05640 0.17250 -0.03800
v -0.06000 0.16890 -0.03800
v -0.06000 0.16110 -0.03800
v -0.05640 0.15750 -0.02600
v 0.05640 0.15750 -0.02600
v 0.06000 0.16110 -0.02600
v 0.06000 0.16890 -0.02600
v 0.05640 0.17250 -0.02600
v -0.05640 0.17250 -0.02600
v -0.06000 0.16890 -0.02600
v -0.06000 0.16110 -0.02600
v -0.05640 0.15750 0.01400
v 0.05640 0.15750 0.01400
v 0.06000 0.16110 0.01400
v 0.06000 0.16890 0.01400
v 0.05640 0.17250 0.01400
v -0.05640 0.17250 0.01400
v -0.06000 0.16890 0.01400
v -0.06000 0.16110 0.01400
v -0.05640 0.15750 0.02600
v 0.05640 0.15750 0.02600
v 0.06000 0.16110 0.02600
v 0.06000 0.16890 0.02600
v 0.05640 0.17250 0.02600
v -0.05640 0.17250 0.02600
v -0.06000 0.16890 0.02600
v -0.06000 0.16110 0.02600
v -0.05640 0.15750 0.06600
v 0.05640 0.15750 0.06600
v 0.06000 0.16110 0.06600
v 0.06000 0.16890 0.06600
v 0.05640 0.17250 0.06600
v -0.05640 0.17250 0.06600
v -0.06000 0.16890 0.06600
v -0.06000 0.16110 0.06600
v -0.05640 0.15750 0.07800
v 0.05640 0.15750 0.07800
v 0.06000 0.16110 0.07800
v 0.06000 0.16890 0.07800
v 0.05640 0.17250 0.07800
v -0.05640 0.17250 0.07800
v -0.06000 0.16890 0.07800
v -0.06000 0.16110 0.07800
v -0.05640 0.15750 0.11800
v 0.05640 0.15750 0.11800
v 0.06000 0.16110 0.11800
v 0.06000 0.16890 0.11800
v 0.05640 0.17250 0.11800
v -0.05640 0.17250 0.11800
v -0.06000 0.16890 0.11800
v -0.06000 0.16110 0.11800
v -0.05640 0.15750 0.13000
v 0.05640 0.15750 0.13000
v 0.06000 0.16110 0.13000
v 0.06000 0.16890 0.13000
v 0.05640 0.17250 0.13000
v -0.05640 0.17250 0.13000
v -0.06000 0.16890 0.13000
v -0.06000 0.16110 0.13000
v -0.03900 0.13500 -0.10000
v 0.03900 0.13500 -0.10000
v 0.05500 0.15100 -0.10000
v 0.05500 0.18900 -0.10000
v 0.03900 0.20500 -0.10000
v -0.03900 0.20500 -0.10000
v -0.05500 0.18900 -0.10000
v -0.05500 0.15100 -0.10000
v -0.03900 0.13500 0.02000
v 0.03900 0.13500 0.02000
v 0.05500 0.15100 0.02000
v 0.05500 0.18900 0.02000
v 0.03900 0.20500 0.02000
v -0.03900 0.20500 0.02000
v -0.05500 0.18900 0.02000
v -0.05500 0.15100 0.02000
v -0.06340 0.17500 -0.10500
v 0.06340 0.17500 -0.10500
v 0.08500 0.19660 -0.10500
v 0.08500 0.24340 -0.10500
v 0.06340 0.26500 -0.10500
v -0.06340 0.26500 -0.10500
v -0.08500 0.24340 -0.10500
v -0.08500 0.19660 -0.10500
v -0.06340 0.17500 0.02500
v 0.06340 0.17500 0.02500
v 0.08500 0.19660 0.02500
v 0.08500 0.24340 0.02500
v 0.06340 0.26500 0.02500
v -0.06340 0.26500 0.02500
v -0.08500 0.24340 0.02500
v -0.08500 0.19660 0.02500
v -0.06400 0.22000 -0.11000
v -0.06400 0.22000 0.03000
v -0.05913 0.24449 -0.11000
v -0.05913 0.24449 0.03000
v -0.04525 0.26525 -0.11000
v -0.04525 0.26525 0.03000
v -0.02449 0.27913 -0.11000
v -0.02449 0.27913 0.03000
v -0.00000 0.28400 -0.11000
v -0.00000 0.28400 0.03000
v 0.02449 0.27913 -0.11000
v 0.02449 0.27913 0.03000
v 0.04525 0.26525 -0.11000
v 0.04525 0.26525 0.03000
v 0.05913 0.24449 -0.11000
v 0.05913 0.24449 0.03000
v 0.06400 0.22000 -0.11000
v 0.06400 0.22000 0.03000
v 0.05913 0.19551 -0.11000
v 0.05913 0.19551 0.03000
v 0.04525 0.17475 -0.11000
v 0.04525 0.17475 0.03000
v 0.02449 0.16087 -0.11000
v 0.02449 0.16087 0.03000
v 0.00000 0.15600 -0.11000
v 0.00000 0.15600 0.03000
v -0.02449 0.16087 -0.11000
v -0.02449 0.16087 0.03000
v -0.04525 0.17475 -0.11000
v -0.04525 0.17475 0.03000
v -0.05913 0.19551 -0.11000
v -0.05913 0.19551 0.03000
v 0.04800 0.22000 -0.11200
v 0.04800 0.22000 -0.12000
v 0.04435 0.23837 -0.11200
v 0.04435 0.23837 -0.12000
v 0.03394 0.25394 -0.11200
v 0.03394 0.25394 -0.12000
v 0.01837 0.26435 -0.11200
v 0.01837 0.26435 -0.12000
v 0.00000 0.26800 -0.11200
v 0.00000 0.26800 -0.12000
v -0.01837 0.26435 -0.11200
v -0.01837 0.26435 -0.12000
v -0.03394 0.25394 -0.11200
v -0.03394 0.25394 -0.12000
v -0.04435 0.23837 -0.11200
v -0.04435 0.23837 -0.12000
v -0.04800 0.22000 -0.11200
v -0.04800 0.22000 -0.12000
v -0.04435 0.20163 -0.11200
v -0.04435 0.20163 -0.12000
v -0.03394 0.18606 -0.11200
v -0.03394 0.18606 -0.12000
v -0.01837 0.17565 -0.11200
v -0.01837 0.17565 -0.12000
v -0.00000 0.17200 -0.11200
v -0.00000 0.17200 -0.12000
v 0.01837 0.17565 -0.11200
v 0.01837 0.17565 -0.12000
v 0.03394 0.18606 -0.11200
v 0.03394 0.18606 -0.12000
v 0.04435 0.20163 -0.11200
v 0.04435 0.20163 -0.12000
v -0.00818 0.28100 -0.10000
v 0.00818 0.28100 -0.10000
v 0.01250 0.28532 -0.10000
v 0.01250 0.29468 -0.10000
v 0.00818 0.29900 -0.10000
v -0.00818 0.29900 -0.10000
v -0.01250 0.29468 -0.10000
v -0.01250 0.28532 -0.10000
v -0.00818 0.28100 0.02000
v 0.00818 0.28100 0.02000
v 0.01250 0.28532 0.02000
v 0.01250 0.29468 0.02000
v 0.00818 0.29900 0.02000
v -0.00818 0.29900 0.02000
v -0.01250 0.29468 0.02000
v -0.01250 0.28532 0.02000
v -0.02340 -0.40992 0.20610
v 0.02340 -0.40992 0.20610
v 0.04500 -0.38875 0.20180
v 0.04500 -0.13707 0.15079
v 0.02340 -0.11590 0.14650
v -0.02340 -0.11590 0.14650
v -0.04500 -0.13707 0.15079
v -0.04500 -0.38875 0.20180
v -0.02340 -0.38410 0.33350
v 0.02340 -0.38410 0.33350
v 0.04500 -0.36293 0.32921
v 0.04500 -0.11125 0.27820
v 0.02340 -0.09008 0.27390
v -0.02340 -0.09008 0.27390
v -0.04500 -0.11125 0.27820
v -0.04500 -0.36293 0.32921
v 0.04644 -0.36400 0.19000
v 0.04956 -0.36400 0.19000
v 0.05100 -0.36256 0.19000
v 0.05100 -0.35744 0.19000
v 0.04956 -0.35600 0.19000
v 0.04644 -0.35600 0.19000
v 0.04500 -0.35744 0.19000
v 0.04500 -0.36256 0.19000
v 0.04644 -0.36400 0.29000
v 0.04956 -0.36400 0.29000
v 0.05100 -0.36256 0.29000
v 0.05100 -0.35744 0.29000
v 0.04956 -0.35600 0.29000
v 0.04644 -0.35600 0.29000
v 0.04500 -0.35744 0.29000
v 0.04500 -0.36256 0.29000
v 0.04644 -0.33800 0.19000
v 0.04956 -0.33800 0.19000
v 0.05100 -0.33656 0.19000
v 0.05100 -0.33144 0.19000
v 0.04956 -0.33000 0.19000
v 0.04644 -0.33000 0.19000
v 0.04500 -0.33144 0.19000
v 0.04500 -0.33656 0.19000
v 0.04644 -0.33800 0.29000
v 0.04956 -0.33800 0.29000
v 0.05100 -0.33656 0.29000
v 0.05100 -0.33144 0.29000
v 0.04956 -0.33000 0.29000
v 0.04644 -0.33000 0.29000
v 0.04500 -0.33144 0.29000
v 0.04500 -0.33656 0.29000
v 0.04644 -0.31200 0.19000
v 0.04956 -0.31200 0.19000
v 0.05100 -0.31056 0.19000
v 0.05100 -0.30544 0.19000
v 0.04956 -0.30400 0.19000
v 0.04644 -0.30400 0.19000
v 0.04500 -0.30544 0.19000
v 0.04500 -0.31056 0.19000
v 0.04644 -0.31200 0.29000
v 0.04956 -0.31200 0.29000
v 0.05100 -0.31056 0.29000
v 0.05100 -0.30544 0.29000
v 0.04956 -0.30400 0.29000
v 0.04644 -0.30400 0.29000
v 0.04500 -0.30544 0.29000
v 0.04500 -0.31056 0.29000
v 0.04644 -0.28600 0.19000
v 0.04956 -0.28600 0.19000
v 0.05100 -0.28456 0.19000
v 0.05100 -0.27944 0.19000
v 0.04956 -0.27800 0.19000
v 0.04644 -0.27800 0.19000
v 0.04500 -0.27944 0.19000
v 0.04500 -0.28456 0.19000
v 0.04644 -0.28600 0.29000
v 0.04956 -0.28600 0.29000
v 0.05100 -0.28456 0.29000
v 0.05100 -0.27944 0.29000
v 0.04956 -0.27800 0.29000
v 0.04644 -0.27800 0.29000
v 0.04500 -0.27944 0.29000
v 0.04500 -0.28456 0.29000
v 0.04644 -0.26000 0.19000
v 0.04956 -0.26000 0.19000
v 0.05100 -0.25856 0.19000
v 0.05100 -0.25344 0.19000
v 0.04956 -0.25200 0.19000
v 0.04644 -0.25200 0.19000
v 0.04500 -0.25344 0.19000
v 0.04500 -0.25856 0.19000
v 0.04644 -0.26000 0.29000
v 0.04956 -0.26000 0.29000
v 0.05100 -0.25856 0.29000
v 0.05100 -0.25344 0.29000
v 0.04956 -0.25200 0.29000
v 0.04644 -0.25200 0.29000
v 0.04500 -0.25344 0.29000
v 0.04500 -0.25856 0.29000
v 0.04644 -0.23400 0.19000
v 0.04956 -0.23400 0.19000
v 0.05100 -0.23256 0.19000
v 0.05100 -0.22744 0.19000
v 0.04956 -0.22600 0.19000
v 0.04644 -0.22600 0.19000
v 0.04500 -0.22744 0.19000
v 0.04500 -0.23256 0.19000
v 0.04644 -0.23400 0.29000
v 0.04956 -0.23400 0.29000
v 0.05100 -0.23256 0.29000
v 0.05100 -0.22744 0.29000
v 0.04956 -0.22600 0.29000
v 0.04644 -0.22600 0.29000
v 0.04500 -0.22744 0.29000
v 0.04500 -0.23256 0.29000
v 0.04644 -0.20800 0.19000
v 0.04956 -0.20800 0.19000
v 0.05100 -0.20656 0.19000
v 0.05100 -0.20144 0.19000
v 0.04956 -0.20000 0.19000
v 0.04644 -0.20000 0.19000
v 0.04500 -0.20144 0.19000
v 0.04500 -0.20656 0.19000
v 0.04644 -0.20800 0.29000
v 0.04956 -0.20800 0.29000
v 0.05100 -0.20656 0.29000
v 0.05100 -0.20144 0.29000
v 0.04956 -0.20000 0.29000
v 0.04644 -0.20000 0.29000
v 0.04500 -0.20144 0.29000
v 0.04500 -0.20656 0.29000
v 0.04644 -0.18200 0.19000
v 0.04956 -0.18200 0.19000
v 0.05100 -0.18056 0.19000
v 0.05100 -0.17544 0.19000
v 0.04956 -0.17400 0.19000
v 0.04644 -0.17400 0.19000
v 0.04500 -0.17544 0.19000
v 0.04500 -0.18056 0.19000
v 0.04644 -0.18200 0.29000
v 0.04956 -0.18200 0.29000
v 0.05100 -0.18056 0.29000
v 0.05100 -0.17544 0.29000
v 0.04956 -0.17400 0.29000
v 0.04644 -0.17400 0.29000
v 0.04500 -0.17544 0.29000
v 0.04500 -0.18056 0.29000
v 0.04644 -0.15600 0.19000
v 0.04956 -0.15600 0.19000
v 0.05100 -0.15456 0.19000
v 0.05100 -0.14944 0.19000
v 0.04956 -0.14800 0.19000
v 0.04644 -0.14800 0.19000
v 0.04500 -0.14944 0.19000
v 0.04500 -0.15456 0.19000
v 0.04644 -0.15600 0.29000
v 0.04956 -0.15600 0.29000
v 0.05100 -0.15456 0.29000
v 0.05100 -0.14944 0.29000
v 0.04956 -0.14800 0.29000
v 0.04644 -0.14800 0.29000
v 0.04500 -0.14944 0.29000
v 0.04500 -0.15456 0.29000
v -0.04972 -0.41600 0.18400
v 0.04972 -0.41600 0.18400
v 0.05500 -0.41072 0.18400
v 0.05500 -0.39928 0.18400
v 0.04972 -0.39400 0.18400
v -0.04972 -0.39400 0.18400
v -0.05500 -0.39928 0.18400
v -0.05500 -0.41072 0.18400
v -0.04972 -0.41600 0.32400
v 0.04972 -0.41600 0.32400
v 0.05500 -0.41072 0.32400
v 0.05500 -0.39928 0.32400
v 0.04972 -0.39400 0.32400
v -0.04972 -0.39400 0.32400
v -0.05500 -0.39928 0.32400
v -0.05500 -0.41072 0.32400
v -0.03150 -0.41728 -0.39594
v 0.03150 -0.41728 -0.39594
v 0.05250 -0.39666 -0.39198
v 0.05250 -0.15312 -0.34514
v 0.03150 -0.13250 -0.34118
v -0.03150 -0.13250 -0.34118
v -0.05250 -0.15312 -0.34514
v -0.05250 -0.39666 -0.39198
v -0.03150 -0.44750 -0.23882
v 0.03150 -0.44750 -0.23882
v 0.05250 -0.42688 -0.23486
v 0.05250 -0.18334 -0.18802
v 0.03150 -0.16272 -0.18406
v -0.03150 -0.16272 -0.18406
v -0.05250 -0.18334 -0.18802
v -0.05250 -0.42688 -0.23486
v -0.05332 -0.44600 -0.35000
v 0.05332 -0.44600 -0.35000
v 0.06100 -0.43832 -0.35000
v 0.06100 -0.42168 -0.35000
v 0.05332 -0.41400 -0.35000
v -0.05332 -0.41400 -0.35000
v -0.06100 -0.42168 -0.35000
v -0.06100 -0.43832 -0.35000
v -0.05332 -0.44600 -0.17000
v 0.05332 -0.44600 -0.17000
v 0.06100 -0.43832 -0.17000
v 0.06100 -0.42168 -0.17000
v 0.05332 -0.41400 -0.17000
v -0.05332 -0.41400 -0.17000
v -0.06100 -0.42168 -0.17000
v -0.06100 -0.43832 -0.17000
v 0.05318 -0.39150 -0.34600
v 0.05682 -0.39150 -0.34600
v 0.05850 -0.38982 -0.34600
v 0.05850 -0.38018 -0.34600
v 0.05682 -0.37850 -0.34600
v 0.05318 -0.37850 -0.34600
v 0.05150 -0.38018 -0.34600
v 0.05150 -0.38982 -0.34600
v 0.05318 -0.39150 -0.23400
v 0.05682 -0.39150 -0.23400
v 0.05850 -0.38982 -0.23400
v 0.05850 -0.38018 -0.23400
v 0.05682 -0.37850 -0.23400
v 0.05318 -0.37850 -0.23400
v 0.05150 -0.38018 -0.23400
v 0.05150 -0.38982 -0.23400
v 0.05318 -0.35650 -0.34600
v 0.05682 -0.35650 -0.34600
v 0.05850 -0.35482 -0.34600
v 0.05850 -0.34518 -0.34600
v 0.05682 -0.34350 -0.34600
v 0.05318 -0.34350 -0.34600
v 0.05150 -0.34518 -0.34600
v 0.05150 -0.35482 -0.34600
v 0.05318 -0.35650 -0.23400
v 0.05682 -0.35650 -0.23400
v 0.05850 -0.35482 -0.23400
v 0.05850 -0.34518 -0.23400
v 0.05682 -0.34350 -0.23400
v 0.05318 -0.34350 -0.23400
v 0.05150 -0.34518 -0.23400
v 0.05150 -0.35482 -0.23400
v 0.05318 -0.32150 -0.34600
v 0.05682 -0.32150 -0.34600
v 0.05850 -0.31982 -0.34600
v 0.05850 -0.31018 -0.34600
v 0.05682 -0.30850 -0.34600
v 0.05318 -0.30850 -0.34600
v 0.05150 -0.31018 -0.34600
v 0.05150 -0.31982 -0.34600
v 0.05318 -0.32150 -0.23400
v 0.05682 -0.32150 -0.23400
v 0.05850 -0.31982 -0.23400
v 0.05850 -0.31018 -0.23400
v 0.05682 -0.30850 -0.23400
v 0.05318 -0.30850 -0.23400
v 0.05150 -0.31018 -0.23400
v 0.05150 -0.31982 -0.23400
v 0.05318 -0.28650 -0.34600
v 0.05682 -0.28650 -0.34600
v 0.05850 -0.28482 -0.34600
v 0.05850 -0.27518 -0.34600
v 0.05682 -0.27350 -0.34600
v 0.05318 -0.27350 -0.34600
v 0.05150 -0.27518 -0.34600
v 0.05150 -0.28482 -0.34600
v 0.05318 -0.28650 -0.23400
v 0.05682 -0.28650 -0.23400
v 0.05850 -0.28482 -0.23400
v 0.05850 -0.27518 -0.23400
v 0.05682 -0.27350 -0.23400
v 0.05318 -0.27350 -0.23400
v 0.05150 -0.27518 -0.23400
v 0.05150 -0.28482 -0.23400
v 0.05318 -0.25150 -0.34600
v 0.05682 -0.25150 -0.34600
v 0.05850 -0.24982 -0.34600
v 0.05850 -0.24018 -0.34600
v 0.05682 -0.23850 -0.34600
v 0.05318 -0.23850 -0.34600
v 0.05150 -0.24018 -0.34600
v 0.05150 -0.24982 -0.34600
v 0.05318 -0.25150 -0.23400
v 0.05682 -0.25150 -0.23400
v 0.05850 -0.24982 -0.23400
v 0.05850 -0.24018 -0.23400
v 0.05682 -0.23850 -0.23400
v 0.05318 -0.23850 -0.23400
v 0.05150 -0.24018 -0.23400
v 0.05150 -0.24982 -0.23400
v -0.01820 -0.27000 -0.47500
v 0.01820 -0.27000 -0.47500
v 0.03500 -0.25320 -0.47500
v 0.03500 -0.08680 -0.47500
v 0.01820 -0.07000 -0.47500
v -0.01820 -0.07000 -0.47500
v -0.03500 -0.08680 -0.47500
v -0.03500 -0.25320 -0.47500
v -0.01820 -0.27000 -0.38500
v 0.01820 -0.27000 -0.38500
v 0.03500 -0.25320 -0.38500
v 0.03500 -0.08680 -0.38500
v 0.01820 -0.07000 -0.38500
v -0.01820 -0.07000 -0.38500
v -0.03500 -0.08680 -0.38500
v -0.03500 -0.25320 -0.38500
v -0.04232 -0.28600 -0.48000
v 0.04232 -0.28600 -0.48000
v 0.05000 -0.27832 -0.48000
v 0.05000 -0.26168 -0.48000
v 0.04232 -0.25400 -0.48000
v -0.04232 -0.25400 -0.48000
v -0.05000 -0.26168 -0.48000
v -0.05000 -0.27832 -0.48000
v -0.04232 -0.28600 -0.38000
v 0.04232 -0.28600 -0.38000
v 0.05000 -0.27832 -0.38000
v 0.05000 -0.26168 -0.38000
v 0.04232 -0.25400 -0.38000
v -0.04232 -0.25400 -0.38000
v -0.05000 -0.26168 -0.38000
v -0.05000 -0.27832 -0.38000
v -0.02520 -0.16000 0.01500
v 0.02520 -0.16000 0.01500
v 0.03000 -0.15520 0.01500
v 0.03000 -0.14480 0.01500
v 0.02520 -0.14000 0.01500
v -0.02520 -0.14000 0.01500
v -0.03000 -0.14480 0.01500
v -0.03000 -0.15520 0.01500
v -0.02520 -0.16000 0.18500
v 0.02520 -0.16000 0.18500
v 0.03000 -0.15520 0.18500
v 0.03000 -0.14480 0.18500
v 0.02520 -0.14000 0.18500
v -0.02520 -0.14000 0.18500
v -0.03000 -0.14480 0.18500
v -0.03000 -0.15520 0.18500
v -0.00520 -0.24500 0.10750
v 0.00520 -0.24500 0.10750
v 0.01000 -0.24020 0.10750
v 0.01000 -0.15980 0.10750
v 0.00520 -0.15500 0.10750
v -0.00520 -0.15500 0.10750
v -0.01000 -0.15980 0.10750
v -0.01000 -0.24020 0.10750
v -0.00520 -0.24500 0.13250
v 0.00520 -0.24500 0.13250
v 0.01000 -0.24020 0.13250
v 0.01000 -0.15980 0.13250
v 0.00520 -0.15500 0.13250
v -0.00520 -0.15500 0.13250
v -0.01000 -0.15980 0.13250
v -0.01000 -0.24020 0.13250
v -0.03500 0.04500 0.26000
v -0.03500 0.04500 0.51000
v -0.03031 0.06250 0.26000
v -0.03031 0.06250 0.51000
v -0.01750 0.07531 0.26000
v -0.01750 0.07531 0.51000
v -0.00000 0.08000 0.26000
v -0.00000 0.08000 0.51000
v 0.01750 0.07531 0.26000
v 0.01750 0.07531 0.51000
v 0.03031 0.06250 0.26000
v 0.03031 0.06250 0.51000
v 0.03500 0.04500 0.26000
v 0.03500 0.04500 0.51000
v 0.03031 0.02750 0.26000
v 0.03031 0.02750 0.51000
v 0.01750 0.01469 0.26000
v 0.01750 0.01469 0.51000
v 0.00000 0.01000 0.26000
v 0.00000 0.01000 0.51000
v -0.01750 0.01469 0.26000
v -0.01750 0.01469 0.51000
v -0.03031 0.02750 0.26000
v -0.03031 0.02750 0.51000
v -0.07800 -0.09500 0.46000
v 0.07800 -0.09500 0.46000
v 0.09500 -0.07800 0.46000
v 0.09500 0.00800 0.46000
v 0.07800 0.02500 0.46000
v -0.07800 0.02500 0.46000
v -0.09500 0.00800 0.46000
v -0.09500 -0.07800 0.46000
v -0.07800 -0.09500 0.52000
v 0.07800 -0.09500 0.52000
v 0.09500 -0.07800 0.52000
v 0.09500 0.00800 0.52000
v 0.07800 0.02500 0.52000
v -0.07800 0.02500 0.52000
v -0.09500 0.00800 0.52000
v -0.09500 -0.07800 0.52000
v -0.08500 0.03500 0.42000
v 0.08500 0.03500 0.42000
v 0.09500 0.04500 0.42000
v 0.09500 0.07500 0.42000
v 0.08500 0.08500 0.42000
v -0.08500 0.08500 0.42000
v -0.09500 0.07500 0.42000
v -0.09500 0.04500 0.42000
v -0.08500 0.03500 0.50000
v 0.08500 0.03500 0.50000
v 0.09500 0.04500 0.50000
v 0.09500 0.07500 0.50000
v 0.08500 0.08500 0.50000
v -0.08500 0.08500 0.50000
v -0.09500 0.07500 0.50000
v -0.09500 0.04500 0.50000
v 0.09460 -0.01000 0.08000
v 0.17540 -0.01000 0.08000
v 0.18500 -0.00040 0.08000
v 0.18500 0.02040 0.08000
v 0.17540 0.03000 0.08000
v 0.09460 0.03000 0.08000
v 0.08500 0.02040 0.08000
v 0.08500 -0.00040 0.08000
v 0.09460 -0.01000 0.14000
v 0.17540 -0.01000 0.14000
v 0.18500 -0.00040 0.14000
v 0.18500 0.02040 0.14000
v 0.17540 0.03000 0.14000
v 0.09460 0.03000 0.14000
v 0.08500 0.02040 0.14000
v 0.08500 -0.00040 0.14000
v 0.10336 0.00250 -0.44100
v 0.11064 0.00250 -0.44100
v 0.11400 0.00586 -0.44100
v 0.11400 0.04414 -0.44100
v 0.11064 0.04750 -0.44100
v 0.10336 0.04750 -0.44100
v 0.10000 0.04414 -0.44100
v 0.10000 0.00586 -0.44100
v 0.10336 0.00250 -0.41900
v 0.11064 0.00250 -0.41900
v 0.11400 0.00586 -0.41900
v 0.11400 0.04414 -0.41900
v 0.11064 0.04750 -0.41900
v 0.10336 0.04750 -0.41900
v 0.10000 0.04414 -0.41900
v 0.10000 0.00586 -0.41900
v -0.11064 0.00250 -0.44100
v -0.10336 0.00250 -0.44100
v -0.10000 0.00586 -0.44100
v -0.10000 0.04414 -0.44100
v -0.10336 0.04750 -0.44100
v -0.11064 0.04750 -0.44100
v -0.11400 0.04414 -0.44100
v -0.11400 0.00586 -0.44100
v -0.11064 0.00250 -0.41900
v -0.10336 0.00250 -0.41900
v -0.10000 0.00586 -0.41900
v -0.10000 0.04414 -0.41900
v -0.10336 0.04750 -0.41900
v -0.11064 0.04750 -0.41900
v -0.11400 0.04414 -0.41900
v -0.11400 0.00586 -0.41900
v 0.10336 0.00250 -0.39100
v 0.11064 0.00250 -0.39100
v 0.11400 0.00586 -0.39100
v 0.11400 0.04414 -0.39100
v 0.11064 0.04750 -0.39100
v 0.10336 0.04750 -0.39100
v 0.10000 0.04414 -0.39100
v 0.10000 0.00586 -0.39100
v 0.10336 0.00250 -0.36900
v 0.11064 0.00250 -0.36900
v 0.11400 0.00586 -0.36900
v 0.11400 0.04414 -0.36900
v 0.11064 0.04750 -0.36900
v 0.10336 0.04750 -0.36900
v 0.10000 0.04414 -0.36900
v 0.10000 0.00586 -0.36900
v -0.11064 0.00250 -0.39100
v -0.10336 0.00250 -0.39100
v -0.10000 0.00586 -0.39100
v -0.10000 0.04414 -0.39100
v -0.10336 0.04750 -0.39100
v -0.11064 0.04750 -0.39100
v -0.11400 0.04414 -0.39100
v -0.11400 0.00586 -0.39100
v -0.11064 0.00250 -0.36900
v -0.10336 0.00250 -0.36900
v -0.10000 0.00586 -0.36900
v -0.10000 0.04414 -0.36900
v -0.10336 0.04750 -0.36900
v -0.11064 0.04750 -0.36900
v -0.11400 0.04414 -0.36900
v -0.11400 0.00586 -0.36900
v 0.10336 0.00250 -0.34100
v 0.11064 0.00250 -0.34100
v 0.11400 0.00586 -0.34100
v 0.11400 0.04414 -0.34100
v 0.11064 0.04750 -0.34100
v 0.10336 0.04750 -0.34100
v 0.10000 0.04414 -0.34100
v 0.10000 0.00586 -0.34100
v 0.10336 0.00250 -0.31900
v 0.11064 0.00250 -0.31900
v 0.11400 0.00586 -0.31900
v 0.11400 0.04414 -0.31900
v 0.11064 0.04750 -0.31900
v 0.10336 0.04750 -0.31900
v 0.10000 0.04414 -0.31900
v 0.10000 0.00586 -0.31900
v -0.11064 0.00250 -0.34100
v -0.10336 0.00250 -0.34100
v -0.10000 0.00586 -0.34100
v -0.10000 0.04414 -0.34100
v -0.10336 0.04750 -0.34100
v -0.11064 0.04750 -0.34100
v -0.11400 0.04414 -0.34100
v -0.11400 0.00586 -0.34100
v -0.11064 0.00250 -0.31900
v -0.10336 0.00250 -0.31900
v -0.10000 0.00586 -0.31900
v -0.10000 0.04414 -0.31900
v -0.10336 0.04750 -0.31900
v -0.11064 0.04750 -0.31900
v -0.11400 0.04414 -0.31900
v -0.11400 0.00586 -0.31900
v 0.10336 0.00250 -0.29100
v 0.11064 0.00250 -0.29100
v 0.11400 0.00586 -0.29100
v 0.11400 0.04414 -0.29100
v 0.11064 0.04750 -0.29100
v 0.10336 0.04750 -0.29100
v 0.10000 0.04414 -0.29100
v 0.10000 0.00586 -0.29100
v 0.10336 0.00250 -0.26900
v 0.11064 0.00250 -0.26900
v 0.11400 0.00586 -0.26900
v 0.11400 0.04414 -0.26900
v 0.11064 0.04750 -0.26900
v 0.10336 0.04750 -0.26900
v 0.10000 0.04414 -0.26900
v 0.10000 0.00586 -0.26900
v -0.11064 0.00250 -0.29100
v -0.10336 0.00250 -0.29100
v -0.10000 0.00586 -0.29100
v -0.10000 0.04414 -0.29100
v -0.10336 0.04750 -0.29100
v -0.11064 0.04750 -0.29100
v -0.11400 0.04414 -0.29100
v -0.11400 0.00586 -0.29100
v -0.11064 0.00250 -0.26900
v -0.10336 0.00250 -0.26900
v -0.10000 0.00586 -0.26900
v -0.10000 0.04414 -0.26900
v -0.10336 0.04750 -0.26900
v -0.11064 0.04750 -0.26900
v -0.11400 0.04414 -0.26900
v -0.11400 0.00586 -0.26900
v 0.10336 0.00250 -0.24100
v 0.11064 0.00250 -0.24100
v 0.11400 0.00586 -0.24100
v 0.11400 0.04414 -0.24100
v 0.11064 0.04750 -0.24100
v 0.10336 0.04750 -0.24100
v 0.10000 0.04414 -0.24100
v 0.10000 0.00586 -0.24100
v 0.10336 0.00250 -0.21900
v 0.11064 0.00250 -0.21900
v 0.11400 0.00586 -0.21900
v 0.11400 0.04414 -0.21900
v 0.11064 0.04750 -0.21900
v 0.10336 0.04750 -0.21900
v 0.10000 0.04414 -0.21900
v 0.10000 0.00586 -0.21900
v -0.11064 0.00250 -0.24100
v -0.10336 0.00250 -0.24100
v -0.10000 0.00586 -0.24100
v -0.10000 0.04414 -0.24100
v -0.10336 0.04750 -0.24100
v -0.11064 0.04750 -0.24100
v -0.11400 0.04414 -0.24100
v -0.11400 0.00586 -0.24100
v -0.11064 0.00250 -0.21900
v -0.10336 0.00250 -0.21900
v -0.10000 0.00586 -0.21900
v -0.10000 0.04414 -0.21900
v -0.10336 0.04750 -0.21900
v -0.11064 0.04750 -0.21900
v -0.11400 0.04414 -0.21900
v -0.11400 0.00586 -0.21900
v 0.10336 0.00250 -0.19100
v 0.11064 0.00250 -0.19100
v 0.11400 0.00586 -0.19100
v 0.11400 0.04414 -0.19100
v 0.11064 0.04750 -0.19100
v 0.10336 0.04750 -0.19100
v 0.10000 0.04414 -0.19100
v 0.10000 0.00586 -0.19100
v 0.10336 0.00250 -0.16900
v 0.11064 0.00250 -0.16900
v 0.11400 0.00586 -0.16900
v 0.11400 0.04414 -0.16900
v 0.11064 0.04750 -0.16900
v 0.10336 0.04750 -0.16900
v 0.10000 0.04414 -0.16900
v 0.10000 0.00586 -0.16900
v -0.11064 0.00250 -0.19100
v -0.10336 0.00250 -0.19100
v -0.10000 0.00586 -0.19100
v -0.10000 0.04414 -0.19100
v -0.10336 0.04750 -0.19100
v -0.11064 0.04750 -0.19100
v -0.11400 0.04414 -0.19100
v -0.11400 0.00586 -0.19100
v -0.11064 0.00250 -0.16900
v -0.10336 0.00250 -0.16900
v -0.10000 0.00586 -0.16900
v -0.10000 0.04414 -0.16900
v -0.10336 0.04750 -0.16900
v -0.11064 0.04750 -0.16900
v -0.11400 0.04414 -0.16900
v -0.11400 0.00586 -0.16900
v 0.10336 0.00250 -0.14100
v 0.11064 0.00250 -0.14100
v 0.11400 0.00586 -0.14100
v 0.11400 0.04414 -0.14100
v 0.11064 0.04750 -0.14100
v 0.10336 0.04750 -0.14100
v 0.10000 0.04414 -0.14100
v 0.10000 0.00586 -0.14100
v 0.10336 0.00250 -0.11900
v 0.11064 0.00250 -0.11900
v 0.11400 0.00586 -0.11900
v 0.11400 0.04414 -0.11900
v 0.11064 0.04750 -0.11900
v 0.10336 0.04750 -0.11900
v 0.10000 0.04414 -0.11900
v 0.10000 0.00586 -0.11900
v -0.11064 0.00250 -0.14100
v -0.10336 0.00250 -0.14100
v -0.10000 0.00586 -0.14100
v -0.10000 0.04414 -0.14100
v -0.10336 0.04750 -0.14100
v -0.11064 0.04750 -0.14100
v -0.11400 0.04414 -0.14100
v -0.11400 0.00586 -0.14100
v -0.11064 0.00250 -0.11900
v -0.10336 0.00250 -0.11900
v -0.10000 0.00586 -0.11900
v -0.10000 0.04414 -0.11900
v -0.10336 0.04750 -0.11900
v -0.11064 0.04750 -0.11900
v -0.11400 0.04414 -0.11900
v -0.11400 0.00586 -0.11900
v 0.10900 -0.06000 -0.32900
v 0.11800 -0.06000 -0.32900
v 0.10900 -0.05222 -0.33222
v 0.11800 -0.05222 -0.33222
v 0.10900 -0.04900 -0.34000
v 0.11800 -0.04900 -0.34000
v 0.10900 -0.05222 -0.34778
v 0.11800 -0.05222 -0.34778
v 0.10900 -0.06000 -0.35100
v 0.11800 -0.06000 -0.35100
v 0.10900 -0.06778 -0.34778
v 0.11800 -0.06778 -0.34778
v 0.10900 -0.07100 -0.34000
v 0.11800 -0.07100 -0.34000
v 0.10900 -0.06778 -0.33222
v 0.11800 -0.06778 -0.33222
v -0.11800 -0.06000 -0.32900
v -0.10900 -0.06000 -0.32900
v -0.11800 -0.05222 -0.33222
v -0.10900 -0.05222 -0.33222
v -0.11800 -0.04900 -0.34000
v -0.10900 -0.04900 -0.34000
v -0.11800 -0.05222 -0.34778
v -0.10900 -0.05222 -0.34778
v -0.11800 -0.06000 -0.35100
v -0.10900 -0.06000 -0.35100
v -0.11800 -0.06778 -0.34778
v -0.10900 -0.06778 -0.34778
v -0.11800 -0.07100 -0.34000
v -0.10900 -0.07100 -0.34000
v -0.11800 -0.06778 -0.33222
v -0.10900 -0.06778 -0.33222
v 0.10900 -0.06000 -0.09900
v 0.11800 -0.06000 -0.09900
v 0.10900 -0.05222 -0.10222
v 0.11800 -0.05222 -0.10222
v 0.10900 -0.04900 -0.11000
v 0.11800 -0.04900 -0.11000
v 0.10900 -0.05222 -0.11778
v 0.11800 -0.05222 -0.11778
v 0.10900 -0.06000 -0.12100
v 0.11800 -0.06000 -0.12100
v 0.10900 -0.06778 -0.11778
v 0.11800 -0.06778 -0.11778
v 0.10900 -0.07100 -0.11000
v 0.11800 -0.07100 -0.11000
v 0.10900 -0.06778 -0.10222
v 0.11800 -0.06778 -0.10222
v -0.11800 -0.06000 -0.09900
v -0.10900 -0.06000 -0.09900
v -0.11800 -0.05222 -0.10222
v -0.10900 -0.05222 -0.10222
v -0.11800 -0.04900 -0.11000
v -0.10900 -0.04900 -0.11000
v -0.11800 -0.05222 -0.11778
v -0.10900 -0.05222 -0.11778
v -0.11800 -0.06000 -0.12100
v -0.10900 -0.06000 -0.12100
v -0.11800 -0.06778 -0.11778
v -0.10900 -0.06778 -0.11778
v -0.11800 -0.07100 -0.11000
v -0.10900 -0.07100 -0.11000
v -0.11800 -0.06778 -0.10222
v -0.10900 -0.06778 -0.10222
v 0.10900 -0.06000 0.16100
v 0.11800 -0.06000 0.16100
v 0.10900 -0.05222 0.15778
v 0.11800 -0.05222 0.15778
v 0.10900 -0.04900 0.15000
v 0.11800 -0.04900 0.15000
v 0.10900 -0.05222 0.14222
v 0.11800 -0.05222 0.14222
v 0.10900 -0.06000 0.13900
v 0.11800 -0.06000 0.13900
v 0.10900 -0.06778 0.14222
v 0.11800 -0.06778 0.14222
v 0.10900 -0.07100 0.15000
v 0.11800 -0.07100 0.15000
v 0.10900 -0.06778 0.15778
v 0.11800 -0.06778 0.15778
v -0.11800 -0.06000 0.16100
v -0.10900 -0.06000 0.16100
v -0.11800 -0.05222 0.15778
v -0.10900 -0.05222 0.15778
v -0.11800 -0.04900 0.15000
v -0.10900 -0.04900 0.15000
v -0.11800 -0.05222 0.14222
v -0.10900 -0.05222 0.14222
v -0.11800 -0.06000 0.13900
v -0.10900 -0.06000 0.13900
v -0.11800 -0.06778 0.14222
v -0.10900 -0.06778 0.14222
v -0.11800 -0.07100 0.15000
v -0.10900 -0.07100 0.15000
v -0.11800 -0.06778 0.15778
v -0.10900 -0.06778 0.15778
v 0.09322 -0.02300 0.10250
v 0.09478 -0.02300 0.10250
v 0.09550 -0.02228 0.10250
v 0.09550 -0.01772 0.10250
v 0.09478 -0.01700 0.10250
v 0.09322 -0.01700 0.10250
v 0.09250 -0.01772 0.10250
v 0.09250 -0.02228 0.10250
v 0.09322 -0.02300 0.15750
v 0.09478 -0.02300 0.15750
v 0.09550 -0.02228 0.15750
v 0.09550 -0.01772 0.15750
v 0.09478 -0.01700 0.15750
v 0.09322 -0.01700 0.15750
v 0.09250 -0.01772 0.15750
v 0.09250 -0.02228 0.15750
v 0.09322 -0.00500 0.11250
v 0.09478 -0.00500 0.11250
v 0.09550 -0.00428 0.11250
v 0.09550 0.00028 0.11250
v 0.09478 0.00100 0.11250
v 0.09322 0.00100 0.11250
v 0.09250 0.00028 0.11250
v 0.09250 -0.00428 0.11250
v 0.09322 -0.00500 0.14750
v 0.09478 -0.00500 0.14750
v 0.09550 -0.00428 0.14750
v 0.09550 0.00028 0.14750
v 0.09478 0.00100 0.14750
v 0.09322 0.00100 0.14750
v 0.09250 0.00028 0.14750
v 0.09250 -0.00428 0.14750
v 0.09322 0.01300 0.10250
v 0.09478 0.01300 0.10250
v 0.09550 0.01372 0.10250
v 0.09550 0.01828 0.10250
v 0.09478 0.01900 0.10250
v 0.09322 0.01900 0.10250
v 0.09250 0.01828 0.10250
v 0.09250 0.01372 0.10250
v 0.09322 0.01300 0.15750
v 0.09478 0.01300 0.15750
v 0.09550 0.01372 0.15750
v 0.09550 0.01828 0.15750
v 0.09478 0.01900 0.15750
v 0.09322 0.01900 0.15750
v 0.09250 0.01828 0.15750
v 0.09250 0.01372 0.15750
v 0.09322 0.03100 0.11250
v 0.09478 0.03100 0.11250
v 0.09550 0.03172 0.11250
v 0.09550 0.03628 0.11250
v 0.09478 0.03700 0.11250
v 0.09322 0.03700 0.11250
v 0.09250 0.03628 0.11250
v 0.09250 0.03172 0.11250
v 0.09322 0.03100 0.14750
v 0.09478 0.03100 0.14750
v 0.09550 0.03172 0.14750
v 0.09550 0.03628 0.14750
v 0.09478 0.03700 0.14750
v 0.09322 0.03700 0.14750
v 0.09250 0.03628 0.14750
v 0.09250 0.03172 0.14750
usemtl receiver
f 8 7 6 5 4 3 2 1
f 9 10 11 12 13 14 15 16
f 1 2 10 9
f 2 3 11 10
f 3 4 12 11
f 4 5 13 12
f 5 6 14 13
f 6 7 15 14
f 7 8 16 15
f 8 1 9 16
f 568 567 566 565 564 563 562 561
f 569 570 571 572 573 574 575 576
f 561 562 570 569
f 562 563 571 570
f 563 564 572 571
f 564 565 573 572
f 565 566 574 573
f 566 567 575 574
f 567 568 576 575
f 568 561 569 576
f 872 871 870 869 868 867 866 865
f 873 874 875 876 877 878 879 880
f 865 866 874 873
f 866 867 875 874
f 867 868 876 875
f 868 869 877 876
f 869 870 878 877
f 870 871 879 878
f 871 872 880 879
f 872 865 873 880
f 888 887 886 885 884 883 882 881
f 889 890 891 892 893 894 895 896
f 881 882 890 889
f 882 883 891 890
f 883 884 892 891
f 884 885 893 892
f 885 886 894 893
f 886 887 895 894
f 887 888 896 895
f 888 881 889 896
f 904 903 902 901 900 899 898 897
f 905 906 907 908 909 910 911 912
f 897 898 906 905
f 898 899 907 906
f 899 900 908 907
f 900 901 909 908
f 901 902 910 909
f 902 903 911 910
f 903 904 912 911
f 904 897 905 912
f 920 919 918 917 916 915 914 913
f 921 922 923 924 925 926 927 928
f 913 914 922 921
f 914 915 923 922
f 915 916 924 923
f 916 917 925 924
f 917 918 926 925
f 918 919 927 926
f 919 920 928 927
f 920 913 921 928
f 936 935 934 933 932 931 930 929
f 937 938 939 940 941 942 943 944
f 929 930 938 937
f 930 931 939 938
f 931 932 940 939
f 932 933 941 940
f 933 934 942 941
f 934 935 943 942
f 935 936 944 943
f 936 929 937 944
usemtl polymer
f 24 23 22 21 20 19 18 17
f 25 26 27 28 29 30 31 32
f 17 18 26 25
f 18 19 27 26
f 19 20 28 27
f 20 21 29 28
f 21 22 30 29
f 22 23 31 30
f 23 24 32 31
f 24 17 25 32
f 40 39 38 37 36 35 34 33
f 41 42 43 44 45 46 47 48
f 33 34 42 41
f 34 35 43 42
f 35 36 44 43
f 36 37 45 44
f 37 38 46 45
f 38 39 47 46
f 39 40 48 47
f 40 33 41 48
f 840 839 838 837 836 835 834 833
f 841 842 843 844 845 846 847 848
f 833 834 842 841
f 834 835 843 842
f 835 836 844 843
f 836 837 845 844
f 837 838 846 845
f 838 839 847 846
f 839 840 848 847
f 840 833 841 848
f 1040 1039 1038 1037 1036 1035 1034 1033
f 1041 1042 1043 1044 1045 1046 1047 1048
f 1033 1034 1042 1041
f 1034 1035 1043 1042
f 1035 1036 1044 1043
f 1036 1037 1045 1044
f 1037 1038 1046 1045
f 1038 1039 1047 1046
f 1039 1040 1048 1047
f 1040 1033 1041 1048
usemtl steel
f 79 77 75 73 71 69 67 65 63 61 59 57 55 53 51 49
f 50 52 54 56 58 60 62 64 66 68 70 72 74 76 78 80
f 49 51 52 50
f 51 53 54 52
f 53 55 56 54
f 55 57 58 56
f 57 59 60 58
f 59 61 62 60
f 61 63 64 62
f 63 65 66 64
f 65 67 68 66
f 67 69 70 68
f 69 71 72 70
f 71 73 74 72
f 73 75 76 74
f 75 77 78 76
f 77 79 80 78
f 79 49 50 80
f 120 119 118 117 116 115 114 113
f 121 122 123 124 125 126 127 128
f 113 114 122 121
f 114 115 123 122
f 115 116 124 123
f 116 117 125 124
f 117 118 126 125
f 118 119 127 126
f 119 120 128 127
f 120 113 121 128
f 136 135 134 133 132 131 130 129
f 137 138 139 140 141 142 143 144
f 129 130 138 137
f 130 131 139 138
f 131 132 140 139
f 132 133 141 140
f 133 134 142 141
f 134 135 143 142
f 135 136 144 143
f 136 129 137 144
f 152 151 150 149 148 147 146 145
f 153 154 155 156 157 158 159 160
f 145 146 154 153
f 146 147 155 154
f 147 148 156 155
f 148 149 157 156
f 149 150 158 157
f 150 151 159 158
f 151 152 160 159
f 152 145 153 160
f 168 167 166 165 164 163 162 161
f 169 170 171 172 173 174 175 176
f 161 162 170 169
f 162 163 171 170
f 163 164 172 171
f 164 165 173 172
f 165 166 174 173
f 166 167 175 174
f 167 168 176 175
f 168 161 169 176
f 184 183 182 181 180 179 178 177
f 185 186 187 188 189 190 191 192
f 177 178 186 185
f 178 179 187 186
f 179 180 188 187
f 180 181 189 188
f 181 182 190 189
f 182 183 191 190
f 183 184 192 191
f 184 177 185 192
f 200 199 198 197 196 195 194 193
f 201 202 203 204 205 206 207 208
f 193 194 202 201
f 194 195 203 202
f 195 196 204 203
f 196 197 205 204
f 197 198 206 205
f 198 199 207 206
f 199 200 208 207
f 200 193 201 208
f 216 215 214 213 212 211 210 209
f 217 218 219 220 221 222 223 224
f 209 210 218 217
f 210 211 219 218
f 211 212 220 219
f 212 213 221 220
f 213 214 222 221
f 214 215 223 222
f 215 216 224 223
f 216 209 217 224
f 328 327 326 325 324 323 322 321
f 329 330 331 332 333 334 335 336
f 321 322 330 329
f 322 323 331 330
f 323 324 332 331
f 324 325 333 332
f 325 326 334 333
f 326 327 335 334
f 327 328 336 335
f 328 321 329 336
f 856 855 854 853 852 851 850 849
f 857 858 859 860 861 862 863 864
f 849 850 858 857
f 850 851 859 858
f 851 852 860 859
f 852 853 861 860
f 853 854 862 861
f 854 855 863 862
f 855 856 864 863
f 856 849 857 864
f 968 967 966 965 964 963 962 961
f 969 970 971 972 973 974 975 976
f 961 962 970 969
f 962 963 971 970
f 963 964 972 971
f 964 965 973 972
f 965 966 974 973
f 966 967 975 974
f 967 968 976 975
f 968 961 969 976
f 984 983 982 981 980 979 978 977
f 985 986 987 988 989 990 991 992
f 977 978 986 985
f 978 979 987 986
f 979 980 988 987
f 980 981 989 988
f 981 982 990 989
f 982 983 991 990
f 983 984 992 991
f 984 977 985 992
f 1031 1029 1027 1025 1023 1021 1019 1017 1015 1013 1011 1009
f 1010 1012 1014 1016 1018 1020 1022 1024 1026 1028 1030 1032
f 1009 1011 1012 1010
f 1011 1013 1014 1012
f 1013 1015 1016 1014
f 1015 1017 1018 1016
f 1017 1019 1020 1018
f 1019 1021 1022 1020
f 1021 1023 1024 1022
f 1023 1025 1026 1024
f 1025 1027 1028 1026
f 1027 1029 1030 1028
f 1029 1031 1032 1030
f 1031 1009 1010 1032
f 1056 1055 1054 1053 1052 1051 1050 1049
f 1057 1058 1059 1060 1061 1062 1063 1064
f 1049 1050 1058 1057
f 1050 1051 1059 1058
f 1051 1052 1060 1059
f 1052 1053 1061 1060
f 1053 1054 1062 1061
f 1054 1055 1063 1062
f 1055 1056 1064 1063
f 1056 1049 1057 1064
f 1072 1071 1070 1069 1068 1067 1066 1065
f 1073 1074 1075 1076 1077 1078 1079 1080
f 1065 1066 1074 1073
f 1066 1067 1075 1074
f 1067 1068 1076 1075
f 1068 1069 1077 1076
f 1069 1070 1078 1077
f 1070 1071 1079 1078
f 1071 1072 1080 1079
f 1072 1065 1073 1080
f 1319 1317 1315 1313 1311 1309 1307 1305
f 1306 1308 1310 1312 1314 1316 1318 1320
f 1305 1307 1308 1306
f 1307 1309 1310 1308
f 1309 1311 1312 1310
f 1311 1313 1314 1312
f 1313 1315 1316 1314
f 1315 1317 1318 1316
f 1317 1319 1320 1318
f 1319 1305 1306 1320
f 1335 1333 1331 1329 1327 1325 1323 1321
f 1322 1324 1326 1328 1330 1332 1334 1336
f 1321 1323 1324 1322
f 1323 1325 1326 1324
f 1325 1327 1328 1326
f 1327 1329 1330 1328
f 1329 1331 1332 1330
f 1331 1333 1334 1332
f 1333 1335 1336 1334
f 1335 1321 1322 1336
f 1351 1349 1347 1345 1343 1341 1339 1337
f 1338 1340 1342 1344 1346 1348 1350 1352
f 1337 1339 1340 1338
f 1339 1341 1342 1340
f 1341 1343 1344 1342
f 1343 1345 1346 1344
f 1345 1347 1348 1346
f 1347 1349 1350 1348
f 1349 1351 1352 1350
f 1351 1337 1338 1352
f 1367 1365 1363 1361 1359 1357 1355 1353
f 1354 1356 1358 1360 1362 1364 1366 1368
f 1353 1355 1356 1354
f 1355 1357 1358 1356
f 1357 1359 1360 1358
f 1359 1361 1362 1360
f 1361 1363 1364 1362
f 1363 1365 1366 1364
f 1365 1367 1368 1366
f 1367 1353 1354 1368
f 1383 1381 1379 1377 1375 1373 1371 1369
f 1370 1372 1374 1376 1378 1380 1382 1384
f 1369 1371 1372 1370
f 1371 1373 1374 1372
f 1373 1375 1376 1374
f 1375 1377 1378 1376
f 1377 1379 1380 1378
f 1379 1381 1382 1380
f 1381 1383 1384 1382
f 1383 1369 1370 1384
f 1399 1397 1395 1393 1391 1389 1387 1385
f 1386 1388 1390 1392 1394 1396 1398 1400
f 1385 1387 1388 1386
f 1387 1389 1390 1388
f 1389 1391 1392 1390
f 1391 1393 1394 1392
f 1393 1395 1396 1394
f 1395 1397 1398 1396
f 1397 1399 1400 1398
f 1399 1385 1386 1400
usemtl accent
f 648 647 646 645 644 643 642 641
f 649 650 651 652 653 654 655 656
f 641 642 650 649
f 642 643 651 650
f 643 644 652 651
f 644 645 653 652
f 645 646 654 653
f 646 647 655 654
f 647 648 656 655
f 648 641 649 656
usemtl marking
f 1408 1407 1406 1405 1404 1403 1402 1401
f 1409 1410 1411 1412 1413 1414 1415 1416
f 1401 1402 1410 1409
f 1402 1403 1411 1410
f 1403 1404 1412 1411
f 1404 1405 1413 1412
f 1405 1406 1414 1413
f 1406 1407 1415 1414
f 1407 1408 1416 1415
f 1408 1401 1409 1416
f 1424 1423 1422 1421 1420 1419 1418 1417
f 1425 1426 1427 1428 1429 1430 1431 1432
f 1417 1418 1426 1425
f 1418 1419 1427 1426
f 1419 1420 1428 1427
f 1420 1421 1429 1428
f 1421 1422 1430 1429
f 1422 1423 1431 1430
f 1423 1424 1432 1431
f 1424 1417 1425 1432
f 1440 1439 1438 1437 1436 1435 1434 1433
f 1441 1442 1443 1444 1445 1446 1447 1448
f 1433 1434 1442 1441
f 1434 1435 1443 1442
f 1435 1436 1444 1443
f 1436 1437 1445 1444
f 1437 1438 1446 1445
f 1438 1439 1447 1446
f 1439 1440 1448 1447
f 1440 1433 1441 1448
f 1456 1455 1454 1453 1452 1451 1450 1449
f 1457 1458 1459 1460 1461 1462 1463 1464
f 1449 1450 1458 1457
f 1450 1451 1459 1458
f 1451 1452 1460 1459
f 1452 1453 1461 1460
f 1453 1454 1462 1461
f 1454 1455 1463 1462
f 1455 1456 1464 1463
f 1456 1449 1457 1464
usemtl sight
f 639 637 635 633 631 629 627 625 623 621 619 617 615 613 611 609
f 610 612 614 616 618 620 622 624 626 628 630 632 634 636 638 640
f 609 611 612 610
f 611 613 614 612
f 613 615 616 614
f 615 617 618 616
f 617 619 620 618
f 619 621 622 620
f 621 623 624 622
f 623 625 626 624
f 625 627 628 626
f 627 629 630 628
f 629 631 632 630
f 631 633 634 632
f 633 635 636 634
f 635 637 638 636
f 637 639 640 638
f 639 609 610 640
usemtl muzzle
f 111 109 107 105 103 101 99 97 95 93 91 89 87 85 83 81
f 82 84 86 88 90 92 94 96 98 100 102 104 106 108 110 112
f 81 83 84 82
f 83 85 86 84
f 85 87 88 86
f 87 89 90 88
f 89 91 92 90
f 91 93 94 92
f 93 95 96 94
f 95 97 98 96
f 97 99 100 98
f 99 101 102 100
f 101 103 104 102
f 103 105 106 104
f 105 107 108 106
f 107 109 110 108
f 109 111 112 110
f 111 81 82 112
f 232 231 230 229 228 227 226 225
f 233 234 235 236 237 238 239 240
f 225 226 234 233
f 226 227 235 234
f 227 228 236 235
f 228 229 237 236
f 229 230 238 237
f 230 231 239 238
f 231 232 240 239
f 232 225 233 240
f 248 247 246 245 244 243 242 241
f 249 250 251 252 253 254 255 256
f 241 242 250 249
f 242 243 251 250
f 243 244 252 251
f 244 245 253 252
f 245 246 254 253
f 246 247 255 254
f 247 248 256 255
f 248 241 249 256
f 264 263 262 261 260 259 258 257
f 265 266 267 268 269 270 271 272
f 257 258 266 265
f 258 259 267 266
f 259 260 268 267
f 260 261 269 268
f 261 262 270 269
f 262 263 271 270
f 263 264 272 271
f 264 257 265 272
f 280 279 278 277 276 275 274 273
f 281 282 283 284 285 286 287 288
f 273 274 282 281
f 274 275 283 282
f 275 276 284 283
f 276 277 285 284
f 277 278 286 285
f 278 279 287 286
f 279 280 288 287
f 280 273 281 288
f 296 295 294 293 292 291 290 289
f 297 298 299 300 301 302 303 304
f 289 290 298 297
f 290 291 299 298
f 291 292 300 299
f 292 293 301 300
f 293 294 302 301
f 294 295 303 302
f 295 296 304 303
f 296 289 297 304
f 312 311 310 309 308 307 306 305
f 313 314 315 316 317 318 319 320
f 305 306 314 313
f 306 307 315 314
f 307 308 316 315
f 308 309 317 316
f 309 310 318 317
f 310 311 319 318
f 311 312 320 319
f 312 305 313 320
f 344 343 342 341 340 339 338 337
f 345 346 347 348 349 350 351 352
f 337 338 346 345
f 338 339 347 346
f 339 340 348 347
f 340 341 349 348
f 341 342 350 349
f 342 343 351 350
f 343 344 352 351
f 344 337 345 352
f 360 359 358 357 356 355 354 353
f 361 362 363 364 365 366 367 368
f 353 354 362 361
f 354 355 363 362
f 355 356 364 363
f 356 357 365 364
f 357 358 366 365
f 358 359 367 366
f 359 360 368 367
f 360 353 361 368
f 376 375 374 373 372 371 370 369
f 377 378 379 380 381 382 383 384
f 369 370 378 377
f 370 371 379 378
f 371 372 380 379
f 372 373 381 380
f 373 374 382 381
f 374 375 383 382
f 375 376 384 383
f 376 369 377 384
f 392 391 390 389 388 387 386 385
f 393 394 395 396 397 398 399 400
f 385 386 394 393
f 386 387 395 394
f 387 388 396 395
f 388 389 397 396
f 389 390 398 397
f 390 391 399 398
f 391 392 400 399
f 392 385 393 400
f 408 407 406 405 404 403 402 401
f 409 410 411 412 413 414 415 416
f 401 402 410 409
f 402 403 411 410
f 403 404 412 411
f 404 405 413 412
f 405 406 414 413
f 406 407 415 414
f 407 408 416 415
f 408 401 409 416
f 424 423 422 421 420 419 418 417
f 425 426 427 428 429 430 431 432
f 417 418 426 425
f 418 419 427 426
f 419 420 428 427
f 420 421 429 428
f 421 422 430 429
f 422 423 431 430
f 423 424 432 431
f 424 417 425 432
f 440 439 438 437 436 435 434 433
f 441 442 443 444 445 446 447 448
f 433 434 442 441
f 434 435 443 442
f 435 436 444 443
f 436 437 445 444
f 437 438 446 445
f 438 439 447 446
f 439 440 448 447
f 440 433 441 448
f 456 455 454 453 452 451 450 449
f 457 458 459 460 461 462 463 464
f 449 450 458 457
f 450 451 459 458
f 451 452 460 459
f 452 453 461 460
f 453 454 462 461
f 454 455 463 462
f 455 456 464 463
f 456 449 457 464
f 472 471 470 469 468 467 466 465
f 473 474 475 476 477 478 479 480
f 465 466 474 473
f 466 467 475 474
f 467 468 476 475
f 468 469 477 476
f 469 470 478 477
f 470 471 479 478
f 471 472 480 479
f 472 465 473 480
f 488 487 486 485 484 483 482 481
f 489 490 491 492 493 494 495 496
f 481 482 490 489
f 482 483 491 490
f 483 484 492 491
f 484 485 493 492
f 485 486 494 493
f 486 487 495 494
f 487 488 496 495
f 488 481 489 496
f 504 503 502 501 500 499 498 497
f 505 506 507 508 509 510 511 512
f 497 498 506 505
f 498 499 507 506
f 499 500 508 507
f 500 501 509 508
f 501 502 510 509
f 502 503 511 510
f 503 504 512 511
f 504 497 505 512
f 520 519 518 517 516 515 514 513
f 521 522 523 524 525 526 527 528
f 513 514 522 521
f 514 515 523 522
f 515 516 524 523
f 516 517 525 524
f 517 518 526 525
f 518 519 527 526
f 519 520 528 527
f 520 513 521 528
f 536 535 534 533 532 531 530 529
f 537 538 539 540 541 542 543 544
f 529 530 538 537
f 530 531 539 538
f 531 532 540 539
f 532 533 541 540
f 533 534 542 541
f 534 535 543 542
f 535 536 544 543
f 536 529 537 544
f 552 551 550 549 548 547 546 545
f 553 554 555 556 557 558 559 560
f 545 546 554 553
f 546 547 555 554
f 547 548 556 555
f 548 549 557 556
f 549 550 558 557
f 550 551 559 558
f 551 552 560 559
f 552 545 553 560
f 607 605 603 601 599 597 595 593 591 589 587 585 583 581 579 577
f 578 580 582 584 586 588 590 592 594 596 598 600 602 604 606 608
f 577 579 580 578
f 579 581 582 580
f 581 583 584 582
f 583 585 586 584
f 585 587 588 586
f 587 589 590 588
f 589 591 592 590
f 591 593 594 592
f 593 595 596 594
f 595 597 598 596
f 597 599 600 598
f 599 601 602 600
f 601 603 604 602
f 603 605 606 604
f 605 607 608 606
f 607 577 578 608
f 680 679 678 677 676 675 674 673
f 681 682 683 684 685 686 687 688
f 673 674 682 681
f 674 675 683 682
f 675 676 684 683
f 676 677 685 684
f 677 678 686 685
f 678 679 687 686
f 679 680 688 687
f 680 673 681 688
f 696 695 694 693 692 691 690 689
f 697 698 699 700 701 702 703 704
f 689 690 698 697
f 690 691 699 698
f 691 692 700 699
f 692 693 701 700
f 693 694 702 701
f 694 695 703 702
f 695 696 704 703
f 696 689 697 704
f 712 711 710 709 708 707 706 705
f 713 714 715 716 717 718 719 720
f 705 706 714 713
f 706 707 715 714
f 707 708 716 715
f 708 709 717 716
f 709 710 718 717
f 710 711 719 718
f 711 712 720 719
f 712 705 713 720
f 728 727 726 725 724 723 722 721
f 729 730 731 732 733 734 735 736
f 721 722 730 729
f 722 723 731 730
f 723 724 732 731
f 724 725 733 732
f 725 726 734 733
f 726 727 735 734
f 727 728 736 735
f 728 721 729 736
f 744 743 742 741 740 739 738 737
f 745 746 747 748 749 750 751 752
f 737 738 746 745
f 738 739 747 746
f 739 740 748 747
f 740 741 749 748
f 741 742 750 749
f 742 743 751 750
f 743 744 752 751
f 744 737 745 752
f 760 759 758 757 756 755 754 753
f 761 762 763 764 765 766 767 768
f 753 754 762 761
f 754 755 763 762
f 755 756 764 763
f 756 757 765 764
f 757 758 766 765
f 758 759 767 766
f 759 760 768 767
f 760 753 761 768
f 776 775 774 773 772 771 770 769
f 777 778 779 780 781 782 783 784
f 769 770 778 777
f 770 771 779 778
f 771 772 780 779
f 772 773 781 780
f 773 774 782 781
f 774 775 783 782
f 775 776 784 783
f 776 769 777 784
f 792 791 790 789 788 787 786 785
f 793 794 795 796 797 798 799 800
f 785 786 794 793
f 786 787 795 794
f 787 788 796 795
f 788 789 797 796
f 789 790 798 797
f 790 791 799 798
f 791 792 800 799
f 792 785 793 800
f 808 807 806 805 804 803 802 801
f 809 810 811 812 813 814 815 816
f 801 802 810 809
f 802 803 811 810
f 803 804 812 811
f 804 805 813 812
f 805 806 814 813
f 806 807 815 814
f 807 808 816 815
f 808 801 809 816
f 824 823 822 821 820 819 818 817
f 825 826 827 828 829 830 831 832
f 817 818 826 825
f 818 819 827 826
f 819 820 828 827
f 820 821 829 828
f 821 822 830 829
f 822 823 831 830
f 823 824 832 831
f 824 817 825 832
f 1088 1087 1086 1085 1084 1083 1082 1081
f 1089 1090 1091 1092 1093 1094 1095 1096
f 1081 1082 1090 1089
f 1082 1083 1091 1090
f 1083 1084 1092 1091
f 1084 1085 1093 1092
f 1085 1086 1094 1093
f 1086 1087 1095 1094
f 1087 1088 1096 1095
f 1088 1081 1089 1096
f 1104 1103 1102 1101 1100 1099 1098 1097
f 1105 1106 1107 1108 1109 1110 1111 1112
f 1097 1098 1106 1105
f 1098 1099 1107 1106
f 1099 1100 1108 1107
f 1100 1101 1109 1108
f 1101 1102 1110 1109
f 1102 1103 1111 1110
f 1103 1104 1112 1111
f 1104 1097 1105 1112
f 1120 1119 1118 1117 1116 1115 1114 1113
f 1121 1122 1123 1124 1125 1126 1127 1128
f 1113 1114 1122 1121
f 1114 1115 1123 1122
f 1115 1116 1124 1123
f 1116 1117 1125 1124
f 1117 1118 1126 1125
f 1118 1119 1127 1126
f 1119 1120 1128 1127
f 1120 1113 1121 1128
f 1136 1135 1134 1133 1132 1131 1130 1129
f 1137 1138 1139 1140 1141 1142 1143 1144
f 1129 1130 1138 1137
f 1130 1131 1139 1138
f 1131 1132 1140 1139
f 1132 1133 1141 1140
f 1133 1134 1142 1141
f 1134 1135 1143 1142
f 1135 1136 1144 1143
f 1136 1129 1137 1144
f 1152 1151 1150 1149 1148 1147 1146 1145
f 1153 1154 1155 1156 1157 1158 1159 1160
f 1145 1146 1154 1153
f 1146 1147 1155 1154
f 1147 1148 1156 1155
f 1148 1149 1157 1156
f 1149 1150 1158 1157
f 1150 1151 1159 1158
f 1151 1152 1160 1159
f 1152 1145 1153 1160
f 1168 1167 1166 1165 1164 1163 1162 1161
f 1169 1170 1171 1172 1173 1174 1175 1176
f 1161 1162 1170 1169
f 1162 1163 1171 1170
f 1163 1164 1172 1171
f 1164 1165 1173 1172
f 1165 1166 1174 1173
f 1166 1167 1175 1174
f 1167 1168 1176 1175
f 1168 1161 1169 1176
f 1184 1183 1182 1181 1180 1179 1178 1177
f 1185 1186 1187 1188 1189 1190 1191 1192
f 1177 1178 1186 1185
f 1178 1179 1187 1186
f 1179 1180 1188 1187
f 1180 1181 1189 1188
f 1181 1182 1190 1189
f 1182 1183 1191 1190
f 1183 1184 1192 1191
f 1184 1177 1185 1192
f 1200 1199 1198 1197 1196 1195 1194 1193
f 1201 1202 1203 1204 1205 1206 1207 1208
f 1193 1194 1202 1201
f 1194 1195 1203 1202
f 1195 1196 1204 1203
f 1196 1197 1205 1204
f 1197 1198 1206 1205
f 1198 1199 1207 1206
f 1199 1200 1208 1207
f 1200 1193 1201 1208
f 1216 1215 1214 1213 1212 1211 1210 1209
f 1217 1218 1219 1220 1221 1222 1223 1224
f 1209 1210 1218 1217
f 1210 1211 1219 1218
f 1211 1212 1220 1219
f 1212 1213 1221 1220
f 1213 1214 1222 1221
f 1214 1215 1223 1222
f 1215 1216 1224 1223
f 1216 1209 1217 1224
f 1232 1231 1230 1229 1228 1227 1226 1225
f 1233 1234 1235 1236 1237 1238 1239 1240
f 1225 1226 1234 1233
f 1226 1227 1235 1234
f 1227 1228 1236 1235
f 1228 1229 1237 1236
f 1229 1230 1238 1237
f 1230 1231 1239 1238
f 1231 1232 1240 1239
f 1232 1225 1233 1240
f 1248 1247 1246 1245 1244 1243 1242 1241
f 1249 1250 1251 1252 1253 1254 1255 1256
f 1241 1242 1250 1249
f 1242 1243 1251 1250
f 1243 1244 1252 1251
f 1244 1245 1253 1252
f 1245 1246 1254 1253
f 1246 1247 1255 1254
f 1247 1248 1256 1255
f 1248 1241 1249 1256
f 1264 1263 1262 1261 1260 1259 1258 1257
f 1265 1266 1267 1268 1269 1270 1271 1272
f 1257 1258 1266 1265
f 1258 1259 1267 1266
f 1259 1260 1268 1267
f 1260 1261 1269 1268
f 1261 1262 1270 1269
f 1262 1263 1271 1270
f 1263 1264 1272 1271
f 1264 1257 1265 1272
f 1280 1279 1278 1277 1276 1275 1274 1273
f 1281 1282 1283 1284 1285 1286 1287 1288
f 1273 1274 1282 1281
f 1274 1275 1283 1282
f 1275 1276 1284 1283
f 1276 1277 1285 1284
f 1277 1278 1286 1285
f 1278 1279 1287 1286
f 1279 1280 1288 1287
f 1280 1273 1281 1288
f 1296 1295 1294 1293 1292 1291 1290 1289
f 1297 1298 1299 1300 1301 1302 1303 1304
f 1289 1290 1298 1297
f 1290 1291 1299 1298
f 1291 1292 1300 1299
f 1292 1293 1301 1300
f 1293 1294 1302 1301
f 1294 1295 1303 1302
f 1295 1296 1304 1303
f 1296 1289 1297 1304
usemtl grip
f 664 663 662 661 660 659 658 657
f 665 666 667 668 669 670 671 672
f 657 658 666 665
f 658 659 667 666
f 659 660 668 667
f 660 661 669 668
f 661 662 670 669
f 662 663 671 670
f 663 664 672 671
f 664 657 665 672
f 952 951 950 949 948 947 946 945
f 953 954 955 956 957 958 959 960
f 945 946 954 953
f 946 947 955 954
f 947 948 956 955
f 948 949 957 956
f 949 950 958 957
f 950 951 959 958
f 951 952 960 959
f 952 945 953 960
usemtl gold
f 1000 999 998 997 996 995 994 993
f 1001 1002 1003 1004 1005 1006 1007 1008
f 993 994 1002 1001
f 994 995 1003 1002
f 995 996 1004 1003
f 996 997 1005 1004
f 997 998 1006 1005
f 998 999 1007 1006
f 999 1000 1008 1007
f 1000 993 1001 1008
