# Procedural Gothic detail pass: Obelisk
# OBJ polygon mesh for importer stress testing
o Obelisk
v -0.75000 0.00000 -0.75000
v 0.75000 0.00000 -0.75000
v 0.75000 0.30000 -0.75000
v -0.75000 0.30000 -0.75000
v -0.75000 0.00000 0.75000
v 0.75000 0.00000 0.75000
v 0.75000 0.30000 0.75000
v -0.75000 0.30000 0.75000
v -0.57500 0.30000 -0.57500
v 0.57500 0.30000 -0.57500
v 0.57500 0.60000 -0.57500
v -0.57500 0.60000 -0.57500
v -0.57500 0.30000 0.57500
v 0.57500 0.30000 0.57500
v 0.57500 0.60000 0.57500
v -0.57500 0.60000 0.57500
v -0.36000 0.60000 -0.36000
v 0.36000 0.60000 -0.36000
v 0.36000 3.60000 -0.36000
v -0.36000 3.60000 -0.36000
v -0.36000 0.60000 0.36000
v 0.36000 0.60000 0.36000
v 0.36000 3.60000 0.36000
v -0.36000 3.60000 0.36000
v -0.36000 3.60000 -0.36000
v 0.36000 3.60000 -0.36000
v 0.36000 3.60000 0.36000
v -0.36000 3.60000 0.36000
v 0.00000 4.50000 0.00000
f 1 2 3
f 1 3 4
f 5 7 6
f 5 8 7
f 1 5 6
f 1 6 2
f 4 3 7
f 4 7 8
f 1 4 8
f 1 8 5
f 2 6 7
f 2 7 3
f 9 10 11
f 9 11 12
f 13 15 14
f 13 16 15
f 9 13 14
f 9 14 10
f 12 11 15
f 12 15 16
f 9 12 16
f 9 16 13
f 10 14 15
f 10 15 11
f 17 18 19
f 17 19 20
f 21 23 22
f 21 24 23
f 17 21 22
f 17 22 18
f 20 19 23
f 20 23 24
f 17 20 24
f 17 24 21
f 18 22 23
f 18 23 19
f 25 26 29
f 26 27 29
f 27 28 29
f 28 25 29
