# Procedural Gothic detail pass: AngelMonument
# OBJ polygon mesh for importer stress testing
o AngelMonument
v -0.75000 0.00000 -0.60000
v 0.75000 0.00000 -0.60000
v 0.75000 0.36000 -0.60000
v -0.75000 0.36000 -0.60000
v -0.75000 0.00000 0.60000
v 0.75000 0.00000 0.60000
v 0.75000 0.36000 0.60000
v -0.75000 0.36000 0.60000
v 0.28000 0.45000 0.00000
v 0.28000 2.00000 0.00000
v 0.27046 0.45000 0.07247
v 0.27046 2.00000 0.07247
v 0.24249 0.45000 0.14000
v 0.24249 2.00000 0.14000
v 0.19799 0.45000 0.19799
v 0.19799 2.00000 0.19799
v 0.14000 0.45000 0.24249
v 0.14000 2.00000 0.24249
v 0.07247 0.45000 0.27046
v 0.07247 2.00000 0.27046
v 0.00000 0.45000 0.28000
v 0.00000 2.00000 0.28000
v -0.07247 0.45000 0.27046
v -0.07247 2.00000 0.27046
v -0.14000 0.45000 0.24249
v -0.14000 2.00000 0.24249
v -0.19799 0.45000 0.19799
v -0.19799 2.00000 0.19799
v -0.24249 0.45000 0.14000
v -0.24249 2.00000 0.14000
v -0.27046 0.45000 0.07247
v -0.27046 2.00000 0.07247
v -0.28000 0.45000 0.00000
v -0.28000 2.00000 0.00000
v -0.27046 0.45000 -0.07247
v -0.27046 2.00000 -0.07247
v -0.24249 0.45000 -0.14000
v -0.24249 2.00000 -0.14000
v -0.19799 0.45000 -0.19799
v -0.19799 2.00000 -0.19799
v -0.14000 0.45000 -0.24249
v -0.14000 2.00000 -0.24249
v -0.07247 0.45000 -0.27046
v -0.07247 2.00000 -0.27046
v -0.00000 0.45000 -0.28000
v -0.00000 2.00000 -0.28000
v 0.07247 0.45000 -0.27046
v 0.07247 2.00000 -0.27046
v 0.14000 0.45000 -0.24249
v 0.14000 2.00000 -0.24249
v 0.19799 0.45000 -0.19799
v 0.19799 2.00000 -0.19799
v 0.24249 0.45000 -0.14000
v 0.24249 2.00000 -0.14000
v 0.27046 0.45000 -0.07247
v 0.27046 2.00000 -0.07247
v 0.00000 0.45000 0.00000
v 0.00000 2.00000 0.00000
v 0.30000 2.08000 0.00000
v 0.30000 2.58000 0.00000
v 0.28978 2.08000 0.07765
v 0.28978 2.58000 0.07765
v 0.25981 2.08000 0.15000
v 0.25981 2.58000 0.15000
v 0.21213 2.08000 0.21213
v 0.21213 2.58000 0.21213
v 0.15000 2.08000 0.25981
v 0.15000 2.58000 0.25981
v 0.07765 2.08000 0.28978
v 0.07765 2.58000 0.28978
v 0.00000 2.08000 0.30000
v 0.00000 2.58000 0.30000
v -0.07765 2.08000 0.28978
v -0.07765 2.58000 0.28978
v -0.15000 2.08000 0.25981
v -0.15000 2.58000 0.25981
v -0.21213 2.08000 0.21213
v -0.21213 2.58000 0.21213
v -0.25981 2.08000 0.15000
v -0.25981 2.58000 0.15000
v -0.28978 2.08000 0.07765
v -0.28978 2.58000 0.07765
v -0.30000 2.08000 0.00000
v -0.30000 2.58000 0.00000
v -0.28978 2.08000 -0.07765
v -0.28978 2.58000 -0.07765
v -0.25981 2.08000 -0.15000
v -0.25981 2.58000 -0.15000
v -0.21213 2.08000 -0.21213
v -0.21213 2.58000 -0.21213
v -0.15000 2.08000 -0.25981
v -0.15000 2.58000 -0.25981
v -0.07765 2.08000 -0.28978
v -0.07765 2.58000 -0.28978
v -0.00000 2.08000 -0.30000
v -0.00000 2.58000 -0.30000
v 0.07765 2.08000 -0.28978
v 0.07765 2.58000 -0.28978
v 0.15000 2.08000 -0.25981
v 0.15000 2.58000 -0.25981
v 0.21213 2.08000 -0.21213
v 0.21213 2.58000 -0.21213
v 0.25981 2.08000 -0.15000
v 0.25981 2.58000 -0.15000
v 0.28978 2.08000 -0.07765
v 0.28978 2.58000 -0.07765
v 0.00000 2.08000 0.00000
v 0.00000 2.58000 0.00000
v 0.24000 2.63000 0.00000
v 0.24000 2.87000 0.00000
v 0.23182 2.63000 0.06212
v 0.23182 2.87000 0.06212
v 0.20785 2.63000 0.12000
v 0.20785 2.87000 0.12000
v 0.16971 2.63000 0.16971
v 0.16971 2.87000 0.16971
v 0.12000 2.63000 0.20785
v 0.12000 2.87000 0.20785
v 0.06212 2.63000 0.23182
v 0.06212 2.87000 0.23182
v 0.00000 2.63000 0.24000
v 0.00000 2.87000 0.24000
v -0.06212 2.63000 0.23182
v -0.06212 2.87000 0.23182
v -0.12000 2.63000 0.20785
v -0.12000 2.87000 0.20785
v -0.16971 2.63000 0.16971
v -0.16971 2.87000 0.16971
v -0.20785 2.63000 0.12000
v -0.20785 2.87000 0.12000
v -0.23182 2.63000 0.06212
v -0.23182 2.87000 0.06212
v -0.24000 2.63000 0.00000
v -0.24000 2.87000 0.00000
v -0.23182 2.63000 -0.06212
v -0.23182 2.87000 -0.06212
v -0.20785 2.63000 -0.12000
v -0.20785 2.87000 -0.12000
v -0.16971 2.63000 -0.16971
v -0.16971 2.87000 -0.16971
v -0.12000 2.63000 -0.20785
v -0.12000 2.87000 -0.20785
v -0.06212 2.63000 -0.23182
v -0.06212 2.87000 -0.23182
v -0.00000 2.63000 -0.24000
v -0.00000 2.87000 -0.24000
v 0.06212 2.63000 -0.23182
v 0.06212 2.87000 -0.23182
v 0.12000 2.63000 -0.20785
v 0.12000 2.87000 -0.20785
v 0.16971 2.63000 -0.16971
v 0.16971 2.87000 -0.16971
v 0.20785 2.63000 -0.12000
v 0.20785 2.87000 -0.12000
v 0.23182 2.63000 -0.06212
v 0.23182 2.87000 -0.06212
v 0.00000 2.63000 0.00000
v 0.00000 2.87000 0.00000
v -0.44000 2.21000 -0.30000
v -0.16000 2.21000 -0.30000
v -0.16000 2.29000 -0.30000
v -0.44000 2.29000 -0.30000
v -0.44000 2.21000 0.50000
v -0.16000 2.21000 0.50000
v -0.16000 2.29000 0.50000
v -0.44000 2.29000 0.50000
v -0.56000 2.17000 -0.34000
v -0.28000 2.17000 -0.34000
v -0.28000 2.25000 -0.34000
v -0.56000 2.25000 -0.34000
v -0.56000 2.17000 0.54000
v -0.28000 2.17000 0.54000
v -0.28000 2.25000 0.54000
v -0.56000 2.25000 0.54000
v -0.68000 2.13000 -0.38000
v -0.40000 2.13000 -0.38000
v -0.40000 2.21000 -0.38000
v -0.68000 2.21000 -0.38000
v -0.68000 2.13000 0.58000
v -0.40000 2.13000 0.58000
v -0.40000 2.21000 0.58000
v -0.68000 2.21000 0.58000
v -0.80000 2.09000 -0.42000
v -0.52000 2.09000 -0.42000
v -0.52000 2.17000 -0.42000
v -0.80000 2.17000 -0.42000
v -0.80000 2.09000 0.62000
v -0.52000 2.09000 0.62000
v -0.52000 2.17000 0.62000
v -0.80000 2.17000 0.62000
v -0.92000 2.05000 -0.46000
v -0.64000 2.05000 -0.46000
v -0.64000 2.13000 -0.46000
v -0.92000 2.13000 -0.46000
v -0.92000 2.05000 0.66000
v -0.64000 2.05000 0.66000
v -0.64000 2.13000 0.66000
v -0.92000 2.13000 0.66000
v -1.04000 2.01000 -0.50000
v -0.76000 2.01000 -0.50000
v -0.76000 2.09000 -0.50000
v -1.04000 2.09000 -0.50000
v -1.04000 2.01000 0.70000
v -0.76000 2.01000 0.70000
v -0.76000 2.09000 0.70000
v -1.04000 2.09000 0.70000
v -1.16000 1.97000 -0.54000
v -0.88000 1.97000 -0.54000
v -0.88000 2.05000 -0.54000
v -1.16000 2.05000 -0.54000
v -1.16000 1.97000 0.74000
v -0.88000 1.97000 0.74000
v -0.88000 2.05000 0.74000
v -1.16000 2.05000 0.74000
v -1.28000 1.93000 -0.58000
v -1.00000 1.93000 -0.58000
v -1.00000 2.01000 -0.58000
v -1.28000 2.01000 -0.58000
v -1.28000 1.93000 0.78000
v -1.00000 1.93000 0.78000
v -1.00000 2.01000 0.78000
v -1.28000 2.01000 0.78000
v -1.40000 1.89000 -0.62000
v -1.12000 1.89000 -0.62000
v -1.12000 1.97000 -0.62000
v -1.40000 1.97000 -0.62000
v -1.40000 1.89000 0.82000
v -1.12000 1.89000 0.82000
v -1.12000 1.97000 0.82000
v -1.40000 1.97000 0.82000
v -1.52000 1.85000 -0.66000
v -1.24000 1.85000 -0.66000
v -1.24000 1.93000 -0.66000
v -1.52000 1.93000 -0.66000
v -1.52000 1.85000 0.86000
v -1.24000 1.85000 0.86000
v -1.24000 1.93000 0.86000
v -1.52000 1.93000 0.86000
v -1.64000 1.81000 -0.70000
v -1.36000 1.81000 -0.70000
v -1.36000 1.89000 -0.70000
v -1.64000 1.89000 -0.70000
v -1.64000 1.81000 0.90000
v -1.36000 1.81000 0.90000
v -1.36000 1.89000 0.90000
v -1.64000 1.89000 0.90000
v -1.76000 1.77000 -0.74000
v -1.48000 1.77000 -0.74000
v -1.48000 1.85000 -0.74000
v -1.76000 1.85000 -0.74000
v -1.76000 1.77000 0.94000
v -1.48000 1.77000 0.94000
v -1.48000 1.85000 0.94000
v -1.76000 1.85000 0.94000
v 0.16000 2.21000 -0.30000
v 0.44000 2.21000 -0.30000
v 0.44000 2.29000 -0.30000
v 0.16000 2.29000 -0.30000
v 0.16000 2.21000 0.50000
v 0.44000 2.21000 0.50000
v 0.44000 2.29000 0.50000
v 0.16000 2.29000 0.50000
v 0.28000 2.17000 -0.34000
v 0.56000 2.17000 -0.34000
v 0.56000 2.25000 -0.34000
v 0.28000 2.25000 -0.34000
v 0.28000 2.17000 0.54000
v 0.56000 2.17000 0.54000
v 0.56000 2.25000 0.54000
v 0.28000 2.25000 0.54000
v 0.40000 2.13000 -0.38000
v 0.68000 2.13000 -0.38000
v 0.68000 2.21000 -0.38000
v 0.40000 2.21000 -0.38000
v 0.40000 2.13000 0.58000
v 0.68000 2.13000 0.58000
v 0.68000 2.21000 0.58000
v 0.40000 2.21000 0.58000
v 0.52000 2.09000 -0.42000
v 0.80000 2.09000 -0.42000
v 0.80000 2.17000 -0.42000
v 0.52000 2.17000 -0.42000
v 0.52000 2.09000 0.62000
v 0.80000 2.09000 0.62000
v 0.80000 2.17000 0.62000
v 0.52000 2.17000 0.62000
v 0.64000 2.05000 -0.46000
v 0.92000 2.05000 -0.46000
v 0.92000 2.13000 -0.46000
v 0.64000 2.13000 -0.46000
v 0.64000 2.05000 0.66000
v 0.92000 2.05000 0.66000
v 0.92000 2.13000 0.66000
v 0.64000 2.13000 0.66000
v 0.76000 2.01000 -0.50000
v 1.04000 2.01000 -0.50000
v 1.04000 2.09000 -0.50000
v 0.76000 2.09000 -0.50000
v 0.76000 2.01000 0.70000
v 1.04000 2.01000 0.70000
v 1.04000 2.09000 0.70000
v 0.76000 2.09000 0.70000
v 0.88000 1.97000 -0.54000
v 1.16000 1.97000 -0.54000
v 1.16000 2.05000 -0.54000
v 0.88000 2.05000 -0.54000
v 0.88000 1.97000 0.74000
v 1.16000 1.97000 0.74000
v 1.16000 2.05000 0.74000
v 0.88000 2.05000 0.74000
v 1.00000 1.93000 -0.58000
v 1.28000 1.93000 -0.58000
v 1.28000 2.01000 -0.58000
v 1.00000 2.01000 -0.58000
v 1.00000 1.93000 0.78000
v 1.28000 1.93000 0.78000
v 1.28000 2.01000 0.78000
v 1.00000 2.01000 0.78000
v 1.12000 1.89000 -0.62000
v 1.40000 1.89000 -0.62000
v 1.40000 1.97000 -0.62000
v 1.12000 1.97000 -0.62000
v 1.12000 1.89000 0.82000
v 1.40000 1.89000 0.82000
v 1.40000 1.97000 0.82000
v 1.12000 1.97000 0.82000
v 1.24000 1.85000 -0.66000
v 1.52000 1.85000 -0.66000
v 1.52000 1.93000 -0.66000
v 1.24000 1.93000 -0.66000
v 1.24000 1.85000 0.86000
v 1.52000 1.85000 0.86000
v 1.52000 1.93000 0.86000
v 1.24000 1.93000 0.86000
v 1.36000 1.81000 -0.70000
v 1.64000 1.81000 -0.70000
v 1.64000 1.89000 -0.70000
v 1.36000 1.89000 -0.70000
v 1.36000 1.81000 0.90000
v 1.64000 1.81000 0.90000
v 1.64000 1.89000 0.90000
v 1.36000 1.89000 0.90000
v 1.48000 1.77000 -0.74000
v 1.76000 1.77000 -0.74000
v 1.76000 1.85000 -0.74000
v 1.48000 1.85000 -0.74000
v 1.48000 1.77000 0.94000
v 1.76000 1.77000 0.94000
v 1.76000 1.85000 0.94000
v 1.48000 1.85000 0.94000
f 1 2 3
f 1 3 4
f 5 7 6
f 5 8 7
f 1 5 6
f 1 6 2
f 4 3 7
f 4 7 8
f 1 4 8
f 1 8 5
f 2 6 7
f 2 7 3
f 9 11 12
f 9 12 10
f 57 11 9
f 58 10 12
f 11 13 14
f 11 14 12
f 57 13 11
f 58 12 14
f 13 15 16
f 13 16 14
f 57 15 13
f 58 14 16
f 15 17 18
f 15 18 16
f 57 17 15
f 58 16 18
f 17 19 20
f 17 20 18
f 57 19 17
f 58 18 20
f 19 21 22
f 19 22 20
f 57 21 19
f 58 20 22
f 21 23 24
f 21 24 22
f 57 23 21
f 58 22 24
f 23 25 26
f 23 26 24
f 57 25 23
f 58 24 26
f 25 27 28
f 25 28 26
f 57 27 25
f 58 26 28
f 27 29 30
f 27 30 28
f 57 29 27
f 58 28 30
f 29 31 32
f 29 32 30
f 57 31 29
f 58 30 32
f 31 33 34
f 31 34 32
f 57 33 31
f 58 32 34
f 33 35 36
f 33 36 34
f 57 35 33
f 58 34 36
f 35 37 38
f 35 38 36
f 57 37 35
f 58 36 38
f 37 39 40
f 37 40 38
f 57 39 37
f 58 38 40
f 39 41 42
f 39 42 40
f 57 41 39
f 58 40 42
f 41 43 44
f 41 44 42
f 57 43 41
f 58 42 44
f 43 45 46
f 43 46 44
f 57 45 43
f 58 44 46
f 45 47 48
f 45 48 46
f 57 47 45
f 58 46 48
f 47 49 50
f 47 50 48
f 57 49 47
f 58 48 50
f 49 51 52
f 49 52 50
f 57 51 49
f 58 50 52
f 51 53 54
f 51 54 52
f 57 53 51
f 58 52 54
f 53 55 56
f 53 56 54
f 57 55 53
f 58 54 56
f 55 9 10
f 55 10 56
f 57 9 55
f 58 56 10
f 59 61 62
f 59 62 60
f 107 61 59
f 108 60 62
f 61 63 64
f 61 64 62
f 107 63 61
f 108 62 64
f 63 65 66
f 63 66 64
f 107 65 63
f 108 64 66
f 65 67 68
f 65 68 66
f 107 67 65
f 108 66 68
f 67 69 70
f 67 70 68
f 107 69 67
f 108 68 70
f 69 71 72
f 69 72 70
f 107 71 69
f 108 70 72
f 71 73 74
f 71 74 72
f 107 73 71
f 108 72 74
f 73 75 76
f 73 76 74
f 107 75 73
f 108 74 76
f 75 77 78
f 75 78 76
f 107 77 75
f 108 76 78
f 77 79 80
f 77 80 78
f 107 79 77
f 108 78 80
f 79 81 82
f 79 82 80
f 107 81 79
f 108 80 82
f 81 83 84
f 81 84 82
f 107 83 81
f 108 82 84
f 83 85 86
f 83 86 84
f 107 85 83
f 108 84 86
f 85 87 88
f 85 88 86
f 107 87 85
f 108 86 88
f 87 89 90
f 87 90 88
f 107 89 87
f 108 88 90
f 89 91 92
f 89 92 90
f 107 91 89
f 108 90 92
f 91 93 94
f 91 94 92
f 107 93 91
f 108 92 94
f 93 95 96
f 93 96 94
f 107 95 93
f 108 94 96
f 95 97 98
f 95 98 96
f 107 97 95
f 108 96 98
f 97 99 100
f 97 100 98
f 107 99 97
f 108 98 100
f 99 101 102
f 99 102 100
f 107 101 99
f 108 100 102
f 101 103 104
f 101 104 102
f 107 103 101
f 108 102 104
f 103 105 106
f 103 106 104
f 107 105 103
f 108 104 106
f 105 59 60
f 105 60 106
f 107 59 105
f 108 106 60
f 109 111 112
f 109 112 110
f 157 111 109
f 158 110 112
f 111 113 114
f 111 114 112
f 157 113 111
f 158 112 114
f 113 115 116
f 113 116 114
f 157 115 113
f 158 114 116
f 115 117 118
f 115 118 116
f 157 117 115
f 158 116 118
f 117 119 120
f 117 120 118
f 157 119 117
f 158 118 120
f 119 121 122
f 119 122 120
f 157 121 119
f 158 120 122
f 121 123 124
f 121 124 122
f 157 123 121
f 158 122 124
f 123 125 126
f 123 126 124
f 157 125 123
f 158 124 126
f 125 127 128
f 125 128 126
f 157 127 125
f 158 126 128
f 127 129 130
f 127 130 128
f 157 129 127
f 158 128 130
f 129 131 132
f 129 132 130
f 157 131 129
f 158 130 132
f 131 133 134
f 131 134 132
f 157 133 131
f 158 132 134
f 133 135 136
f 133 136 134
f 157 135 133
f 158 134 136
f 135 137 138
f 135 138 136
f 157 137 135
f 158 136 138
f 137 139 140
f 137 140 138
f 157 139 137
f 158 138 140
f 139 141 142
f 139 142 140
f 157 141 139
f 158 140 142
f 141 143 144
f 141 144 142
f 157 143 141
f 158 142 144
f 143 145 146
f 143 146 144
f 157 145 143
f 158 144 146
f 145 147 148
f 145 148 146
f 157 147 145
f 158 146 148
f 147 149 150
f 147 150 148
f 157 149 147
f 158 148 150
f 149 151 152
f 149 152 150
f 157 151 149
f 158 150 152
f 151 153 154
f 151 154 152
f 157 153 151
f 158 152 154
f 153 155 156
f 153 156 154
f 157 155 153
f 158 154 156
f 155 109 110
f 155 110 156
f 157 109 155
f 158 156 110
f 159 160 161
f 159 161 162
f 163 165 164
f 163 166 165
f 159 163 164
f 159 164 160
f 162 161 165
f 162 165 166
f 159 162 166
f 159 166 163
f 160 164 165
f 160 165 161
f 167 168 169
f 167 169 170
f 171 173 172
f 171 174 173
f 167 171 172
f 167 172 168
f 170 169 173
f 170 173 174
f 167 170 174
f 167 174 171
f 168 172 173
f 168 173 169
f 175 176 177
f 175 177 178
f 179 181 180
f 179 182 181
f 175 179 180
f 175 180 176
f 178 177 181
f 178 181 182
f 175 178 182
f 175 182 179
f 176 180 181
f 176 181 177
f 183 184 185
f 183 185 186
f 187 189 188
f 187 190 189
f 183 187 188
f 183 188 184
f 186 185 189
f 186 189 190
f 183 186 190
f 183 190 187
f 184 188 189
f 184 189 185
f 191 192 193
f 191 193 194
f 195 197 196
f 195 198 197
f 191 195 196
f 191 196 192
f 194 193 197
f 194 197 198
f 191 194 198
f 191 198 195
f 192 196 197
f 192 197 193
f 199 200 201
f 199 201 202
f 203 205 204
f 203 206 205
f 199 203 204
f 199 204 200
f 202 201 205
f 202 205 206
f 199 202 206
f 199 206 203
f 200 204 205
f 200 205 201
f 207 208 209
f 207 209 210
f 211 213 212
f 211 214 213
f 207 211 212
f 207 212 208
f 210 209 213
f 210 213 214
f 207 210 214
f 207 214 211
f 208 212 213
f 208 213 209
f 215 216 217
f 215 217 218
f 219 221 220
f 219 222 221
f 215 219 220
f 215 220 216
f 218 217 221
f 218 221 222
f 215 218 222
f 215 222 219
f 216 220 221
f 216 221 217
f 223 224 225
f 223 225 226
f 227 229 228
f 227 230 229
f 223 227 228
f 223 228 224
f 226 225 229
f 226 229 230
f 223 226 230
f 223 230 227
f 224 228 229
f 224 229 225
f 231 232 233
f 231 233 234
f 235 237 236
f 235 238 237
f 231 235 236
f 231 236 232
f 234 233 237
f 234 237 238
f 231 234 238
f 231 238 235
f 232 236 237
f 232 237 233
f 239 240 241
f 239 241 242
f 243 245 244
f 243 246 245
f 239 243 244
f 239 244 240
f 242 241 245
f 242 245 246
f 239 242 246
f 239 246 243
f 240 244 245
f 240 245 241
f 247 248 249
f 247 249 250
f 251 253 252
f 251 254 253
f 247 251 252
f 247 252 248
f 250 249 253
f 250 253 254
f 247 250 254
f 247 254 251
f 248 252 253
f 248 253 249
f 255 256 257
f 255 257 258
f 259 261 260
f 259 262 261
f 255 259 260
f 255 260 256
f 258 257 261
f 258 261 262
f 255 258 262
f 255 262 259
f 256 260 261
f 256 261 257
f 263 264 265
f 263 265 266
f 267 269 268
f 267 270 269
f 263 267 268
f 263 268 264
f 266 265 269
f 266 269 270
f 263 266 270
f 263 270 267
f 264 268 269
f 264 269 265
f 271 272 273
f 271 273 274
f 275 277 276
f 275 278 277
f 271 275 276
f 271 276 272
f 274 273 277
f 274 277 278
f 271 274 278
f 271 278 275
f 272 276 277
f 272 277 273
f 279 280 281
f 279 281 282
f 283 285 284
f 283 286 285
f 279 283 284
f 279 284 280
f 282 281 285
f 282 285 286
f 279 282 286
f 279 286 283
f 280 284 285
f 280 285 281
f 287 288 289
f 287 289 290
f 291 293 292
f 291 294 293
f 287 291 292
f 287 292 288
f 290 289 293
f 290 293 294
f 287 290 294
f 287 294 291
f 288 292 293
f 288 293 289
f 295 296 297
f 295 297 298
f 299 301 300
f 299 302 301
f 295 299 300
f 295 300 296
f 298 297 301
f 298 301 302
f 295 298 302
f 295 302 299
f 296 300 301
f 296 301 297
f 303 304 305
f 303 305 306
f 307 309 308
f 307 310 309
f 303 307 308
f 303 308 304
f 306 305 309
f 306 309 310
f 303 306 310
f 303 310 307
f 304 308 309
f 304 309 305
f 311 312 313
f 311 313 314
f 315 317 316
f 315 318 317
f 311 315 316
f 311 316 312
f 314 313 317
f 314 317 318
f 311 314 318
f 311 318 315
f 312 316 317
f 312 317 313
f 319 320 321
f 319 321 322
f 323 325 324
f 323 326 325
f 319 323 324
f 319 324 320
f 322 321 325
f 322 325 326
f 319 322 326
f 319 326 323
f 320 324 325
f 320 325 321
f 327 328 329
f 327 329 330
f 331 333 332
f 331 334 333
f 327 331 332
f 327 332 328
f 330 329 333
f 330 333 334
f 327 330 334
f 327 334 331
f 328 332 333
f 328 333 329
f 335 336 337
f 335 337 338
f 339 341 340
f 339 342 341
f 335 339 340
f 335 340 336
f 338 337 341
f 338 341 342
f 335 338 342
f 335 342 339
f 336 340 341
f 336 341 337
f 343 344 345
f 343 345 346
f 347 349 348
f 347 350 349
f 343 347 348
f 343 348 344
f 346 345 349
f 346 349 350
f 343 346 350
f 343 350 347
f 344 348 349
f 344 349 345
