# Procedural Gothic detail pass: CrossGrave
# OBJ polygon mesh for importer stress testing
o CrossGrave
v -0.70000 0.00000 -0.35000
v 0.70000 0.00000 -0.35000
v 0.70000 0.20000 -0.35000
v -0.70000 0.20000 -0.35000
v -0.70000 0.00000 0.35000
v 0.70000 0.00000 0.35000
v 0.70000 0.20000 0.35000
v -0.70000 0.20000 0.35000
v -0.16000 0.10000 -0.16000
v 0.16000 0.10000 -0.16000
v 0.16000 2.40000 -0.16000
v -0.16000 2.40000 -0.16000
v -0.16000 0.10000 0.16000
v 0.16000 0.10000 0.16000
v 0.16000 2.40000 0.16000
v -0.16000 2.40000 0.16000
v -0.67500 1.39000 -0.16000
v 0.67500 1.39000 -0.16000
v 0.67500 1.71000 -0.16000
v -0.67500 1.71000 -0.16000
v -0.67500 1.39000 0.16000
v 0.67500 1.39000 0.16000
v 0.67500 1.71000 0.16000
v -0.67500 1.71000 0.16000
v 0.25000 0.30000 0.00000
v 0.25000 0.42000 0.00000
v 0.23776 0.30000 0.07725
v 0.23776 0.42000 0.07725
v 0.20225 0.30000 0.14695
v 0.20225 0.42000 0.14695
v 0.14695 0.30000 0.20225
v 0.14695 0.42000 0.20225
v 0.07725 0.30000 0.23776
v 0.07725 0.42000 0.23776
v 0.00000 0.30000 0.25000
v 0.00000 0.42000 0.25000
v -0.07725 0.30000 0.23776
v -0.07725 0.42000 0.23776
v -0.14695 0.30000 0.20225
v -0.14695 0.42000 0.20225
v -0.20225 0.30000 0.14695
v -0.20225 0.42000 0.14695
v -0.23776 0.30000 0.07725
v -0.23776 0.42000 0.07725
v -0.25000 0.30000 0.00000
v -0.25000 0.42000 0.00000
v -0.23776 0.30000 -0.07725
v -0.23776 0.42000 -0.07725
v -0.20225 0.30000 -0.14695
v -0.20225 0.42000 -0.14695
v -0.14695 0.30000 -0.20225
v -0.14695 0.42000 -0.20225
v -0.07725 0.30000 -0.23776
v -0.07725 0.42000 -0.23776
v -0.00000 0.30000 -0.25000
v -0.00000 0.42000 -0.25000
v 0.07725 0.30000 -0.23776
v 0.07725 0.42000 -0.23776
v 0.14695 0.30000 -0.20225
v 0.14695 0.42000 -0.20225
v 0.20225 0.30000 -0.14695
v 0.20225 0.42000 -0.14695
v 0.23776 0.30000 -0.07725
v 0.23776 0.42000 -0.07725
v 0.00000 0.30000 0.00000
v 0.00000 0.42000 0.00000
v 0.25000 2.35000 0.00000
v 0.25000 2.47000 0.00000
v 0.23776 2.35000 0.07725
v 0.23776 2.47000 0.07725
v 0.20225 2.35000 0.14695
v 0.20225 2.47000 0.14695
v 0.14695 2.35000 0.20225
v 0.14695 2.47000 0.20225
v 0.07725 2.35000 0.23776
v 0.07725 2.47000 0.23776
v 0.00000 2.35000 0.25000
v 0.00000 2.47000 0.25000
v -0.07725 2.35000 0.23776
v -0.07725 2.47000 0.23776
v -0.14695 2.35000 0.20225
v -0.14695 2.47000 0.20225
v -0.20225 2.35000 0.14695
v -0.20225 2.47000 0.14695
v -0.23776 2.35000 0.07725
v -0.23776 2.47000 0.07725
v -0.25000 2.35000 0.00000
v -0.25000 2.47000 0.00000
v -0.23776 2.35000 -0.07725
v -0.23776 2.47000 -0.07725
v -0.20225 2.35000 -0.14695
v -0.20225 2.47000 -0.14695
v -0.14695 2.35000 -0.20225
v -0.14695 2.47000 -0.20225
v -0.07725 2.35000 -0.23776
v -0.07725 2.47000 -0.23776
v -0.00000 2.35000 -0.25000
v -0.00000 2.47000 -0.25000
v 0.07725 2.35000 -0.23776
v 0.07725 2.47000 -0.23776
v 0.14695 2.35000 -0.20225
v 0.14695 2.47000 -0.20225
v 0.20225 2.35000 -0.14695
v 0.20225 2.47000 -0.14695
v 0.23776 2.35000 -0.07725
v 0.23776 2.47000 -0.07725
v 0.00000 2.35000 0.00000
v 0.00000 2.47000 0.00000
f 1 2 3
f 1 3 4
f 5 7 6
f 5 8 7
f 1 5 6
f 1 6 2
f 4 3 7
f 4 7 8
f 1 4 8
f 1 8 5
f 2 6 7
f 2 7 3
f 9 10 11
f 9 11 12
f 13 15 14
f 13 16 15
f 9 13 14
f 9 14 10
f 12 11 15
f 12 15 16
f 9 12 16
f 9 16 13
f 10 14 15
f 10 15 11
f 17 18 19
f 17 19 20
f 21 23 22
f 21 24 23
f 17 21 22
f 17 22 18
f 20 19 23
f 20 23 24
f 17 20 24
f 17 24 21
f 18 22 23
f 18 23 19
f 25 27 28
f 25 28 26
f 65 27 25
f 66 26 28
f 27 29 30
f 27 30 28
f 65 29 27
f 66 28 30
f 29 31 32
f 29 32 30
f 65 31 29
f 66 30 32
f 31 33 34
f 31 34 32
f 65 33 31
f 66 32 34
f 33 35 36
f 33 36 34
f 65 35 33
f 66 34 36
f 35 37 38
f 35 38 36
f 65 37 35
f 66 36 38
f 37 39 40
f 37 40 38
f 65 39 37
f 66 38 40
f 39 41 42
f 39 42 40
f 65 41 39
f 66 40 42
f 41 43 44
f 41 44 42
f 65 43 41
f 66 42 44
f 43 45 46
f 43 46 44
f 65 45 43
f 66 44 46
f 45 47 48
f 45 48 46
f 65 47 45
f 66 46 48
f 47 49 50
f 47 50 48
f 65 49 47
f 66 48 50
f 49 51 52
f 49 52 50
f 65 51 49
f 66 50 52
f 51 53 54
f 51 54 52
f 65 53 51
f 66 52 54
f 53 55 56
f 53 56 54
f 65 55 53
f 66 54 56
f 55 57 58
f 55 58 56
f 65 57 55
f 66 56 58
f 57 59 60
f 57 60 58
f 65 59 57
f 66 58 60
f 59 61 62
f 59 62 60
f 65 61 59
f 66 60 62
f 61 63 64
f 61 64 62
f 65 63 61
f 66 62 64
f 63 25 26
f 63 26 64
f 65 25 63
f 66 64 26
f 67 69 70
f 67 70 68
f 107 69 67
f 108 68 70
f 69 71 72
f 69 72 70
f 107 71 69
f 108 70 72
f 71 73 74
f 71 74 72
f 107 73 71
f 108 72 74
f 73 75 76
f 73 76 74
f 107 75 73
f 108 74 76
f 75 77 78
f 75 78 76
f 107 77 75
f 108 76 78
f 77 79 80
f 77 80 78
f 107 79 77
f 108 78 80
f 79 81 82
f 79 82 80
f 107 81 79
f 108 80 82
f 81 83 84
f 81 84 82
f 107 83 81
f 108 82 84
f 83 85 86
f 83 86 84
f 107 85 83
f 108 84 86
f 85 87 88
f 85 88 86
f 107 87 85
f 108 86 88
f 87 89 90
f 87 90 88
f 107 89 87
f 108 88 90
f 89 91 92
f 89 92 90
f 107 91 89
f 108 90 92
f 91 93 94
f 91 94 92
f 107 93 91
f 108 92 94
f 93 95 96
f 93 96 94
f 107 95 93
f 108 94 96
f 95 97 98
f 95 98 96
f 107 97 95
f 108 96 98
f 97 99 100
f 97 100 98
f 107 99 97
f 108 98 100
f 99 101 102
f 99 102 100
f 107 101 99
f 108 100 102
f 101 103 104
f 101 104 102
f 107 103 101
f 108 102 104
f 103 105 106
f 103 106 104
f 107 105 103
f 108 104 106
f 105 67 68
f 105 68 106
f 107 67 105
f 108 106 68
