# Procedural Gothic detail pass: DeadTree
# OBJ polygon mesh for importer stress testing
o DeadTree
v 0.42000 0.00000 0.00000
v 0.42000 3.20000 0.00000
v 0.39944 0.00000 0.12979
v 0.39944 3.20000 0.12979
v 0.33979 0.00000 0.24687
v 0.33979 3.20000 0.24687
v 0.24687 0.00000 0.33979
v 0.24687 3.20000 0.33979
v 0.12979 0.00000 0.39944
v 0.12979 3.20000 0.39944
v 0.00000 0.00000 0.42000
v 0.00000 3.20000 0.42000
v -0.12979 0.00000 0.39944
v -0.12979 3.20000 0.39944
v -0.24687 0.00000 0.33979
v -0.24687 3.20000 0.33979
v -0.33979 0.00000 0.24687
v -0.33979 3.20000 0.24687
v -0.39944 0.00000 0.12979
v -0.39944 3.20000 0.12979
v -0.42000 0.00000 0.00000
v -0.42000 3.20000 0.00000
v -0.39944 0.00000 -0.12979
v -0.39944 3.20000 -0.12979
v -0.33979 0.00000 -0.24687
v -0.33979 3.20000 -0.24687
v -0.24687 0.00000 -0.33979
v -0.24687 3.20000 -0.33979
v -0.12979 0.00000 -0.39944
v -0.12979 3.20000 -0.39944
v -0.00000 0.00000 -0.42000
v -0.00000 3.20000 -0.42000
v 0.12979 0.00000 -0.39944
v 0.12979 3.20000 -0.39944
v 0.24687 0.00000 -0.33979
v 0.24687 3.20000 -0.33979
v 0.33979 0.00000 -0.24687
v 0.33979 3.20000 -0.24687
v 0.39944 0.00000 -0.12979
v 0.39944 3.20000 -0.12979
v 0.00000 0.00000 0.00000
v 0.00000 3.20000 0.00000
v 0.32000 2.20000 0.00000
v 0.32000 4.00000 0.00000
v 0.30392 2.20000 0.06000
v 0.30392 4.00000 0.06000
v 0.26000 2.20000 0.10392
v 0.26000 4.00000 0.10392
v 0.20000 2.20000 0.12000
v 0.20000 4.00000 0.12000
v 0.14000 2.20000 0.10392
v 0.14000 4.00000 0.10392
v 0.09608 2.20000 0.06000
v 0.09608 4.00000 0.06000
v 0.08000 2.20000 0.00000
v 0.08000 4.00000 0.00000
v 0.09608 2.20000 -0.06000
v 0.09608 4.00000 -0.06000
v 0.14000 2.20000 -0.10392
v 0.14000 4.00000 -0.10392
v 0.20000 2.20000 -0.12000
v 0.20000 4.00000 -0.12000
v 0.26000 2.20000 -0.10392
v 0.26000 4.00000 -0.10392
v 0.30392 2.20000 -0.06000
v 0.30392 4.00000 -0.06000
v 0.20000 2.20000 0.00000
v 0.20000 4.00000 0.00000
v -0.00234 2.38000 0.13524
v -0.00234 4.10000 0.13524
v -0.02177 2.38000 0.20774
v -0.02177 4.10000 0.20774
v -0.07484 2.38000 0.26081
v -0.07484 4.10000 0.26081
v -0.14734 2.38000 0.28024
v -0.14734 4.10000 0.28024
v -0.21984 2.38000 0.26081
v -0.21984 4.10000 0.26081
v -0.27292 2.38000 0.20774
v -0.27292 4.10000 0.20774
v -0.29234 2.38000 0.13524
v -0.29234 4.10000 0.13524
v -0.27292 2.38000 0.06274
v -0.27292 4.10000 0.06274
v -0.21984 2.38000 0.00967
v -0.21984 4.10000 0.00967
v -0.14734 2.38000 -0.00976
v -0.14734 4.10000 -0.00976
v -0.07484 2.38000 0.00967
v -0.07484 4.10000 0.00967
v -0.02177 2.38000 0.06274
v -0.02177 4.10000 0.06274
v -0.14734 2.38000 0.13524
v -0.14734 4.10000 0.13524
v 0.18710 2.56000 -0.19927
v 0.18710 4.20000 -0.19927
v 0.16433 2.56000 -0.11427
v 0.16433 4.20000 -0.11427
v 0.10210 2.56000 -0.05204
v 0.10210 4.20000 -0.05204
v 0.01710 2.56000 -0.02927
v 0.01710 4.20000 -0.02927
v -0.06790 2.56000 -0.05204
v -0.06790 4.20000 -0.05204
v -0.13012 2.56000 -0.11427
v -0.13012 4.20000 -0.11427
v -0.15290 2.56000 -0.19927
v -0.15290 4.20000 -0.19927
v -0.13012 2.56000 -0.28427
v -0.13012 4.20000 -0.28427
v -0.06790 2.56000 -0.34649
v -0.06790 4.20000 -0.34649
v 0.01710 2.56000 -0.36927
v 0.01710 4.20000 -0.36927
v 0.10210 2.56000 -0.34649
v 0.10210 4.20000 -0.34649
v 0.16433 2.56000 -0.28427
v 0.16433 4.20000 -0.28427
v 0.01710 2.56000 -0.19927
v 0.01710 4.20000 -0.19927
v 0.31715 2.74000 0.15837
v 0.31715 4.30000 0.15837
v 0.29102 2.74000 0.25587
v 0.29102 4.30000 0.25587
v 0.21965 2.74000 0.32724
v 0.21965 4.30000 0.32724
v 0.12215 2.74000 0.35337
v 0.12215 4.30000 0.35337
v 0.02465 2.74000 0.32724
v 0.02465 4.30000 0.32724
v -0.04673 2.74000 0.25587
v -0.04673 4.30000 0.25587
v -0.07285 2.74000 0.15837
v -0.07285 4.30000 0.15837
v -0.04673 2.74000 0.06087
v -0.04673 4.30000 0.06087
v 0.02465 2.74000 -0.01051
v 0.02465 4.30000 -0.01051
v 0.12215 2.74000 -0.03663
v 0.12215 4.30000 -0.03663
v 0.21965 2.74000 -0.01051
v 0.21965 4.30000 -0.01051
v 0.29102 2.74000 0.06087
v 0.29102 4.30000 0.06087
v 0.12215 2.74000 0.15837
v 0.12215 4.30000 0.15837
v 0.02292 2.20000 -0.03408
v 0.02292 3.68000 -0.03408
v -0.00655 2.20000 0.07592
v -0.00655 3.68000 0.07592
v -0.08708 2.20000 0.15645
v -0.08708 3.68000 0.15645
v -0.19708 2.20000 0.18592
v -0.19708 3.68000 0.18592
v -0.30708 2.20000 0.15645
v -0.30708 3.68000 0.15645
v -0.38760 2.20000 0.07592
v -0.38760 3.68000 0.07592
v -0.41708 2.20000 -0.03408
v -0.41708 3.68000 -0.03408
v -0.38760 2.20000 -0.14408
v -0.38760 3.68000 -0.14408
v -0.30708 2.20000 -0.22460
v -0.30708 3.68000 -0.22460
v -0.19708 2.20000 -0.25408
v -0.19708 3.68000 -0.25408
v -0.08708 2.20000 -0.22460
v -0.08708 3.68000 -0.22460
v -0.00655 2.20000 -0.14408
v -0.00655 3.68000 -0.14408
v -0.19708 2.20000 -0.03408
v -0.19708 3.68000 -0.03408
v 0.41323 2.38000 -0.10816
v 0.41323 3.78000 -0.10816
v 0.38041 2.38000 0.01434
v 0.38041 3.78000 0.01434
v 0.29073 2.38000 0.10402
v 0.29073 3.78000 0.10402
v 0.16823 2.38000 0.13684
v 0.16823 3.78000 0.13684
v 0.04573 2.38000 0.10402
v 0.04573 3.78000 0.10402
v -0.04394 2.38000 0.01434
v -0.04394 3.78000 0.01434
v -0.07677 2.38000 -0.10816
v -0.07677 3.78000 -0.10816
v -0.04394 2.38000 -0.23066
v -0.04394 3.78000 -0.23066
v 0.04573 2.38000 -0.32033
v 0.04573 3.78000 -0.32033
v 0.16823 2.38000 -0.35316
v 0.16823 3.78000 -0.35316
v 0.29073 2.38000 -0.32033
v 0.29073 3.78000 -0.32033
v 0.38041 2.38000 -0.23066
v 0.38041 3.78000 -0.23066
v 0.16823 2.38000 -0.10816
v 0.16823 3.78000 -0.10816
v 0.21920 2.56000 0.19344
v 0.21920 3.88000 0.19344
v 0.18302 2.56000 0.32844
v 0.18302 3.88000 0.32844
v 0.08420 2.56000 0.42727
v 0.08420 3.88000 0.42727
v -0.05080 2.56000 0.46344
v -0.05080 3.88000 0.46344
v -0.18580 2.56000 0.42727
v -0.18580 3.88000 0.42727
v -0.28463 2.56000 0.32844
v -0.28463 3.88000 0.32844
v -0.32080 2.56000 0.19344
v -0.32080 3.88000 0.19344
v -0.28463 2.56000 0.05844
v -0.28463 3.88000 0.05844
v -0.18580 2.56000 -0.04039
v -0.18580 3.88000 -0.04039
v -0.05080 2.56000 -0.07656
v -0.05080 3.88000 -0.07656
v 0.08420 2.56000 -0.04039
v 0.08420 3.88000 -0.04039
v 0.18302 2.56000 0.05844
v 0.18302 3.88000 0.05844
v -0.05080 2.56000 0.19344
v -0.05080 3.88000 0.19344
v 0.20162 2.74000 -0.17686
v 0.20162 3.98000 -0.17686
v 0.16210 2.74000 -0.02936
v 0.16210 3.98000 -0.02936
v 0.05412 2.74000 0.07861
v 0.05412 3.98000 0.07861
v -0.09338 2.74000 0.11814
v -0.09338 3.98000 0.11814
v -0.24088 2.74000 0.07861
v -0.24088 3.98000 0.07861
v -0.34885 2.74000 -0.02936
v -0.34885 3.98000 -0.02936
v -0.38838 2.74000 -0.17686
v -0.38838 3.98000 -0.17686
v -0.34885 2.74000 -0.32436
v -0.34885 3.98000 -0.32436
v -0.24088 2.74000 -0.43234
v -0.24088 3.98000 -0.43234
v -0.09338 2.74000 -0.47186
v -0.09338 3.98000 -0.47186
v 0.05412 2.74000 -0.43234
v 0.05412 3.98000 -0.43234
v 0.16210 2.74000 -0.32436
v 0.16210 3.98000 -0.32436
v -0.09338 2.74000 -0.17686
v -0.09338 3.98000 -0.17686
v 0.50839 2.20000 0.06716
v 0.50839 3.36000 0.06716
v 0.46552 2.20000 0.22716
v 0.46552 3.36000 0.22716
v 0.34839 2.20000 0.34429
v 0.34839 3.36000 0.34429
v 0.18839 2.20000 0.38716
v 0.18839 3.36000 0.38716
v 0.02839 2.20000 0.34429
v 0.02839 3.36000 0.34429
v -0.08874 2.20000 0.22716
v -0.08874 3.36000 0.22716
v -0.13161 2.20000 0.06716
v -0.13161 3.36000 0.06716
v -0.08874 2.20000 -0.09284
v -0.08874 3.36000 -0.09284
v 0.02839 2.20000 -0.20997
v 0.02839 3.36000 -0.20997
v 0.18839 2.20000 -0.25284
v 0.18839 3.36000 -0.25284
v 0.34839 2.20000 -0.20997
v 0.34839 3.36000 -0.20997
v 0.46552 2.20000 -0.09284
v 0.46552 3.36000 -0.09284
v 0.18839 2.20000 0.06716
v 0.18839 3.36000 0.06716
f 1 3 4
f 1 4 2
f 41 3 1
f 42 2 4
f 3 5 6
f 3 6 4
f 41 5 3
f 42 4 6
f 5 7 8
f 5 8 6
f 41 7 5
f 42 6 8
f 7 9 10
f 7 10 8
f 41 9 7
f 42 8 10
f 9 11 12
f 9 12 10
f 41 11 9
f 42 10 12
f 11 13 14
f 11 14 12
f 41 13 11
f 42 12 14
f 13 15 16
f 13 16 14
f 41 15 13
f 42 14 16
f 15 17 18
f 15 18 16
f 41 17 15
f 42 16 18
f 17 19 20
f 17 20 18
f 41 19 17
f 42 18 20
f 19 21 22
f 19 22 20
f 41 21 19
f 42 20 22
f 21 23 24
f 21 24 22
f 41 23 21
f 42 22 24
f 23 25 26
f 23 26 24
f 41 25 23
f 42 24 26
f 25 27 28
f 25 28 26
f 41 27 25
f 42 26 28
f 27 29 30
f 27 30 28
f 41 29 27
f 42 28 30
f 29 31 32
f 29 32 30
f 41 31 29
f 42 30 32
f 31 33 34
f 31 34 32
f 41 33 31
f 42 32 34
f 33 35 36
f 33 36 34
f 41 35 33
f 42 34 36
f 35 37 38
f 35 38 36
f 41 37 35
f 42 36 38
f 37 39 40
f 37 40 38
f 41 39 37
f 42 38 40
f 39 1 2
f 39 2 40
f 41 1 39
f 42 40 2
f 43 45 46
f 43 46 44
f 67 45 43
f 68 44 46
f 45 47 48
f 45 48 46
f 67 47 45
f 68 46 48
f 47 49 50
f 47 50 48
f 67 49 47
f 68 48 50
f 49 51 52
f 49 52 50
f 67 51 49
f 68 50 52
f 51 53 54
f 51 54 52
f 67 53 51
f 68 52 54
f 53 55 56
f 53 56 54
f 67 55 53
f 68 54 56
f 55 57 58
f 55 58 56
f 67 57 55
f 68 56 58
f 57 59 60
f 57 60 58
f 67 59 57
f 68 58 60
f 59 61 62
f 59 62 60
f 67 61 59
f 68 60 62
f 61 63 64
f 61 64 62
f 67 63 61
f 68 62 64
f 63 65 66
f 63 66 64
f 67 65 63
f 68 64 66
f 65 43 44
f 65 44 66
f 67 43 65
f 68 66 44
f 69 71 72
f 69 72 70
f 93 71 69
f 94 70 72
f 71 73 74
f 71 74 72
f 93 73 71
f 94 72 74
f 73 75 76
f 73 76 74
f 93 75 73
f 94 74 76
f 75 77 78
f 75 78 76
f 93 77 75
f 94 76 78
f 77 79 80
f 77 80 78
f 93 79 77
f 94 78 80
f 79 81 82
f 79 82 80
f 93 81 79
f 94 80 82
f 81 83 84
f 81 84 82
f 93 83 81
f 94 82 84
f 83 85 86
f 83 86 84
f 93 85 83
f 94 84 86
f 85 87 88
f 85 88 86
f 93 87 85
f 94 86 88
f 87 89 90
f 87 90 88
f 93 89 87
f 94 88 90
f 89 91 92
f 89 92 90
f 93 91 89
f 94 90 92
f 91 69 70
f 91 70 92
f 93 69 91
f 94 92 70
f 95 97 98
f 95 98 96
f 119 97 95
f 120 96 98
f 97 99 100
f 97 100 98
f 119 99 97
f 120 98 100
f 99 101 102
f 99 102 100
f 119 101 99
f 120 100 102
f 101 103 104
f 101 104 102
f 119 103 101
f 120 102 104
f 103 105 106
f 103 106 104
f 119 105 103
f 120 104 106
f 105 107 108
f 105 108 106
f 119 107 105
f 120 106 108
f 107 109 110
f 107 110 108
f 119 109 107
f 120 108 110
f 109 111 112
f 109 112 110
f 119 111 109
f 120 110 112
f 111 113 114
f 111 114 112
f 119 113 111
f 120 112 114
f 113 115 116
f 113 116 114
f 119 115 113
f 120 114 116
f 115 117 118
f 115 118 116
f 119 117 115
f 120 116 118
f 117 95 96
f 117 96 118
f 119 95 117
f 120 118 96
f 121 123 124
f 121 124 122
f 145 123 121
f 146 122 124
f 123 125 126
f 123 126 124
f 145 125 123
f 146 124 126
f 125 127 128
f 125 128 126
f 145 127 125
f 146 126 128
f 127 129 130
f 127 130 128
f 145 129 127
f 146 128 130
f 129 131 132
f 129 132 130
f 145 131 129
f 146 130 132
f 131 133 134
f 131 134 132
f 145 133 131
f 146 132 134
f 133 135 136
f 133 136 134
f 145 135 133
f 146 134 136
f 135 137 138
f 135 138 136
f 145 137 135
f 146 136 138
f 137 139 140
f 137 140 138
f 145 139 137
f 146 138 140
f 139 141 142
f 139 142 140
f 145 141 139
f 146 140 142
f 141 143 144
f 141 144 142
f 145 143 141
f 146 142 144
f 143 121 122
f 143 122 144
f 145 121 143
f 146 144 122
f 147 149 150
f 147 150 148
f 171 149 147
f 172 148 150
f 149 151 152
f 149 152 150
f 171 151 149
f 172 150 152
f 151 153 154
f 151 154 152
f 171 153 151
f 172 152 154
f 153 155 156
f 153 156 154
f 171 155 153
f 172 154 156
f 155 157 158
f 155 158 156
f 171 157 155
f 172 156 158
f 157 159 160
f 157 160 158
f 171 159 157
f 172 158 160
f 159 161 162
f 159 162 160
f 171 161 159
f 172 160 162
f 161 163 164
f 161 164 162
f 171 163 161
f 172 162 164
f 163 165 166
f 163 166 164
f 171 165 163
f 172 164 166
f 165 167 168
f 165 168 166
f 171 167 165
f 172 166 168
f 167 169 170
f 167 170 168
f 171 169 167
f 172 168 170
f 169 147 148
f 169 148 170
f 171 147 169
f 172 170 148
f 173 175 176
f 173 176 174
f 197 175 173
f 198 174 176
f 175 177 178
f 175 178 176
f 197 177 175
f 198 176 178
f 177 179 180
f 177 180 178
f 197 179 177
f 198 178 180
f 179 181 182
f 179 182 180
f 197 181 179
f 198 180 182
f 181 183 184
f 181 184 182
f 197 183 181
f 198 182 184
f 183 185 186
f 183 186 184
f 197 185 183
f 198 184 186
f 185 187 188
f 185 188 186
f 197 187 185
f 198 186 188
f 187 189 190
f 187 190 188
f 197 189 187
f 198 188 190
f 189 191 192
f 189 192 190
f 197 191 189
f 198 190 192
f 191 193 194
f 191 194 192
f 197 193 191
f 198 192 194
f 193 195 196
f 193 196 194
f 197 195 193
f 198 194 196
f 195 173 174
f 195 174 196
f 197 173 195
f 198 196 174
f 199 201 202
f 199 202 200
f 223 201 199
f 224 200 202
f 201 203 204
f 201 204 202
f 223 203 201
f 224 202 204
f 203 205 206
f 203 206 204
f 223 205 203
f 224 204 206
f 205 207 208
f 205 208 206
f 223 207 205
f 224 206 208
f 207 209 210
f 207 210 208
f 223 209 207
f 224 208 210
f 209 211 212
f 209 212 210
f 223 211 209
f 224 210 212
f 211 213 214
f 211 214 212
f 223 213 211
f 224 212 214
f 213 215 216
f 213 216 214
f 223 215 213
f 224 214 216
f 215 217 218
f 215 218 216
f 223 217 215
f 224 216 218
f 217 219 220
f 217 220 218
f 223 219 217
f 224 218 220
f 219 221 222
f 219 222 220
f 223 221 219
f 224 220 222
f 221 199 200
f 221 200 222
f 223 199 221
f 224 222 200
f 225 227 228
f 225 228 226
f 249 227 225
f 250 226 228
f 227 229 230
f 227 230 228
f 249 229 227
f 250 228 230
f 229 231 232
f 229 232 230
f 249 231 229
f 250 230 232
f 231 233 234
f 231 234 232
f 249 233 231
f 250 232 234
f 233 235 236
f 233 236 234
f 249 235 233
f 250 234 236
f 235 237 238
f 235 238 236
f 249 237 235
f 250 236 238
f 237 239 240
f 237 240 238
f 249 239 237
f 250 238 240
f 239 241 242
f 239 242 240
f 249 241 239
f 250 240 242
f 241 243 244
f 241 244 242
f 249 243 241
f 250 242 244
f 243 245 246
f 243 246 244
f 249 245 243
f 250 244 246
f 245 247 248
f 245 248 246
f 249 247 245
f 250 246 248
f 247 225 226
f 247 226 248
f 249 225 247
f 250 248 226
f 251 253 254
f 251 254 252
f 275 253 251
f 276 252 254
f 253 255 256
f 253 256 254
f 275 255 253
f 276 254 256
f 255 257 258
f 255 258 256
f 275 257 255
f 276 256 258
f 257 259 260
f 257 260 258
f 275 259 257
f 276 258 260
f 259 261 262
f 259 262 260
f 275 261 259
f 276 260 262
f 261 263 264
f 261 264 262
f 275 263 261
f 276 262 264
f 263 265 266
f 263 266 264
f 275 265 263
f 276 264 266
f 265 267 268
f 265 268 266
f 275 267 265
f 276 266 268
f 267 269 270
f 267 270 268
f 275 269 267
f 276 268 270
f 269 271 272
f 269 272 270
f 275 271 269
f 276 270 272
f 271 273 274
f 271 274 272
f 275 273 271
f 276 272 274
f 273 251 252
f 273 252 274
f 275 251 273
f 276 274 252
