# Procedural Gothic detail pass: GraveMarker
# OBJ polygon mesh for importer stress testing
o GraveMarker
v -0.72500 0.00000 -0.32500
v 0.72500 0.00000 -0.32500
v 0.72500 0.24000 -0.32500
v -0.72500 0.24000 -0.32500
v -0.72500 0.00000 0.32500
v 0.72500 0.00000 0.32500
v 0.72500 0.24000 0.32500
v -0.72500 0.24000 0.32500
v -0.52500 0.12500 -0.16000
v 0.52500 0.12500 -0.16000
v 0.52500 1.67500 -0.16000
v -0.52500 1.67500 -0.16000
v -0.52500 0.12500 0.16000
v 0.52500 0.12500 0.16000
v 0.52500 1.67500 0.16000
v -0.52500 1.67500 0.16000
v 0.52500 1.65000 0.00000
v 0.52500 1.70000 0.00000
v 0.51184 1.65000 0.11682
v 0.51184 1.70000 0.11682
v 0.47301 1.65000 0.22779
v 0.47301 1.70000 0.22779
v 0.41046 1.65000 0.32733
v 0.41046 1.70000 0.32733
v 0.32733 1.65000 0.41046
v 0.32733 1.70000 0.41046
v 0.22779 1.65000 0.47301
v 0.22779 1.70000 0.47301
v 0.11682 1.65000 0.51184
v 0.11682 1.70000 0.51184
v 0.00000 1.65000 0.52500
v 0.00000 1.70000 0.52500
v -0.11682 1.65000 0.51184
v -0.11682 1.70000 0.51184
v -0.22779 1.65000 0.47301
v -0.22779 1.70000 0.47301
v -0.32733 1.65000 0.41046
v -0.32733 1.70000 0.41046
v -0.41046 1.65000 0.32733
v -0.41046 1.70000 0.32733
v -0.47301 1.65000 0.22779
v -0.47301 1.70000 0.22779
v -0.51184 1.65000 0.11682
v -0.51184 1.70000 0.11682
v -0.52500 1.65000 0.00000
v -0.52500 1.70000 0.00000
v -0.51184 1.65000 -0.11682
v -0.51184 1.70000 -0.11682
v -0.47301 1.65000 -0.22779
v -0.47301 1.70000 -0.22779
v -0.41046 1.65000 -0.32733
v -0.41046 1.70000 -0.32733
v -0.32733 1.65000 -0.41046
v -0.32733 1.70000 -0.41046
v -0.22779 1.65000 -0.47301
v -0.22779 1.70000 -0.47301
v -0.11682 1.65000 -0.51184
v -0.11682 1.70000 -0.51184
v -0.00000 1.65000 -0.52500
v -0.00000 1.70000 -0.52500
v 0.11682 1.65000 -0.51184
v 0.11682 1.70000 -0.51184
v 0.22779 1.65000 -0.47301
v 0.22779 1.70000 -0.47301
v 0.32733 1.65000 -0.41046
v 0.32733 1.70000 -0.41046
v 0.41046 1.65000 -0.32733
v 0.41046 1.70000 -0.32733
v 0.47301 1.65000 -0.22779
v 0.47301 1.70000 -0.22779
v 0.51184 1.65000 -0.11682
v 0.51184 1.70000 -0.11682
v 0.00000 1.65000 0.00000
v 0.00000 1.70000 0.00000
v -0.39000 0.62500 -0.21500
v -0.31000 0.62500 -0.21500
v -0.31000 1.27500 -0.21500
v -0.39000 1.27500 -0.21500
v -0.39000 0.62500 -0.16500
v -0.31000 0.62500 -0.16500
v -0.31000 1.27500 -0.16500
v -0.39000 1.27500 -0.16500
v -0.04000 0.62500 -0.21500
v 0.04000 0.62500 -0.21500
v 0.04000 1.27500 -0.21500
v -0.04000 1.27500 -0.21500
v -0.04000 0.62500 -0.16500
v 0.04000 0.62500 -0.16500
v 0.04000 1.27500 -0.16500
v -0.04000 1.27500 -0.16500
v 0.31000 0.62500 -0.21500
v 0.39000 0.62500 -0.21500
v 0.39000 1.27500 -0.21500
v 0.31000 1.27500 -0.21500
v 0.31000 0.62500 -0.16500
v 0.39000 0.62500 -0.16500
v 0.39000 1.27500 -0.16500
v 0.31000 1.27500 -0.16500
f 1 2 3
f 1 3 4
f 5 7 6
f 5 8 7
f 1 5 6
f 1 6 2
f 4 3 7
f 4 7 8
f 1 4 8
f 1 8 5
f 2 6 7
f 2 7 3
f 9 10 11
f 9 11 12
f 13 15 14
f 13 16 15
f 9 13 14
f 9 14 10
f 12 11 15
f 12 15 16
f 9 12 16
f 9 16 13
f 10 14 15
f 10 15 11
f 17 19 20
f 17 20 18
f 73 19 17
f 74 18 20
f 19 21 22
f 19 22 20
f 73 21 19
f 74 20 22
f 21 23 24
f 21 24 22
f 73 23 21
f 74 22 24
f 23 25 26
f 23 26 24
f 73 25 23
f 74 24 26
f 25 27 28
f 25 28 26
f 73 27 25
f 74 26 28
f 27 29 30
f 27 30 28
f 73 29 27
f 74 28 30
f 29 31 32
f 29 32 30
f 73 31 29
f 74 30 32
f 31 33 34
f 31 34 32
f 73 33 31
f 74 32 34
f 33 35 36
f 33 36 34
f 73 35 33
f 74 34 36
f 35 37 38
f 35 38 36
f 73 37 35
f 74 36 38
f 37 39 40
f 37 40 38
f 73 39 37
f 74 38 40
f 39 41 42
f 39 42 40
f 73 41 39
f 74 40 42
f 41 43 44
f 41 44 42
f 73 43 41
f 74 42 44
f 43 45 46
f 43 46 44
f 73 45 43
f 74 44 46
f 45 47 48
f 45 48 46
f 73 47 45
f 74 46 48
f 47 49 50
f 47 50 48
f 73 49 47
f 74 48 50
f 49 51 52
f 49 52 50
f 73 51 49
f 74 50 52
f 51 53 54
f 51 54 52
f 73 53 51
f 74 52 54
f 53 55 56
f 53 56 54
f 73 55 53
f 74 54 56
f 55 57 58
f 55 58 56
f 73 57 55
f 74 56 58
f 57 59 60
f 57 60 58
f 73 59 57
f 74 58 60
f 59 61 62
f 59 62 60
f 73 61 59
f 74 60 62
f 61 63 64
f 61 64 62
f 73 63 61
f 74 62 64
f 63 65 66
f 63 66 64
f 73 65 63
f 74 64 66
f 65 67 68
f 65 68 66
f 73 67 65
f 74 66 68
f 67 69 70
f 67 70 68
f 73 69 67
f 74 68 70
f 69 71 72
f 69 72 70
f 73 71 69
f 74 70 72
f 71 17 18
f 71 18 72
f 73 17 71
f 74 72 18
f 75 76 77
f 75 77 78
f 79 81 80
f 79 82 81
f 75 79 80
f 75 80 76
f 78 77 81
f 78 81 82
f 75 78 82
f 75 82 79
f 76 80 81
f 76 81 77
f 83 84 85
f 83 85 86
f 87 89 88
f 87 90 89
f 83 87 88
f 83 88 84
f 86 85 89
f 86 89 90
f 83 86 90
f 83 90 87
f 84 88 89
f 84 89 85
f 91 92 93
f 91 93 94
f 95 97 96
f 95 98 97
f 91 95 96
f 91 96 92
f 94 93 97
f 94 97 98
f 91 94 98
f 91 98 95
f 92 96 97
f 92 97 93
