# Procedural Gothic detail pass: IronFence
# OBJ polygon mesh for importer stress testing
o IronFence
v -2.33000 0.00000 0.00000
v -2.33000 2.10000 0.00000
v -2.33938 0.00000 0.03500
v -2.33938 2.10000 0.03500
v -2.36500 0.00000 0.06062
v -2.36500 2.10000 0.06062
v -2.40000 0.00000 0.07000
v -2.40000 2.10000 0.07000
v -2.43500 0.00000 0.06062
v -2.43500 2.10000 0.06062
v -2.46062 0.00000 0.03500
v -2.46062 2.10000 0.03500
v -2.47000 0.00000 0.00000
v -2.47000 2.10000 0.00000
v -2.46062 0.00000 -0.03500
v -2.46062 2.10000 -0.03500
v -2.43500 0.00000 -0.06062
v -2.43500 2.10000 -0.06062
v -2.40000 0.00000 -0.07000
v -2.40000 2.10000 -0.07000
v -2.36500 0.00000 -0.06062
v -2.36500 2.10000 -0.06062
v -2.33938 0.00000 -0.03500
v -2.33938 2.10000 -0.03500
v -2.40000 0.00000 0.00000
v -2.40000 2.10000 0.00000
v -2.40000 2.45000 0.00000
v -2.53000 2.08000 -0.08000
v -2.27000 2.08000 -0.08000
v -2.27000 2.08000 0.08000
v -2.53000 2.08000 0.08000
v -1.73000 0.00000 0.00000
v -1.73000 2.10000 0.00000
v -1.73938 0.00000 0.03500
v -1.73938 2.10000 0.03500
v -1.76500 0.00000 0.06062
v -1.76500 2.10000 0.06062
v -1.80000 0.00000 0.07000
v -1.80000 2.10000 0.07000
v -1.83500 0.00000 0.06062
v -1.83500 2.10000 0.06062
v -1.86062 0.00000 0.03500
v -1.86062 2.10000 0.03500
v -1.87000 0.00000 0.00000
v -1.87000 2.10000 0.00000
v -1.86062 0.00000 -0.03500
v -1.86062 2.10000 -0.03500
v -1.83500 0.00000 -0.06062
v -1.83500 2.10000 -0.06062
v -1.80000 0.00000 -0.07000
v -1.80000 2.10000 -0.07000
v -1.76500 0.00000 -0.06062
v -1.76500 2.10000 -0.06062
v -1.73938 0.00000 -0.03500
v -1.73938 2.10000 -0.03500
v -1.80000 0.00000 0.00000
v -1.80000 2.10000 0.00000
v -1.80000 2.45000 0.00000
v -1.93000 2.08000 -0.08000
v -1.67000 2.08000 -0.08000
v -1.67000 2.08000 0.08000
v -1.93000 2.08000 0.08000
v -1.13000 0.00000 0.00000
v -1.13000 2.10000 0.00000
v -1.13938 0.00000 0.03500
v -1.13938 2.10000 0.03500
v -1.16500 0.00000 0.06062
v -1.16500 2.10000 0.06062
v -1.20000 0.00000 0.07000
v -1.20000 2.10000 0.07000
v -1.23500 0.00000 0.06062
v -1.23500 2.10000 0.06062
v -1.26062 0.00000 0.03500
v -1.26062 2.10000 0.03500
v -1.27000 0.00000 0.00000
v -1.27000 2.10000 0.00000
v -1.26062 0.00000 -0.03500
v -1.26062 2.10000 -0.03500
v -1.23500 0.00000 -0.06062
v -1.23500 2.10000 -0.06062
v -1.20000 0.00000 -0.07000
v -1.20000 2.10000 -0.07000
v -1.16500 0.00000 -0.06062
v -1.16500 2.10000 -0.06062
v -1.13938 0.00000 -0.03500
v -1.13938 2.10000 -0.03500
v -1.20000 0.00000 0.00000
v -1.20000 2.10000 0.00000
v -1.20000 2.45000 0.00000
v -1.33000 2.08000 -0.08000
v -1.07000 2.08000 -0.08000
v -1.07000 2.08000 0.08000
v -1.33000 2.08000 0.08000
v -0.53000 0.00000 0.00000
v -0.53000 2.10000 0.00000
v -0.53938 0.00000 0.03500
v -0.53938 2.10000 0.03500
v -0.56500 0.00000 0.06062
v -0.56500 2.10000 0.06062
v -0.60000 0.00000 0.07000
v -0.60000 2.10000 0.07000
v -0.63500 0.00000 0.06062
v -0.63500 2.10000 0.06062
v -0.66062 0.00000 0.03500
v -0.66062 2.10000 0.03500
v -0.67000 0.00000 0.00000
v -0.67000 2.10000 0.00000
v -0.66062 0.00000 -0.03500
v -0.66062 2.10000 -0.03500
v -0.63500 0.00000 -0.06062
v -0.63500 2.10000 -0.06062
v -0.60000 0.00000 -0.07000
v -0.60000 2.10000 -0.07000
v -0.56500 0.00000 -0.06062
v -0.56500 2.10000 -0.06062
v -0.53938 0.00000 -0.03500
v -0.53938 2.10000 -0.03500
v -0.60000 0.00000 0.00000
v -0.60000 2.10000 0.00000
v -0.60000 2.45000 0.00000
v -0.73000 2.08000 -0.08000
v -0.47000 2.08000 -0.08000
v -0.47000 2.08000 0.08000
v -0.73000 2.08000 0.08000
v 0.07000 0.00000 0.00000
v 0.07000 2.10000 0.00000
v 0.06062 0.00000 0.03500
v 0.06062 2.10000 0.03500
v 0.03500 0.00000 0.06062
v 0.03500 2.10000 0.06062
v 0.00000 0.00000 0.07000
v 0.00000 2.10000 0.07000
v -0.03500 0.00000 0.06062
v -0.03500 2.10000 0.06062
v -0.06062 0.00000 0.03500
v -0.06062 2.10000 0.03500
v -0.07000 0.00000 0.00000
v -0.07000 2.10000 0.00000
v -0.06062 0.00000 -0.03500
v -0.06062 2.10000 -0.03500
v -0.03500 0.00000 -0.06062
v -0.03500 2.10000 -0.06062
v 0.00000 0.00000 -0.07000
v 0.00000 2.10000 -0.07000
v 0.03500 0.00000 -0.06062
v 0.03500 2.10000 -0.06062
v 0.06062 0.00000 -0.03500
v 0.06062 2.10000 -0.03500
v 0.00000 0.00000 0.00000
v 0.00000 2.10000 0.00000
v 0.00000 2.45000 0.00000
v -0.13000 2.08000 -0.08000
v 0.13000 2.08000 -0.08000
v 0.13000 2.08000 0.08000
v -0.13000 2.08000 0.08000
v 0.67000 0.00000 0.00000
v 0.67000 2.10000 0.00000
v 0.66062 0.00000 0.03500
v 0.66062 2.10000 0.03500
v 0.63500 0.00000 0.06062
v 0.63500 2.10000 0.06062
v 0.60000 0.00000 0.07000
v 0.60000 2.10000 0.07000
v 0.56500 0.00000 0.06062
v 0.56500 2.10000 0.06062
v 0.53938 0.00000 0.03500
v 0.53938 2.10000 0.03500
v 0.53000 0.00000 0.00000
v 0.53000 2.10000 0.00000
v 0.53938 0.00000 -0.03500
v 0.53938 2.10000 -0.03500
v 0.56500 0.00000 -0.06062
v 0.56500 2.10000 -0.06062
v 0.60000 0.00000 -0.07000
v 0.60000 2.10000 -0.07000
v 0.63500 0.00000 -0.06062
v 0.63500 2.10000 -0.06062
v 0.66062 0.00000 -0.03500
v 0.66062 2.10000 -0.03500
v 0.60000 0.00000 0.00000
v 0.60000 2.10000 0.00000
v 0.60000 2.45000 0.00000
v 0.47000 2.08000 -0.08000
v 0.73000 2.08000 -0.08000
v 0.73000 2.08000 0.08000
v 0.47000 2.08000 0.08000
v 1.27000 0.00000 0.00000
v 1.27000 2.10000 0.00000
v 1.26062 0.00000 0.03500
v 1.26062 2.10000 0.03500
v 1.23500 0.00000 0.06062
v 1.23500 2.10000 0.06062
v 1.20000 0.00000 0.07000
v 1.20000 2.10000 0.07000
v 1.16500 0.00000 0.06062
v 1.16500 2.10000 0.06062
v 1.13938 0.00000 0.03500
v 1.13938 2.10000 0.03500
v 1.13000 0.00000 0.00000
v 1.13000 2.10000 0.00000
v 1.13938 0.00000 -0.03500
v 1.13938 2.10000 -0.03500
v 1.16500 0.00000 -0.06062
v 1.16500 2.10000 -0.06062
v 1.20000 0.00000 -0.07000
v 1.20000 2.10000 -0.07000
v 1.23500 0.00000 -0.06062
v 1.23500 2.10000 -0.06062
v 1.26062 0.00000 -0.03500
v 1.26062 2.10000 -0.03500
v 1.20000 0.00000 0.00000
v 1.20000 2.10000 0.00000
v 1.20000 2.45000 0.00000
v 1.07000 2.08000 -0.08000
v 1.33000 2.08000 -0.08000
v 1.33000 2.08000 0.08000
v 1.07000 2.08000 0.08000
v 1.87000 0.00000 0.00000
v 1.87000 2.10000 0.00000
v 1.86062 0.00000 0.03500
v 1.86062 2.10000 0.03500
v 1.83500 0.00000 0.06062
v 1.83500 2.10000 0.06062
v 1.80000 0.00000 0.07000
v 1.80000 2.10000 0.07000
v 1.76500 0.00000 0.06062
v 1.76500 2.10000 0.06062
v 1.73938 0.00000 0.03500
v 1.73938 2.10000 0.03500
v 1.73000 0.00000 0.00000
v 1.73000 2.10000 0.00000
v 1.73938 0.00000 -0.03500
v 1.73938 2.10000 -0.03500
v 1.76500 0.00000 -0.06062
v 1.76500 2.10000 -0.06062
v 1.80000 0.00000 -0.07000
v 1.80000 2.10000 -0.07000
v 1.83500 0.00000 -0.06062
v 1.83500 2.10000 -0.06062
v 1.86062 0.00000 -0.03500
v 1.86062 2.10000 -0.03500
v 1.80000 0.00000 0.00000
v 1.80000 2.10000 0.00000
v 1.80000 2.45000 0.00000
v 1.67000 2.08000 -0.08000
v 1.93000 2.08000 -0.08000
v 1.93000 2.08000 0.08000
v 1.67000 2.08000 0.08000
v -2.50000 0.49000 -0.06000
v 2.50000 0.49000 -0.06000
v 2.50000 0.61000 -0.06000
v -2.50000 0.61000 -0.06000
v -2.50000 0.49000 0.06000
v 2.50000 0.49000 0.06000
v 2.50000 0.61000 0.06000
v -2.50000 0.61000 0.06000
v -2.50000 1.39000 -0.06000
v 2.50000 1.39000 -0.06000
v 2.50000 1.51000 -0.06000
v -2.50000 1.51000 -0.06000
v -2.50000 1.39000 0.06000
v 2.50000 1.39000 0.06000
v 2.50000 1.51000 0.06000
v -2.50000 1.51000 0.06000
v -2.41000 0.00000 0.00000
v -2.41000 2.55000 0.00000
v -2.42066 0.00000 0.05358
v -2.42066 2.55000 0.05358
v -2.45101 0.00000 0.09899
v -2.45101 2.55000 0.09899
v -2.49642 0.00000 0.12934
v -2.49642 2.55000 0.12934
v -2.55000 0.00000 0.14000
v -2.55000 2.55000 0.14000
v -2.60358 0.00000 0.12934
v -2.60358 2.55000 0.12934
v -2.64899 0.00000 0.09899
v -2.64899 2.55000 0.09899
v -2.67934 0.00000 0.05358
v -2.67934 2.55000 0.05358
v -2.69000 0.00000 0.00000
v -2.69000 2.55000 0.00000
v -2.67934 0.00000 -0.05358
v -2.67934 2.55000 -0.05358
v -2.64899 0.00000 -0.09899
v -2.64899 2.55000 -0.09899
v -2.60358 0.00000 -0.12934
v -2.60358 2.55000 -0.12934
v -2.55000 0.00000 -0.14000
v -2.55000 2.55000 -0.14000
v -2.49642 0.00000 -0.12934
v -2.49642 2.55000 -0.12934
v -2.45101 0.00000 -0.09899
v -2.45101 2.55000 -0.09899
v -2.42066 0.00000 -0.05358
v -2.42066 2.55000 -0.05358
v -2.55000 0.00000 0.00000
v -2.55000 2.55000 0.00000
v 2.69000 0.00000 0.00000
v 2.69000 2.55000 0.00000
v 2.67934 0.00000 0.05358
v 2.67934 2.55000 0.05358
v 2.64899 0.00000 0.09899
v 2.64899 2.55000 0.09899
v 2.60358 0.00000 0.12934
v 2.60358 2.55000 0.12934
v 2.55000 0.00000 0.14000
v 2.55000 2.55000 0.14000
v 2.49642 0.00000 0.12934
v 2.49642 2.55000 0.12934
v 2.45101 0.00000 0.09899
v 2.45101 2.55000 0.09899
v 2.42066 0.00000 0.05358
v 2.42066 2.55000 0.05358
v 2.41000 0.00000 0.00000
v 2.41000 2.55000 0.00000
v 2.42066 0.00000 -0.05358
v 2.42066 2.55000 -0.05358
v 2.45101 0.00000 -0.09899
v 2.45101 2.55000 -0.09899
v 2.49642 0.00000 -0.12934
v 2.49642 2.55000 -0.12934
v 2.55000 0.00000 -0.14000
v 2.55000 2.55000 -0.14000
v 2.60358 0.00000 -0.12934
v 2.60358 2.55000 -0.12934
v 2.64899 0.00000 -0.09899
v 2.64899 2.55000 -0.09899
v 2.67934 0.00000 -0.05358
v 2.67934 2.55000 -0.05358
v 2.55000 0.00000 0.00000
v 2.55000 2.55000 0.00000
f 1 3 4
f 1 4 2
f 25 3 1
f 26 2 4
f 3 5 6
f 3 6 4
f 25 5 3
f 26 4 6
f 5 7 8
f 5 8 6
f 25 7 5
f 26 6 8
f 7 9 10
f 7 10 8
f 25 9 7
f 26 8 10
f 9 11 12
f 9 12 10
f 25 11 9
f 26 10 12
f 11 13 14
f 11 14 12
f 25 13 11
f 26 12 14
f 13 15 16
f 13 16 14
f 25 15 13
f 26 14 16
f 15 17 18
f 15 18 16
f 25 17 15
f 26 16 18
f 17 19 20
f 17 20 18
f 25 19 17
f 26 18 20
f 19 21 22
f 19 22 20
f 25 21 19
f 26 20 22
f 21 23 24
f 21 24 22
f 25 23 21
f 26 22 24
f 23 1 2
f 23 2 24
f 25 1 23
f 26 24 2
f 28 29 27
f 29 30 27
f 30 31 27
f 31 28 27
f 32 34 35
f 32 35 33
f 56 34 32
f 57 33 35
f 34 36 37
f 34 37 35
f 56 36 34
f 57 35 37
f 36 38 39
f 36 39 37
f 56 38 36
f 57 37 39
f 38 40 41
f 38 41 39
f 56 40 38
f 57 39 41
f 40 42 43
f 40 43 41
f 56 42 40
f 57 41 43
f 42 44 45
f 42 45 43
f 56 44 42
f 57 43 45
f 44 46 47
f 44 47 45
f 56 46 44
f 57 45 47
f 46 48 49
f 46 49 47
f 56 48 46
f 57 47 49
f 48 50 51
f 48 51 49
f 56 50 48
f 57 49 51
f 50 52 53
f 50 53 51
f 56 52 50
f 57 51 53
f 52 54 55
f 52 55 53
f 56 54 52
f 57 53 55
f 54 32 33
f 54 33 55
f 56 32 54
f 57 55 33
f 59 60 58
f 60 61 58
f 61 62 58
f 62 59 58
f 63 65 66
f 63 66 64
f 87 65 63
f 88 64 66
f 65 67 68
f 65 68 66
f 87 67 65
f 88 66 68
f 67 69 70
f 67 70 68
f 87 69 67
f 88 68 70
f 69 71 72
f 69 72 70
f 87 71 69
f 88 70 72
f 71 73 74
f 71 74 72
f 87 73 71
f 88 72 74
f 73 75 76
f 73 76 74
f 87 75 73
f 88 74 76
f 75 77 78
f 75 78 76
f 87 77 75
f 88 76 78
f 77 79 80
f 77 80 78
f 87 79 77
f 88 78 80
f 79 81 82
f 79 82 80
f 87 81 79
f 88 80 82
f 81 83 84
f 81 84 82
f 87 83 81
f 88 82 84
f 83 85 86
f 83 86 84
f 87 85 83
f 88 84 86
f 85 63 64
f 85 64 86
f 87 63 85
f 88 86 64
f 90 91 89
f 91 92 89
f 92 93 89
f 93 90 89
f 94 96 97
f 94 97 95
f 118 96 94
f 119 95 97
f 96 98 99
f 96 99 97
f 118 98 96
f 119 97 99
f 98 100 101
f 98 101 99
f 118 100 98
f 119 99 101
f 100 102 103
f 100 103 101
f 118 102 100
f 119 101 103
f 102 104 105
f 102 105 103
f 118 104 102
f 119 103 105
f 104 106 107
f 104 107 105
f 118 106 104
f 119 105 107
f 106 108 109
f 106 109 107
f 118 108 106
f 119 107 109
f 108 110 111
f 108 111 109
f 118 110 108
f 119 109 111
f 110 112 113
f 110 113 111
f 118 112 110
f 119 111 113
f 112 114 115
f 112 115 113
f 118 114 112
f 119 113 115
f 114 116 117
f 114 117 115
f 118 116 114
f 119 115 117
f 116 94 95
f 116 95 117
f 118 94 116
f 119 117 95
f 121 122 120
f 122 123 120
f 123 124 120
f 124 121 120
f 125 127 128
f 125 128 126
f 149 127 125
f 150 126 128
f 127 129 130
f 127 130 128
f 149 129 127
f 150 128 130
f 129 131 132
f 129 132 130
f 149 131 129
f 150 130 132
f 131 133 134
f 131 134 132
f 149 133 131
f 150 132 134
f 133 135 136
f 133 136 134
f 149 135 133
f 150 134 136
f 135 137 138
f 135 138 136
f 149 137 135
f 150 136 138
f 137 139 140
f 137 140 138
f 149 139 137
f 150 138 140
f 139 141 142
f 139 142 140
f 149 141 139
f 150 140 142
f 141 143 144
f 141 144 142
f 149 143 141
f 150 142 144
f 143 145 146
f 143 146 144
f 149 145 143
f 150 144 146
f 145 147 148
f 145 148 146
f 149 147 145
f 150 146 148
f 147 125 126
f 147 126 148
f 149 125 147
f 150 148 126
f 152 153 151
f 153 154 151
f 154 155 151
f 155 152 151
f 156 158 159
f 156 159 157
f 180 158 156
f 181 157 159
f 158 160 161
f 158 161 159
f 180 160 158
f 181 159 161
f 160 162 163
f 160 163 161
f 180 162 160
f 181 161 163
f 162 164 165
f 162 165 163
f 180 164 162
f 181 163 165
f 164 166 167
f 164 167 165
f 180 166 164
f 181 165 167
f 166 168 169
f 166 169 167
f 180 168 166
f 181 167 169
f 168 170 171
f 168 171 169
f 180 170 168
f 181 169 171
f 170 172 173
f 170 173 171
f 180 172 170
f 181 171 173
f 172 174 175
f 172 175 173
f 180 174 172
f 181 173 175
f 174 176 177
f 174 177 175
f 180 176 174
f 181 175 177
f 176 178 179
f 176 179 177
f 180 178 176
f 181 177 179
f 178 156 157
f 178 157 179
f 180 156 178
f 181 179 157
f 183 184 182
f 184 185 182
f 185 186 182
f 186 183 182
f 187 189 190
f 187 190 188
f 211 189 187
f 212 188 190
f 189 191 192
f 189 192 190
f 211 191 189
f 212 190 192
f 191 193 194
f 191 194 192
f 211 193 191
f 212 192 194
f 193 195 196
f 193 196 194
f 211 195 193
f 212 194 196
f 195 197 198
f 195 198 196
f 211 197 195
f 212 196 198
f 197 199 200
f 197 200 198
f 211 199 197
f 212 198 200
f 199 201 202
f 199 202 200
f 211 201 199
f 212 200 202
f 201 203 204
f 201 204 202
f 211 203 201
f 212 202 204
f 203 205 206
f 203 206 204
f 211 205 203
f 212 204 206
f 205 207 208
f 205 208 206
f 211 207 205
f 212 206 208
f 207 209 210
f 207 210 208
f 211 209 207
f 212 208 210
f 209 187 188
f 209 188 210
f 211 187 209
f 212 210 188
f 214 215 213
f 215 216 213
f 216 217 213
f 217 214 213
f 218 220 221
f 218 221 219
f 242 220 218
f 243 219 221
f 220 222 223
f 220 223 221
f 242 222 220
f 243 221 223
f 222 224 225
f 222 225 223
f 242 224 222
f 243 223 225
f 224 226 227
f 224 227 225
f 242 226 224
f 243 225 227
f 226 228 229
f 226 229 227
f 242 228 226
f 243 227 229
f 228 230 231
f 228 231 229
f 242 230 228
f 243 229 231
f 230 232 233
f 230 233 231
f 242 232 230
f 243 231 233
f 232 234 235
f 232 235 233
f 242 234 232
f 243 233 235
f 234 236 237
f 234 237 235
f 242 236 234
f 243 235 237
f 236 238 239
f 236 239 237
f 242 238 236
f 243 237 239
f 238 240 241
f 238 241 239
f 242 240 238
f 243 239 241
f 240 218 219
f 240 219 241
f 242 218 240
f 243 241 219
f 245 246 244
f 246 247 244
f 247 248 244
f 248 245 244
f 249 250 251
f 249 251 252
f 253 255 254
f 253 256 255
f 249 253 254
f 249 254 250
f 252 251 255
f 252 255 256
f 249 252 256
f 249 256 253
f 250 254 255
f 250 255 251
f 257 258 259
f 257 259 260
f 261 263 262
f 261 264 263
f 257 261 262
f 257 262 258
f 260 259 263
f 260 263 264
f 257 260 264
f 257 264 261
f 258 262 263
f 258 263 259
f 265 267 268
f 265 268 266
f 297 267 265
f 298 266 268
f 267 269 270
f 267 270 268
f 297 269 267
f 298 268 270
f 269 271 272
f 269 272 270
f 297 271 269
f 298 270 272
f 271 273 274
f 271 274 272
f 297 273 271
f 298 272 274
f 273 275 276
f 273 276 274
f 297 275 273
f 298 274 276
f 275 277 278
f 275 278 276
f 297 277 275
f 298 276 278
f 277 279 280
f 277 280 278
f 297 279 277
f 298 278 280
f 279 281 282
f 279 282 280
f 297 281 279
f 298 280 282
f 281 283 284
f 281 284 282
f 297 283 281
f 298 282 284
f 283 285 286
f 283 286 284
f 297 285 283
f 298 284 286
f 285 287 288
f 285 288 286
f 297 287 285
f 298 286 288
f 287 289 290
f 287 290 288
f 297 289 287
f 298 288 290
f 289 291 292
f 289 292 290
f 297 291 289
f 298 290 292
f 291 293 294
f 291 294 292
f 297 293 291
f 298 292 294
f 293 295 296
f 293 296 294
f 297 295 293
f 298 294 296
f 295 265 266
f 295 266 296
f 297 265 295
f 298 296 266
f 299 301 302
f 299 302 300
f 331 301 299
f 332 300 302
f 301 303 304
f 301 304 302
f 331 303 301
f 332 302 304
f 303 305 306
f 303 306 304
f 331 305 303
f 332 304 306
f 305 307 308
f 305 308 306
f 331 307 305
f 332 306 308
f 307 309 310
f 307 310 308
f 331 309 307
f 332 308 310
f 309 311 312
f 309 312 310
f 331 311 309
f 332 310 312
f 311 313 314
f 311 314 312
f 331 313 311
f 332 312 314
f 313 315 316
f 313 316 314
f 331 315 313
f 332 314 316
f 315 317 318
f 315 318 316
f 331 317 315
f 332 316 318
f 317 319 320
f 317 320 318
f 331 319 317
f 332 318 320
f 319 321 322
f 319 322 320
f 331 321 319
f 332 320 322
f 321 323 324
f 321 324 322
f 331 323 321
f 332 322 324
f 323 325 326
f 323 326 324
f 331 325 323
f 332 324 326
f 325 327 328
f 325 328 326
f 331 327 325
f 332 326 328
f 327 329 330
f 327 330 328
f 331 329 327
f 332 328 330
f 329 299 300
f 329 300 330
f 331 299 329
f 332 330 300
