# Procedural Gothic detail pass: LanternPost
# OBJ polygon mesh for importer stress testing
o LanternPost
v 0.16000 0.00000 0.00000
v 0.16000 3.10000 0.00000
v 0.15217 0.00000 0.04944
v 0.15217 3.10000 0.04944
v 0.12944 0.00000 0.09405
v 0.12944 3.10000 0.09405
v 0.09405 0.00000 0.12944
v 0.09405 3.10000 0.12944
v 0.04944 0.00000 0.15217
v 0.04944 3.10000 0.15217
v 0.00000 0.00000 0.16000
v 0.00000 3.10000 0.16000
v -0.04944 0.00000 0.15217
v -0.04944 3.10000 0.15217
v -0.09405 0.00000 0.12944
v -0.09405 3.10000 0.12944
v -0.12944 0.00000 0.09405
v -0.12944 3.10000 0.09405
v -0.15217 0.00000 0.04944
v -0.15217 3.10000 0.04944
v -0.16000 0.00000 0.00000
v -0.16000 3.10000 0.00000
v -0.15217 0.00000 -0.04944
v -0.15217 3.10000 -0.04944
v -0.12944 0.00000 -0.09405
v -0.12944 3.10000 -0.09405
v -0.09405 0.00000 -0.12944
v -0.09405 3.10000 -0.12944
v -0.04944 0.00000 -0.15217
v -0.04944 3.10000 -0.15217
v -0.00000 0.00000 -0.16000
v -0.00000 3.10000 -0.16000
v 0.04944 0.00000 -0.15217
v 0.04944 3.10000 -0.15217
v 0.09405 0.00000 -0.12944
v 0.09405 3.10000 -0.12944
v 0.12944 0.00000 -0.09405
v 0.12944 3.10000 -0.09405
v 0.15217 0.00000 -0.04944
v 0.15217 3.10000 -0.04944
v 0.00000 0.00000 0.00000
v 0.00000 3.10000 0.00000
v 0.28000 0.00000 0.00000
v 0.28000 0.12000 0.00000
v 0.26630 0.00000 0.08652
v 0.26630 0.12000 0.08652
v 0.22652 0.00000 0.16458
v 0.22652 0.12000 0.16458
v 0.16458 0.00000 0.22652
v 0.16458 0.12000 0.22652
v 0.08652 0.00000 0.26630
v 0.08652 0.12000 0.26630
v 0.00000 0.00000 0.28000
v 0.00000 0.12000 0.28000
v -0.08652 0.00000 0.26630
v -0.08652 0.12000 0.26630
v -0.16458 0.00000 0.22652
v -0.16458 0.12000 0.22652
v -0.22652 0.00000 0.16458
v -0.22652 0.12000 0.16458
v -0.26630 0.00000 0.08652
v -0.26630 0.12000 0.08652
v -0.28000 0.00000 0.00000
v -0.28000 0.12000 0.00000
v -0.26630 0.00000 -0.08652
v -0.26630 0.12000 -0.08652
v -0.22652 0.00000 -0.16458
v -0.22652 0.12000 -0.16458
v -0.16458 0.00000 -0.22652
v -0.16458 0.12000 -0.22652
v -0.08652 0.00000 -0.26630
v -0.08652 0.12000 -0.26630
v -0.00000 0.00000 -0.28000
v -0.00000 0.12000 -0.28000
v 0.08652 0.00000 -0.26630
v 0.08652 0.12000 -0.26630
v 0.16458 0.00000 -0.22652
v 0.16458 0.12000 -0.22652
v 0.22652 0.00000 -0.16458
v 0.22652 0.12000 -0.16458
v 0.26630 0.00000 -0.08652
v 0.26630 0.12000 -0.08652
v 0.00000 0.00000 0.00000
v 0.00000 0.12000 0.00000
v 0.28000 0.25000 0.00000
v 0.28000 0.37000 0.00000
v 0.26630 0.25000 0.08652
v 0.26630 0.37000 0.08652
v 0.22652 0.25000 0.16458
v 0.22652 0.37000 0.16458
v 0.16458 0.25000 0.22652
v 0.16458 0.37000 0.22652
v 0.08652 0.25000 0.26630
v 0.08652 0.37000 0.26630
v 0.00000 0.25000 0.28000
v 0.00000 0.37000 0.28000
v -0.08652 0.25000 0.26630
v -0.08652 0.37000 0.26630
v -0.16458 0.25000 0.22652
v -0.16458 0.37000 0.22652
v -0.22652 0.25000 0.16458
v -0.22652 0.37000 0.16458
v -0.26630 0.25000 0.08652
v -0.26630 0.37000 0.08652
v -0.28000 0.25000 0.00000
v -0.28000 0.37000 0.00000
v -0.26630 0.25000 -0.08652
v -0.26630 0.37000 -0.08652
v -0.22652 0.25000 -0.16458
v -0.22652 0.37000 -0.16458
v -0.16458 0.25000 -0.22652
v -0.16458 0.37000 -0.22652
v -0.08652 0.25000 -0.26630
v -0.08652 0.37000 -0.26630
v -0.00000 0.25000 -0.28000
v -0.00000 0.37000 -0.28000
v 0.08652 0.25000 -0.26630
v 0.08652 0.37000 -0.26630
v 0.16458 0.25000 -0.22652
v 0.16458 0.37000 -0.22652
v 0.22652 0.25000 -0.16458
v 0.22652 0.37000 -0.16458
v 0.26630 0.25000 -0.08652
v 0.26630 0.37000 -0.08652
v 0.00000 0.25000 0.00000
v 0.00000 0.37000 0.00000
v 0.28000 2.80000 0.00000
v 0.28000 2.92000 0.00000
v 0.26630 2.80000 0.08652
v 0.26630 2.92000 0.08652
v 0.22652 2.80000 0.16458
v 0.22652 2.92000 0.16458
v 0.16458 2.80000 0.22652
v 0.16458 2.92000 0.22652
v 0.08652 2.80000 0.26630
v 0.08652 2.92000 0.26630
v 0.00000 2.80000 0.28000
v 0.00000 2.92000 0.28000
v -0.08652 2.80000 0.26630
v -0.08652 2.92000 0.26630
v -0.16458 2.80000 0.22652
v -0.16458 2.92000 0.22652
v -0.22652 2.80000 0.16458
v -0.22652 2.92000 0.16458
v -0.26630 2.80000 0.08652
v -0.26630 2.92000 0.08652
v -0.28000 2.80000 0.00000
v -0.28000 2.92000 0.00000
v -0.26630 2.80000 -0.08652
v -0.26630 2.92000 -0.08652
v -0.22652 2.80000 -0.16458
v -0.22652 2.92000 -0.16458
v -0.16458 2.80000 -0.22652
v -0.16458 2.92000 -0.22652
v -0.08652 2.80000 -0.26630
v -0.08652 2.92000 -0.26630
v -0.00000 2.80000 -0.28000
v -0.00000 2.92000 -0.28000
v 0.08652 2.80000 -0.26630
v 0.08652 2.92000 -0.26630
v 0.16458 2.80000 -0.22652
v 0.16458 2.92000 -0.22652
v 0.22652 2.80000 -0.16458
v 0.22652 2.92000 -0.16458
v 0.26630 2.80000 -0.08652
v 0.26630 2.92000 -0.08652
v 0.00000 2.80000 0.00000
v 0.00000 2.92000 0.00000
v -0.45000 2.92500 -0.45000
v 0.45000 2.92500 -0.45000
v 0.45000 3.77500 -0.45000
v -0.45000 3.77500 -0.45000
v -0.45000 2.92500 0.45000
v 0.45000 2.92500 0.45000
v 0.45000 3.77500 0.45000
v -0.45000 3.77500 0.45000
v 0.55000 4.18000 0.00000
v 0.55000 4.30000 0.00000
v 0.52308 4.18000 0.16996
v 0.52308 4.30000 0.16996
v 0.44496 4.18000 0.32328
v 0.44496 4.30000 0.32328
v 0.32328 4.18000 0.44496
v 0.32328 4.30000 0.44496
v 0.16996 4.18000 0.52308
v 0.16996 4.30000 0.52308
v 0.00000 4.18000 0.55000
v 0.00000 4.30000 0.55000
v -0.16996 4.18000 0.52308
v -0.16996 4.30000 0.52308
v -0.32328 4.18000 0.44496
v -0.32328 4.30000 0.44496
v -0.44496 4.18000 0.32328
v -0.44496 4.30000 0.32328
v -0.52308 4.18000 0.16996
v -0.52308 4.30000 0.16996
v -0.55000 4.18000 0.00000
v -0.55000 4.30000 0.00000
v -0.52308 4.18000 -0.16996
v -0.52308 4.30000 -0.16996
v -0.44496 4.18000 -0.32328
v -0.44496 4.30000 -0.32328
v -0.32328 4.18000 -0.44496
v -0.32328 4.30000 -0.44496
v -0.16996 4.18000 -0.52308
v -0.16996 4.30000 -0.52308
v -0.00000 4.18000 -0.55000
v -0.00000 4.30000 -0.55000
v 0.16996 4.18000 -0.52308
v 0.16996 4.30000 -0.52308
v 0.32328 4.18000 -0.44496
v 0.32328 4.30000 -0.44496
v 0.44496 4.18000 -0.32328
v 0.44496 4.30000 -0.32328
v 0.52308 4.18000 -0.16996
v 0.52308 4.30000 -0.16996
v 0.00000 4.18000 0.00000
v 0.00000 4.30000 0.00000
v 0.12000 4.30000 0.00000
v 0.12000 4.70000 0.00000
v 0.11087 4.30000 0.04592
v 0.11087 4.70000 0.04592
v 0.08485 4.30000 0.08485
v 0.08485 4.70000 0.08485
v 0.04592 4.30000 0.11087
v 0.04592 4.70000 0.11087
v 0.00000 4.30000 0.12000
v 0.00000 4.70000 0.12000
v -0.04592 4.30000 0.11087
v -0.04592 4.70000 0.11087
v -0.08485 4.30000 0.08485
v -0.08485 4.70000 0.08485
v -0.11087 4.30000 0.04592
v -0.11087 4.70000 0.04592
v -0.12000 4.30000 0.00000
v -0.12000 4.70000 0.00000
v -0.11087 4.30000 -0.04592
v -0.11087 4.70000 -0.04592
v -0.08485 4.30000 -0.08485
v -0.08485 4.70000 -0.08485
v -0.04592 4.30000 -0.11087
v -0.04592 4.70000 -0.11087
v -0.00000 4.30000 -0.12000
v -0.00000 4.70000 -0.12000
v 0.04592 4.30000 -0.11087
v 0.04592 4.70000 -0.11087
v 0.08485 4.30000 -0.08485
v 0.08485 4.70000 -0.08485
v 0.11087 4.30000 -0.04592
v 0.11087 4.70000 -0.04592
v 0.00000 4.30000 0.00000
v 0.00000 4.70000 0.00000
v -0.35500 3.00000 -0.40000
v -0.35500 3.75000 -0.40000
v -0.36359 3.00000 -0.37355
v -0.36359 3.75000 -0.37355
v -0.38609 3.00000 -0.35720
v -0.38609 3.75000 -0.35720
v -0.41391 3.00000 -0.35720
v -0.41391 3.75000 -0.35720
v -0.43641 3.00000 -0.37355
v -0.43641 3.75000 -0.37355
v -0.44500 3.00000 -0.40000
v -0.44500 3.75000 -0.40000
v -0.43641 3.00000 -0.42645
v -0.43641 3.75000 -0.42645
v -0.41391 3.00000 -0.44280
v -0.41391 3.75000 -0.44280
v -0.38609 3.00000 -0.44280
v -0.38609 3.75000 -0.44280
v -0.36359 3.00000 -0.42645
v -0.36359 3.75000 -0.42645
v -0.40000 3.00000 -0.40000
v -0.40000 3.75000 -0.40000
v -0.35500 3.00000 0.40000
v -0.35500 3.75000 0.40000
v -0.36359 3.00000 0.42645
v -0.36359 3.75000 0.42645
v -0.38609 3.00000 0.44280
v -0.38609 3.75000 0.44280
v -0.41391 3.00000 0.44280
v -0.41391 3.75000 0.44280
v -0.43641 3.00000 0.42645
v -0.43641 3.75000 0.42645
v -0.44500 3.00000 0.40000
v -0.44500 3.75000 0.40000
v -0.43641 3.00000 0.37355
v -0.43641 3.75000 0.37355
v -0.41391 3.00000 0.35720
v -0.41391 3.75000 0.35720
v -0.38609 3.00000 0.35720
v -0.38609 3.75000 0.35720
v -0.36359 3.00000 0.37355
v -0.36359 3.75000 0.37355
v -0.40000 3.00000 0.40000
v -0.40000 3.75000 0.40000
v 0.44500 3.00000 -0.40000
v 0.44500 3.75000 -0.40000
v 0.43641 3.00000 -0.37355
v 0.43641 3.75000 -0.37355
v 0.41391 3.00000 -0.35720
v 0.41391 3.75000 -0.35720
v 0.38609 3.00000 -0.35720
v 0.38609 3.75000 -0.35720
v 0.36359 3.00000 -0.37355
v 0.36359 3.75000 -0.37355
v 0.35500 3.00000 -0.40000
v 0.35500 3.75000 -0.40000
v 0.36359 3.00000 -0.42645
v 0.36359 3.75000 -0.42645
v 0.38609 3.00000 -0.44280
v 0.38609 3.75000 -0.44280
v 0.41391 3.00000 -0.44280
v 0.41391 3.75000 -0.44280
v 0.43641 3.00000 -0.42645
v 0.43641 3.75000 -0.42645
v 0.40000 3.00000 -0.40000
v 0.40000 3.75000 -0.40000
v 0.44500 3.00000 0.40000
v 0.44500 3.75000 0.40000
v 0.43641 3.00000 0.42645
v 0.43641 3.75000 0.42645
v 0.41391 3.00000 0.44280
v 0.41391 3.75000 0.44280
v 0.38609 3.00000 0.44280
v 0.38609 3.75000 0.44280
v 0.36359 3.00000 0.42645
v 0.36359 3.75000 0.42645
v 0.35500 3.00000 0.40000
v 0.35500 3.75000 0.40000
v 0.36359 3.00000 0.37355
v 0.36359 3.75000 0.37355
v 0.38609 3.00000 0.35720
v 0.38609 3.75000 0.35720
v 0.41391 3.00000 0.35720
v 0.41391 3.75000 0.35720
v 0.43641 3.00000 0.37355
v 0.43641 3.75000 0.37355
v 0.40000 3.00000 0.40000
v 0.40000 3.75000 0.40000
f 1 3 4
f 1 4 2
f 41 3 1
f 42 2 4
f 3 5 6
f 3 6 4
f 41 5 3
f 42 4 6
f 5 7 8
f 5 8 6
f 41 7 5
f 42 6 8
f 7 9 10
f 7 10 8
f 41 9 7
f 42 8 10
f 9 11 12
f 9 12 10
f 41 11 9
f 42 10 12
f 11 13 14
f 11 14 12
f 41 13 11
f 42 12 14
f 13 15 16
f 13 16 14
f 41 15 13
f 42 14 16
f 15 17 18
f 15 18 16
f 41 17 15
f 42 16 18
f 17 19 20
f 17 20 18
f 41 19 17
f 42 18 20
f 19 21 22
f 19 22 20
f 41 21 19
f 42 20 22
f 21 23 24
f 21 24 22
f 41 23 21
f 42 22 24
f 23 25 26
f 23 26 24
f 41 25 23
f 42 24 26
f 25 27 28
f 25 28 26
f 41 27 25
f 42 26 28
f 27 29 30
f 27 30 28
f 41 29 27
f 42 28 30
f 29 31 32
f 29 32 30
f 41 31 29
f 42 30 32
f 31 33 34
f 31 34 32
f 41 33 31
f 42 32 34
f 33 35 36
f 33 36 34
f 41 35 33
f 42 34 36
f 35 37 38
f 35 38 36
f 41 37 35
f 42 36 38
f 37 39 40
f 37 40 38
f 41 39 37
f 42 38 40
f 39 1 2
f 39 2 40
f 41 1 39
f 42 40 2
f 43 45 46
f 43 46 44
f 83 45 43
f 84 44 46
f 45 47 48
f 45 48 46
f 83 47 45
f 84 46 48
f 47 49 50
f 47 50 48
f 83 49 47
f 84 48 50
f 49 51 52
f 49 52 50
f 83 51 49
f 84 50 52
f 51 53 54
f 51 54 52
f 83 53 51
f 84 52 54
f 53 55 56
f 53 56 54
f 83 55 53
f 84 54 56
f 55 57 58
f 55 58 56
f 83 57 55
f 84 56 58
f 57 59 60
f 57 60 58
f 83 59 57
f 84 58 60
f 59 61 62
f 59 62 60
f 83 61 59
f 84 60 62
f 61 63 64
f 61 64 62
f 83 63 61
f 84 62 64
f 63 65 66
f 63 66 64
f 83 65 63
f 84 64 66
f 65 67 68
f 65 68 66
f 83 67 65
f 84 66 68
f 67 69 70
f 67 70 68
f 83 69 67
f 84 68 70
f 69 71 72
f 69 72 70
f 83 71 69
f 84 70 72
f 71 73 74
f 71 74 72
f 83 73 71
f 84 72 74
f 73 75 76
f 73 76 74
f 83 75 73
f 84 74 76
f 75 77 78
f 75 78 76
f 83 77 75
f 84 76 78
f 77 79 80
f 77 80 78
f 83 79 77
f 84 78 80
f 79 81 82
f 79 82 80
f 83 81 79
f 84 80 82
f 81 43 44
f 81 44 82
f 83 43 81
f 84 82 44
f 85 87 88
f 85 88 86
f 125 87 85
f 126 86 88
f 87 89 90
f 87 90 88
f 125 89 87
f 126 88 90
f 89 91 92
f 89 92 90
f 125 91 89
f 126 90 92
f 91 93 94
f 91 94 92
f 125 93 91
f 126 92 94
f 93 95 96
f 93 96 94
f 125 95 93
f 126 94 96
f 95 97 98
f 95 98 96
f 125 97 95
f 126 96 98
f 97 99 100
f 97 100 98
f 125 99 97
f 126 98 100
f 99 101 102
f 99 102 100
f 125 101 99
f 126 100 102
f 101 103 104
f 101 104 102
f 125 103 101
f 126 102 104
f 103 105 106
f 103 106 104
f 125 105 103
f 126 104 106
f 105 107 108
f 105 108 106
f 125 107 105
f 126 106 108
f 107 109 110
f 107 110 108
f 125 109 107
f 126 108 110
f 109 111 112
f 109 112 110
f 125 111 109
f 126 110 112
f 111 113 114
f 111 114 112
f 125 113 111
f 126 112 114
f 113 115 116
f 113 116 114
f 125 115 113
f 126 114 116
f 115 117 118
f 115 118 116
f 125 117 115
f 126 116 118
f 117 119 120
f 117 120 118
f 125 119 117
f 126 118 120
f 119 121 122
f 119 122 120
f 125 121 119
f 126 120 122
f 121 123 124
f 121 124 122
f 125 123 121
f 126 122 124
f 123 85 86
f 123 86 124
f 125 85 123
f 126 124 86
f 127 129 130
f 127 130 128
f 167 129 127
f 168 128 130
f 129 131 132
f 129 132 130
f 167 131 129
f 168 130 132
f 131 133 134
f 131 134 132
f 167 133 131
f 168 132 134
f 133 135 136
f 133 136 134
f 167 135 133
f 168 134 136
f 135 137 138
f 135 138 136
f 167 137 135
f 168 136 138
f 137 139 140
f 137 140 138
f 167 139 137
f 168 138 140
f 139 141 142
f 139 142 140
f 167 141 139
f 168 140 142
f 141 143 144
f 141 144 142
f 167 143 141
f 168 142 144
f 143 145 146
f 143 146 144
f 167 145 143
f 168 144 146
f 145 147 148
f 145 148 146
f 167 147 145
f 168 146 148
f 147 149 150
f 147 150 148
f 167 149 147
f 168 148 150
f 149 151 152
f 149 152 150
f 167 151 149
f 168 150 152
f 151 153 154
f 151 154 152
f 167 153 151
f 168 152 154
f 153 155 156
f 153 156 154
f 167 155 153
f 168 154 156
f 155 157 158
f 155 158 156
f 167 157 155
f 168 156 158
f 157 159 160
f 157 160 158
f 167 159 157
f 168 158 160
f 159 161 162
f 159 162 160
f 167 161 159
f 168 160 162
f 161 163 164
f 161 164 162
f 167 163 161
f 168 162 164
f 163 165 166
f 163 166 164
f 167 165 163
f 168 164 166
f 165 127 128
f 165 128 166
f 167 127 165
f 168 166 128
f 169 170 171
f 169 171 172
f 173 175 174
f 173 176 175
f 169 173 174
f 169 174 170
f 172 171 175
f 172 175 176
f 169 172 176
f 169 176 173
f 170 174 175
f 170 175 171
f 177 179 180
f 177 180 178
f 217 179 177
f 218 178 180
f 179 181 182
f 179 182 180
f 217 181 179
f 218 180 182
f 181 183 184
f 181 184 182
f 217 183 181
f 218 182 184
f 183 185 186
f 183 186 184
f 217 185 183
f 218 184 186
f 185 187 188
f 185 188 186
f 217 187 185
f 218 186 188
f 187 189 190
f 187 190 188
f 217 189 187
f 218 188 190
f 189 191 192
f 189 192 190
f 217 191 189
f 218 190 192
f 191 193 194
f 191 194 192
f 217 193 191
f 218 192 194
f 193 195 196
f 193 196 194
f 217 195 193
f 218 194 196
f 195 197 198
f 195 198 196
f 217 197 195
f 218 196 198
f 197 199 200
f 197 200 198
f 217 199 197
f 218 198 200
f 199 201 202
f 199 202 200
f 217 201 199
f 218 200 202
f 201 203 204
f 201 204 202
f 217 203 201
f 218 202 204
f 203 205 206
f 203 206 204
f 217 205 203
f 218 204 206
f 205 207 208
f 205 208 206
f 217 207 205
f 218 206 208
f 207 209 210
f 207 210 208
f 217 209 207
f 218 208 210
f 209 211 212
f 209 212 210
f 217 211 209
f 218 210 212
f 211 213 214
f 211 214 212
f 217 213 211
f 218 212 214
f 213 215 216
f 213 216 214
f 217 215 213
f 218 214 216
f 215 177 178
f 215 178 216
f 217 177 215
f 218 216 178
f 219 221 222
f 219 222 220
f 251 221 219
f 252 220 222
f 221 223 224
f 221 224 222
f 251 223 221
f 252 222 224
f 223 225 226
f 223 226 224
f 251 225 223
f 252 224 226
f 225 227 228
f 225 228 226
f 251 227 225
f 252 226 228
f 227 229 230
f 227 230 228
f 251 229 227
f 252 228 230
f 229 231 232
f 229 232 230
f 251 231 229
f 252 230 232
f 231 233 234
f 231 234 232
f 251 233 231
f 252 232 234
f 233 235 236
f 233 236 234
f 251 235 233
f 252 234 236
f 235 237 238
f 235 238 236
f 251 237 235
f 252 236 238
f 237 239 240
f 237 240 238
f 251 239 237
f 252 238 240
f 239 241 242
f 239 242 240
f 251 241 239
f 252 240 242
f 241 243 244
f 241 244 242
f 251 243 241
f 252 242 244
f 243 245 246
f 243 246 244
f 251 245 243
f 252 244 246
f 245 247 248
f 245 248 246
f 251 247 245
f 252 246 248
f 247 249 250
f 247 250 248
f 251 249 247
f 252 248 250
f 249 219 220
f 249 220 250
f 251 219 249
f 252 250 220
f 253 255 256
f 253 256 254
f 273 255 253
f 274 254 256
f 255 257 258
f 255 258 256
f 273 257 255
f 274 256 258
f 257 259 260
f 257 260 258
f 273 259 257
f 274 258 260
f 259 261 262
f 259 262 260
f 273 261 259
f 274 260 262
f 261 263 264
f 261 264 262
f 273 263 261
f 274 262 264
f 263 265 266
f 263 266 264
f 273 265 263
f 274 264 266
f 265 267 268
f 265 268 266
f 273 267 265
f 274 266 268
f 267 269 270
f 267 270 268
f 273 269 267
f 274 268 270
f 269 271 272
f 269 272 270
f 273 271 269
f 274 270 272
f 271 253 254
f 271 254 272
f 273 253 271
f 274 272 254
f 275 277 278
f 275 278 276
f 295 277 275
f 296 276 278
f 277 279 280
f 277 280 278
f 295 279 277
f 296 278 280
f 279 281 282
f 279 282 280
f 295 281 279
f 296 280 282
f 281 283 284
f 281 284 282
f 295 283 281
f 296 282 284
f 283 285 286
f 283 286 284
f 295 285 283
f 296 284 286
f 285 287 288
f 285 288 286
f 295 287 285
f 296 286 288
f 287 289 290
f 287 290 288
f 295 289 287
f 296 288 290
f 289 291 292
f 289 292 290
f 295 291 289
f 296 290 292
f 291 293 294
f 291 294 292
f 295 293 291
f 296 292 294
f 293 275 276
f 293 276 294
f 295 275 293
f 296 294 276
f 297 299 300
f 297 300 298
f 317 299 297
f 318 298 300
f 299 301 302
f 299 302 300
f 317 301 299
f 318 300 302
f 301 303 304
f 301 304 302
f 317 303 301
f 318 302 304
f 303 305 306
f 303 306 304
f 317 305 303
f 318 304 306
f 305 307 308
f 305 308 306
f 317 307 305
f 318 306 308
f 307 309 310
f 307 310 308
f 317 309 307
f 318 308 310
f 309 311 312
f 309 312 310
f 317 311 309
f 318 310 312
f 311 313 314
f 311 314 312
f 317 313 311
f 318 312 314
f 313 315 316
f 313 316 314
f 317 315 313
f 318 314 316
f 315 297 298
f 315 298 316
f 317 297 315
f 318 316 298
f 319 321 322
f 319 322 320
f 339 321 319
f 340 320 322
f 321 323 324
f 321 324 322
f 339 323 321
f 340 322 324
f 323 325 326
f 323 326 324
f 339 325 323
f 340 324 326
f 325 327 328
f 325 328 326
f 339 327 325
f 340 326 328
f 327 329 330
f 327 330 328
f 339 329 327
f 340 328 330
f 329 331 332
f 329 332 330
f 339 331 329
f 340 330 332
f 331 333 334
f 331 334 332
f 339 333 331
f 340 332 334
f 333 335 336
f 333 336 334
f 339 335 333
f 340 334 336
f 335 337 338
f 335 338 336
f 339 337 335
f 340 336 338
f 337 319 320
f 337 320 338
f 339 319 337
f 340 338 320
