# Procedural Gothic detail pass: LowHeadstone
# OBJ polygon mesh for importer stress testing
o LowHeadstone
v -0.77500 0.00000 -0.35000
v 0.77500 0.00000 -0.35000
v 0.77500 0.20000 -0.35000
v -0.77500 0.20000 -0.35000
v -0.77500 0.00000 0.35000
v 0.77500 0.00000 0.35000
v 0.77500 0.20000 0.35000
v -0.77500 0.20000 0.35000
v -0.60000 0.12500 -0.19000
v 0.60000 0.12500 -0.19000
v 0.60000 0.97500 -0.19000
v -0.60000 0.97500 -0.19000
v -0.60000 0.12500 0.19000
v 0.60000 0.12500 0.19000
v 0.60000 0.97500 0.19000
v -0.60000 0.97500 0.19000
v 0.60000 0.98000 0.00000
v 0.60000 1.02000 0.00000
v 0.57956 0.98000 0.15529
v 0.57956 1.02000 0.15529
v 0.51962 0.98000 0.30000
v 0.51962 1.02000 0.30000
v 0.42426 0.98000 0.42426
v 0.42426 1.02000 0.42426
v 0.30000 0.98000 0.51962
v 0.30000 1.02000 0.51962
v 0.15529 0.98000 0.57956
v 0.15529 1.02000 0.57956
v 0.00000 0.98000 0.60000
v 0.00000 1.02000 0.60000
v -0.15529 0.98000 0.57956
v -0.15529 1.02000 0.57956
v -0.30000 0.98000 0.51962
v -0.30000 1.02000 0.51962
v -0.42426 0.98000 0.42426
v -0.42426 1.02000 0.42426
v -0.51962 0.98000 0.30000
v -0.51962 1.02000 0.30000
v -0.57956 0.98000 0.15529
v -0.57956 1.02000 0.15529
v -0.60000 0.98000 0.00000
v -0.60000 1.02000 0.00000
v -0.57956 0.98000 -0.15529
v -0.57956 1.02000 -0.15529
v -0.51962 0.98000 -0.30000
v -0.51962 1.02000 -0.30000
v -0.42426 0.98000 -0.42426
v -0.42426 1.02000 -0.42426
v -0.30000 0.98000 -0.51962
v -0.30000 1.02000 -0.51962
v -0.15529 0.98000 -0.57956
v -0.15529 1.02000 -0.57956
v -0.00000 0.98000 -0.60000
v -0.00000 1.02000 -0.60000
v 0.15529 0.98000 -0.57956
v 0.15529 1.02000 -0.57956
v 0.30000 0.98000 -0.51962
v 0.30000 1.02000 -0.51962
v 0.42426 0.98000 -0.42426
v 0.42426 1.02000 -0.42426
v 0.51962 0.98000 -0.30000
v 0.51962 1.02000 -0.30000
v 0.57956 0.98000 -0.15529
v 0.57956 1.02000 -0.15529
v 0.00000 0.98000 0.00000
v 0.00000 1.02000 0.00000
f 1 2 3
f 1 3 4
f 5 7 6
f 5 8 7
f 1 5 6
f 1 6 2
f 4 3 7
f 4 7 8
f 1 4 8
f 1 8 5
f 2 6 7
f 2 7 3
f 9 10 11
f 9 11 12
f 13 15 14
f 13 16 15
f 9 13 14
f 9 14 10
f 12 11 15
f 12 15 16
f 9 12 16
f 9 16 13
f 10 14 15
f 10 15 11
f 17 19 20
f 17 20 18
f 65 19 17
f 66 18 20
f 19 21 22
f 19 22 20
f 65 21 19
f 66 20 22
f 21 23 24
f 21 24 22
f 65 23 21
f 66 22 24
f 23 25 26
f 23 26 24
f 65 25 23
f 66 24 26
f 25 27 28
f 25 28 26
f 65 27 25
f 66 26 28
f 27 29 30
f 27 30 28
f 65 29 27
f 66 28 30
f 29 31 32
f 29 32 30
f 65 31 29
f 66 30 32
f 31 33 34
f 31 34 32
f 65 33 31
f 66 32 34
f 33 35 36
f 33 36 34
f 65 35 33
f 66 34 36
f 35 37 38
f 35 38 36
f 65 37 35
f 66 36 38
f 37 39 40
f 37 40 38
f 65 39 37
f 66 38 40
f 39 41 42
f 39 42 40
f 65 41 39
f 66 40 42
f 41 43 44
f 41 44 42
f 65 43 41
f 66 42 44
f 43 45 46
f 43 46 44
f 65 45 43
f 66 44 46
f 45 47 48
f 45 48 46
f 65 47 45
f 66 46 48
f 47 49 50
f 47 50 48
f 65 49 47
f 66 48 50
f 49 51 52
f 49 52 50
f 65 51 49
f 66 50 52
f 51 53 54
f 51 54 52
f 65 53 51
f 66 52 54
f 53 55 56
f 53 56 54
f 65 55 53
f 66 54 56
f 55 57 58
f 55 58 56
f 65 57 55
f 66 56 58
f 57 59 60
f 57 60 58
f 65 59 57
f 66 58 60
f 59 61 62
f 59 62 60
f 65 61 59
f 66 60 62
f 61 63 64
f 61 64 62
f 65 63 61
f 66 62 64
f 63 17 18
f 63 18 64
f 65 17 63
f 66 64 18
