# Procedural Gothic detail pass: Mausoleum
# OBJ polygon mesh for importer stress testing
o Mausoleum
v -2.40000 0.00000 -2.00000
v 2.40000 0.00000 -2.00000
v 2.40000 3.00000 -2.00000
v -2.40000 3.00000 -2.00000
v -2.40000 0.00000 2.00000
v 2.40000 0.00000 2.00000
v 2.40000 3.00000 2.00000
v -2.40000 3.00000 2.00000
v -2.65000 3.00000 -2.25000
v 2.65000 3.00000 -2.25000
v 2.65000 3.50000 -2.25000
v -2.65000 3.50000 -2.25000
v -2.65000 3.00000 2.25000
v 2.65000 3.00000 2.25000
v 2.65000 3.50000 2.25000
v -2.65000 3.50000 2.25000
v -2.25000 3.47500 -1.90000
v 2.25000 3.47500 -1.90000
v 2.25000 3.82500 -1.90000
v -2.25000 3.82500 -1.90000
v -2.25000 3.47500 1.90000
v 2.25000 3.47500 1.90000
v 2.25000 3.82500 1.90000
v -2.25000 3.82500 1.90000
v -1.62000 0.00000 -2.15000
v -1.62000 3.40000 -2.15000
v -1.62954 0.00000 -2.07753
v -1.62954 3.40000 -2.07753
v -1.65751 0.00000 -2.01000
v -1.65751 3.40000 -2.01000
v -1.70201 0.00000 -1.95201
v -1.70201 3.40000 -1.95201
v -1.76000 0.00000 -1.90751
v -1.76000 3.40000 -1.90751
v -1.82753 0.00000 -1.87954
v -1.82753 3.40000 -1.87954
v -1.90000 0.00000 -1.87000
v -1.90000 3.40000 -1.87000
v -1.97247 0.00000 -1.87954
v -1.97247 3.40000 -1.87954
v -2.04000 0.00000 -1.90751
v -2.04000 3.40000 -1.90751
v -2.09799 0.00000 -1.95201
v -2.09799 3.40000 -1.95201
v -2.14249 0.00000 -2.01000
v -2.14249 3.40000 -2.01000
v -2.17046 0.00000 -2.07753
v -2.17046 3.40000 -2.07753
v -2.18000 0.00000 -2.15000
v -2.18000 3.40000 -2.15000
v -2.17046 0.00000 -2.22247
v -2.17046 3.40000 -2.22247
v -2.14249 0.00000 -2.29000
v -2.14249 3.40000 -2.29000
v -2.09799 0.00000 -2.34799
v -2.09799 3.40000 -2.34799
v -2.04000 0.00000 -2.39249
v -2.04000 3.40000 -2.39249
v -1.97247 0.00000 -2.42046
v -1.97247 3.40000 -2.42046
v -1.90000 0.00000 -2.43000
v -1.90000 3.40000 -2.43000
v -1.82753 0.00000 -2.42046
v -1.82753 3.40000 -2.42046
v -1.76000 0.00000 -2.39249
v -1.76000 3.40000 -2.39249
v -1.70201 0.00000 -2.34799
v -1.70201 3.40000 -2.34799
v -1.65751 0.00000 -2.29000
v -1.65751 3.40000 -2.29000
v -1.62954 0.00000 -2.22247
v -1.62954 3.40000 -2.22247
v -1.90000 0.00000 -2.15000
v -1.90000 3.40000 -2.15000
v 2.18000 0.00000 -2.15000
v 2.18000 3.40000 -2.15000
v 2.17046 0.00000 -2.07753
v 2.17046 3.40000 -2.07753
v 2.14249 0.00000 -2.01000
v 2.14249 3.40000 -2.01000
v 2.09799 0.00000 -1.95201
v 2.09799 3.40000 -1.95201
v 2.04000 0.00000 -1.90751
v 2.04000 3.40000 -1.90751
v 1.97247 0.00000 -1.87954
v 1.97247 3.40000 -1.87954
v 1.90000 0.00000 -1.87000
v 1.90000 3.40000 -1.87000
v 1.82753 0.00000 -1.87954
v 1.82753 3.40000 -1.87954
v 1.76000 0.00000 -1.90751
v 1.76000 3.40000 -1.90751
v 1.70201 0.00000 -1.95201
v 1.70201 3.40000 -1.95201
v 1.65751 0.00000 -2.01000
v 1.65751 3.40000 -2.01000
v 1.62954 0.00000 -2.07753
v 1.62954 3.40000 -2.07753
v 1.62000 0.00000 -2.15000
v 1.62000 3.40000 -2.15000
v 1.62954 0.00000 -2.22247
v 1.62954 3.40000 -2.22247
v 1.65751 0.00000 -2.29000
v 1.65751 3.40000 -2.29000
v 1.70201 0.00000 -2.34799
v 1.70201 3.40000 -2.34799
v 1.76000 0.00000 -2.39249
v 1.76000 3.40000 -2.39249
v 1.82753 0.00000 -2.42046
v 1.82753 3.40000 -2.42046
v 1.90000 0.00000 -2.43000
v 1.90000 3.40000 -2.43000
v 1.97247 0.00000 -2.42046
v 1.97247 3.40000 -2.42046
v 2.04000 0.00000 -2.39249
v 2.04000 3.40000 -2.39249
v 2.09799 0.00000 -2.34799
v 2.09799 3.40000 -2.34799
v 2.14249 0.00000 -2.29000
v 2.14249 3.40000 -2.29000
v 2.17046 0.00000 -2.22247
v 2.17046 3.40000 -2.22247
v 1.90000 0.00000 -2.15000
v 1.90000 3.40000 -2.15000
v -1.10000 0.20000 -2.20500
v 1.10000 0.20000 -2.20500
v 1.10000 1.88000 -2.20500
v -1.10000 1.88000 -2.20500
v -1.10000 0.20000 -1.95500
v 1.10000 0.20000 -1.95500
v 1.10000 1.88000 -1.95500
v -1.10000 1.88000 -1.95500
v 1.10000 1.88000 -2.20500
v 1.09308 2.00316 -2.20500
v 0.69957 1.95882 -2.20500
v 0.70400 1.88000 -2.20500
v 1.09308 2.00316 -2.20500
v 1.07242 2.12477 -2.20500
v 0.68635 2.03665 -2.20500
v 0.69957 1.95882 -2.20500
v 1.07242 2.12477 -2.20500
v 1.03827 2.24331 -2.20500
v 0.66449 2.11252 -2.20500
v 0.68635 2.03665 -2.20500
v 1.03827 2.24331 -2.20500
v 0.99107 2.35727 -2.20500
v 0.63428 2.18545 -2.20500
v 0.66449 2.11252 -2.20500
v 0.99107 2.35727 -2.20500
v 0.93140 2.46524 -2.20500
v 0.59609 2.25455 -2.20500
v 0.63428 2.18545 -2.20500
v 0.93140 2.46524 -2.20500
v 0.86001 2.56584 -2.20500
v 0.55041 2.31894 -2.20500
v 0.59609 2.25455 -2.20500
v 0.86001 2.56584 -2.20500
v 0.77782 2.65782 -2.20500
v 0.49780 2.37780 -2.20500
v 0.55041 2.31894 -2.20500
v 0.77782 2.65782 -2.20500
v 0.68584 2.74001 -2.20500
v 0.43894 2.43041 -2.20500
v 0.49780 2.37780 -2.20500
v 0.68584 2.74001 -2.20500
v 0.58524 2.81140 -2.20500
v 0.37455 2.47609 -2.20500
v 0.43894 2.43041 -2.20500
v 0.58524 2.81140 -2.20500
v 0.47727 2.87107 -2.20500
v 0.30545 2.51428 -2.20500
v 0.37455 2.47609 -2.20500
v 0.47727 2.87107 -2.20500
v 0.36331 2.91827 -2.20500
v 0.23252 2.54449 -2.20500
v 0.30545 2.51428 -2.20500
v 0.36331 2.91827 -2.20500
v 0.24477 2.95242 -2.20500
v 0.15665 2.56635 -2.20500
v 0.23252 2.54449 -2.20500
v 0.24477 2.95242 -2.20500
v 0.12316 2.97308 -2.20500
v 0.07882 2.57957 -2.20500
v 0.15665 2.56635 -2.20500
v 0.12316 2.97308 -2.20500
v 0.00000 2.98000 -2.20500
v 0.00000 2.58400 -2.20500
v 0.07882 2.57957 -2.20500
v 0.00000 2.98000 -2.20500
v -0.12316 2.97308 -2.20500
v -0.07882 2.57957 -2.20500
v 0.00000 2.58400 -2.20500
v -0.12316 2.97308 -2.20500
v -0.24477 2.95242 -2.20500
v -0.15665 2.56635 -2.20500
v -0.07882 2.57957 -2.20500
v -0.24477 2.95242 -2.20500
v -0.36331 2.91827 -2.20500
v -0.23252 2.54449 -2.20500
v -0.15665 2.56635 -2.20500
v -0.36331 2.91827 -2.20500
v -0.47727 2.87107 -2.20500
v -0.30545 2.51428 -2.20500
v -0.23252 2.54449 -2.20500
v -0.47727 2.87107 -2.20500
v -0.58524 2.81140 -2.20500
v -0.37455 2.47609 -2.20500
v -0.30545 2.51428 -2.20500
v -0.58524 2.81140 -2.20500
v -0.68584 2.74001 -2.20500
v -0.43894 2.43041 -2.20500
v -0.37455 2.47609 -2.20500
v -0.68584 2.74001 -2.20500
v -0.77782 2.65782 -2.20500
v -0.49780 2.37780 -2.20500
v -0.43894 2.43041 -2.20500
v -0.77782 2.65782 -2.20500
v -0.86001 2.56584 -2.20500
v -0.55041 2.31894 -2.20500
v -0.49780 2.37780 -2.20500
v -0.86001 2.56584 -2.20500
v -0.93140 2.46524 -2.20500
v -0.59609 2.25455 -2.20500
v -0.55041 2.31894 -2.20500
v -0.93140 2.46524 -2.20500
v -0.99107 2.35727 -2.20500
v -0.63428 2.18545 -2.20500
v -0.59609 2.25455 -2.20500
v -0.99107 2.35727 -2.20500
v -1.03827 2.24331 -2.20500
v -0.66449 2.11252 -2.20500
v -0.63428 2.18545 -2.20500
v -1.03827 2.24331 -2.20500
v -1.07242 2.12477 -2.20500
v -0.68635 2.03665 -2.20500
v -0.66449 2.11252 -2.20500
v -1.07242 2.12477 -2.20500
v -1.09308 2.00316 -2.20500
v -0.69957 1.95882 -2.20500
v -0.68635 2.03665 -2.20500
v -1.09308 2.00316 -2.20500
v -1.10000 1.88000 -2.20500
v -0.70400 1.88000 -2.20500
v -0.69957 1.95882 -2.20500
v -1.71000 0.31000 -2.36000
v -1.39000 0.31000 -2.36000
v -1.39000 0.59000 -2.36000
v -1.71000 0.59000 -2.36000
v -1.71000 0.31000 -2.08000
v -1.39000 0.31000 -2.08000
v -1.39000 0.59000 -2.08000
v -1.71000 0.59000 -2.08000
v -1.71000 0.86000 -2.36000
v -1.39000 0.86000 -2.36000
v -1.39000 1.14000 -2.36000
v -1.71000 1.14000 -2.36000
v -1.71000 0.86000 -2.08000
v -1.39000 0.86000 -2.08000
v -1.39000 1.14000 -2.08000
v -1.71000 1.14000 -2.08000
v -1.71000 1.41000 -2.36000
v -1.39000 1.41000 -2.36000
v -1.39000 1.69000 -2.36000
v -1.71000 1.69000 -2.36000
v -1.71000 1.41000 -2.08000
v -1.39000 1.41000 -2.08000
v -1.39000 1.69000 -2.08000
v -1.71000 1.69000 -2.08000
v -1.71000 1.96000 -2.36000
v -1.39000 1.96000 -2.36000
v -1.39000 2.24000 -2.36000
v -1.71000 2.24000 -2.36000
v -1.71000 1.96000 -2.08000
v -1.39000 1.96000 -2.08000
v -1.39000 2.24000 -2.08000
v -1.71000 2.24000 -2.08000
v -1.71000 2.51000 -2.36000
v -1.39000 2.51000 -2.36000
v -1.39000 2.79000 -2.36000
v -1.71000 2.79000 -2.36000
v -1.71000 2.51000 -2.08000
v -1.39000 2.51000 -2.08000
v -1.39000 2.79000 -2.08000
v -1.71000 2.79000 -2.08000
v 1.39000 0.31000 -2.36000
v 1.71000 0.31000 -2.36000
v 1.71000 0.59000 -2.36000
v 1.39000 0.59000 -2.36000
v 1.39000 0.31000 -2.08000
v 1.71000 0.31000 -2.08000
v 1.71000 0.59000 -2.08000
v 1.39000 0.59000 -2.08000
v 1.39000 0.86000 -2.36000
v 1.71000 0.86000 -2.36000
v 1.71000 1.14000 -2.36000
v 1.39000 1.14000 -2.36000
v 1.39000 0.86000 -2.08000
v 1.71000 0.86000 -2.08000
v 1.71000 1.14000 -2.08000
v 1.39000 1.14000 -2.08000
v 1.39000 1.41000 -2.36000
v 1.71000 1.41000 -2.36000
v 1.71000 1.69000 -2.36000
v 1.39000 1.69000 -2.36000
v 1.39000 1.41000 -2.08000
v 1.71000 1.41000 -2.08000
v 1.71000 1.69000 -2.08000
v 1.39000 1.69000 -2.08000
v 1.39000 1.96000 -2.36000
v 1.71000 1.96000 -2.36000
v 1.71000 2.24000 -2.36000
v 1.39000 2.24000 -2.36000
v 1.39000 1.96000 -2.08000
v 1.71000 1.96000 -2.08000
v 1.71000 2.24000 -2.08000
v 1.39000 2.24000 -2.08000
v 1.39000 2.51000 -2.36000
v 1.71000 2.51000 -2.36000
v 1.71000 2.79000 -2.36000
v 1.39000 2.79000 -2.36000
v 1.39000 2.51000 -2.08000
v 1.71000 2.51000 -2.08000
v 1.71000 2.79000 -2.08000
v 1.39000 2.79000 -2.08000
f 1 2 3
f 1 3 4
f 5 7 6
f 5 8 7
f 1 5 6
f 1 6 2
f 4 3 7
f 4 7 8
f 1 4 8
f 1 8 5
f 2 6 7
f 2 7 3
f 9 10 11
f 9 11 12
f 13 15 14
f 13 16 15
f 9 13 14
f 9 14 10
f 12 11 15
f 12 15 16
f 9 12 16
f 9 16 13
f 10 14 15
f 10 15 11
f 17 18 19
f 17 19 20
f 21 23 22
f 21 24 23
f 17 21 22
f 17 22 18
f 20 19 23
f 20 23 24
f 17 20 24
f 17 24 21
f 18 22 23
f 18 23 19
f 25 27 28
f 25 28 26
f 73 27 25
f 74 26 28
f 27 29 30
f 27 30 28
f 73 29 27
f 74 28 30
f 29 31 32
f 29 32 30
f 73 31 29
f 74 30 32
f 31 33 34
f 31 34 32
f 73 33 31
f 74 32 34
f 33 35 36
f 33 36 34
f 73 35 33
f 74 34 36
f 35 37 38
f 35 38 36
f 73 37 35
f 74 36 38
f 37 39 40
f 37 40 38
f 73 39 37
f 74 38 40
f 39 41 42
f 39 42 40
f 73 41 39
f 74 40 42
f 41 43 44
f 41 44 42
f 73 43 41
f 74 42 44
f 43 45 46
f 43 46 44
f 73 45 43
f 74 44 46
f 45 47 48
f 45 48 46
f 73 47 45
f 74 46 48
f 47 49 50
f 47 50 48
f 73 49 47
f 74 48 50
f 49 51 52
f 49 52 50
f 73 51 49
f 74 50 52
f 51 53 54
f 51 54 52
f 73 53 51
f 74 52 54
f 53 55 56
f 53 56 54
f 73 55 53
f 74 54 56
f 55 57 58
f 55 58 56
f 73 57 55
f 74 56 58
f 57 59 60
f 57 60 58
f 73 59 57
f 74 58 60
f 59 61 62
f 59 62 60
f 73 61 59
f 74 60 62
f 61 63 64
f 61 64 62
f 73 63 61
f 74 62 64
f 63 65 66
f 63 66 64
f 73 65 63
f 74 64 66
f 65 67 68
f 65 68 66
f 73 67 65
f 74 66 68
f 67 69 70
f 67 70 68
f 73 69 67
f 74 68 70
f 69 71 72
f 69 72 70
f 73 71 69
f 74 70 72
f 71 25 26
f 71 26 72
f 73 25 71
f 74 72 26
f 75 77 78
f 75 78 76
f 123 77 75
f 124 76 78
f 77 79 80
f 77 80 78
f 123 79 77
f 124 78 80
f 79 81 82
f 79 82 80
f 123 81 79
f 124 80 82
f 81 83 84
f 81 84 82
f 123 83 81
f 124 82 84
f 83 85 86
f 83 86 84
f 123 85 83
f 124 84 86
f 85 87 88
f 85 88 86
f 123 87 85
f 124 86 88
f 87 89 90
f 87 90 88
f 123 89 87
f 124 88 90
f 89 91 92
f 89 92 90
f 123 91 89
f 124 90 92
f 91 93 94
f 91 94 92
f 123 93 91
f 124 92 94
f 93 95 96
f 93 96 94
f 123 95 93
f 124 94 96
f 95 97 98
f 95 98 96
f 123 97 95
f 124 96 98
f 97 99 100
f 97 100 98
f 123 99 97
f 124 98 100
f 99 101 102
f 99 102 100
f 123 101 99
f 124 100 102
f 101 103 104
f 101 104 102
f 123 103 101
f 124 102 104
f 103 105 106
f 103 106 104
f 123 105 103
f 124 104 106
f 105 107 108
f 105 108 106
f 123 107 105
f 124 106 108
f 107 109 110
f 107 110 108
f 123 109 107
f 124 108 110
f 109 111 112
f 109 112 110
f 123 111 109
f 124 110 112
f 111 113 114
f 111 114 112
f 123 113 111
f 124 112 114
f 113 115 116
f 113 116 114
f 123 115 113
f 124 114 116
f 115 117 118
f 115 118 116
f 123 117 115
f 124 116 118
f 117 119 120
f 117 120 118
f 123 119 117
f 124 118 120
f 119 121 122
f 119 122 120
f 123 121 119
f 124 120 122
f 121 75 76
f 121 76 122
f 123 75 121
f 124 122 76
f 125 126 127
f 125 127 128
f 129 131 130
f 129 132 131
f 125 129 130
f 125 130 126
f 128 127 131
f 128 131 132
f 125 128 132
f 125 132 129
f 126 130 131
f 126 131 127
f 133 134 135
f 133 135 136
f 137 138 139
f 137 139 140
f 141 142 143
f 141 143 144
f 145 146 147
f 145 147 148
f 149 150 151
f 149 151 152
f 153 154 155
f 153 155 156
f 157 158 159
f 157 159 160
f 161 162 163
f 161 163 164
f 165 166 167
f 165 167 168
f 169 170 171
f 169 171 172
f 173 174 175
f 173 175 176
f 177 178 179
f 177 179 180
f 181 182 183
f 181 183 184
f 185 186 187
f 185 187 188
f 189 190 191
f 189 191 192
f 193 194 195
f 193 195 196
f 197 198 199
f 197 199 200
f 201 202 203
f 201 203 204
f 205 206 207
f 205 207 208
f 209 210 211
f 209 211 212
f 213 214 215
f 213 215 216
f 217 218 219
f 217 219 220
f 221 222 223
f 221 223 224
f 225 226 227
f 225 227 228
f 229 230 231
f 229 231 232
f 233 234 235
f 233 235 236
f 237 238 239
f 237 239 240
f 241 242 243
f 241 243 244
f 245 246 247
f 245 247 248
f 249 251 250
f 249 252 251
f 245 249 250
f 245 250 246
f 248 247 251
f 248 251 252
f 245 248 252
f 245 252 249
f 246 250 251
f 246 251 247
f 253 254 255
f 253 255 256
f 257 259 258
f 257 260 259
f 253 257 258
f 253 258 254
f 256 255 259
f 256 259 260
f 253 256 260
f 253 260 257
f 254 258 259
f 254 259 255
f 261 262 263
f 261 263 264
f 265 267 266
f 265 268 267
f 261 265 266
f 261 266 262
f 264 263 267
f 264 267 268
f 261 264 268
f 261 268 265
f 262 266 267
f 262 267 263
f 269 270 271
f 269 271 272
f 273 275 274
f 273 276 275
f 269 273 274
f 269 274 270
f 272 271 275
f 272 275 276
f 269 272 276
f 269 276 273
f 270 274 275
f 270 275 271
f 277 278 279
f 277 279 280
f 281 283 282
f 281 284 283
f 277 281 282
f 277 282 278
f 280 279 283
f 280 283 284
f 277 280 284
f 277 284 281
f 278 282 283
f 278 283 279
f 285 286 287
f 285 287 288
f 289 291 290
f 289 292 291
f 285 289 290
f 285 290 286
f 288 287 291
f 288 291 292
f 285 288 292
f 285 292 289
f 286 290 291
f 286 291 287
f 293 294 295
f 293 295 296
f 297 299 298
f 297 300 299
f 293 297 298
f 293 298 294
f 296 295 299
f 296 299 300
f 293 296 300
f 293 300 297
f 294 298 299
f 294 299 295
f 301 302 303
f 301 303 304
f 305 307 306
f 305 308 307
f 301 305 306
f 301 306 302
f 304 303 307
f 304 307 308
f 301 304 308
f 301 308 305
f 302 306 307
f 302 307 303
f 309 310 311
f 309 311 312
f 313 315 314
f 313 316 315
f 309 313 314
f 309 314 310
f 312 311 315
f 312 315 316
f 309 312 316
f 309 316 313
f 310 314 315
f 310 315 311
f 317 318 319
f 317 319 320
f 321 323 322
f 321 324 323
f 317 321 322
f 317 322 318
f 320 319 323
f 320 323 324
f 317 320 324
f 317 324 321
f 318 322 323
f 318 323 319
