# Procedural Gothic detail pass: WardSeal
# OBJ polygon mesh for importer stress testing
o WardSeal
v 1.05000 -0.12000 0.00000
v 1.05000 0.12000 0.00000
v 1.04102 -0.12000 0.13705
v 1.04102 0.12000 0.13705
v 1.01422 -0.12000 0.27176
v 1.01422 0.12000 0.27176
v 0.97007 -0.12000 0.40182
v 0.97007 0.12000 0.40182
v 0.90933 -0.12000 0.52500
v 0.90933 0.12000 0.52500
v 0.83302 -0.12000 0.63920
v 0.83302 0.12000 0.63920
v 0.74246 -0.12000 0.74246
v 0.74246 0.12000 0.74246
v 0.63920 -0.12000 0.83302
v 0.63920 0.12000 0.83302
v 0.52500 -0.12000 0.90933
v 0.52500 0.12000 0.90933
v 0.40182 -0.12000 0.97007
v 0.40182 0.12000 0.97007
v 0.27176 -0.12000 1.01422
v 0.27176 0.12000 1.01422
v 0.13705 -0.12000 1.04102
v 0.13705 0.12000 1.04102
v 0.00000 -0.12000 1.05000
v 0.00000 0.12000 1.05000
v -0.13705 -0.12000 1.04102
v -0.13705 0.12000 1.04102
v -0.27176 -0.12000 1.01422
v -0.27176 0.12000 1.01422
v -0.40182 -0.12000 0.97007
v -0.40182 0.12000 0.97007
v -0.52500 -0.12000 0.90933
v -0.52500 0.12000 0.90933
v -0.63920 -0.12000 0.83302
v -0.63920 0.12000 0.83302
v -0.74246 -0.12000 0.74246
v -0.74246 0.12000 0.74246
v -0.83302 -0.12000 0.63920
v -0.83302 0.12000 0.63920
v -0.90933 -0.12000 0.52500
v -0.90933 0.12000 0.52500
v -0.97007 -0.12000 0.40182
v -0.97007 0.12000 0.40182
v -1.01422 -0.12000 0.27176
v -1.01422 0.12000 0.27176
v -1.04102 -0.12000 0.13705
v -1.04102 0.12000 0.13705
v -1.05000 -0.12000 0.00000
v -1.05000 0.12000 0.00000
v -1.04102 -0.12000 -0.13705
v -1.04102 0.12000 -0.13705
v -1.01422 -0.12000 -0.27176
v -1.01422 0.12000 -0.27176
v -0.97007 -0.12000 -0.40182
v -0.97007 0.12000 -0.40182
v -0.90933 -0.12000 -0.52500
v -0.90933 0.12000 -0.52500
v -0.83302 -0.12000 -0.63920
v -0.83302 0.12000 -0.63920
v -0.74246 -0.12000 -0.74246
v -0.74246 0.12000 -0.74246
v -0.63920 -0.12000 -0.83302
v -0.63920 0.12000 -0.83302
v -0.52500 -0.12000 -0.90933
v -0.52500 0.12000 -0.90933
v -0.40182 -0.12000 -0.97007
v -0.40182 0.12000 -0.97007
v -0.27176 -0.12000 -1.01422
v -0.27176 0.12000 -1.01422
v -0.13705 -0.12000 -1.04102
v -0.13705 0.12000 -1.04102
v -0.00000 -0.12000 -1.05000
v -0.00000 0.12000 -1.05000
v 0.13705 -0.12000 -1.04102
v 0.13705 0.12000 -1.04102
v 0.27176 -0.12000 -1.01422
v 0.27176 0.12000 -1.01422
v 0.40182 -0.12000 -0.97007
v 0.40182 0.12000 -0.97007
v 0.52500 -0.12000 -0.90933
v 0.52500 0.12000 -0.90933
v 0.63920 -0.12000 -0.83302
v 0.63920 0.12000 -0.83302
v 0.74246 -0.12000 -0.74246
v 0.74246 0.12000 -0.74246
v 0.83302 -0.12000 -0.63920
v 0.83302 0.12000 -0.63920
v 0.90933 -0.12000 -0.52500
v 0.90933 0.12000 -0.52500
v 0.97007 -0.12000 -0.40182
v 0.97007 0.12000 -0.40182
v 1.01422 -0.12000 -0.27176
v 1.01422 0.12000 -0.27176
v 1.04102 -0.12000 -0.13705
v 1.04102 0.12000 -0.13705
v 0.00000 -0.12000 0.00000
v 0.00000 0.12000 0.00000
v 0.78000 0.12000 0.00000
v 0.78000 0.24000 0.00000
v 0.77333 0.12000 0.10181
v 0.77333 0.24000 0.10181
v 0.75342 0.12000 0.20188
v 0.75342 0.24000 0.20188
v 0.72063 0.12000 0.29849
v 0.72063 0.24000 0.29849
v 0.67550 0.12000 0.39000
v 0.67550 0.24000 0.39000
v 0.61882 0.12000 0.47483
v 0.61882 0.24000 0.47483
v 0.55154 0.12000 0.55154
v 0.55154 0.24000 0.55154
v 0.47483 0.12000 0.61882
v 0.47483 0.24000 0.61882
v 0.39000 0.12000 0.67550
v 0.39000 0.24000 0.67550
v 0.29849 0.12000 0.72063
v 0.29849 0.24000 0.72063
v 0.20188 0.12000 0.75342
v 0.20188 0.24000 0.75342
v 0.10181 0.12000 0.77333
v 0.10181 0.24000 0.77333
v 0.00000 0.12000 0.78000
v 0.00000 0.24000 0.78000
v -0.10181 0.12000 0.77333
v -0.10181 0.24000 0.77333
v -0.20188 0.12000 0.75342
v -0.20188 0.24000 0.75342
v -0.29849 0.12000 0.72063
v -0.29849 0.24000 0.72063
v -0.39000 0.12000 0.67550
v -0.39000 0.24000 0.67550
v -0.47483 0.12000 0.61882
v -0.47483 0.24000 0.61882
v -0.55154 0.12000 0.55154
v -0.55154 0.24000 0.55154
v -0.61882 0.12000 0.47483
v -0.61882 0.24000 0.47483
v -0.67550 0.12000 0.39000
v -0.67550 0.24000 0.39000
v -0.72063 0.12000 0.29849
v -0.72063 0.24000 0.29849
v -0.75342 0.12000 0.20188
v -0.75342 0.24000 0.20188
v -0.77333 0.12000 0.10181
v -0.77333 0.24000 0.10181
v -0.78000 0.12000 0.00000
v -0.78000 0.24000 0.00000
v -0.77333 0.12000 -0.10181
v -0.77333 0.24000 -0.10181
v -0.75342 0.12000 -0.20188
v -0.75342 0.24000 -0.20188
v -0.72063 0.12000 -0.29849
v -0.72063 0.24000 -0.29849
v -0.67550 0.12000 -0.39000
v -0.67550 0.24000 -0.39000
v -0.61882 0.12000 -0.47483
v -0.61882 0.24000 -0.47483
v -0.55154 0.12000 -0.55154
v -0.55154 0.24000 -0.55154
v -0.47483 0.12000 -0.61882
v -0.47483 0.24000 -0.61882
v -0.39000 0.12000 -0.67550
v -0.39000 0.24000 -0.67550
v -0.29849 0.12000 -0.72063
v -0.29849 0.24000 -0.72063
v -0.20188 0.12000 -0.75342
v -0.20188 0.24000 -0.75342
v -0.10181 0.12000 -0.77333
v -0.10181 0.24000 -0.77333
v -0.00000 0.12000 -0.78000
v -0.00000 0.24000 -0.78000
v 0.10181 0.12000 -0.77333
v 0.10181 0.24000 -0.77333
v 0.20188 0.12000 -0.75342
v 0.20188 0.24000 -0.75342
v 0.29849 0.12000 -0.72063
v 0.29849 0.24000 -0.72063
v 0.39000 0.12000 -0.67550
v 0.39000 0.24000 -0.67550
v 0.47483 0.12000 -0.61882
v 0.47483 0.24000 -0.61882
v 0.55154 0.12000 -0.55154
v 0.55154 0.24000 -0.55154
v 0.61882 0.12000 -0.47483
v 0.61882 0.24000 -0.47483
v 0.67550 0.12000 -0.39000
v 0.67550 0.24000 -0.39000
v 0.72063 0.12000 -0.29849
v 0.72063 0.24000 -0.29849
v 0.75342 0.12000 -0.20188
v 0.75342 0.24000 -0.20188
v 0.77333 0.12000 -0.10181
v 0.77333 0.24000 -0.10181
v 0.00000 0.12000 0.00000
v 0.00000 0.24000 0.00000
v 0.52000 0.19000 -0.27500
v 0.64000 0.19000 -0.27500
v 0.64000 0.37000 -0.27500
v 0.52000 0.37000 -0.27500
v 0.52000 0.19000 0.27500
v 0.64000 0.19000 0.27500
v 0.64000 0.37000 0.27500
v 0.52000 0.37000 0.27500
v 0.35012 0.19000 0.13512
v 0.47012 0.19000 0.13512
v 0.47012 0.37000 0.13512
v 0.35012 0.37000 0.13512
v 0.35012 0.19000 0.68512
v 0.47012 0.19000 0.68512
v 0.47012 0.37000 0.68512
v 0.35012 0.37000 0.68512
v -0.06000 0.19000 0.30500
v 0.06000 0.19000 0.30500
v 0.06000 0.37000 0.30500
v -0.06000 0.37000 0.30500
v -0.06000 0.19000 0.85500
v 0.06000 0.19000 0.85500
v 0.06000 0.37000 0.85500
v -0.06000 0.37000 0.85500
v -0.47012 0.19000 0.13512
v -0.35012 0.19000 0.13512
v -0.35012 0.37000 0.13512
v -0.47012 0.37000 0.13512
v -0.47012 0.19000 0.68512
v -0.35012 0.19000 0.68512
v -0.35012 0.37000 0.68512
v -0.47012 0.37000 0.68512
v -0.64000 0.19000 -0.27500
v -0.52000 0.19000 -0.27500
v -0.52000 0.37000 -0.27500
v -0.64000 0.37000 -0.27500
v -0.64000 0.19000 0.27500
v -0.52000 0.19000 0.27500
v -0.52000 0.37000 0.27500
v -0.64000 0.37000 0.27500
v -0.47012 0.19000 -0.68512
v -0.35012 0.19000 -0.68512
v -0.35012 0.37000 -0.68512
v -0.47012 0.37000 -0.68512
v -0.47012 0.19000 -0.13512
v -0.35012 0.19000 -0.13512
v -0.35012 0.37000 -0.13512
v -0.47012 0.37000 -0.13512
v -0.06000 0.19000 -0.85500
v 0.06000 0.19000 -0.85500
v 0.06000 0.37000 -0.85500
v -0.06000 0.37000 -0.85500
v -0.06000 0.19000 -0.30500
v 0.06000 0.19000 -0.30500
v 0.06000 0.37000 -0.30500
v -0.06000 0.37000 -0.30500
v 0.35012 0.19000 -0.68512
v 0.47012 0.19000 -0.68512
v 0.47012 0.37000 -0.68512
v 0.35012 0.37000 -0.68512
v 0.35012 0.19000 -0.13512
v 0.47012 0.19000 -0.13512
v 0.47012 0.37000 -0.13512
v 0.35012 0.37000 -0.13512
v 0.18000 0.24000 0.00000
v 0.18000 0.42000 0.00000
v 0.17387 0.24000 0.04659
v 0.17387 0.42000 0.04659
v 0.15588 0.24000 0.09000
v 0.15588 0.42000 0.09000
v 0.12728 0.24000 0.12728
v 0.12728 0.42000 0.12728
v 0.09000 0.24000 0.15588
v 0.09000 0.42000 0.15588
v 0.04659 0.24000 0.17387
v 0.04659 0.42000 0.17387
v 0.00000 0.24000 0.18000
v 0.00000 0.42000 0.18000
v -0.04659 0.24000 0.17387
v -0.04659 0.42000 0.17387
v -0.09000 0.24000 0.15588
v -0.09000 0.42000 0.15588
v -0.12728 0.24000 0.12728
v -0.12728 0.42000 0.12728
v -0.15588 0.24000 0.09000
v -0.15588 0.42000 0.09000
v -0.17387 0.24000 0.04659
v -0.17387 0.42000 0.04659
v -0.18000 0.24000 0.00000
v -0.18000 0.42000 0.00000
v -0.17387 0.24000 -0.04659
v -0.17387 0.42000 -0.04659
v -0.15588 0.24000 -0.09000
v -0.15588 0.42000 -0.09000
v -0.12728 0.24000 -0.12728
v -0.12728 0.42000 -0.12728
v -0.09000 0.24000 -0.15588
v -0.09000 0.42000 -0.15588
v -0.04659 0.24000 -0.17387
v -0.04659 0.42000 -0.17387
v -0.00000 0.24000 -0.18000
v -0.00000 0.42000 -0.18000
v 0.04659 0.24000 -0.17387
v 0.04659 0.42000 -0.17387
v 0.09000 0.24000 -0.15588
v 0.09000 0.42000 -0.15588
v 0.12728 0.24000 -0.12728
v 0.12728 0.42000 -0.12728
v 0.15588 0.24000 -0.09000
v 0.15588 0.42000 -0.09000
v 0.17387 0.24000 -0.04659
v 0.17387 0.42000 -0.04659
v 0.00000 0.24000 0.00000
v 0.00000 0.42000 0.00000
f 1 3 4
f 1 4 2
f 97 3 1
f 98 2 4
f 3 5 6
f 3 6 4
f 97 5 3
f 98 4 6
f 5 7 8
f 5 8 6
f 97 7 5
f 98 6 8
f 7 9 10
f 7 10 8
f 97 9 7
f 98 8 10
f 9 11 12
f 9 12 10
f 97 11 9
f 98 10 12
f 11 13 14
f 11 14 12
f 97 13 11
f 98 12 14
f 13 15 16
f 13 16 14
f 97 15 13
f 98 14 16
f 15 17 18
f 15 18 16
f 97 17 15
f 98 16 18
f 17 19 20
f 17 20 18
f 97 19 17
f 98 18 20
f 19 21 22
f 19 22 20
f 97 21 19
f 98 20 22
f 21 23 24
f 21 24 22
f 97 23 21
f 98 22 24
f 23 25 26
f 23 26 24
f 97 25 23
f 98 24 26
f 25 27 28
f 25 28 26
f 97 27 25
f 98 26 28
f 27 29 30
f 27 30 28
f 97 29 27
f 98 28 30
f 29 31 32
f 29 32 30
f 97 31 29
f 98 30 32
f 31 33 34
f 31 34 32
f 97 33 31
f 98 32 34
f 33 35 36
f 33 36 34
f 97 35 33
f 98 34 36
f 35 37 38
f 35 38 36
f 97 37 35
f 98 36 38
f 37 39 40
f 37 40 38
f 97 39 37
f 98 38 40
f 39 41 42
f 39 42 40
f 97 41 39
f 98 40 42
f 41 43 44
f 41 44 42
f 97 43 41
f 98 42 44
f 43 45 46
f 43 46 44
f 97 45 43
f 98 44 46
f 45 47 48
f 45 48 46
f 97 47 45
f 98 46 48
f 47 49 50
f 47 50 48
f 97 49 47
f 98 48 50
f 49 51 52
f 49 52 50
f 97 51 49
f 98 50 52
f 51 53 54
f 51 54 52
f 97 53 51
f 98 52 54
f 53 55 56
f 53 56 54
f 97 55 53
f 98 54 56
f 55 57 58
f 55 58 56
f 97 57 55
f 98 56 58
f 57 59 60
f 57 60 58
f 97 59 57
f 98 58 60
f 59 61 62
f 59 62 60
f 97 61 59
f 98 60 62
f 61 63 64
f 61 64 62
f 97 63 61
f 98 62 64
f 63 65 66
f 63 66 64
f 97 65 63
f 98 64 66
f 65 67 68
f 65 68 66
f 97 67 65
f 98 66 68
f 67 69 70
f 67 70 68
f 97 69 67
f 98 68 70
f 69 71 72
f 69 72 70
f 97 71 69
f 98 70 72
f 71 73 74
f 71 74 72
f 97 73 71
f 98 72 74
f 73 75 76
f 73 76 74
f 97 75 73
f 98 74 76
f 75 77 78
f 75 78 76
f 97 77 75
f 98 76 78
f 77 79 80
f 77 80 78
f 97 79 77
f 98 78 80
f 79 81 82
f 79 82 80
f 97 81 79
f 98 80 82
f 81 83 84
f 81 84 82
f 97 83 81
f 98 82 84
f 83 85 86
f 83 86 84
f 97 85 83
f 98 84 86
f 85 87 88
f 85 88 86
f 97 87 85
f 98 86 88
f 87 89 90
f 87 90 88
f 97 89 87
f 98 88 90
f 89 91 92
f 89 92 90
f 97 91 89
f 98 90 92
f 91 93 94
f 91 94 92
f 97 93 91
f 98 92 94
f 93 95 96
f 93 96 94
f 97 95 93
f 98 94 96
f 95 1 2
f 95 2 96
f 97 1 95
f 98 96 2
f 99 101 102
f 99 102 100
f 195 101 99
f 196 100 102
f 101 103 104
f 101 104 102
f 195 103 101
f 196 102 104
f 103 105 106
f 103 106 104
f 195 105 103
f 196 104 106
f 105 107 108
f 105 108 106
f 195 107 105
f 196 106 108
f 107 109 110
f 107 110 108
f 195 109 107
f 196 108 110
f 109 111 112
f 109 112 110
f 195 111 109
f 196 110 112
f 111 113 114
f 111 114 112
f 195 113 111
f 196 112 114
f 113 115 116
f 113 116 114
f 195 115 113
f 196 114 116
f 115 117 118
f 115 118 116
f 195 117 115
f 196 116 118
f 117 119 120
f 117 120 118
f 195 119 117
f 196 118 120
f 119 121 122
f 119 122 120
f 195 121 119
f 196 120 122
f 121 123 124
f 121 124 122
f 195 123 121
f 196 122 124
f 123 125 126
f 123 126 124
f 195 125 123
f 196 124 126
f 125 127 128
f 125 128 126
f 195 127 125
f 196 126 128
f 127 129 130
f 127 130 128
f 195 129 127
f 196 128 130
f 129 131 132
f 129 132 130
f 195 131 129
f 196 130 132
f 131 133 134
f 131 134 132
f 195 133 131
f 196 132 134
f 133 135 136
f 133 136 134
f 195 135 133
f 196 134 136
f 135 137 138
f 135 138 136
f 195 137 135
f 196 136 138
f 137 139 140
f 137 140 138
f 195 139 137
f 196 138 140
f 139 141 142
f 139 142 140
f 195 141 139
f 196 140 142
f 141 143 144
f 141 144 142
f 195 143 141
f 196 142 144
f 143 145 146
f 143 146 144
f 195 145 143
f 196 144 146
f 145 147 148
f 145 148 146
f 195 147 145
f 196 146 148
f 147 149 150
f 147 150 148
f 195 149 147
f 196 148 150
f 149 151 152
f 149 152 150
f 195 151 149
f 196 150 152
f 151 153 154
f 151 154 152
f 195 153 151
f 196 152 154
f 153 155 156
f 153 156 154
f 195 155 153
f 196 154 156
f 155 157 158
f 155 158 156
f 195 157 155
f 196 156 158
f 157 159 160
f 157 160 158
f 195 159 157
f 196 158 160
f 159 161 162
f 159 162 160
f 195 161 159
f 196 160 162
f 161 163 164
f 161 164 162
f 195 163 161
f 196 162 164
f 163 165 166
f 163 166 164
f 195 165 163
f 196 164 166
f 165 167 168
f 165 168 166
f 195 167 165
f 196 166 168
f 167 169 170
f 167 170 168
f 195 169 167
f 196 168 170
f 169 171 172
f 169 172 170
f 195 171 169
f 196 170 172
f 171 173 174
f 171 174 172
f 195 173 171
f 196 172 174
f 173 175 176
f 173 176 174
f 195 175 173
f 196 174 176
f 175 177 178
f 175 178 176
f 195 177 175
f 196 176 178
f 177 179 180
f 177 180 178
f 195 179 177
f 196 178 180
f 179 181 182
f 179 182 180
f 195 181 179
f 196 180 182
f 181 183 184
f 181 184 182
f 195 183 181
f 196 182 184
f 183 185 186
f 183 186 184
f 195 185 183
f 196 184 186
f 185 187 188
f 185 188 186
f 195 187 185
f 196 186 188
f 187 189 190
f 187 190 188
f 195 189 187
f 196 188 190
f 189 191 192
f 189 192 190
f 195 191 189
f 196 190 192
f 191 193 194
f 191 194 192
f 195 193 191
f 196 192 194
f 193 99 100
f 193 100 194
f 195 99 193
f 196 194 100
f 197 198 199
f 197 199 200
f 201 203 202
f 201 204 203
f 197 201 202
f 197 202 198
f 200 199 203
f 200 203 204
f 197 200 204
f 197 204 201
f 198 202 203
f 198 203 199
f 205 206 207
f 205 207 208
f 209 211 210
f 209 212 211
f 205 209 210
f 205 210 206
f 208 207 211
f 208 211 212
f 205 208 212
f 205 212 209
f 206 210 211
f 206 211 207
f 213 214 215
f 213 215 216
f 217 219 218
f 217 220 219
f 213 217 218
f 213 218 214
f 216 215 219
f 216 219 220
f 213 216 220
f 213 220 217
f 214 218 219
f 214 219 215
f 221 222 223
f 221 223 224
f 225 227 226
f 225 228 227
f 221 225 226
f 221 226 222
f 224 223 227
f 224 227 228
f 221 224 228
f 221 228 225
f 222 226 227
f 222 227 223
f 229 230 231
f 229 231 232
f 233 235 234
f 233 236 235
f 229 233 234
f 229 234 230
f 232 231 235
f 232 235 236
f 229 232 236
f 229 236 233
f 230 234 235
f 230 235 231
f 237 238 239
f 237 239 240
f 241 243 242
f 241 244 243
f 237 241 242
f 237 242 238
f 240 239 243
f 240 243 244
f 237 240 244
f 237 244 241
f 238 242 243
f 238 243 239
f 245 246 247
f 245 247 248
f 249 251 250
f 249 252 251
f 245 249 250
f 245 250 246
f 248 247 251
f 248 251 252
f 245 248 252
f 245 252 249
f 246 250 251
f 246 251 247
f 253 254 255
f 253 255 256
f 257 259 258
f 257 260 259
f 253 257 258
f 253 258 254
f 256 255 259
f 256 259 260
f 253 256 260
f 253 260 257
f 254 258 259
f 254 259 255
f 261 263 264
f 261 264 262
f 309 263 261
f 310 262 264
f 263 265 266
f 263 266 264
f 309 265 263
f 310 264 266
f 265 267 268
f 265 268 266
f 309 267 265
f 310 266 268
f 267 269 270
f 267 270 268
f 309 269 267
f 310 268 270
f 269 271 272
f 269 272 270
f 309 271 269
f 310 270 272
f 271 273 274
f 271 274 272
f 309 273 271
f 310 272 274
f 273 275 276
f 273 276 274
f 309 275 273
f 310 274 276
f 275 277 278
f 275 278 276
f 309 277 275
f 310 276 278
f 277 279 280
f 277 280 278
f 309 279 277
f 310 278 280
f 279 281 282
f 279 282 280
f 309 281 279
f 310 280 282
f 281 283 284
f 281 284 282
f 309 283 281
f 310 282 284
f 283 285 286
f 283 286 284
f 309 285 283
f 310 284 286
f 285 287 288
f 285 288 286
f 309 287 285
f 310 286 288
f 287 289 290
f 287 290 288
f 309 289 287
f 310 288 290
f 289 291 292
f 289 292 290
f 309 291 289
f 310 290 292
f 291 293 294
f 291 294 292
f 309 293 291
f 310 292 294
f 293 295 296
f 293 296 294
f 309 295 293
f 310 294 296
f 295 297 298
f 295 298 296
f 309 297 295
f 310 296 298
f 297 299 300
f 297 300 298
f 309 299 297
f 310 298 300
f 299 301 302
f 299 302 300
f 309 301 299
f 310 300 302
f 301 303 304
f 301 304 302
f 309 303 301
f 310 302 304
f 303 305 306
f 303 306 304
f 309 305 303
f 310 304 306
f 305 307 308
f 305 308 306
f 309 307 305
f 310 306 308
f 307 261 262
f 307 262 308
f 309 261 307
f 310 308 262
