# Ground/viewmodel mesh derived from user-provided AssaultRifle_3.obj
v 1.7932 0.8612 -0.0523
v 1.7932 0.7931 -0.0837
v 1.7932 0.8413 -0.0745
v 1.7932 0.7931 0.0837
v 1.7932 0.8612 0.0523
v 1.7932 0.8413 0.0745
v 2.4899 0.7738 0.0837
v 2.4899 0.8219 0.0745
v 2.4899 0.7738 -0.0837
v 2.4899 0.8219 -0.0745
v 2.4899 0.7642 0.0837
v 2.4899 0.7642 -0.0837
v 1.3292 0.6097 -0.0980
v 1.3292 0.6097 0.0980
v 1.3292 0.7196 -0.0980
v 1.3292 0.7196 0.0980
v -0.1362 0.6097 0.0980
v -0.1838 0.6097 0.0745
v -0.1838 0.6097 -0.0745
v -0.1362 0.6097 -0.0980
v -0.0049 0.7861 -0.0715
v 0.0066 0.8294 -0.0480
v -0.0049 0.7861 0.0715
v 0.0066 0.8294 0.0480
v -0.1433 0.7196 -0.0745
v -0.0958 0.7196 -0.0980
v -0.0958 0.7196 0.0980
v -0.1433 0.7196 0.0745
v -0.1097 0.7442 -0.0480
v -0.1097 0.7442 0.0480
v 3.1565 0.5913 0.0613
v 3.1565 0.5913 -0.0613
v 3.1570 0.8728 -0.0299
v 3.1570 0.8728 0.0299
v 3.0700 0.8728 0.0299
v 3.0700 0.8728 -0.0299
v -0.1764 0.6313 -0.0784
v -0.1764 0.6313 0.0784
v -0.1602 0.3454 0.0784
v -0.1602 0.3454 -0.0784
v 3.2474 0.5913 -0.0516
v 3.2474 0.5610 -0.0417
v 3.2474 0.5422 -0.0159
v 3.2474 0.5422 0.0159
v 3.2474 0.5610 0.0417
v 3.2474 0.5913 0.0516
v 3.2474 0.6216 0.0417
v 3.2474 0.6403 0.0159
v 3.2474 0.6403 -0.0159
v 3.2474 0.6216 -0.0417
v 1.3848 -0.7285 0.0674
v 1.3848 -0.7285 -0.0674
v -0.1782 -0.1098 0.0453
v -0.1400 -0.1217 0.0648
v -0.1400 -0.1217 -0.0648
v -0.1782 -0.1098 -0.0453
v -0.1482 -0.1916 0.0453
v -0.0931 -0.2433 0.0453
v -0.1138 -0.1931 0.0648
v -0.1482 -0.1916 -0.0453
v -0.1138 -0.1931 -0.0648
v -0.0931 -0.2433 -0.0453
v 2.4896 0.4850 -0.0837
v 2.4896 0.4850 0.0837
f 52 20 13
f 61 20 52
f 17 59 51
f 63 52 13
f 51 59 58
f 58 52 51
f 14 17 51
f 64 14 51
f 39 17 18
f 18 53 39
f 41 52 32
f 52 63 32
f 61 52 62
f 52 58 62
f 59 53 57
f 57 58 59
f 51 46 31
f 31 64 51
f 31 34 7
f 46 34 31
f 14 64 11
f 11 31 7
f 64 31 11
f 42 52 41
f 42 43 52
f 45 46 51
f 41 32 33
f 26 25 22
f 55 20 61
f 61 56 55
f 54 53 59
f 54 39 53
f 59 17 54
f 17 39 54
f 10 33 9
f 9 33 32
f 60 56 61
f 61 62 60
f 60 62 58
f 58 57 60
f 44 45 51
f 47 34 46
f 47 48 34
f 41 33 50
f 22 25 29
f 12 32 63
f 12 9 32
f 12 63 13
f 49 50 33
f 2 9 15
f 22 1 3
f 15 26 3
f 3 2 15
f 3 33 10
f 3 1 33
f 33 1 36
f 37 26 20
f 25 26 37
f 20 19 37
f 20 55 40
f 40 19 20
f 56 19 40
f 40 55 56
f 18 17 38
f 17 27 38
f 21 26 22
f 22 3 21
f 21 3 26
f 35 5 34
f 7 34 8
f 6 5 24
f 27 16 6
f 34 5 6
f 6 8 34
f 28 38 27
f 24 30 28
f 28 27 24
f 24 27 23
f 23 6 24
f 27 6 23
f 4 16 7
f 4 6 16
f 26 15 13
f 13 20 26
f 60 57 53
f 53 56 60
f 51 52 44
f 52 43 44
f 19 56 53
f 19 53 18
f 13 15 12
f 15 9 12
f 49 42 41
f 46 45 49
f 43 42 49
f 49 47 46
f 49 44 43
f 45 44 49
f 48 47 49
f 41 50 49
f 34 48 49
f 49 33 34
f 9 2 3
f 10 9 3
f 5 1 22
f 22 24 5
f 38 19 18
f 38 37 19
f 14 11 16
f 16 11 7
f 17 14 16
f 16 27 17
f 30 24 22
f 22 29 30
f 34 33 35
f 33 36 35
f 1 5 35
f 35 36 1
f 37 38 28
f 25 37 28
f 28 30 29
f 28 29 25
f 8 6 4
f 7 8 4
